<?xml version="1.0" encoding="utf-8"?>
<!-- Generator: Adobe Illustrator 17.0.0, SVG Export Plug-In . SVG Version: 6.00 Build 0)  -->
<!DOCTYPE svg PUBLIC "-//W3C//DTD SVG 1.1//EN" "http://www.w3.org/Graphics/SVG/1.1/DTD/svg11.dtd">
<svg version="1.1" id="Layer_1" xmlns="http://www.w3.org/2000/svg" xmlns:xlink="http://www.w3.org/1999/xlink" x="0px" y="0px"
	 width="340.161px" height="389.555px" viewBox="0 0 340.161 389.555" enable-background="new 0 0 340.161 389.555"
	 xml:space="preserve">
<path fill="none" stroke="#BCBDC0" stroke-width="12.294" stroke-linecap="round" stroke-linejoin="round" stroke-miterlimit="22.926" d="
	M279.41,6.153c-0.308,31.134-13.118,73.961-34.838,95.254c-29.264,28.689-59.169,27.455-74.441,11.877
	c-15.271-15.578-15.912-45.501,13.353-74.19C205.203,17.801,248.276,5.843,279.41,6.153z"/>
<line fill="none" stroke="#BCBDC0" stroke-width="9.221" stroke-linecap="round" stroke-linejoin="round" stroke-miterlimit="22.926" x1="170.132" y1="113.284" x2="242.849" y2="41.996"/>
<line fill="none" stroke="#BCBDC0" stroke-width="9.221" stroke-linecap="round" stroke-linejoin="round" stroke-miterlimit="22.926" x1="224.77" y1="59.719" x2="246.529" y2="59.935"/>
<line fill="none" stroke="#BCBDC0" stroke-width="9.221" stroke-linecap="round" stroke-linejoin="round" stroke-miterlimit="22.926" x1="204.291" y1="79.795" x2="204.587" y2="50.101"/>
<path fill="none" stroke="#BCBDC0" stroke-width="8.66" stroke-linecap="round" stroke-linejoin="round" stroke-miterlimit="22.926" d="
	M42.446,131.721c11.7,18.549,35.219,39.484,56.115,44.215c28.153,6.374,45.624-5.426,49.017-20.413
	c3.393-14.986-7.291-33.161-35.445-39.535C91.238,111.257,60.995,120.02,42.446,131.721z"/>
<line fill="none" stroke="#BCBDC0" stroke-width="6.495" stroke-linecap="round" stroke-linejoin="round" stroke-miterlimit="22.926" x1="147.578" y1="155.523" x2="77.621" y2="139.684"/>
<line fill="none" stroke="#BCBDC0" stroke-width="6.495" stroke-linecap="round" stroke-linejoin="round" stroke-miterlimit="22.926" x1="95.013" y1="143.622" x2="82.049" y2="151.799"/>
<line fill="none" stroke="#BCBDC0" stroke-width="6.495" stroke-linecap="round" stroke-linejoin="round" stroke-miterlimit="22.926" x1="114.714" y1="148.083" x2="103.554" y2="130.392"/>
<path fill-rule="evenodd" clip-rule="evenodd" fill="#BCBDC0" d="M315.732,218.568c1.582,0.131,2.839,1.386,2.982,2.957l0.008-0.001
	l0.172,1.839c0.168,1.804-1.158,3.401-2.961,3.57l-4.975,0.464c-0.738,0.068-1.442-0.113-2.028-0.476
	c-1.318,0.781-2.723,1.263-4.211,1.401c-1.236,0.115-2.393-0.033-3.433-0.408c-0.434,0.286-0.943,0.472-1.496,0.524l-8.008,0.746
	c-0.294,0.027-0.582,0.016-0.859-0.032c-0.263,0.098-0.544,0.163-0.836,0.191l-5.352,0.499c-1.096,0.101-2.116-0.348-2.786-1.122
	c-0.515,0.885-1.434,1.515-2.531,1.617l-8.179,0.763c-0.715,0.066-1.397-0.101-1.971-0.442c-1.379,0.614-3.304,1.277-5.737,1.504
	c-2.802,0.261-5.091-0.354-6.906-1.66l0.058,0.207c0.411,1.462-0.241,2.973-1.495,3.706c-1.697,1.148-3.298,2.106-4.801,2.871
	c-1.646,0.838-3.199,1.466-4.66,1.88c-2.677,0.761-5.221,1.099-7.627,1.013c-2.517-0.091-4.857-0.636-7.02-1.635l-0.092-0.044
	c-1.904-0.879-3.557-2.054-4.961-3.524c-0.414,0.254-0.892,0.422-1.41,0.471l-5.351,0.497c-1.096,0.103-2.116-0.347-2.785-1.12
	c-0.515,0.884-1.435,1.515-2.531,1.617l-8.18,0.762c-0.166,0.016-0.33,0.018-0.492,0.01c-0.157,0.038-0.319,0.066-0.485,0.082
	l-8.009,0.746c-1.802,0.169-3.401-1.157-3.569-2.961l-0.172-1.839c-0.148-1.597,0.873-3.032,2.361-3.456l-0.591-6.337
	c-1.567-0.146-2.808-1.395-2.951-2.954l-0.007,0.001l-0.165-1.773c-0.14-1.501,0.756-2.861,2.101-3.37
	c-0.219-0.497-0.364-1.038-0.417-1.607c-0.132-1.409,0.325-2.745,1.168-3.763l0.012-0.014c0.843-1.016,2.072-1.712,3.482-1.843
	c1.418-0.132,2.759,0.324,3.774,1.166c0.103,0.086,0.199,0.175,0.289,0.27c0.859,0.828,1.437,1.952,1.556,3.225
	c0.05,0.528,0.017,1.044-0.086,1.536l0.068-0.006l5.009-0.467c0.654-0.061,1.282,0.074,1.824,0.358
	c1.081-0.618,2.426-1.098,4.143-1.258c2.685-0.25,4.728,0.41,6.241,1.588c0.57,0.444,1.047,0.948,1.44,1.494
	c0.248-0.636,0.532-1.274,0.851-1.913c0.03-0.058,0.06-0.115,0.092-0.171c0.238-0.462,0.49-0.909,0.755-1.339l-7.57-8.449
	l0.003-0.002c-0.983-1.094-1.13-2.758-0.262-4.025c1.019-1.487,3.051-1.867,4.539-0.848l8.201,5.638l-2.236-10.658
	c-0.329-1.459,0.38-3.004,1.787-3.674c1.634-0.776,3.587-0.083,4.365,1.549l4.284,8.981l3.399-10.388
	c0.556-1.714,2.399-2.651,4.113-2.095c1.462,0.477,2.359,1.886,2.246,3.353l0.009,0.001l-0.906,11.526
	c0.494,0.091,0.948,0.23,1.364,0.418c1.155,0.519,1.961,1.338,2.421,2.458c0.062,0.147,0.11,0.296,0.149,0.446l1.611,5.668
	c0.446,1.587-0.36,3.231-1.827,3.876l0.005,0.049l3.121-0.887c0.355-1.017,0.841-1.961,1.456-2.809
	c1.7-2.342,4.272-3.882,7.683-4.199c2.049-0.191,3.733,0.038,5.128,0.638c0.522-0.531,1.229-0.889,2.03-0.963l5.01-0.467
	c0.655-0.061,1.282,0.075,1.824,0.358c1.08-0.619,2.426-1.097,4.142-1.257c2.686-0.25,4.729,0.408,6.243,1.588
	c0.153,0.118,0.298,0.242,0.437,0.369c0.249-1.051,1.011-1.922,2.027-2.308c-0.219-0.497-0.364-1.036-0.417-1.607
	c-0.131-1.41,0.326-2.745,1.168-3.762l0.012-0.014c0.844-1.017,2.072-1.712,3.481-1.844c1.42-0.132,2.76,0.324,3.776,1.167
	c0.102,0.086,0.199,0.175,0.288,0.269c0.859,0.829,1.438,1.953,1.556,3.226c0.088,0.94-0.083,1.845-0.453,2.645l0.047-0.018
	c1.27-0.592,2.25-1.016,3.2-1.326c1.133-0.37,2.148-0.577,3.358-0.69c2.386-0.223,4.831,0.133,6.761,1.317
	c1.932,1.185,3.267,3.05,3.519,5.76L315.732,218.568z"/>
<path fill-rule="evenodd" clip-rule="evenodd" fill="#FFFFFF" d="M234.923,204.156l-5.062-10.609l2.486,11.838L234.923,204.156z
	 M243.605,191.743l-0.921,11.726l-2.843-0.224L243.605,191.743z M251.54,224.577l1.996,7.016c-3.276,2.234-6.171,3.712-8.695,4.427
	c-4.714,1.341-8.845,1.192-12.391-0.447c-3.807-1.721-6.372-4.903-7.69-9.543c-0.945-3.325-0.51-6.807,1.312-10.447
	c2.033-4.016,5.179-6.627,9.438-7.836c2.643-0.752,5.653-1.115,9.033-1.089c1.197,0.017,1.921,0.342,2.183,0.981l1.636,5.754
	l-1.431,0.408c-0.793-1.946-2.066-3.334-3.809-4.162c-1.741-0.826-3.643-0.948-5.702-0.362c-3.232,0.918-5.492,2.764-6.765,5.536
	c-1.21,2.596-1.348,5.538-0.412,8.828c0.977,3.434,2.652,6.199,5.023,8.288c2.75,2.457,5.732,3.227,8.952,2.314
	c2.921-0.831,3.943-2.8,3.06-5.908l-0.67-2.356c-0.498-1.754-1.106-2.708-1.819-2.859c-0.252-0.047-1.585,0.194-4.002,0.724
	l-0.39-1.372l13.648-3.88l0.391,1.37c-1.786,0.666-2.792,1.151-3.023,1.451C251.031,221.878,251.075,222.93,251.54,224.577
	 M228.542,208.635l-9.685-6.657l8.071,9.01L228.542,208.635z"/>
<path fill="#FFFFFF" d="M304.853,217.592c-1.579,0.388-2.475,1.467-2.335,2.968c0.134,1.431,1.263,2.117,2.693,1.983
	c1.84-0.172,3.684-2.166,4.588-3.143l-0.283-3.034L304.853,217.592z M296.517,222.081c0.088,0.954,0.179,1.186,0.904,1.222
	l1.894,0.031l0.171,1.839l-8.009,0.747l-0.171-1.84l1.855-0.379c0.707-0.169,0.753-0.414,0.664-1.369l-0.909-9.747
	c-0.088-0.954-0.183-1.22-0.905-1.221l-1.894-0.03l-0.165-1.772l5.351-0.499L296.517,222.081z M293.337,202.534
	c1.036-0.097,1.955,0.664,2.051,1.7c0.096,1.037-0.666,1.955-1.701,2.051c-1.036,0.097-1.954-0.665-2.051-1.702
	C291.54,203.548,292.3,202.63,293.337,202.534 M284.43,226.577l-1.026-11.007c-0.19-2.044-1.658-3.042-3.874-2.836
	c-2.214,0.207-3.755,1.76-4.324,3.015l0.769,8.248c0.088,0.954,0.182,1.219,0.904,1.221l2.067,0.05l0.168,1.805l-8.179,0.763
	l-0.172-1.841l1.856-0.38c0.709-0.136,0.752-0.413,0.664-1.367l-0.909-9.747c-0.09-0.955-0.184-1.221-0.905-1.222l-1.894-0.03
	l-0.166-1.772l5.011-0.467l0.536,2.425c0.923-1.152,2.364-3.038,5.429-3.324c3.92-0.366,5.406,1.934,5.634,4.39l0.791,8.486
	c0.089,0.953,0.18,1.186,0.905,1.22l1.894,0.031l0.173,1.841L284.43,226.577z M266.467,217.939
	c-0.193-2.078-0.939-4.175-4.142-3.877c-3.715,0.347-4.032,1.373-4.107,5.368L266.467,217.939z M258.444,221.472
	c0.431,3.535,2.221,5.395,5.527,5.087c1.635-0.153,4.267-1.052,5.258-1.487l0.634,1.625c-0.726,0.342-3.025,1.864-6.636,2.2
	c-4.941,0.461-7.338-2.753-7.799-7.695c-0.464-4.974,1.848-8.936,6.823-9.401c5.18-0.483,6.61,2.683,7.092,7.863L258.444,221.472z
	 M218.96,232.681l-1.024-11.008c-0.192-2.043-1.66-3.042-3.875-2.835c-2.214,0.206-3.754,1.76-4.325,3.015l0.77,8.247
	c0.088,0.953,0.183,1.219,0.904,1.221l2.068,0.049l0.168,1.806l-8.18,0.763l-0.172-1.84l1.857-0.381
	c0.707-0.135,0.752-0.413,0.663-1.366l-0.909-9.747c-0.089-0.956-0.183-1.222-0.904-1.222l-1.895-0.03l-0.165-1.772l5.01-0.468
	l0.536,2.425c0.924-1.152,2.363-3.038,5.43-3.323c3.917-0.365,5.404,1.934,5.633,4.389l0.791,8.486
	c0.089,0.954,0.181,1.185,0.905,1.221l1.896,0.03l0.171,1.841L218.96,232.681z M201.519,230.938c0.089,0.954,0.18,1.186,0.905,1.221
	l1.893,0.03l0.171,1.841l-8.008,0.747l-0.172-1.84l1.856-0.381c0.706-0.168,0.752-0.413,0.663-1.367l-0.908-9.747
	c-0.089-0.955-0.183-1.221-0.905-1.222l-1.894-0.03l-0.166-1.772l5.351-0.499L201.519,230.938z M198.339,211.389
	c1.036-0.096,1.955,0.666,2.051,1.702c0.097,1.035-0.665,1.954-1.701,2.051c-1.035,0.096-1.954-0.665-2.051-1.702
	C196.542,212.405,197.304,211.486,198.339,211.389 M312.626,220.58c0.089,0.953,0.182,1.219,0.904,1.221l1.927,0.027l0.171,1.841
	l-4.974,0.463l-0.52-2.633c-1.629,2.077-3.538,3.355-5.719,3.559c-2.59,0.241-4.459-1.373-4.7-3.962
	c-0.251-2.693,1.185-4.614,4.178-5.305l5.451-1.265l-0.212-2.283c-0.194-2.079-1.855-2.576-3.934-2.382
	c-1.09,0.101-2.286,0.555-2.939,0.926l-0.245,2.53l-1.976,0.185l-0.603-3.897c2.468-1.157,3.698-1.615,5.673-1.799
	c3.237-0.302,6.393,0.71,6.711,4.117L312.626,220.58z"/>
<line fill="none" stroke="#BCBDC0" stroke-width="9.6289" stroke-linecap="round" stroke-linejoin="round" stroke-miterlimit="22.926" x1="171.245" y1="116.808" x2="171.245" y2="374.262"/>
<path fill-rule="evenodd" clip-rule="evenodd" fill="#BCBDC0" d="M112.682,389.555c10.172-22.177,32.567-37.581,58.562-37.581
	s48.39,15.404,58.562,37.581H112.682z"/>
<path fill="#BCBDC0" d="M219.105,314.814l-13.277,12.32l7.426,1.346l6.638-6.16L219.105,314.814z M223.127,327.545l-4.666,4.329
	l24.644,26.558c0.547,0.589,0.833,1.368,0.808,2.166l-0.84,22.466l51.418,0.017l-1.832-53.952l-45.366-1.696l-0.258,6.893
	c-0.093,2.5-1.576,4.683-3.873,5.679c-2.297,1.003-4.906,0.606-6.801-1.037L223.127,327.545z M247.511,321.391l48.191,1.802
	c1.586,0.059,2.85,1.333,2.902,2.915l0.922,27.141l0.05,0.002c4.991,0.186,9.2-3.719,9.386-8.71l0.591-15.802
	c0.331-8.848-6.601-16.318-15.449-16.649l-37.132-1.388c-4.991-0.187-9.2,3.718-9.387,8.71L247.511,321.391z M197.136,331.081
	c-0.312-0.336-0.549-0.751-0.685-1.209c-0.318-1.097,0.008-2.281,0.845-3.057l22.127-20.533c0.837-0.776,2.042-1.013,3.112-0.614
	c1.07,0.407,1.829,1.375,1.94,2.507l1.449,13.806l14.385,12.419l0.699-0.303l0.359-9.597c-0.007-0.102-0.009-0.205-0.005-0.31
	l0.191-5.004c0.311-8.319,7.33-14.832,15.645-14.516l37.132,1.388c12.175,0.455,21.711,10.731,21.256,22.907l-0.591,15.801
	c-0.306,8.192-7.117,14.633-15.264,14.527l0.906,26.7c0.025,0.817-0.278,1.609-0.846,2.203c-0.569,0.585-1.355,0.919-2.171,0.919
	l-57.672-0.021c-0.821,0.004-1.602-0.333-2.174-0.923c-0.026-0.009-0.038-0.022-0.05-0.036c-0.542-0.584-0.833-1.368-0.808-2.166
	l0.91-24.351l-25.158-27.112l-13.862-2.512C198.157,331.88,197.571,331.55,197.136,331.081"/>
<path fill="#BCBDC0" d="M249.64,364.872c-0.82,0.398-1.821,0.1-2.286-0.701 M261.034,364.872c-0.821,0.398-1.822,0.1-2.287-0.701
	 M272.426,364.872c-0.82,0.398-1.822,0.1-2.287-0.701 M283.819,364.872c-0.82,0.398-1.822,0.1-2.287-0.701 M295.212,364.872
	c-0.82,0.398-1.822,0.1-2.287-0.701 M295.333,360.007c0.483-0.84,1.557-1.13,2.396-0.647c0.84,0.483,1.13,1.557,0.647,2.396
	c-0.746,1.294-1.807,2.338-3.047,3.055l-0.117,0.061c-1.226,0.683-2.62,1.061-4.054,1.061c-1.477,0-2.91-0.4-4.163-1.122
	l-0.005-0.003l-0.002,0.003c-0.548-0.317-1.061-0.697-1.526-1.133c-0.466,0.436-0.979,0.816-1.526,1.133l-0.117,0.061
	c-1.226,0.683-2.619,1.061-4.053,1.061c-1.478,0-2.911-0.4-4.164-1.122l-0.005-0.003l-0.002,0.003
	c-0.547-0.317-1.06-0.697-1.526-1.133c-0.465,0.435-0.978,0.815-1.526,1.133l-0.117,0.061c-1.227,0.683-2.619,1.061-4.053,1.061
	c-1.478,0-2.91-0.4-4.163-1.122l-0.005-0.003l-0.002,0.003c-0.548-0.317-1.061-0.697-1.527-1.133
	c-0.465,0.436-0.978,0.816-1.526,1.133l-0.116,0.061c-1.227,0.683-2.62,1.061-4.054,1.061c-1.478,0-2.911-0.4-4.163-1.122
	l-0.005-0.003l-0.002,0.003c-0.548-0.317-1.06-0.697-1.526-1.133c-0.466,0.435-0.979,0.815-1.527,1.133l-0.117,0.061
	c-1.226,0.683-2.619,1.061-4.053,1.061c-1.477,0-2.911-0.4-4.163-1.122l-0.005-0.003l-0.002,0.003
	c-1.241-0.717-2.301-1.761-3.048-3.055c-0.482-0.839-0.192-1.913,0.647-2.396s1.914-0.193,2.397,0.647
	c0.426,0.74,1.042,1.341,1.767,1.76l-0.002,0.003c0.711,0.41,1.541,0.636,2.409,0.636c0.839,0,1.639-0.21,2.333-0.593l0.074-0.046
	c0.721-0.416,1.337-1.02,1.768-1.767l0.003,0.002c0.15-0.259,0.367-0.483,0.644-0.642c0.84-0.483,1.914-0.193,2.397,0.647
	c0.426,0.74,1.042,1.341,1.767,1.76l-0.002,0.003c0.711,0.41,1.54,0.636,2.409,0.636c0.838,0,1.639-0.21,2.333-0.593l0.074-0.046
	c0.699-0.404,1.298-0.979,1.722-1.683c0.148-0.293,0.381-0.548,0.686-0.724c0.839-0.487,1.916-0.199,2.403,0.64
	c0.431,0.747,1.047,1.351,1.768,1.767l-0.002,0.003c0.712,0.41,1.54,0.636,2.409,0.636c0.838,0,1.638-0.21,2.333-0.593l0.073-0.046
	c0.722-0.416,1.337-1.02,1.769-1.767l0.003,0.002c0.149-0.259,0.366-0.483,0.644-0.642c0.839-0.483,1.913-0.193,2.396,0.647
	c0.426,0.74,1.042,1.341,1.767,1.76l-0.002,0.003c0.712,0.41,1.541,0.636,2.41,0.636c0.838,0,1.638-0.21,2.333-0.593l0.073-0.046
	c0.7-0.404,1.298-0.979,1.723-1.683c0.148-0.293,0.38-0.548,0.685-0.724c0.839-0.487,1.916-0.199,2.403,0.64
	c0.431,0.747,1.047,1.351,1.769,1.767l-0.003,0.003c0.712,0.41,1.54,0.636,2.409,0.636c0.839,0,1.64-0.21,2.334-0.593l0.074-0.046
	C294.29,361.349,294.907,360.747,295.333,360.007"/>
<path fill-rule="evenodd" clip-rule="evenodd" fill="#BCBDC0" d="M119.508,22.803c-1.618-0.304-3.171,0.757-3.476,2.375
	l-1.335,7.096c-0.305,1.618,0.757,3.171,2.375,3.476c0.747,0.14,1.614-0.018,2.206-0.423c0.592-0.404,1.106-1.081,1.196-1.901
	l1.335-7.096C122.137,24.587,121.126,23.107,119.508,22.803 M113.379,73.531c-9.22-2.379-8.79-12.545-8.82-13.067
	c0.106-1.591-1.103-3.043-2.769-3.098c-1.591-0.107-3.043,1.102-3.098,2.768c-0.362,5.345,1.95,16.35,13.212,19.178
	c0.872,0.164,1.739,0.005,2.405-0.45c0.592-0.404,1.032-1.03,1.223-1.703C115.91,75.49,114.997,73.836,113.379,73.531
	 M132.863,50.129c-9.298-13.608-23.722-12.649-33.928-5.675c-10.132,6.923-16.23,21.179-7.488,33.974
	c4.548,6.656,9.912,8.632,18.264,11.17c0.848,0.289,1.529,1.125,2.438,2.457c1.539,2.094,4.696,6.555,10.909,2.31l15.161-10.359
	c1.331-0.91,1.682-2.777,0.773-4.108c-0.91-1.332-2.777-1.683-4.108-0.773l-15.162,10.359c-0.961,0.657-1.432,0.761-1.432,0.761
	c-0.3-0.12-0.906-1.008-1.31-1.599c-1.112-1.628-2.702-3.796-5.569-4.657c-8.052-2.418-11.771-3.891-15.106-8.772
	c-6.62-9.689-2.046-20.3,5.942-25.757c7.174-4.902,18.233-6.817,25.712,4.129c3.385,4.955,3.43,8.83,2.681,17.261
	c-0.18,1.642,1.103,3.043,2.745,3.223c1.591,0.106,3.043-1.103,3.223-2.745C137.279,62.625,137.411,56.785,132.863,50.129
	 M96.858,36.651l-4.093-5.99c-0.909-1.331-2.777-1.683-4.108-0.773c-1.331,0.91-1.683,2.777-0.773,4.108l4.093,5.991
	c0.91,1.331,2.777,1.682,4.109,0.773C97.417,39.85,97.768,37.983,96.858,36.651 M84.235,58.187c0.304-1.619-0.757-3.172-2.375-3.476
	l-7.096-1.335c-1.619-0.305-3.172,0.756-3.477,2.375c-0.304,1.618,0.757,3.171,2.376,3.476l7.096,1.335
	c0.747,0.14,1.614-0.019,2.206-0.423C83.58,59.611,84.094,58.934,84.235,58.187 M122.15,101.928
	c0.909,1.331,2.777,1.683,4.108,0.773l16.419-11.218c1.331-0.91,1.682-2.777,0.773-4.109c-0.91-1.331-2.777-1.682-4.109-0.773
	l-16.344,11.168C121.592,98.73,121.24,100.597,122.15,101.928 M128.204,107.772c0.91,1.331,2.777,1.683,4.108,0.773l13.609-9.298
	c1.331-0.91,1.682-2.777,0.773-4.108c-0.91-1.332-2.777-1.683-4.109-0.773l-13.608,9.298
	C127.646,104.573,127.294,106.441,128.204,107.772"/>
<path fill-rule="evenodd" clip-rule="evenodd" fill="#BCBDC0" d="M219.858,170.875c-0.037-1.736-0.513-3.418-1.452-4.926
	c-0.859-1.38-2.054-2.492-3.451-3.289l4.412-10.337l4.41-2.745l0.281,5.739l6.046,3.35l0.343,6.909l5.031,2.795l-4.446,2.767
	L219.858,170.875z M283.121,123.47l1.989,3.196c2.676,4.3,1.356,9.977-2.944,12.655l-4.291,2.672l-11.701-18.796l4.292-2.671
	C274.764,117.85,280.439,119.169,283.121,123.47 M263.677,137.79C263.676,137.79,263.676,137.79,263.677,137.79
	c-0.737-1.181-2.29-1.541-3.471-0.807l-27.473,17.089c-0.08,0.049-0.146,0.112-0.218,0.168l-3.559-1.975l-0.271-5.499
	c-0.003-0.076-0.022-0.15-0.033-0.225l33.244-20.681l11.7,18.795l-33.244,20.681c-0.064-0.042-0.119-0.092-0.186-0.129l-4.825-2.679
	l-0.202-4.053c0.086-0.041,0.173-0.075,0.256-0.126l27.473-17.089C264.051,140.526,264.413,138.973,263.677,137.79 M289.389,124.004
	l-1.995-3.205c-4.148-6.654-12.936-8.694-19.59-4.552l-51.772,32.217c-0.438,0.273-0.782,0.674-0.987,1.15l-9.609,22.509
	c-0.323,0.757-0.256,1.624,0.18,2.321c0.006,0.01,0.013,0.021,0.019,0.031c0.454,0.702,1.224,1.136,2.06,1.156l23.973,0.562
	c0.491,0.011,0.975-0.12,1.392-0.381l51.771-32.214C291.488,139.453,293.533,130.664,289.389,124.004"/>
<line fill="none" stroke="#BCBDC0" stroke-width="9.221" stroke-linecap="round" stroke-linejoin="round" stroke-miterlimit="22.926" x1="171.244" y1="209.83" x2="207.603" y2="174.186"/>
<line fill="none" stroke="#BCBDC0" stroke-width="9.221" stroke-linecap="round" stroke-linejoin="round" stroke-miterlimit="22.926" x1="171.245" y1="245.12" x2="92.345" y2="219.033"/>
<path fill-rule="evenodd" clip-rule="evenodd" fill="#BCBDC0" d="M72.914,242.914c-6.148,0-11.673-3.831-13.811-9.445
	c5.079-0.178,9.534-1.693,12.742-4.366c0.98-0.891,1.871-1.871,2.584-2.851h13.187c0.089,0.624,0.089,1.247,0.089,1.871
	C87.794,236.231,81.11,242.914,72.914,242.914 M57.945,212.263c4.455-1.96,9.534-1.337,14.167,1.693l-5.97,3.118l-7.395-2.316
	c-0.446-0.178-0.981,0.089-1.159,0.624c-0.178,0.445,0.089,0.979,0.624,1.069l5.703,1.782l-12.118,6.326
	c-0.446,0.267-0.624,0.802-0.357,1.158c0.178,0.268,0.446,0.446,0.802,0.446c0.178,0,0.268,0,0.446-0.089l5.969-3.119l-0.445,3.208
	c-0.089,0.445,0.267,0.891,0.802,0.98h0.089c0.446,0,0.802-0.357,0.891-0.802l0.624-4.455l12.563-6.504
	c0.624,4.544-0.624,8.375-3.653,10.959c-4.812,4.099-13.365,4.722-21.919,1.693C48.589,220.549,52.42,214.669,57.945,212.263
	 M45.827,200.412c5.881-0.713,9.801,0,12.92,2.228c0.178,0.089,0.356,0.178,0.534,0.267c0.624,1.782,1.426,3.386,2.495,4.812
	c-1.782,0.178-3.564,0.624-5.257,1.336c-1.693,0.713-3.208,1.693-4.633,2.941C49.035,209.322,46.807,205.224,45.827,200.412
	 M62.489,187.76c9.801,3.831,15.147,11.049,13.365,18.355c-0.624,1.069-1.158,2.228-1.514,3.475l-9-17.643
	c-0.267-0.445-0.802-0.623-1.158-0.356c-0.446,0.267-0.624,0.802-0.356,1.158l3.475,6.861l-2.406-0.801
	c-0.446-0.179-0.98,0.088-1.159,0.623c-0.178,0.446,0.09,0.98,0.624,1.159l4.099,1.336l4.187,8.197
	c-1.781-0.979-3.564-1.692-5.435-2.138C61.954,204.333,60.172,196.403,62.489,187.76 M76.566,221.351h9.623
	c0.535,0.98,0.891,2.05,1.158,3.119h-11.85C75.943,223.401,76.3,222.421,76.566,221.351 M95.635,201.571
	c-0.98,6.95-3.832,12.207-7.841,14.523c-2.673,1.515-5.792,1.782-9.089,0.624l5.168-4.366l3.565,0.535h0.178
	c0.445,0,0.802-0.357,0.891-0.802c0.089-0.446-0.268-0.98-0.713-0.98l-2.05-0.268l7.396-6.237c0.356-0.356,0.445-0.891,0.089-1.247
	c-0.356-0.357-0.891-0.446-1.247-0.089l-3.297,2.762l-0.178-2.139c-0.089-0.445-0.446-0.891-0.98-0.802
	c-0.446,0.089-0.802,0.446-0.802,0.981l0.356,3.296l-9.534,7.93c-0.445-3.475,0.357-6.504,2.317-8.732
	C82.982,203.085,88.685,201.214,95.635,201.571 M99.377,200.056c0-0.446-0.089-0.98-0.446-1.337
	c-0.356-0.356-0.712-0.623-1.247-0.623c-7.395-0.713-13.811,0.713-18.088,3.831c-0.712-7.752-7.306-14.702-17.82-18.266
	c-0.446-0.178-0.98-0.089-1.337,0.089c-0.445,0.179-0.712,0.624-0.89,1.069c-1.515,4.634-1.961,9.178-1.426,13.277
	c-3.832-1.693-8.465-2.05-14.702-1.07c-0.98,0.179-1.604,1.07-1.515,2.05c0.981,6.415,3.564,11.85,7.485,15.325
	c-3.03,3.743-4.99,8.822-5.524,14.702c-0.089,0.802,0.356,1.515,1.158,1.782c3.386,1.337,6.861,2.138,10.157,2.406
	c2.317,7.663,9.534,13.098,17.643,13.098c10.157,0,18.444-8.287,18.444-18.444c0-3.03-0.802-5.97-2.228-8.643
	c0.178-0.089,0.268-0.178,0.446-0.267C95.011,216.005,98.575,209.055,99.377,200.056"/>
<path fill-rule="evenodd" clip-rule="evenodd" fill="#BCBDC0" d="M106.698,275.247c0.958,1.658,3.078,2.226,4.736,1.268
	c1.658-0.957,2.226-3.077,1.269-4.735c-0.957-1.659-3.077-2.226-4.736-1.269C106.309,271.468,105.741,273.588,106.698,275.247
	 M99.29,255.461c12.729-7.35,29.063-2.972,36.411,9.755c7.348,12.728,2.973,29.063-9.756,36.412
	c-12.728,7.349-29.064,2.972-36.413-9.756C82.184,279.143,86.562,262.809,99.29,255.461 M128.474,306.01
	c15.146-8.745,20.354-28.179,11.61-43.324c-6.065-10.504-17.272-16.222-28.625-15.826c3.908-4.566,6.879-3.768,9.77-2.988
	c0.464,0.127,0.912,0.246,1.342,0.343c0.248,0.058,0.525,0.13,0.829,0.208c3.026,0.782,11.067,2.86,14.236-6.164
	c0.464-1.319-0.23-2.763-1.549-3.226c-1.319-0.463-2.762,0.232-3.226,1.549c-1.384,3.945-3.746,4.092-8.195,2.942
	c-0.353-0.09-0.678-0.175-0.969-0.241c-0.369-0.084-0.751-0.189-1.149-0.295c-2.57-0.695-6.234-1.684-10.43,0.738
	c-2.39,1.38-4.954,3.873-7.584,8.154c-2.663,0.702-5.277,1.756-7.775,3.198c-15.145,8.745-20.352,28.177-11.609,43.322
	C93.894,309.545,113.328,314.754,128.474,306.01 M99.183,288.299c-1.237,0.715-2.271,1.749-2.991,2.992
	c-0.446,0.768-0.338,1.739,0.267,2.392c3.179,3.427,7.295,5.72,11.896,6.635c0.872,0.174,1.756-0.244,2.178-1.028
	c1.017-1.896,1.249-4.08,0.656-6.15c-0.607-2.107-1.999-3.852-3.916-4.913C104.728,286.817,101.704,286.844,99.183,288.299
	 M126.05,268.831c1.229-0.71,2.256-1.732,2.973-2.956c0.453-0.776,0.343-1.756-0.273-2.409c-3.201-3.401-7.33-5.666-11.941-6.55
	c-0.49-0.094-0.982-0.002-1.393,0.235c-0.33,0.19-0.605,0.474-0.789,0.83c-2.029,3.968-0.566,8.767,3.334,10.926
	C120.505,270.316,123.528,270.287,126.05,268.831 M131.177,269.196c-1.225,0.097-2.386,0.455-3.448,1.068
	c-2.719,1.57-4.286,4.49-4.092,7.62c0.272,4.455,4.12,7.909,8.574,7.7c0.891-0.042,1.647-0.659,1.867-1.523
	c1.159-4.56,0.862-9.261-0.861-13.595C132.889,269.642,132.064,269.128,131.177,269.196 M118.137,288.125
	c-3.878,2.239-5.246,7.234-3.051,11.135c0.434,0.771,1.315,1.171,2.181,0.989c4.575-0.964,8.68-3.335,11.805-6.816
	c0.59-0.659,0.685-1.623,0.236-2.384C127.025,287.199,122.015,285.886,118.137,288.125 M107.098,269.006
	c3.852-2.224,5.235-7.041,3.146-10.966c-0.425-0.795-1.323-1.216-2.205-1.03c-2.289,0.482-4.46,1.309-6.448,2.457
	c-1.989,1.149-3.79,2.613-5.352,4.354c-0.602,0.672-0.688,1.66-0.21,2.424C98.385,270.016,103.247,271.23,107.098,269.006
	 M94.086,287.931c1.217-0.1,2.368-0.458,3.421-1.066c2.718-1.57,4.286-4.49,4.094-7.621c-0.272-4.385-4.058-7.842-8.439-7.704
	c-0.343,0.01-0.665,0.106-0.949,0.27c-0.458,0.264-0.806,0.704-0.947,1.241c-1.188,4.555-0.921,9.255,0.769,13.599
	C92.36,287.484,93.195,288.006,94.086,287.931 M104.619,283.012c0.957,1.658,3.077,2.226,4.735,1.269
	c1.659-0.958,2.227-3.078,1.269-4.736c-0.957-1.658-3.077-2.226-4.736-1.269C104.229,279.233,103.661,281.353,104.619,283.012
	 M114.466,277.326c0.958,1.659,3.078,2.226,4.736,1.269c1.658-0.957,2.226-3.077,1.269-4.736c-0.957-1.658-3.078-2.226-4.736-1.269
	C114.077,273.548,113.509,275.668,114.466,277.326 M112.384,285.094c0.957,1.658,3.077,2.226,4.736,1.269
	c1.658-0.957,2.226-3.078,1.269-4.736c-0.958-1.658-3.078-2.226-4.736-1.269C111.994,281.316,111.427,283.436,112.384,285.094"/>
<path fill="none" stroke="#BCBDC0" stroke-width="5.942" stroke-linecap="round" stroke-linejoin="round" stroke-miterlimit="22.926" d="
	M258.409,266.041c-7.088,13.275-22.147,28.768-36.213,33.041c-18.952,5.757-31.493-1.453-34.558-11.542
	c-3.065-10.088,3.346-23.056,22.299-28.813C224.003,254.454,245.135,258.952,258.409,266.041z"/>
<line fill="none" stroke="#BCBDC0" stroke-width="4.457" stroke-linecap="round" stroke-linejoin="round" stroke-miterlimit="22.926" x1="187.638" y1="287.54" x2="234.731" y2="273.234"/>
<line fill="none" stroke="#BCBDC0" stroke-width="4.457" stroke-linecap="round" stroke-linejoin="round" stroke-miterlimit="22.926" x1="223.023" y1="276.79" x2="232.3" y2="281.744"/>
<line fill="none" stroke="#BCBDC0" stroke-width="4.457" stroke-linecap="round" stroke-linejoin="round" stroke-miterlimit="22.926" x1="209.76" y1="280.819" x2="216.521" y2="268.159"/>
<line fill="none" stroke="#BCBDC0" stroke-width="8.575" stroke-linecap="round" stroke-linejoin="round" stroke-miterlimit="22.926" x1="171.246" y1="305.17" x2="186.914" y2="289.81"/>
<line fill="none" stroke="#BCBDC0" stroke-width="9.221" stroke-linecap="round" stroke-linejoin="round" stroke-miterlimit="22.926" x1="171.245" y1="168.566" x2="146.798" y2="155.379"/>
<path fill-rule="evenodd" clip-rule="evenodd" fill="#BCBDC0" d="M283.898,89.151c-0.158-0.558-0.475-1.063-0.951-1.443
	c-1.22-0.975-3.071-0.588-4.176,0.702l-11.46,13.356c-0.541,0.628-0.621,1.559-0.152,2.207c0.528,0.73,1.552,0.823,2.29,0.212
	l7.407-6.156c1.126-0.935,2.708-0.498,3.098,0.864c1.158,4.055,3.189,11.139,3.313,11.327c0.947,1.443,2.89,1.715,4.34,0.608
	c0,0,20.392-15.598,20.586-15.798c2.126-2.197,2.217-5.695,0.148-7.675c-1.941-1.856-5.128-1.461-7.147,0.624l-11.276,11.644
	c-1.101,1.138-2.872,0.753-3.282-0.712L283.898,89.151z"/>
<path fill-rule="evenodd" clip-rule="evenodd" fill="#BCBDC0" d="M293.16,287.227l-0.225,10.702c-0.021,0.962,0.732,1.829,1.8,2.004
	c1.169,0.193,2.271-0.516,2.462-1.583l1.876-10.538c0.019-0.12,0.034-0.259,0.038-0.383c0.032-1.504-1.276-2.768-2.918-2.823
	C294.549,284.55,293.192,285.724,293.16,287.227"/>
<path fill-rule="evenodd" clip-rule="evenodd" fill="#BCBDC0" d="M311.288,292.362l-3.701,10.044
	c-0.334,0.903,0.096,1.967,1.048,2.481c1.042,0.564,2.315,0.253,2.843-0.693l5.209-9.351c0.057-0.108,0.117-0.234,0.161-0.351
	c0.52-1.411-0.304-3.032-1.839-3.619C313.474,290.284,311.808,290.951,311.288,292.362"/>
<path fill-rule="evenodd" clip-rule="evenodd" fill="#BCBDC0" d="M325.752,303.46l-7.795,7.336
	c-0.701,0.659-0.792,1.804-0.169,2.689c0.681,0.969,1.959,1.259,2.854,0.648l8.835-6.044c0.098-0.07,0.209-0.157,0.3-0.241
	c1.095-1.031,1.081-2.849-0.03-4.06C328.635,302.576,326.847,302.429,325.752,303.46"/>
<path fill-rule="evenodd" clip-rule="evenodd" fill="#BCBDC0" d="M333.14,319.737l-10.158,3.376
	c-0.913,0.303-1.477,1.303-1.285,2.368c0.211,1.167,1.248,1.967,2.317,1.789l10.557-1.766c0.12-0.022,0.256-0.055,0.374-0.093
	c1.428-0.474,2.179-2.13,1.681-3.696C336.128,320.148,334.567,319.263,333.14,319.737"/>
<path fill-rule="evenodd" clip-rule="evenodd" fill="#BCBDC0" d="M64.488,105.065c-4.23,0-8.031-2.635-9.502-6.497
	c3.494-0.123,6.559-1.165,8.766-3.004c0.674-0.613,1.288-1.287,1.778-1.962h9.073c0.061,0.43,0.061,0.858,0.061,1.288
	C74.725,100.468,70.127,105.065,64.488,105.065 M54.189,83.978c3.065-1.349,6.559-0.919,9.747,1.165l-4.107,2.145l-5.088-1.593
	c-0.306-0.123-0.674,0.061-0.797,0.429c-0.123,0.306,0.061,0.674,0.429,0.735l3.923,1.226l-8.336,4.353
	c-0.307,0.184-0.43,0.551-0.246,0.796c0.123,0.184,0.307,0.307,0.552,0.307c0.123,0,0.184,0,0.307-0.061l4.107-2.146l-0.307,2.207
	c-0.061,0.307,0.184,0.613,0.552,0.674h0.061c0.307,0,0.552-0.245,0.613-0.551l0.429-3.065l8.644-4.475
	c0.429,3.126-0.429,5.762-2.514,7.54c-3.31,2.82-9.195,3.249-15.08,1.164C47.753,89.679,50.389,85.633,54.189,83.978 M45.852,75.825
	c4.046-0.49,6.743,0,8.889,1.533c0.123,0.061,0.245,0.122,0.368,0.184c0.429,1.226,0.981,2.329,1.716,3.31
	c-1.226,0.122-2.452,0.429-3.616,0.919c-1.165,0.491-2.207,1.165-3.188,2.023C48.059,81.955,46.527,79.136,45.852,75.825
	 M57.316,67.12c6.743,2.637,10.421,7.602,9.195,12.628c-0.429,0.736-0.797,1.533-1.042,2.391l-6.192-12.137
	c-0.184-0.307-0.551-0.429-0.797-0.245c-0.306,0.183-0.429,0.551-0.245,0.796l2.391,4.721l-1.655-0.552
	c-0.307-0.123-0.675,0.061-0.797,0.429c-0.123,0.306,0.061,0.674,0.429,0.797l2.82,0.919l2.881,5.64
	c-1.226-0.674-2.452-1.165-3.74-1.471C56.948,78.522,55.722,73.067,57.316,67.12 M67.001,90.231h6.621
	c0.367,0.674,0.613,1.41,0.796,2.145h-8.153C66.572,91.641,66.817,90.966,67.001,90.231 M80.12,76.622
	c-0.675,4.782-2.636,8.398-5.395,9.992c-1.839,1.042-3.984,1.226-6.253,0.429l3.556-3.004l2.452,0.368h0.123
	c0.306,0,0.551-0.245,0.612-0.552c0.062-0.306-0.183-0.674-0.49-0.674l-1.41-0.184l5.088-4.291c0.245-0.245,0.307-0.613,0.061-0.858
	c-0.245-0.245-0.613-0.306-0.858-0.061l-2.268,1.9l-0.123-1.471c-0.061-0.307-0.306-0.613-0.674-0.552
	c-0.306,0.062-0.552,0.307-0.552,0.674l0.246,2.269l-6.559,5.455c-0.307-2.39,0.245-4.475,1.593-6.007
	C71.415,77.664,75.338,76.377,80.12,76.622 M82.694,75.58c0-0.306-0.061-0.674-0.306-0.92c-0.246-0.245-0.491-0.429-0.858-0.429
	c-5.089-0.49-9.502,0.491-12.445,2.636c-0.49-5.333-5.026-10.114-12.26-12.566c-0.306-0.123-0.674-0.062-0.919,0.061
	c-0.307,0.123-0.491,0.429-0.613,0.736c-1.042,3.187-1.349,6.313-0.981,9.133c-2.636-1.164-5.824-1.41-10.115-0.735
	c-0.674,0.122-1.103,0.735-1.042,1.41c0.675,4.413,2.452,8.153,5.149,10.543c-2.084,2.575-3.432,6.069-3.8,10.115
	c-0.062,0.552,0.245,1.042,0.797,1.226c2.329,0.92,4.72,1.471,6.988,1.655c1.594,5.272,6.559,9.011,12.137,9.011
	c6.989,0,12.69-5.701,12.69-12.689c0-2.084-0.552-4.107-1.533-5.946c0.123-0.061,0.184-0.123,0.307-0.184
	C79.69,86.553,82.142,81.771,82.694,75.58"/>
<path fill="#BCBDC0" d="M15.918,175.109l17.615,17.615c-2.103,1.32-4.234-0.1-6.19-1.406c-2.511-1.676-4.813-3.211-7.154-0.87
	c-1.12,1.12-2.556,3.146-4.126,5.363c-1.836,2.592-3.864,5.454-5.685,7.275c-1.335,1.335-3.015,2.258-4.565,2.822
	c-1.895,0.69-3.409,0.938-3.636,0.71l-0.154-0.153c-0.227-0.226,0.02-1.741,0.711-3.637c0.563-1.55,1.487-3.23,2.821-4.564
	c1.821-1.821,4.684-3.849,7.276-5.684c2.217-1.571,4.243-3.006,5.364-4.126c2.34-2.341,0.805-4.643-0.871-7.154
	C16.019,179.344,14.598,177.213,15.918,175.109 M19.498,171.369l17.775,17.775l-2.158,2.158L17.34,173.527L19.498,171.369z
	 M26.314,164.554c0.115,0.156,0.243,0.305,0.385,0.447c0.779,0.779,1.806,1.169,2.832,1.169v-0.003c1.028,0,2.055-0.389,2.832-1.166
	l2.128-2.128l1.087,1.087l-0.266,0.266c-0.655,0.654-0.982,1.518-0.982,2.381v0.006c0,0.864,0.327,1.728,0.982,2.382v0.001
	c0.655,0.654,1.519,0.982,2.382,0.982H37.7c0.863,0,1.727-0.328,2.382-0.982l0.266-0.266l0.798,0.798l-5.392,5.393
	c-0.492,0.491-0.738,1.139-0.738,1.787v0.006c0,0.648,0.246,1.297,0.738,1.788c0.493,0.494,1.142,0.741,1.79,0.741
	s1.298-0.247,1.791-0.741l5.393-5.392l0.713,0.712l-2.351,2.351c-0.8,0.8-1.201,1.855-1.201,2.907c0,1.053,0.401,2.107,1.201,2.908
	h0.001c0.23,0.231,0.481,0.427,0.747,0.591l-5.062,5.063L21,169.867L26.314,164.554z M8.042,200.601
	c-0.693-0.693-1.816-0.693-2.509,0c-0.693,0.692-0.693,1.816,0,2.508c0.693,0.693,1.816,0.693,2.509,0
	C8.735,202.417,8.735,201.293,8.042,200.601 M25.535,162.328l-6.037,6.037l-0.751,0.751l-0.751,0.751l-2.909,2.909l-0.751,0.751
	l0.043,0.044c-2.577,3.279-0.615,6.219,1.18,8.908c1.17,1.755,2.243,3.363,1.134,4.472c-1.006,1.006-2.955,2.386-5.088,3.898
	c-2.669,1.889-5.616,3.977-7.552,5.913c-1.577,1.577-2.66,3.538-3.315,5.338c-0.965,2.654-0.926,5.158-0.217,5.867l0.154,0.154
	c0.709,0.709,3.213,0.749,5.866-0.217c1.8-0.655,3.762-1.738,5.339-3.316c1.935-1.935,4.023-4.883,5.914-7.55
	c1.511-2.133,2.891-4.082,3.897-5.088c1.11-1.11,2.718-0.037,4.472,1.134c2.69,1.794,5.63,3.756,8.909,1.179l0.043,0.044
	l0.751-0.751l2.91-2.909l0.75-0.752l0.752-0.751l5.962-5.962c0.971-0.057,1.926-0.455,2.665-1.194l5.732-5.731
	c0.8-0.8,1.2-1.855,1.2-2.907c0-0.95-0.326-1.902-0.977-2.667l0.008-0.009l-0.231-0.231l-0.001-0.001l-0.027-0.028l-0.491-0.491
	l-4.893-4.892l-4.974-4.974l-5.543-5.543l-0.737-0.737l-0.014-0.014l-0.011-0.011c-0.777-0.777-1.804-1.166-2.832-1.166v-0.004
	c-1.026,0-2.053,0.391-2.832,1.17l-5.583,5.583c-0.777,0.777-1.166,1.803-1.167,2.83v0.003v0.003L25.535,162.328z"/>
<path fill-rule="evenodd" clip-rule="evenodd" fill="#BCBDC0" d="M284.925,176.931l-5.114-2.952
	c-0.909-0.525-1.014-1.394-1.012-1.747c0.001-0.352,0.092-1.209,1.006-1.742l5.928-3.446l-0.545,1.908
	c-0.276,1.002,0.154,2.008,1.025,2.51c0.152,0.088,0.325,0.138,0.498,0.187c1.176,0.325,2.373-0.347,2.736-1.501l2.034-7.109
	c0.17-0.558,0.07-1.171-0.194-1.677c-0.301-0.528-0.75-0.888-1.368-1.043l-7.152-1.957c-1.176-0.326-2.395,0.385-2.72,1.561
	c-0.325,1.175,0.385,2.394,1.561,2.719l2.043,0.574l-6.07,3.515c-2.007,1.114-3.188,3.16-3.171,5.493
	c0.016,2.333,1.206,4.383,3.214,5.542l5.114,2.953c1.06,0.612,2.396,0.222,2.987-0.801
	C286.316,178.896,285.985,177.543,284.925,176.931 M292.914,160.382c0.603,1.055,1.952,1.43,3.007,0.827l5.216-2.999
	c0.914-0.533,1.715-0.171,2.018,0.004c0.303,0.175,1.017,0.688,1.013,1.746l0.006,7.074l-1.556-1.504
	c-0.87-0.856-2.242-0.84-3.098,0.029c-0.855,0.87-0.84,2.243,0.03,3.098l5.293,5.178c0.13,0.125,0.26,0.251,0.411,0.338
	c0.341,0.197,0.726,0.318,1.138,0.304c0.608-0.003,1.151-0.245,1.549-0.672l5.124-5.375c0.856-0.87,0.802-2.264-0.068-3.12
	c-0.869-0.855-2.264-0.802-3.119,0.068l-1.297,1.372l-0.025-6.782c0.006-2.37-1.222-4.443-3.23-5.602
	c-2.007-1.159-4.416-1.186-6.407-0.012l-5.216,2.999C292.626,157.993,292.251,159.342,292.914,160.382 M308.512,184.539
	l-0.017-5.919c-0.005-1.215-1.005-2.196-2.22-2.191s-2.196,1.005-2.191,2.22l0.017,5.919c-0.005,1.058-0.701,1.565-1.006,1.742
	c-0.304,0.178-1.109,0.522-2.018-0.003l-5.985-3.455l1.972-0.529c1.195-0.32,1.894-1.532,1.553-2.689
	c-0.321-1.195-1.533-1.895-2.69-1.553l-7.126,1.845c-0.576,0.123-1.049,0.506-1.355,1.036c-0.306,0.53-0.38,1.094-0.219,1.692
	l1.965,7.094c0.159,0.597,0.543,1.071,0.997,1.333c0.492,0.285,1.094,0.38,1.692,0.22c1.195-0.321,1.857-1.555,1.553-2.69
	l-0.529-1.972l5.985,3.456c2.008,1.159,4.416,1.186,6.407,0.012C307.288,188.933,308.529,186.872,308.512,184.539"/>
<path fill="#BCBDC0" d="M287.497,240.146c-11.565,1.746-19.565,12.5-17.833,23.971c1.732,11.47,12.551,19.382,24.115,17.636
	c11.563-1.746,19.565-12.5,17.832-23.971C309.88,246.312,299.061,238.399,287.497,240.146 M294.396,242.165
	c3.196,0.672,6.136,2.15,8.55,4.265c1.819,2.3,2.299,3.534,2.307,4.184l-5.477,2.994l-6.801-3.002
	c-0.77-2.187-2.335-5.679-2.83-6.779C291.568,242.617,294.114,242.207,294.396,242.165 M288.786,244.04l-0.011,0.004
	c0.02,0.043,1.943,4.239,2.862,6.778l-4.911,5.446l-9.184,0.02c0,0-0.915-2.307-1.198-4.229l0.003,0.001
	c0.028-0.052,2.398-5.541,7.381-7.958C283.728,244.102,286.862,243.778,288.786,244.04 M279.807,245.172
	c-2.493,2.295-4.06,5.131-4.52,6.03c-0.703,0.431-1.389,1.198-1.948,1.932C274.716,249.944,276.952,247.18,279.807,245.172
	 M272.008,263.327c-0.048-0.319-0.063-0.636-0.094-0.955c0.64,0.809,1.479,1.362,2.077,1.688c0.712,1.647,2.659,5.833,5.294,8.989
	c0.146,1.391,0.419,2.316,0.671,2.925C275.82,273.131,272.815,268.668,272.008,263.327 M280.361,272.257
	c-2.711-3.22-4.733-7.754-5.274-9.035c0.921-3.098,2.351-5.551,2.351-5.551l8.984-0.046c1.434,2.728,3.284,5.514,4.167,6.812
	c-0.758,1.607-2.892,6.085-4.211,8.327C284.824,273.022,281.966,272.564,280.361,272.257 M293.375,279.087
	c-1.611,0.244-3.203,0.254-4.755,0.09c1.544-0.282,2.405-0.789,2.87-1.22c0.486,0.029,1.881,0.083,3.692-0.191
	c1.848-0.279,4.116-0.908,6.257-2.236c0.127,0.023,0.252,0.027,0.377,0.024C299.413,277.356,296.546,278.609,293.375,279.087
	 M301.107,274.168c-4.338,2.906-9.622,2.453-9.677,2.447l-0.41-0.138c-1.577-1.061-3.043-2.83-3.33-3.19
	c-0.015-0.02-0.022-0.038-0.034-0.059c1.349-2.346,3.355-6.552,4.115-8.172c5.234-1.023,7.246-1.754,7.246-1.754
	c0.024,0.026,3.228,3.113,4.969,6.047C303.577,270.971,301.988,273.016,301.107,274.168 M308.485,265.244
	c-1.875,2.001-3.655,2.944-3.655,2.944c-1.095-1.531-4.759-5.845-4.759-5.845c0.61-2.568,0.498-5.968,0.454-7.623l5.241-2.866
	c1.574,1.125,2.648,3.312,3.026,4.181c0.136,0.553,0.258,1.114,0.345,1.686c0.414,2.742,0.192,5.427-0.526,7.933
	C308.565,265.375,308.485,265.244,308.485,265.244"/>
<path fill-rule="evenodd" clip-rule="evenodd" fill="#BCBDC0" d="M147.843,207.907l5.114-2.953c0.909-0.525,1.014-1.393,1.012-1.746
	c-0.001-0.352-0.092-1.209-1.006-1.742l-5.929-3.446l0.546,1.908c0.276,1.002-0.154,2.008-1.025,2.51
	c-0.152,0.088-0.325,0.138-0.498,0.187c-1.176,0.325-2.373-0.347-2.736-1.501l-2.033-7.109c-0.171-0.558-0.071-1.172,0.193-1.677
	c0.301-0.528,0.75-0.888,1.368-1.043l7.152-1.957c1.176-0.326,2.395,0.385,2.72,1.561c0.325,1.176-0.385,2.394-1.561,2.719
	l-2.043,0.574l6.07,3.516c2.007,1.113,3.188,3.159,3.171,5.492c-0.016,2.333-1.206,4.383-3.214,5.542l-5.114,2.953
	c-1.06,0.612-2.397,0.222-2.987-0.801C146.453,209.871,146.783,208.519,147.843,207.907 M139.855,191.358
	c-0.603,1.055-1.953,1.43-3.008,0.827l-5.216-2.999c-0.914-0.533-1.715-0.171-2.018,0.004c-0.303,0.174-1.017,0.688-1.012,1.746
	l-0.007,7.074l1.556-1.504c0.87-0.856,2.242-0.84,3.098,0.03c0.856,0.869,0.84,2.242-0.03,3.097l-5.293,5.178
	c-0.13,0.125-0.26,0.251-0.411,0.338c-0.341,0.197-0.726,0.318-1.138,0.304c-0.608-0.003-1.151-0.245-1.549-0.672l-5.124-5.375
	c-0.855-0.87-0.802-2.264,0.068-3.12c0.869-0.855,2.264-0.802,3.119,0.068l1.298,1.372l0.024-6.782
	c-0.005-2.37,1.222-4.443,3.23-5.602c2.007-1.159,4.416-1.186,6.407-0.012l5.216,2.998
	C140.142,188.969,140.517,190.318,139.855,191.358 M124.256,215.515l0.017-5.919c0.005-1.215,1.005-2.196,2.22-2.191
	c1.215,0.005,2.196,1.005,2.191,2.22l-0.017,5.919c0.005,1.058,0.701,1.565,1.006,1.743c0.305,0.177,1.109,0.521,2.018-0.004
	l5.985-3.455l-1.972-0.529c-1.195-0.32-1.895-1.532-1.552-2.689c0.32-1.195,1.532-1.895,2.689-1.553l7.126,1.845
	c0.576,0.123,1.049,0.506,1.355,1.036c0.307,0.531,0.38,1.094,0.219,1.692l-1.964,7.094c-0.16,0.597-0.543,1.071-0.998,1.334
	c-0.492,0.284-1.094,0.379-1.692,0.219c-1.195-0.321-1.857-1.555-1.553-2.69l0.529-1.972l-5.985,3.456
	c-2.007,1.159-4.416,1.186-6.407,0.012C125.48,219.909,124.239,217.848,124.256,215.515"/>
<path fill-rule="evenodd" clip-rule="evenodd" fill="#BCBDC0" d="M21.397,258.744c-0.457,0.924-0.08,2.04,0.844,2.497l4.052,2.006
	c0.924,0.457,2.039,0.08,2.497-0.844c0.211-0.426,0.262-0.976,0.118-1.401c-0.143-0.426-0.464-0.85-0.944-1.043l-4.052-2.005
	C22.917,257.461,21.854,257.82,21.397,258.744 M50.941,271.022c-2.994,5.155-9.05,3.176-9.37,3.106
	c-0.941-0.333-2.021,0.15-2.336,1.145c-0.333,0.941,0.15,2.021,1.144,2.336c3.162,1.122,10.187,1.591,13.797-4.72
	c0.247-0.498,0.298-1.048,0.136-1.526c-0.143-0.425-0.447-0.796-0.82-1.025C52.55,269.827,51.398,270.098,50.941,271.022
	 M40.13,255.316c-9.777,3.303-11.639,12.161-9.162,19.493c2.459,7.28,10.022,13.368,19.214,10.263
	c4.782-1.616,6.881-4.515,9.824-9.121c0.317-0.462,0.937-0.731,1.893-1.054c1.523-0.574,4.747-1.722,3.239-6.185l-3.68-10.892
	c-0.323-0.957-1.389-1.485-2.346-1.162c-0.956,0.324-1.484,1.39-1.161,2.346l3.68,10.893c0.233,0.691,0.217,0.992,0.217,0.992
	c-0.124,0.16-0.761,0.376-1.187,0.519c-1.168,0.395-2.744,0.987-3.749,2.569c-2.82,4.446-4.337,6.438-7.844,7.623
	c-6.96,2.351-12.583-2.202-14.522-7.94c-1.741-5.154-1.025-12.145,6.84-14.802c3.559-1.202,5.903-0.573,10.859,1.304
	c0.959,0.387,2.021-0.15,2.408-1.109c0.333-0.941-0.151-2.021-1.11-2.408C48.41,254.769,44.912,253.701,40.13,255.316
	 M25.913,274.741l-4.304,1.454c-0.956,0.323-1.484,1.389-1.161,2.346c0.323,0.956,1.39,1.484,2.346,1.161l4.304-1.454
	c0.956-0.323,1.484-1.39,1.161-2.346C27.936,274.946,26.87,274.418,25.913,274.741 M36.76,285.995
	c-0.924-0.457-2.04-0.08-2.497,0.844l-2.006,4.051c-0.458,0.925-0.08,2.04,0.844,2.498c0.924,0.457,2.039,0.08,2.497-0.844
	l2.005-4.052c0.212-0.426,0.263-0.976,0.119-1.401C37.507,286.63,37.186,286.206,36.76,285.995 M69.544,270.539
	c0.956-0.323,1.484-1.389,1.161-2.346l-3.985-11.796c-0.323-0.956-1.389-1.484-2.346-1.161c-0.956,0.323-1.484,1.39-1.161,2.346
	l3.967,11.742C67.521,270.334,68.587,270.862,69.544,270.539 M74.091,267.878c0.956-0.323,1.484-1.39,1.161-2.346l-3.303-9.777
	c-0.323-0.956-1.389-1.484-2.346-1.161c-0.956,0.323-1.484,1.39-1.161,2.346l3.303,9.777
	C72.068,267.673,73.135,268.201,74.091,267.878"/>
<path fill-rule="evenodd" clip-rule="evenodd" fill="#BCBDC0" d="M321.159,185.551l-4.081,7.23c-0.367,0.649-0.17,1.518,0.495,2.03
	c0.728,0.561,1.742,0.48,2.263-0.178l5.148-6.513c0.058-0.075,0.119-0.164,0.167-0.248c0.574-1.016,0.143-2.359-0.958-2.999
	C323.09,184.231,321.732,184.535,321.159,185.551"/>
<path fill-rule="evenodd" clip-rule="evenodd" fill="#BCBDC0" d="M331.662,195.711l-6.214,5.505
	c-0.559,0.494-0.656,1.379-0.194,2.08c0.505,0.768,1.489,1.022,2.197,0.569l6.99-4.478c0.078-0.052,0.166-0.117,0.239-0.18
	c0.873-0.774,0.904-2.184,0.071-3.148C333.918,195.093,332.535,194.938,331.662,195.711"/>
<path fill-rule="evenodd" clip-rule="evenodd" fill="#BCBDC0" d="M337.473,208.601l-8.018,2.153
	c-0.721,0.193-1.203,0.942-1.102,1.775c0.11,0.913,0.877,1.58,1.713,1.49l8.253-0.888c0.094-0.012,0.201-0.03,0.294-0.055
	c1.127-0.302,1.784-1.55,1.469-2.785C339.767,209.055,338.599,208.299,337.473,208.601"/>
<path fill-rule="evenodd" clip-rule="evenodd" fill="#BCBDC0" d="M336.549,222.433l-8.179-1.42
	c-0.736-0.128-1.488,0.349-1.747,1.147c-0.284,0.874,0.131,1.802,0.926,2.072l7.862,2.667c0.09,0.028,0.195,0.056,0.29,0.073
	c1.15,0.2,2.27-0.655,2.504-1.908C338.44,223.81,337.698,222.633,336.549,222.433"/>
</svg>
