<?xml version="1.0" encoding="utf-8"?>
<!-- Generator: Adobe Illustrator 17.0.0, SVG Export Plug-In . SVG Version: 6.00 Build 0)  -->
<!DOCTYPE svg PUBLIC "-//W3C//DTD SVG 1.1//EN" "http://www.w3.org/Graphics/SVG/1.1/DTD/svg11.dtd">
<svg version="1.1" id="Layer_1" xmlns="http://www.w3.org/2000/svg" xmlns:xlink="http://www.w3.org/1999/xlink" x="0px" y="0px"
	 width="359.054px" height="453.741px" viewBox="0 0 359.054 453.741" enable-background="new 0 0 359.054 453.741"
	 xml:space="preserve">
<path fill="#BCBDC0" d="M283.608,56.655L283.608,56.655C283.655,56.587,283.681,56.538,283.608,56.655"/>
<path fill="#BCBDC0" d="M309.026,59.563c1.311-1.722,1.788-3.789,1.135-5.829c-1.008-3.355-4.563-5.268-7.919-4.26l-12.005,3.606
	l-0.498-4.728c-0.257-2.389-0.741-4.763-1.424-7.038c-1.145-5.482-5.467-7.828-9.925-6.611c-4.439,1.279-6.529,6.093-4.843,10.356
	c2.583,8.6,0.847,14.501-3.714,22.32l-0.512-1.703c-0.291-0.969-1.309-1.517-2.278-1.226l-18.878,5.67
	c-0.969,0.291-1.517,1.31-1.226,2.279l9.526,31.715c0.291,0.97,1.31,1.518,2.279,1.226l18.877-5.67
	c0.97-0.291,1.518-1.309,1.226-2.279l-0.507-1.69l4.594,0.951c0.302,0.058,0.61,0.047,0.896-0.039l24.333-7.309
	c3.408-0.969,5.245-4.461,4.261-7.919c-0.374-1.242-1.094-2.286-2.031-3.062c1.583-1.857,2.145-3.909,1.479-6.216
	c-0.373-1.242-1.097-2.299-2.03-3.062c1.502-1.629,2.191-3.936,1.479-6.216C310.91,61.462,310.086,60.342,309.026,59.563
	 M274.817,96.692l-15.373,4.617l-8.474-28.21l15.361-4.614l8.473,28.21L274.817,96.692z M304.844,58.136l-1.442,0.433
	c-0.969,0.291-1.517,1.309-1.226,2.279c0.291,0.969,1.31,1.517,2.279,1.226c1.429-0.43,2.932,0.379,3.358,1.796
	c0.435,1.495-0.593,3.077-1.809,3.361l-2.05,0.616c-0.97,0.291-1.517,1.309-1.226,2.278c0.291,0.97,1.309,1.518,2.278,1.226
	c1.429-0.429,2.932,0.38,3.362,1.809c0.465,1.459-0.503,3.064-1.809,3.361l-2.05,0.616c-0.969,0.291-1.517,1.31-1.226,2.279
	c0.291,0.969,1.309,1.517,2.279,1.226c1.428-0.43,2.932,0.379,3.357,1.796c0.358,1.329-0.32,2.995-1.808,3.361l-23.886,7.175
	l-6.083-1.262l-1.938-6.45l4.897-1.47c0.969-0.292,1.517-1.31,1.226-2.279c-0.292-0.97-1.31-1.518-2.279-1.227l-4.896,1.471
	l-0.952-3.168l8.264-2.483c0.97-0.291,1.517-1.309,1.226-2.279c-0.291-0.969-1.309-1.517-2.279-1.226l-8.264,2.483l-0.892-2.97
	c-0.065,0.1-0.159,0.237,0,0c5.991-9.238,9.151-17.436,5.797-28.108c-1.153-3.162,0.459-5.327,2.378-5.795
	c3.129-0.723,4.777,1.289,5.365,4.147c0.619,2.063,1.047,4.211,1.291,6.373l0.736,6.919c0.176,0.99,1.197,1.998,2.351,1.557
	l14.118-4.241c1.429-0.429,2.932,0.379,3.362,1.809C307.065,56.195,306.289,57.715,304.844,58.136"/>
<path fill="#BCBDC0" d="M276.355,79.102l3.281-0.985c0.97-0.292,1.517-1.31,1.226-2.279s-1.309-1.517-2.279-1.226l-3.28,0.985
	c-0.97,0.292-1.518,1.31-1.227,2.279C274.368,78.845,275.386,79.393,276.355,79.102"/>
<path fill="#BCBDC0" d="M63.683,30.796c-1.891,0.506-3.534,1.605-4.469,3.223c-0.542,0.936-0.744,2.013-0.783,3.107l-2.703,0.724
	c-1.657,0.444-2.686,2.226-2.242,3.882l0.41,1.531l-3.062,0.821c-3.777,1.012-6.055,4.959-5.043,8.735l12.717,47.462
	c1.012,3.777,4.959,6.055,8.736,5.043l36.744-9.845c3.777-1.013,6.055-4.959,5.043-8.736L96.314,39.282
	c-1.012-3.777-4.958-6.056-8.735-5.044l-3.062,0.821l-0.411-1.531c-0.443-1.657-2.226-2.685-3.882-2.242l-2.703,0.725
	c-0.582-0.925-1.29-1.735-2.225-2.276c-1.615-0.933-3.598-1.087-5.489-0.58L63.683,30.796z M64.914,35.389l6.124-1.641
	c0.926-0.248,1.468-0.144,1.869,0.088c0.402,0.233,0.79,0.663,1.042,1.593c0.34,1.268,1.644,2.021,2.913,1.681l3.061-0.821
	l1.231,4.593L59.72,46.626l-1.231-4.593l3.062-0.821c1.269-0.34,2.021-1.643,1.682-2.912c-0.002-0.008-0.005-0.016-0.007-0.023
	c-0.25-0.921-0.12-1.475,0.113-1.877C63.571,35.998,63.988,35.637,64.914,35.389 M52.065,48.677l3.062-0.82l0.41,1.531
	c0.444,1.656,2.226,2.685,3.883,2.241l24.496-6.564c1.656-0.444,2.685-2.226,2.241-3.882l-0.41-1.531l3.062-0.821
	c1.312-0.351,2.561,0.369,2.912,1.682l12.717,47.461c0.352,1.312-0.369,2.56-1.681,2.912l-36.744,9.845
	c-1.312,0.352-2.56-0.369-2.912-1.681L50.384,51.589C50.032,50.277,50.753,49.028,52.065,48.677 M88.199,52.917
	c-0.502,0.208-0.918,0.582-1.177,1.059L73.537,77.332l-9.275-4.284c-1.132-0.666-2.589-0.289-3.256,0.842
	c-0.666,1.131-0.29,2.589,0.842,3.255c0.138,0.082,0.285,0.15,0.437,0.202l11.238,5.193c1.114,0.511,2.433,0.09,3.047-0.97
	l14.57-25.236c0.671-1.129,0.3-2.588-0.829-3.259C89.67,52.695,88.889,52.636,88.199,52.917"/>
<path fill="#BCBDC0" d="M243.654,127.344l-18.184-4.872c-0.952-0.255-1.934,0.312-2.189,1.263c-0.255,0.953,0.311,1.934,1.264,2.189
	l18.184,4.873c0.953,0.255,1.934-0.312,2.189-1.264C245.173,128.581,244.607,127.6,243.654,127.344 M240.815,137.939l-18.184-4.872
	c-0.952-0.255-1.934,0.311-2.189,1.263c-0.255,0.951,0.312,1.934,1.264,2.189l18.184,4.873c0.953,0.255,1.934-0.312,2.189-1.264
	C242.334,139.175,241.768,138.195,240.815,137.939 M219.7,116.885l-4.169,2.551l-0.476-1.407c-0.305-0.903-1.36-1.428-2.265-1.121
	c-0.934,0.315-1.436,1.332-1.121,2.266l0.853,2.525c0.266,0.781,0.845,1.384,1.588,1.652c0.07,0.026,0.139,0.048,0.21,0.067
	c0.698,0.186,1.433,0.075,2.072-0.317l5.174-3.166c0.407-0.249,0.694-0.642,0.805-1.107c0.112-0.465,0.037-0.943-0.213-1.353
	C221.662,116.669,220.507,116.39,219.7,116.885 M211.271,133.947c0.07,0.025,0.139,0.047,0.21,0.066
	c0.697,0.186,1.433,0.075,2.072-0.318l5.174-3.166c0.84-0.514,1.107-1.616,0.592-2.458c-0.495-0.81-1.649-1.087-2.458-0.592
	l-4.168,2.552l-0.477-1.407c-0.306-0.903-1.366-1.427-2.264-1.121c-0.934,0.314-1.437,1.331-1.122,2.265l0.854,2.527
	C209.949,133.075,210.528,133.678,211.271,133.947 M213.877,138.617l-4.168,2.549l-0.476-1.408c-0.305-0.902-1.36-1.429-2.266-1.121
	c-0.933,0.315-1.436,1.333-1.121,2.266l0.854,2.528c0.265,0.78,0.845,1.382,1.587,1.651c0.069,0.025,0.14,0.047,0.21,0.066
	c0.697,0.187,1.433,0.075,2.072-0.316l5.173-3.164c0.408-0.249,0.694-0.642,0.805-1.106c0.112-0.465,0.038-0.944-0.213-1.353
	C215.838,138.402,214.684,138.124,213.877,138.617 M250.713,111.817l-5.09-1.365c-0.132-2.457-1.812-4.555-4.225-5.202l-2.462-0.659
	c0.605-2.758-1.067-5.539-3.82-6.277c-2.754-0.738-5.592,0.835-6.445,3.526l-2.462-0.66c-2.412-0.646-4.917,0.333-6.261,2.393
	l-5.09-1.364c-3.961-1.061-8.046,1.297-9.108,5.258l-11.194,41.777c-1.061,3.961,1.297,8.046,5.258,9.108l35.856,9.607
	c3.961,1.062,8.047-1.297,9.109-5.257l11.194-41.777C257.033,116.963,254.674,112.878,250.713,111.817 M225.284,104.634l4.168,1.117
	c0.608,0.162,1.257,0.016,1.737-0.392c0.541-0.457,0.815-1.182,0.796-2.097l0.07-0.263c0.249-0.928,1.207-1.481,2.136-1.233
	c0.928,0.249,1.482,1.208,1.233,2.136l-0.07,0.262c-0.475,0.785-0.599,1.549-0.359,2.213c0.211,0.594,0.701,1.046,1.309,1.209
	l4.168,1.117c1.142,0.306,1.822,1.483,1.516,2.625c-0.306,1.142-1.484,1.822-2.626,1.516l-15.188-4.069
	c-1.142-0.306-1.822-1.484-1.516-2.627C222.964,105.007,224.142,104.328,225.284,104.634 M236.595,164.507l-35.856-9.608
	c-2.056-0.551-3.282-2.673-2.731-4.73l11.194-41.777c0.551-2.056,2.673-3.282,4.73-2.731l5.091,1.364
	c0.134,2.457,1.814,4.557,4.225,5.203l15.188,4.069c2.413,0.647,4.916-0.332,6.26-2.392l5.09,1.363
	c2.056,0.551,3.283,2.674,2.732,4.731l-11.195,41.776l0.001,0.001C240.775,163.832,238.652,165.058,236.595,164.507
	 M237.832,149.074l-18.185-4.872c-0.951-0.256-1.933,0.311-2.188,1.263c-0.255,0.951,0.311,1.934,1.264,2.189l18.184,4.872
	c0.952,0.256,1.933-0.311,2.189-1.263C239.35,150.311,238.784,149.329,237.832,149.074"/>
<path fill="#BCBDC0" d="M176.039,265.635c-2.14,0-3.883,1.75-3.883,3.885v49.794c0,2.136,1.743,3.885,3.883,3.885h8.037
	c2.127,0,3.881-1.749,3.881-3.885V269.52c0-2.135-1.754-3.885-3.881-3.885H176.039z"/>
<path fill="#BCBDC0" d="M165.507,298.307h2.77v-11.654h-2.77c-1.054,0-1.942-0.889-1.942-1.941v-25.817
	c0-4.583,3.717-8.302,8.3-8.302c0,0,16.391,0,16.391,0.002c4.583,0,8.3,3.717,8.3,8.3v25.817c0,1.052-0.888,1.941-1.942,1.941
	h-2.761v11.654h2.761c7.494,0,13.598-6.099,13.598-13.595V178.326c0-7.497-6.101-13.597-13.598-13.597h-29.107
	c-7.497,0-13.597,6.1-13.597,13.597v106.388C151.91,292.208,158.01,298.307,165.507,298.307 M163.566,178.326
	c0-1.051,0.888-1.941,1.942-1.941h29.105c1.054,0,1.941,0.89,1.941,1.941v40.201h-32.988V178.326z"/>
<path fill="#BCBDC0" d="M212.093,223.202v9.838c2.346,2.6,3.817,6.005,3.817,9.775v40.628c0,5.318-3.112,8.473-7.056,12.463
	c-2.588,2.619-5.267,5.328-7.299,8.935c-4.773,8.454-4.612,17.595-4.452,26.431c0.03,1.51,0.051,3.014,0.051,4.501
	c0,4.203-3.419,7.625-7.625,7.625h-18.946c-4.202,0-7.625-3.422-7.625-7.625c0-1.487,0.027-2.991,0.051-4.501
	c0.159-8.836,0.325-17.977-4.445-26.429c-2.033-3.609-4.712-6.318-7.297-8.937c-3.947-3.99-7.064-7.145-7.064-12.463v-40.628
	c0-3.77,1.471-7.175,3.825-9.775v-9.838c-6.907,3.829-11.597,11.18-11.597,19.613v40.628c0,8.513,4.948,13.51,9.302,17.92
	c2.337,2.363,4.536,4.593,6.063,7.297c3.73,6.612,3.597,14.317,3.452,22.473c-0.028,1.558-0.059,3.105-0.059,4.64
	c0,8.487,6.902,15.391,15.394,15.391h18.946c8.491,0,15.393-6.904,15.393-15.391c0-1.535-0.021-3.082-0.051-4.64
	c-0.146-8.154-0.281-15.859,3.451-22.473c1.525-2.704,3.727-4.934,6.059-7.297c4.36-4.412,9.302-9.41,9.302-17.92v-40.628
	C223.683,234.382,218.999,227.029,212.093,223.202"/>
<path fill="#BCBDC0" d="M196.43,374.255h-8.431c-2.176,0-5.583,0.981-7.426,2.143c-1.419,0.892-2.354,1.107-2.354,3v2.672
	c0,1.892,0.935,2.105,2.354,2.995c1.843,1.164,5.25,2.143,7.426,2.143h8.431c0.555,0,1.005-0.445,1.005-1v-10.953
	C197.435,374.702,196.985,374.255,196.43,374.255"/>
<path fill="#BCBDC0" d="M181.896,371.388v-2.672c0-1.895-0.934-2.105-2.354-2.995c-1.843-1.162-5.253-2.145-7.428-2.145h-8.431
	c-0.553,0-1,0.444-1,1.002v10.951c0,0.555,0.447,1.004,1,1.004h8.431c2.175,0,5.585-0.983,7.428-2.142
	C180.962,373.494,181.896,373.285,181.896,371.388"/>
<path fill="#BCBDC0" d="M189.526,355.052h-8.974c-1.405,0.878-2.333,1.103-2.333,2.986v2.672c0,1.896,0.934,2.103,2.354,2.998
	c1.843,1.158,5.251,2.142,7.426,2.142h8.431c0.555,0,1.005-0.447,1.005-1.002v-10.953c0-0.197-0.113-0.351-0.214-0.509
	C194.868,354.445,192.271,355.052,189.526,355.052"/>
<path fill="#BCBDC0" d="M228.638,210.394c-1.667-1.398-4.909-2.836-7.063-3.131c-1.661-0.229-2.511-0.665-3.733,0.785l-1.714,2.049
	c-1.221,1.449-0.637,2.213-0.129,3.808c0.665,2.07,2.648,5.014,4.314,6.414l6.459,5.417c0.423,0.356,1.053,0.297,1.414-0.124
	l7.04-8.389c0.358-0.424,0.297-1.054-0.129-1.412L228.638,210.394z"/>
<path fill="#BCBDC0" d="M242.371,194.033c-1.67-1.396-4.909-2.836-7.07-3.133c-1.663-0.228-2.513-0.67-3.729,0.784l-1.721,2.044
	c-1.216,1.455-0.637,2.216-0.122,3.808c0.668,2.08,2.642,5.024,4.31,6.42l6.458,5.416c0.424,0.356,1.055,0.303,1.413-0.121
	l7.042-8.391c0.356-0.424,0.302-1.054-0.125-1.413L242.371,194.033z"/>
<path fill="#BCBDC0" d="M262.551,183.092l-6.456-5.417c-1.668-1.405-4.907-2.838-7.066-3.133c-1.658-0.227-2.508-0.67-3.731,0.779
	l-1.714,2.05c-1.22,1.449-0.644,2.215-0.129,3.808c0.665,2.072,2.649,5.016,4.318,6.419l6.458,5.416
	c0.426,0.357,1.051,0.296,1.411-0.126l7.04-8.389C263.031,184.08,262.98,183.45,262.551,183.092"/>
<path fill="#BCBDC0" d="M144.116,213.905c0.508-1.595,1.094-2.361-0.131-3.808l-1.714-2.049c-1.221-1.45-2.073-1.014-3.733-0.785
	c-2.155,0.295-5.394,1.733-7.066,3.131l-6.452,5.42c-0.426,0.356-0.487,0.986-0.131,1.411l7.045,8.389
	c0.355,0.425,0.985,0.481,1.409,0.124l6.457-5.416C141.47,218.921,143.446,215.975,144.116,213.905"/>
<path fill="#BCBDC0" d="M130.383,197.539c0.515-1.592,1.091-2.356-0.124-3.808l-1.719-2.044c-1.215-1.455-2.066-1.015-3.726-0.785
	c-2.162,0.295-5.403,1.738-7.07,3.134l-6.459,5.416c-0.424,0.356-0.478,0.986-0.124,1.413l7.044,8.391
	c0.356,0.424,0.986,0.478,1.41,0.121l6.457-5.416C127.744,202.563,129.713,199.617,130.383,197.539"/>
<path fill="#BCBDC0" d="M269.838,161.307c-1.67-1.396-4.908-2.836-7.07-3.133c-1.663-0.228-2.513-0.67-3.728,0.784l-1.721,2.045
	c-1.216,1.454-0.638,2.215-0.123,3.807c0.668,2.08,2.642,5.024,4.31,6.42l6.459,5.416c0.423,0.356,1.054,0.303,1.412-0.121
	l7.042-8.391c0.356-0.424,0.302-1.054-0.124-1.412L269.838,161.307z"/>
<path fill="#BCBDC0" d="M283.571,144.944c-1.67-1.396-4.909-2.836-7.07-3.133c-1.663-0.227-2.513-0.67-3.729,0.784l-1.721,2.045
	c-1.216,1.454-0.637,2.215-0.122,3.807c0.668,2.08,2.642,5.024,4.31,6.42l6.458,5.417c0.424,0.355,1.055,0.302,1.412-0.122
	l7.043-8.391c0.356-0.424,0.302-1.054-0.125-1.412L283.571,144.944z"/>
<path fill="#BCBDC0" d="M297.305,128.581c-1.67-1.396-4.908-2.836-7.07-3.133c-1.663-0.227-2.513-0.67-3.729,0.784l-1.721,2.045
	c-1.216,1.454-0.637,2.215-0.122,3.807c0.668,2.08,2.642,5.024,4.309,6.42l6.459,5.417c0.424,0.355,1.054,0.302,1.412-0.122
	l7.043-8.391c0.356-0.424,0.302-1.054-0.124-1.412L297.305,128.581z"/>
<path fill="#BCBDC0" d="M311.038,112.218c-1.669-1.396-4.908-2.836-7.07-3.133c-1.663-0.227-2.513-0.67-3.729,0.784l-1.721,2.045
	c-1.215,1.454-0.636,2.215-0.122,3.807c0.668,2.08,2.642,5.024,4.31,6.42l6.459,5.417c0.424,0.355,1.054,0.302,1.412-0.122
	l7.042-8.391c0.356-0.424,0.302-1.054-0.124-1.412L311.038,112.218z"/>
<path fill="#BCBDC0" d="M324.771,95.855c-1.67-1.395-4.908-2.836-7.07-3.133c-1.663-0.227-2.513-0.67-3.728,0.784l-1.722,2.045
	c-1.215,1.454-0.637,2.215-0.122,3.807c0.668,2.08,2.642,5.024,4.309,6.42l6.46,5.417c0.423,0.355,1.054,0.302,1.412-0.122
	l7.042-8.391c0.356-0.424,0.302-1.054-0.124-1.412L324.771,95.855z"/>
<path fill="#BCBDC0" d="M338.505,79.492c-1.67-1.396-4.908-2.836-7.07-3.134c-1.663-0.227-2.513-0.669-3.729,0.785l-1.721,2.044
	c-1.216,1.455-0.637,2.216-0.122,3.808c0.668,2.08,2.642,5.024,4.309,6.42l6.459,5.416c0.424,0.356,1.054,0.303,1.412-0.121
	l7.043-8.391c0.356-0.424,0.302-1.054-0.125-1.412L338.505,79.492z"/>
<path fill="#BCBDC0" d="M352.238,63.129c-1.669-1.396-4.908-2.836-7.07-3.134c-1.663-0.227-2.513-0.669-3.729,0.785l-1.721,2.044
	c-1.216,1.455-0.637,2.216-0.122,3.808c0.668,2.08,2.642,5.024,4.309,6.42l6.46,5.416c0.423,0.356,1.054,0.303,1.412-0.121
	l7.042-8.391c0.356-0.424,0.302-1.054-0.124-1.412L352.238,63.129z"/>
<path fill="#BCBDC0" d="M96.503,183.092l6.457-5.417c1.667-1.405,4.906-2.838,7.065-3.133c1.658-0.227,2.508-0.67,3.731,0.779
	l1.714,2.05c1.22,1.449,0.644,2.215,0.129,3.808c-0.665,2.072-2.649,5.016-4.318,6.419l-6.457,5.416
	c-0.426,0.357-1.052,0.296-1.412-0.126l-7.04-8.389C96.023,184.08,96.075,183.45,96.503,183.092"/>
<path fill="#BCBDC0" d="M89.216,161.307c1.67-1.396,4.909-2.836,7.07-3.133c1.663-0.228,2.513-0.67,3.729,0.784l1.721,2.045
	c1.215,1.454,0.637,2.215,0.122,3.807c-0.668,2.08-2.642,5.024-4.31,6.42l-6.459,5.416c-0.423,0.356-1.054,0.303-1.412-0.121
	l-7.042-8.391c-0.356-0.424-0.302-1.054,0.125-1.412L89.216,161.307z"/>
<path fill="#BCBDC0" d="M75.483,144.944c1.67-1.396,4.909-2.836,7.07-3.133c1.663-0.227,2.513-0.67,3.728,0.784l1.721,2.045
	c1.216,1.454,0.638,2.215,0.123,3.807c-0.668,2.08-2.642,5.024-4.31,6.42l-6.459,5.417c-0.423,0.355-1.054,0.302-1.412-0.122
	l-7.042-8.391c-0.356-0.424-0.302-1.054,0.124-1.412L75.483,144.944z"/>
<path fill="#BCBDC0" d="M61.749,128.581c1.67-1.396,4.909-2.836,7.07-3.133c1.663-0.227,2.513-0.67,3.729,0.784l1.721,2.045
	c1.216,1.454,0.637,2.215,0.122,3.807c-0.668,2.08-2.642,5.024-4.309,6.42l-6.459,5.417c-0.424,0.355-1.054,0.302-1.412-0.122
	l-7.043-8.391c-0.356-0.424-0.302-1.054,0.125-1.412L61.749,128.581z"/>
<path fill="#BCBDC0" d="M48.016,112.218c1.67-1.396,4.909-2.836,7.07-3.133c1.663-0.227,2.513-0.67,3.729,0.784l1.721,2.045
	c1.216,1.454,0.637,2.215,0.122,3.807c-0.668,2.08-2.642,5.024-4.309,6.42l-6.46,5.417c-0.423,0.355-1.053,0.302-1.412-0.122
	l-7.042-8.391c-0.356-0.424-0.302-1.054,0.125-1.412L48.016,112.218z"/>
<path fill="#BCBDC0" d="M34.283,95.855c1.67-1.395,4.908-2.836,7.07-3.133c1.663-0.227,2.513-0.67,3.729,0.784l1.72,2.045
	c1.216,1.454,0.638,2.215,0.123,3.807c-0.668,2.08-2.642,5.024-4.31,6.42l-6.459,5.417c-0.423,0.355-1.054,0.302-1.412-0.122
	l-7.042-8.391c-0.356-0.424-0.302-1.054,0.125-1.412L34.283,95.855z"/>
<path fill="#BCBDC0" d="M20.55,79.492c1.67-1.396,4.908-2.836,7.07-3.134c1.663-0.227,2.513-0.669,3.728,0.785l1.721,2.044
	c1.216,1.455,0.637,2.216,0.123,3.808c-0.668,2.08-2.642,5.024-4.31,6.42l-6.459,5.416c-0.423,0.356-1.054,0.303-1.412-0.121
	l-7.042-8.391c-0.356-0.424-0.302-1.054,0.124-1.412L20.55,79.492z"/>
<path fill="#BCBDC0" d="M6.816,63.129c1.67-1.396,4.908-2.836,7.07-3.134c1.663-0.227,2.513-0.669,3.729,0.785l1.721,2.044
	c1.215,1.455,0.637,2.216,0.122,3.808c-0.668,2.08-2.642,5.024-4.31,6.42L8.69,78.468c-0.424,0.356-1.055,0.303-1.413-0.121
	l-7.042-8.391c-0.356-0.424-0.302-1.054,0.124-1.412L6.816,63.129z"/>
<path fill="#BCBDC0" d="M196.43,396.433h-8.431c-2.176,0-5.583,0.981-7.426,2.143c-1.419,0.892-2.354,1.107-2.354,3v2.672
	c0,1.892,0.935,2.105,2.354,2.995c1.843,1.164,5.25,2.143,7.426,2.143h8.431c0.555,0,1.005-0.445,1.005-1v-10.953
	C197.435,396.88,196.985,396.433,196.43,396.433"/>
<path fill="#BCBDC0" d="M196.43,418.611h-8.431c-2.176,0-5.583,0.981-7.426,2.143c-1.419,0.892-2.354,1.107-2.354,3v2.672
	c0,1.892,0.935,2.106,2.354,2.995c1.843,1.164,5.25,2.143,7.426,2.143h8.431c0.555,0,1.005-0.445,1.005-1v-10.953
	C197.435,419.058,196.985,418.611,196.43,418.611"/>
<path fill="#BCBDC0" d="M196.43,440.788h-8.431c-2.176,0-5.583,0.981-7.426,2.143c-1.419,0.892-2.354,1.107-2.354,3v2.672
	c0,1.892,0.935,2.106,2.354,2.995c1.843,1.164,5.25,2.143,7.426,2.143h8.431c0.555,0,1.005-0.445,1.005-1v-10.953
	C197.435,441.235,196.985,440.788,196.43,440.788"/>
<path fill="#BCBDC0" d="M181.896,393.566v-2.672c0-1.895-0.934-2.106-2.354-2.995c-1.843-1.162-5.253-2.145-7.428-2.145h-8.431
	c-0.553,0-1,0.444-1,1.002v10.95c0,0.556,0.447,1.005,1,1.005h8.431c2.175,0,5.585-0.983,7.428-2.143
	C180.962,395.672,181.896,395.463,181.896,393.566"/>
<path fill="#BCBDC0" d="M181.896,415.744v-2.672c0-1.895-0.934-2.105-2.354-2.995c-1.843-1.162-5.253-2.145-7.428-2.145h-8.431
	c-0.553,0-1,0.444-1,1.002v10.95c0,0.556,0.447,1.005,1,1.005h8.431c2.175,0,5.585-0.983,7.428-2.143
	C180.962,417.85,181.896,417.641,181.896,415.744"/>
<path fill="#BCBDC0" d="M181.896,437.922v-2.672c0-1.895-0.934-2.105-2.354-2.995c-1.843-1.162-5.253-2.145-7.428-2.145h-8.431
	c-0.553,0-1,0.444-1,1.002v10.95c0,0.556,0.447,1.005,1,1.005h8.431c2.175,0,5.585-0.983,7.428-2.143
	C180.962,440.028,181.896,439.819,181.896,437.922"/>
<path fill-rule="evenodd" clip-rule="evenodd" fill="#BCBDC0" d="M125.794,102.233c-1.184-0.361-2.43,0.303-2.791,1.486
	l-1.582,5.188c-0.361,1.183,0.303,2.43,1.486,2.791c0.546,0.166,1.207,0.119,1.682-0.134s0.915-0.716,1.05-1.321l1.582-5.187
	C127.609,103.781,126.977,102.594,125.794,102.233 M117.034,139.6c-6.687-2.537-5.527-10.091-5.507-10.483
	c0.21-1.18-0.573-2.363-1.812-2.542c-1.179-0.211-2.362,0.572-2.541,1.811c-0.711,3.961,0.107,12.368,8.282,15.408
	c0.637,0.194,1.298,0.147,1.833-0.138c0.475-0.253,0.855-0.684,1.053-1.17C118.762,141.271,118.217,139.96,117.034,139.6
	 M133.511,123.735c-5.82-10.926-16.668-11.4-24.862-7.035c-8.136,4.333-13.864,14.473-8.393,24.746
	c2.847,5.345,6.688,7.262,12.714,9.846c0.61,0.285,1.048,0.967,1.618,2.035c0.976,1.691,2.965,5.282,7.953,2.625l12.174-6.484
	c1.068-0.569,1.485-1.934,0.916-3.003c-0.569-1.069-1.935-1.485-3.004-0.916l-12.173,6.484c-0.772,0.411-1.132,0.45-1.132,0.45
	c-0.214-0.115-0.593-0.827-0.847-1.302c-0.695-1.307-1.704-3.057-3.773-3.937c-5.812-2.468-8.467-3.875-10.554-7.794
	c-4.143-7.779,0.147-15.324,6.56-18.74c5.76-3.067,14.175-3.585,18.855,5.203c2.12,3.979,1.833,6.876,0.579,13.109
	c-0.27,1.21,0.572,2.363,1.783,2.632c1.179,0.211,2.363-0.572,2.633-1.783C135.777,133.429,136.357,129.079,133.511,123.735
	 M107.742,110.704l-2.562-4.81c-0.569-1.069-1.934-1.486-3.003-0.916c-1.069,0.569-1.485,1.934-0.916,3.003l2.562,4.81
	c0.569,1.069,1.934,1.485,3.003,0.916C107.895,113.138,108.311,111.773,107.742,110.704 M96.541,125.74
	c0.361-1.183-0.303-2.43-1.486-2.791l-5.188-1.582c-1.183-0.361-2.43,0.304-2.791,1.487c-0.361,1.183,0.303,2.43,1.486,2.79
	l5.188,1.583c0.546,0.166,1.207,0.119,1.682-0.134C95.935,126.749,96.374,126.286,96.541,125.74 M121.24,161.523
	c0.569,1.069,1.934,1.486,3.003,0.917l13.183-7.022c1.069-0.569,1.485-1.934,0.916-3.003c-0.569-1.069-1.934-1.485-3.003-0.916
	l-13.124,6.99C121.087,159.09,120.671,160.455,121.24,161.523 M125.278,166.386c0.569,1.069,1.934,1.485,3.003,0.916l10.927-5.82
	c1.068-0.569,1.485-1.934,0.916-3.003c-0.57-1.069-1.935-1.485-3.004-0.916l-10.926,5.82
	C125.125,163.952,124.708,165.317,125.278,166.386"/>
<path fill-rule="evenodd" clip-rule="evenodd" fill="#BCBDC0" d="M187.734,100.498c-0.177-1.115-0.633-2.157-1.371-3.046
	c-0.676-0.813-1.545-1.424-2.516-1.814l1.929-7.052l2.599-2.159l0.689,3.673l4.193,1.625l0.832,4.422l3.489,1.356l-2.62,2.177
	L187.734,100.498z M238.4,52.493l1.565,1.884c2.105,2.535,1.755,6.31-0.779,8.416l-2.529,2.101l-9.203-11.077l2.53-2.101
	C232.517,49.611,236.291,49.959,238.4,52.493 M227.136,63.442C227.135,63.442,227.135,63.442,227.136,63.442
	c-0.58-0.696-1.612-0.791-2.308-0.213l-30.283,25.302c-0.047,0.039-0.084,0.085-0.126,0.127l-2.468-0.957l-0.661-3.52
	c-0.009-0.049-0.028-0.095-0.041-0.143l33.683-28.127l9.203,11.078l-33.684,28.127c-0.045-0.021-0.084-0.048-0.131-0.066
	l-3.346-1.301l-0.489-2.593c0.052-0.034,0.105-0.064,0.154-0.104l30.282-25.302C227.619,65.172,227.714,64.139,227.136,63.442
	 M242.486,52.283l-1.569-1.889c-3.262-3.921-9.106-4.459-13.028-1.2l-44.604,37.2c-0.258,0.215-0.444,0.504-0.534,0.828
	l-4.202,15.356c-0.141,0.517-0.021,1.069,0.321,1.48c0.005,0.006,0.011,0.012,0.016,0.019c0.354,0.412,0.889,0.624,1.429,0.562
	l15.5-1.758c0.317-0.036,0.617-0.164,0.863-0.369l44.603-37.198C245.205,62.053,245.746,56.209,242.486,52.283"/>
<path fill="#BCBDC0" d="M131.333,50.874c-1.927,2.65-1.336,6.376,1.314,8.303l9.39,6.829c-0.751,0.405-1.428,0.987-1.963,1.722
	c-0.979,1.347-1.306,2.968-1.046,4.486c-1.527,0.224-2.969,1.034-3.946,2.379c-0.535,0.734-0.879,1.558-1.034,2.397l-9.389-6.829
	c-2.65-1.927-6.379-1.338-8.306,1.311c-1.928,2.65-1.337,6.376,1.313,8.303l24.031,17.478c8.332,6.059,20.036,4.208,26.093-4.121
	c6.024-8.282,4.232-19.906-3.986-25.985c-0.044-0.042-0.085-0.072-0.133-0.107l-24.032-17.478
	C136.989,47.635,133.263,48.221,131.333,50.874 M134.644,56.431c-1.135-0.826-1.385-2.424-0.561-3.557
	c0.826-1.136,2.424-1.391,3.559-0.565l17.702,12.874c-1.97,0.529-3.613,1.664-4.791,2.818L134.644,56.431z M143.385,73.285
	c-1.136-0.826-1.389-2.429-0.565-3.561c0.823-1.133,2.425-1.385,3.561-0.559l2.059,1.498l-2.996,4.119L143.385,73.285z
	 M138.392,80.149c-1.135-0.826-1.389-2.427-0.565-3.56c0.823-1.132,2.425-1.385,3.561-0.559l2.06,1.498l-2.996,4.119L138.392,80.149
	z M165.044,91.135c-4.958,6.817-14.536,8.327-21.349,3.372l-24.032-17.478c-1.135-0.825-1.384-2.425-0.561-3.557
	c0.827-1.136,2.424-1.39,3.559-0.565l17.167,12.485c1.126,0.819,2.836,1.655,4.782,1.967c2.999,0.485,6.575-0.265,9.447-4.214
	l0.364-0.501c0.455,2.019,1.672,4.081,4.133,5.87c0.754,0.549,1.823,0.38,2.372-0.374c0.548-0.754,0.378-1.823-0.375-2.371
	c-5.296-3.852-1.898-8.93-1.501-9.489c0.548-0.754,0.379-1.824-0.375-2.372c-0.753-0.548-1.823-0.379-2.371,0.375l-4.993,6.864
	c-1.328,1.826-2.796,2.618-4.175,2.855c-1.468,0.257-2.826-0.114-3.815-0.528l8.859-12.181c0.119-0.164,0.528-0.685,1.179-1.251
	c1.361-1.188,3.791-2.555,6.85-1.129c0.474,0.217,0.964,0.509,1.464,0.873c0.465,0.338,0.9,0.699,1.317,1.076
	C168.66,76.035,169.658,84.79,165.044,91.135"/>
<path fill-rule="evenodd" clip-rule="evenodd" fill="#BCBDC0" d="M149.897,130.561c0,7.549,5.693,13.748,12.989,14.634V128.79
	h16.405c-0.885-7.296-7.127-12.989-14.634-12.989C156.518,115.801,149.897,122.422,149.897,130.561 M146.354,130.561
	c0-10.079,8.224-18.303,18.303-18.303c10.08,0,18.303,8.224,18.303,18.303v1.771h-16.532v16.49h-1.771
	C154.578,148.822,146.354,140.64,146.354,130.561 M186.334,135.706c0,9.109-7.38,16.532-16.532,16.532v-16.532H186.334z"/>
<path fill-rule="evenodd" clip-rule="evenodd" fill="#BCBDC0" d="M110.66,26.991c-0.512,0.331-0.923,0.805-1.159,1.4
	c-0.605,1.527,0.354,3.269,1.991,3.983l16.956,7.413c0.798,0.35,1.759,0.145,2.265-0.526c0.572-0.755,0.351-1.814-0.491-2.368
	l-8.468-5.554c-1.287-0.844-1.335-2.569-0.084-3.38c3.72-2.412,10.217-6.634,10.369-6.817c1.159-1.396,0.834-3.433-0.725-4.55
	c0,0-21.957-15.705-22.219-15.838c-2.862-1.462-6.408-0.477-7.763,2.213c-1.268,2.522,0.109,5.605,2.828,6.994l15.177,7.754
	c1.483,0.757,1.641,2.656,0.294,3.52L110.66,26.991z"/>
<path fill="#BCBDC0" d="M245.041,0.232c-11.133,1.682-18.833,12.034-17.166,23.076c1.667,11.042,12.081,18.658,23.214,16.977
	c11.131-1.681,18.834-12.033,17.167-23.075C266.588,6.168,256.174-1.449,245.041,0.232 M251.683,2.176
	c3.077,0.647,5.907,2.07,8.231,4.106c1.75,2.213,2.213,3.402,2.221,4.028l-5.273,2.882l-6.547-2.89
	c-0.741-2.105-2.248-5.467-2.724-6.526C248.96,2.611,251.412,2.217,251.683,2.176 M246.283,3.982l-0.011,0.003
	c0.019,0.042,1.87,4.081,2.754,6.525l-4.727,5.243l-8.841,0.019c0,0-0.881-2.221-1.152-4.071l0.002,0.001
	c0.027-0.05,2.309-5.335,7.106-7.661C241.414,4.041,244.431,3.728,246.283,3.982 M237.639,5.071
	c-2.399,2.209-3.909,4.939-4.351,5.805c-0.677,0.414-1.337,1.153-1.875,1.86C232.738,9.664,234.891,7.004,237.639,5.071
	 M230.132,22.548c-0.047-0.307-0.062-0.612-0.091-0.92c0.616,0.779,1.423,1.311,1.999,1.626c0.685,1.585,2.56,5.614,5.097,8.653
	c0.14,1.339,0.402,2.23,0.645,2.816C233.801,31.986,230.908,27.689,230.132,22.548 M238.172,31.144
	c-2.61-3.1-4.556-7.464-5.077-8.698c0.887-2.982,2.264-5.343,2.264-5.343l8.647-0.044c1.381,2.626,3.162,5.308,4.012,6.557
	c-0.729,1.548-2.783,5.858-4.053,8.016C242.468,31.881,239.717,31.44,238.172,31.144 M250.7,37.72
	c-1.551,0.234-3.083,0.244-4.578,0.085c1.488-0.271,2.315-0.758,2.764-1.173c0.467,0.027,1.81,0.079,3.553-0.184
	c1.78-0.269,3.963-0.874,6.024-2.152c0.123,0.021,0.243,0.024,0.363,0.022C256.513,36.052,253.753,37.259,250.7,37.72
	 M258.143,32.983c-4.176,2.798-9.263,2.362-9.315,2.357l-0.395-0.134c-1.518-1.021-2.929-2.724-3.205-3.07
	c-0.015-0.019-0.021-0.038-0.034-0.057c1.299-2.259,3.231-6.308,3.962-7.867c5.038-0.985,6.975-1.688,6.975-1.688
	c0.023,0.025,3.108,2.996,4.783,5.821C260.521,29.906,258.991,31.875,258.143,32.983 M265.246,24.393
	c-1.805,1.926-3.519,2.834-3.519,2.834c-1.054-1.474-4.581-5.626-4.581-5.626c0.588-2.472,0.479-5.746,0.437-7.339l5.045-2.759
	c1.516,1.083,2.55,3.189,2.914,4.025c0.13,0.533,0.248,1.072,0.331,1.623c0.399,2.64,0.185,5.225-0.506,7.637
	C265.322,24.519,265.246,24.393,265.246,24.393"/>
<path fill-rule="evenodd" clip-rule="evenodd" fill="#BCBDC0" d="M298.319,34.164l0.074,7.557c0.006,0.68,0.557,1.275,1.314,1.375
	c0.829,0.112,1.591-0.413,1.703-1.17l1.095-7.478c0.011-0.085,0.018-0.183,0.018-0.271c-0.01-1.062-0.961-1.925-2.121-1.929
	C299.241,32.245,298.309,33.102,298.319,34.164"/>
<path fill-rule="evenodd" clip-rule="evenodd" fill="#BCBDC0" d="M311.224,37.393l-2.394,7.169
	c-0.215,0.644,0.111,1.386,0.794,1.728c0.748,0.376,1.64,0.128,1.992-0.551l3.473-6.713c0.037-0.076,0.077-0.167,0.105-0.25
	c0.337-1.008-0.28-2.134-1.376-2.515C312.721,35.879,311.561,36.386,311.224,37.393"/>
<path fill-rule="evenodd" clip-rule="evenodd" fill="#BCBDC0" d="M321.673,44.911l-5.341,5.347c-0.481,0.48-0.52,1.29-0.061,1.901
	c0.501,0.67,1.41,0.846,2.028,0.395l6.103-4.457c0.068-0.052,0.145-0.115,0.207-0.177c0.751-0.751,0.701-2.034-0.109-2.864
	C323.689,44.225,322.423,44.16,321.673,44.911"/>
<path fill-rule="evenodd" clip-rule="evenodd" fill="#BCBDC0" d="M327.241,56.237l-7.095,2.604
	c-0.638,0.234-1.014,0.952-0.855,1.699c0.173,0.818,0.923,1.361,1.674,1.212l7.412-1.476c0.083-0.019,0.179-0.044,0.262-0.074
	c0.997-0.366,1.491-1.551,1.105-2.645C329.358,56.462,328.238,55.871,327.241,56.237"/>
<path fill-rule="evenodd" clip-rule="evenodd" fill="#BCBDC0" d="M249.233,264.748l-13.714,3.819
	c-1.233,0.342-2.048,1.634-1.862,3.061c0.203,1.563,1.529,2.694,2.96,2.528l14.139-1.654c0.16-0.022,0.344-0.056,0.503-0.099
	c1.927-0.536,3.034-2.687,2.475-4.799C253.174,265.49,251.16,264.212,249.233,264.748"/>
<path fill-rule="evenodd" clip-rule="evenodd" fill="#BCBDC0" d="M249.65,289.802l-14.209-0.86
	c-1.278-0.078-2.469,0.877-2.758,2.288c-0.319,1.543,0.566,3.045,1.974,3.354l13.906,3.045c0.158,0.032,0.342,0.06,0.507,0.071
	c1.997,0.121,3.745-1.551,3.904-3.73C253.134,291.788,251.646,289.923,249.65,289.802"/>
<path fill-rule="evenodd" clip-rule="evenodd" fill="#BCBDC0" d="M241.067,312.478l-12.332-7.111
	c-1.108-0.64-2.601-0.317-3.489,0.816c-0.973,1.239-0.852,2.978,0.27,3.883l11.085,8.931c0.127,0.099,0.28,0.206,0.423,0.29
	c1.732,0.999,4.042,0.283,5.158-1.596C243.299,315.81,242.8,313.478,241.067,312.478"/>
<path fill-rule="evenodd" clip-rule="evenodd" fill="#BCBDC0" d="M223.174,328.13l-8.196-11.639
	c-0.736-1.047-2.226-1.382-3.509-0.727c-1.404,0.714-2.026,2.343-1.389,3.635l6.3,12.766c0.074,0.144,0.167,0.305,0.262,0.441
	c1.151,1.636,3.548,1.958,5.35,0.723C223.796,332.092,224.325,329.766,223.174,328.13"/>
<path fill-rule="evenodd" clip-rule="evenodd" fill="#BCBDC0" d="M109.529,264.748l13.714,3.819
	c1.233,0.342,2.047,1.634,1.861,3.061c-0.202,1.563-1.528,2.694-2.959,2.528l-14.14-1.654c-0.16-0.022-0.343-0.056-0.502-0.099
	c-1.928-0.536-3.035-2.687-2.476-4.799C105.587,265.49,107.602,264.212,109.529,264.748"/>
<path fill-rule="evenodd" clip-rule="evenodd" fill="#BCBDC0" d="M109.113,289.802l14.209-0.86c1.278-0.078,2.469,0.877,2.758,2.288
	c0.318,1.543-0.566,3.045-1.974,3.354l-13.906,3.045c-0.158,0.032-0.343,0.06-0.508,0.071c-1.996,0.121-3.744-1.551-3.904-3.73
	C105.629,291.788,107.116,289.923,109.113,289.802"/>
<path fill-rule="evenodd" clip-rule="evenodd" fill="#BCBDC0" d="M117.696,312.478l12.332-7.111c1.109-0.64,2.601-0.317,3.489,0.816
	c0.973,1.239,0.852,2.978-0.27,3.883l-11.085,8.931c-0.128,0.099-0.28,0.206-0.423,0.29c-1.732,0.999-4.042,0.283-5.158-1.596
	C115.464,315.81,115.963,313.478,117.696,312.478"/>
<path fill-rule="evenodd" clip-rule="evenodd" fill="#BCBDC0" d="M135.589,328.13l8.196-11.639c0.737-1.047,2.226-1.382,3.509-0.727
	c1.404,0.714,2.025,2.343,1.389,3.635l-6.3,12.766c-0.074,0.144-0.167,0.305-0.261,0.441c-1.152,1.636-3.549,1.958-5.351,0.723
	C134.966,332.092,134.438,329.766,135.589,328.13"/>
<path fill-rule="evenodd" clip-rule="evenodd" fill="#BCBDC0" d="M25.788,46.357l11.004,1.306c0.99,0.118,1.958-0.572,2.246-1.654
	c0.317-1.186-0.303-2.392-1.383-2.696l-10.671-2.99c-0.121-0.032-0.263-0.062-0.391-0.078c-1.547-0.184-2.979,1.038-3.201,2.724
	C23.169,44.657,24.242,46.173,25.788,46.357"/>
<path fill-rule="evenodd" clip-rule="evenodd" fill="#BCBDC0" d="M32.897,28.192l9.978,4.821c0.896,0.434,2.037,0.099,2.662-0.831
	c0.686-1.018,0.493-2.361-0.43-3l-9.113-6.305c-0.104-0.069-0.229-0.144-0.344-0.2c-1.402-0.678-3.155,0.009-3.914,1.531
	C30.975,25.731,31.495,27.515,32.897,28.192"/>
<path fill-rule="evenodd" clip-rule="evenodd" fill="#BCBDC0" d="M45.783,14.402l6.777,8.768c0.609,0.788,1.779,0.997,2.754,0.444
	c1.067-0.605,1.494-1.893,0.954-2.876l-5.341-9.709c-0.063-0.109-0.141-0.231-0.219-0.334c-0.952-1.232-2.827-1.399-4.186-0.377
	C45.161,11.343,44.831,13.17,45.783,14.402"/>
<path fill-rule="evenodd" clip-rule="evenodd" fill="#BCBDC0" d="M63.296,8.422l2.46,10.805c0.22,0.972,1.194,1.653,2.311,1.561
	c1.223-0.099,2.152-1.088,2.075-2.207l-0.76-11.056c-0.011-0.125-0.031-0.269-0.058-0.394c-0.346-1.519-1.977-2.459-3.64-2.103
	C64.019,5.385,62.951,6.904,63.296,8.422"/>
</svg>
