<?xml version="1.0" encoding="utf-8"?>
<!-- Generator: Adobe Illustrator 17.0.0, SVG Export Plug-In . SVG Version: 6.00 Build 0)  -->
<!DOCTYPE svg PUBLIC "-//W3C//DTD SVG 1.1//EN" "http://www.w3.org/Graphics/SVG/1.1/DTD/svg11.dtd">
<svg version="1.1" id="Layer_1" xmlns="http://www.w3.org/2000/svg" xmlns:xlink="http://www.w3.org/1999/xlink" x="0px" y="0px"
	 width="434.222px" height="376.75px" viewBox="0 0 434.222 376.75" enable-background="new 0 0 434.222 376.75"
	 xml:space="preserve">
<path fill="none" stroke="#BCBDC0" stroke-width="11.339" stroke-linecap="round" stroke-linejoin="round" stroke-miterlimit="22.926" d="
	M391.171,158.79v56.526c0,14.475-5.912,27.624-15.436,37.148c-9.524,9.524-22.673,15.436-37.148,15.436h-24.896v-26.733h24.896
	c7.095,0,13.555-2.912,18.247-7.604s7.604-11.152,7.604-18.247V158.79H391.171z"/>
<path fill="none" stroke="#BCBDC0" stroke-width="11.339" stroke-linecap="round" stroke-linejoin="round" stroke-miterlimit="22.926" d="
	M299.57,273.025v-36.201c0-1.787,1.462-3.248,3.249-3.248h7.623c1.786,0,3.249,1.461,3.249,3.248v36.201
	c0,1.787-1.463,3.249-3.249,3.249h-7.623C301.032,276.274,299.57,274.812,299.57,273.025z"/>
<path fill="none" stroke="#BCBDC0" stroke-width="11.339" stroke-linecap="round" stroke-linejoin="round" stroke-miterlimit="22.926" d="
	M100.1,302.007v-94.164c0-4.342,3.553-7.895,7.895-7.895h12.3c4.343,0,7.896,3.553,7.896,7.895v94.164
	c0,4.343-3.553,7.896-7.896,7.896h-12.3C103.653,309.903,100.1,306.35,100.1,302.007z"/>
<line fill="none" stroke="#BCBDC0" stroke-width="4.252" stroke-linecap="round" stroke-linejoin="round" stroke-miterlimit="22.926" x1="381.814" y1="108.695" x2="381.814" y2="142.663"/>
<path fill="none" stroke="#BCBDC0" stroke-width="11.339" stroke-linecap="round" stroke-linejoin="round" stroke-miterlimit="22.926" d="
	M213.791,44.591h124.796c16.319,0,31.14,6.662,41.872,17.394c10.733,10.732,17.395,25.554,17.395,41.873v54.933h-40.099v-54.933
	c0-5.25-2.163-10.038-5.647-13.522c-3.483-3.484-8.271-5.646-13.521-5.646H213.791V44.591z"/>
<path fill="none" stroke="#BCBDC0" stroke-width="4.252" stroke-linecap="round" stroke-linejoin="round" stroke-miterlimit="22.926" d="
	M97.513,53.777H78.597c-25.246,0-45.906,20.66-45.906,45.906v14.806"/>
<path fill="none" stroke="#BCBDC0" stroke-width="11.339" stroke-linecap="round" stroke-linejoin="round" stroke-miterlimit="22.926" d="
	M213.791,91.373H78.302c-3.405,0-6.521,1.413-8.796,3.689c-2.276,2.275-3.689,5.391-3.689,8.796v54.933H12.352v-54.933
	c0-18.164,7.411-34.658,19.352-46.598c11.941-11.941,28.434-19.352,46.598-19.352h135.489V91.373z"/>
<path fill="none" stroke="#BCBDC0" stroke-width="4.252" stroke-linecap="round" stroke-linejoin="round" stroke-miterlimit="22.926" d="
	M77.445,268.31c-28.611,0-52.021-23.41-52.021-52.021v-27.203"/>
<path fill="none" stroke="#BCBDC0" stroke-width="11.339" stroke-linecap="round" stroke-linejoin="round" stroke-miterlimit="22.926" d="
	M100.101,292.026H78.302c-20.009,0-38.175-8.162-51.323-21.31c-13.149-13.148-21.31-31.315-21.31-51.323V158.79H72.5v49.264
	c0,1.56,0.663,3.004,1.731,4.071c1.067,1.068,2.511,1.731,4.071,1.731h21.798V292.026z"/>
<path fill="none" stroke="#BCBDC0" stroke-width="11.339" stroke-linecap="round" stroke-linejoin="round" stroke-miterlimit="22.926" d="
	M273.483,255.807c-11.049-17.622-32.788-29.608-57.802-29.608c-25.014,0-46.752,11.986-57.801,29.608
	c11.049,17.622,32.787,29.608,57.801,29.608C240.695,285.415,262.434,273.429,273.483,255.807z"/>
<path fill-rule="evenodd" clip-rule="evenodd" fill="#BCBDC0" d="M245.704,277.612c12.458,0,22.558-10.099,22.558-22.558
	c0-12.458-10.1-22.557-22.558-22.557c-12.458,0-22.557,10.099-22.557,22.557C223.147,267.513,233.246,277.612,245.704,277.612"/>
<path fill-rule="evenodd" clip-rule="evenodd" fill="#FFFFFF" d="M254.208,256.661c4.019,0,7.277-3.258,7.277-7.277
	c0-4.018-3.258-7.276-7.277-7.276c-4.019,0-7.277,3.258-7.277,7.276C246.931,253.403,250.189,256.661,254.208,256.661"/>
<line fill="none" stroke="#BCBDC0" stroke-width="5.669" stroke-linecap="round" stroke-linejoin="round" stroke-miterlimit="22.926" x1="215.682" y1="195.334" x2="215.682" y2="210.568"/>
<line fill="none" stroke="#BCBDC0" stroke-width="5.669" stroke-linecap="round" stroke-linejoin="round" stroke-miterlimit="22.926" x1="184.722" y1="200.821" x2="189.958" y2="215.128"/>
<line fill="none" stroke="#BCBDC0" stroke-width="5.669" stroke-linecap="round" stroke-linejoin="round" stroke-miterlimit="22.926" x1="157.534" y1="213.781" x2="167.368" y2="225.416"/>
<line fill="none" stroke="#BCBDC0" stroke-width="5.669" stroke-linecap="round" stroke-linejoin="round" stroke-miterlimit="22.926" x1="248.201" y1="201.408" x2="242.701" y2="215.615"/>
<line fill="none" stroke="#BCBDC0" stroke-width="5.669" stroke-linecap="round" stroke-linejoin="round" stroke-miterlimit="22.926" x1="276.335" y1="215.978" x2="266.077" y2="227.242"/>
<path fill-rule="evenodd" clip-rule="evenodd" fill="#BCBDC0" d="M265.748,148.816c0.912-0.1,1.841,0.064,2.68,0.534
	c2.156,1.209,2.689,4.151,1.456,6.538l-12.754,24.738c-0.6,1.166-1.915,1.838-3.143,1.536c-1.383-0.34-2.13-1.786-1.673-3.23
	l4.613-14.516c0.701-2.205-0.881-4.265-3.109-4.025c-6.63,0.715-18.218,1.952-18.568,1.883c-2.678-0.529-4.231-3.215-3.473-5.998
	c0,0,10.726-39.16,10.905-39.565c1.953-4.421,7.026-6.635,11.158-4.782c3.874,1.741,5.191,6.645,3.337,10.845l-10.356,23.45
	c-1.012,2.289,0.606,4.656,2.997,4.386L265.748,148.816z"/>
<path fill-rule="evenodd" clip-rule="evenodd" fill="#BCBDC0" d="M294.212,335.917c-5.519,2.127-11.742-0.634-13.868-6.153
	c-2.127-5.521,0.633-11.743,6.152-13.869c5.52-2.127,11.741,0.634,13.869,6.154C302.492,327.568,299.731,333.791,294.212,335.917
	 M274.582,314.816c-1.627-4.221,0.484-8.978,4.705-10.604c3.146-1.213,6.75-0.358,9.014,2.124c0.008,0.01,0.016,0.021,0.024,0.03
	l3.089,3.845c-2.224-0.154-4.511,0.146-6.725,0.999c-3.869,1.491-6.801,4.36-8.481,7.826L274.582,314.816z M270.589,304.454
	c-0.745-1.934,0.223-4.115,2.157-4.86c1.189-0.458,2.498-0.242,3.511,0.475c-2.314,1.17-4.149,2.963-5.4,5.084L270.589,304.454
	L270.589,304.454z M273.027,324.75c-0.945-0.003-1.906,0.147-2.84,0.507c-0.934,0.359-1.747,0.893-2.447,1.531l-3.133-8.13
	c-0.562-1.459,0.167-3.101,1.625-3.664c1.458-0.561,3.101,0.169,3.663,1.627L273.027,324.75z M274.03,335.231
	c-1.459,0.562-3.101-0.167-3.662-1.623c-0.562-1.459,0.166-3.101,1.625-3.664c1.458-0.561,3.101,0.169,3.663,1.627
	C276.217,333.027,275.49,334.669,274.03,335.231 M256.199,310.802c-2.349-0.735-4.914-0.832-7.414-0.147
	c0.27-1.211,1.097-2.251,2.284-2.708c1.934-0.746,4.115,0.222,4.861,2.156L256.199,310.802z M261.548,324.683
	c-3.573-1.44-7.672-1.601-11.543-0.109c-2.212,0.852-4.108,2.162-5.652,3.765l-0.289-4.919c-0.002-0.012-0.003-0.026-0.003-0.038
	c0.013-3.36,2.112-6.412,5.258-7.624c4.221-1.627,8.976,0.484,10.603,4.705L261.548,324.683z M259.527,349.283
	c-5.521,2.127-11.743-0.634-13.87-6.153c-2.127-5.521,0.633-11.742,6.154-13.87c5.521-2.127,11.744,0.633,13.872,6.154
	C267.809,340.933,265.047,347.155,259.527,349.283 M301.646,314.93l-9.304-11.586c-0.053-0.077-0.11-0.151-0.173-0.222
	c-2.647-3.008-6.492-4.569-10.37-4.449l-0.94-1.17c-0.053-0.071-0.107-0.142-0.166-0.207c-2.419-2.744-6.338-3.705-9.752-2.389
	c-4.519,1.741-6.778,6.835-5.037,11.353l1.365,3.543c-0.945-0.004-1.906,0.146-2.84,0.506c-0.934,0.36-1.748,0.894-2.448,1.531
	l-1.365-3.543c-1.741-4.519-6.834-6.778-11.353-5.037c-3.416,1.317-5.677,4.658-5.626,8.317c0.002,0.078,0.006,0.155,0.014,0.233
	l0.091,1.529c-2.957,2.514-4.759,6.251-4.703,10.257c0.001,0.094,0.007,0.185,0.019,0.277l0.875,14.818
	c-0.081,2.072,0.246,4.191,1.037,6.245c3.124,8.105,12.258,12.156,20.363,9.034c5.917-2.281,9.657-7.766,10.042-13.711
	c1.443,0.309,2.986,0.229,4.464-0.341c1.477-0.569,2.675-1.544,3.536-2.742c4.274,4.15,10.728,5.707,16.643,3.428
	c8.104-3.123,12.156-12.257,9.033-20.36C304.262,318.195,303.088,316.411,301.646,314.93 M287.452,318.375
	c-4.15,1.6-6.225,6.278-4.625,10.431c0.499,1.293,1.953,1.938,3.246,1.44c1.294-0.499,1.939-1.953,1.441-3.246
	c-0.605-1.569,0.177-3.334,1.744-3.938c1.293-0.498,1.939-1.953,1.44-3.246C290.2,318.523,288.746,317.877,287.452,318.375
	 M252.767,331.741c-4.151,1.599-6.227,6.278-4.627,10.43c0.499,1.294,1.951,1.94,3.247,1.441c1.295-0.499,1.939-1.953,1.44-3.246
	c-0.604-1.569,0.179-3.335,1.746-3.938c1.295-0.5,1.939-1.953,1.44-3.247C255.515,331.888,254.062,331.242,252.767,331.741"/>
<path fill-rule="evenodd" clip-rule="evenodd" fill="#BCBDC0" d="M187.74,176.975c0.878,2.528,0.703,4.942-0.526,7.245
	s-3.142,3.904-5.738,4.806c-2.596,0.901-5.101,0.852-7.515-0.147c-2.414-0.998-4.071-2.796-4.973-5.392
	c-0.427-1.23-0.574-2.48-0.441-3.751s0.484-2.465,1.053-3.581c0.569-1.116,1.351-2.115,2.347-2.997
	c0.995-0.881,2.141-1.547,3.439-1.998c1.093-0.38,2.252-0.571,3.475-0.575c1.224-0.004,2.41,0.216,3.559,0.659
	c1.149,0.443,2.193,1.133,3.131,2.07C186.489,174.252,187.218,175.472,187.74,176.975 M159.027,113.8
	c3.143-1.091,6.278-1.816,9.407-2.176c3.128-0.359,6.052-0.207,8.771,0.457c2.718,0.663,5.135,1.891,7.25,3.683
	c2.115,1.791,3.73,4.293,4.845,7.503c0.616,1.777,0.902,3.534,0.855,5.273c-0.047,1.739-0.295,3.451-0.743,5.138
	c-0.447,1.686-1.032,3.363-1.755,5.03c-0.722,1.667-1.497,3.295-2.323,4.884c-0.803,1.656-1.606,3.256-2.41,4.798
	c-0.804,1.542-1.478,3.02-2.02,4.433c-0.543,1.413-0.909,2.785-1.098,4.114c-0.19,1.328-0.071,2.608,0.357,3.837l0.818,2.357
	c0.19,0.547,0.224,0.975,0.102,1.285c-0.122,0.311-0.525,0.585-1.208,0.822l-11.169,3.878c-0.752,0.261-1.249,0.262-1.492,0.002
	c-0.244-0.26-0.46-0.663-0.65-1.21l-1.139-3.279c-0.664-1.913-0.951-3.785-0.859-5.615c0.091-1.831,0.395-3.601,0.911-5.312
	c0.516-1.71,1.182-3.376,1.996-4.999c0.814-1.622,1.635-3.228,2.461-4.817c1.207-2.255,2.18-4.469,2.919-6.639
	c0.739-2.171,0.729-4.349-0.03-6.535c-0.545-1.571-1.709-2.718-3.49-3.439c-1.782-0.721-4.107-0.583-6.976,0.413
	c-5.055,1.756-9.712,5.21-13.971,10.363c-0.428,0.532-0.84,0.886-1.238,1.062s-0.909,0.029-1.533-0.444l-7.248-6.324
	c-0.439-0.384-0.707-0.769-0.804-1.157c-0.096-0.387,0.092-0.893,0.564-1.517c1.37-2.006,2.897-3.838,4.58-5.494
	c1.683-1.656,3.443-3.148,5.279-4.474c1.836-1.326,3.691-2.488,5.565-3.483C155.426,115.223,157.251,114.417,159.027,113.8"/>
<path fill-rule="evenodd" clip-rule="evenodd" fill="#BCBDC0" d="M212.1,365.175c-0.348,2.267-1.464,4.077-3.348,5.431
	c-1.883,1.355-4.02,1.848-6.413,1.48c-2.393-0.367-4.286-1.463-5.681-3.289c-1.395-1.826-1.914-3.902-1.556-6.232
	c0.174-1.133,0.559-2.17,1.154-3.109c0.595-0.94,1.342-1.711,2.241-2.313c0.897-0.605,1.9-1.046,3.007-1.327
	c1.106-0.281,2.225-0.335,3.359-0.161c2.392,0.368,4.285,1.464,5.681,3.289C211.939,360.769,212.457,362.847,212.1,365.175
	 M210.963,348.665c-0.116,0.756-0.365,1.217-0.745,1.384c-0.379,0.167-0.947,0.193-1.703,0.077l-5.666-0.87
	c-0.881-0.136-1.447-0.335-1.696-0.599c-0.25-0.264-0.353-0.747-0.31-1.449l4.217-41.303c0.034-0.64,0.236-1.108,0.603-1.406
	c0.368-0.298,0.993-0.379,1.874-0.244l10.011,1.538c1.007,0.155,1.604,0.455,1.793,0.904c0.19,0.447,0.214,0.919,0.073,1.412
	L210.963,348.665z"/>
<path fill-rule="evenodd" clip-rule="evenodd" fill="#BCBDC0" d="M380.474,352.997l-15.08-14.95l1.79-1.774l15.08,14.953
	L380.474,352.997z M342.711,334.101c-11.361,0-20.604-9.26-20.604-20.642c0.001-11.383,9.242-20.644,20.604-20.644
	c11.359,0,20.605,9.261,20.605,20.644C363.316,324.841,354.07,334.1,342.711,334.101 M342.985,300.956
	c-1.174,0-2.126-0.952-2.126-2.126c0-1.174,0.952-2.126,2.126-2.126c4.687,0,8.931,1.9,12.002,4.971
	c3.071,3.071,4.972,7.315,4.972,12.002c0,1.174-0.952,2.126-2.126,2.126c-1.174,0-2.126-0.952-2.126-2.126
	c0-3.513-1.424-6.693-3.726-8.995S346.498,300.956,342.985,300.956 M387.92,349.336l-18.861-18.699
	c-1.034-1.028-2.702-1.026-3.737-0.003l-0.849,0.839l-1.663-1.625c3.638-4.471,5.823-10.172,5.823-16.389
	c-0.002-14.344-11.607-25.97-25.922-25.97c-14.315,0-25.92,11.626-25.92,25.97c0,14.343,11.605,25.969,25.92,25.969
	c6.194,0,11.876-2.182,16.335-5.815l1.643,1.602l-0.945,0.935c-1.064,1.051-1.047,2.756-0.003,3.791l18.861,18.696
	c1.035,1.025,2.7,1.025,3.735,0.001l5.577-5.51C388.972,352.084,388.971,350.38,387.92,349.336"/>
<path fill-rule="evenodd" clip-rule="evenodd" fill="#BCBDC0" d="M298.884,200.898c-1.477,1.755-3.372,2.719-5.685,2.895
	c-2.313,0.176-4.395-0.515-6.246-2.074c-1.852-1.559-2.898-3.48-3.14-5.765c-0.241-2.285,0.397-4.329,1.915-6.132
	c0.738-0.877,1.606-1.562,2.604-2.054c0.997-0.493,2.036-0.762,3.117-0.809c1.081-0.049,2.167,0.096,3.258,0.432
	s2.075,0.872,2.952,1.611c1.852,1.559,2.898,3.48,3.139,5.765C301.04,197.051,300.402,199.095,298.884,200.898 M306.506,186.208
	c-0.492,0.585-0.945,0.849-1.356,0.795c-0.412-0.055-0.91-0.329-1.495-0.821l-4.384-3.692c-0.683-0.574-1.062-1.039-1.137-1.395
	c-0.076-0.354,0.087-0.821,0.489-1.398l25.097-33.074c0.362-0.528,0.778-0.823,1.247-0.887c0.469-0.062,1.044,0.194,1.727,0.768
	l7.747,6.523c0.78,0.656,1.134,1.224,1.062,1.705c-0.071,0.481-0.296,0.896-0.673,1.244L306.506,186.208z"/>
<path fill-rule="evenodd" clip-rule="evenodd" fill="#BCBDC0" d="M361.472,4.375l-0.376,17.848c-0.035,1.605,1.221,3.05,3.003,3.343
	c1.949,0.322,3.788-0.86,4.105-2.639l3.13-17.576c0.032-0.2,0.057-0.433,0.063-0.64c0.053-2.508-2.128-4.615-4.867-4.708
	C363.789-0.089,361.525,1.867,361.472,4.375"/>
<path fill-rule="evenodd" clip-rule="evenodd" fill="#BCBDC0" d="M282.463,361.942l-7.004-6.344c-0.629-0.57-1.643-0.57-2.378,0.041
	c-0.805,0.667-0.97,1.812-0.37,2.557l5.94,7.349c0.069,0.082,0.153,0.173,0.234,0.248c0.984,0.891,2.583,0.75,3.57-0.312
	C283.444,364.417,283.447,362.833,282.463,361.942"/>
<path fill-rule="evenodd" clip-rule="evenodd" fill="#BCBDC0" d="M391.706,12.939l-6.173,16.751
	c-0.556,1.506,0.16,3.282,1.749,4.139c1.738,0.94,3.862,0.421,4.742-1.157l8.687-15.596c0.095-0.179,0.195-0.39,0.268-0.584
	c0.868-2.354-0.507-5.057-3.066-6.037C395.352,9.474,392.574,10.585,391.706,12.939"/>
<path fill-rule="evenodd" clip-rule="evenodd" fill="#BCBDC0" d="M268.549,371.055l-4.554-8.28
	c-0.409-0.745-1.367-1.075-2.261-0.737c-0.979,0.368-1.508,1.397-1.183,2.297l3.22,8.884c0.038,0.1,0.088,0.213,0.14,0.31
	c0.64,1.164,2.197,1.552,3.477,0.869C268.669,373.715,269.189,372.219,268.549,371.055"/>
<path fill-rule="evenodd" clip-rule="evenodd" fill="#BCBDC0" d="M415.83,31.448l-13,12.235c-1.17,1.1-1.321,3.008-0.282,4.485
	c1.136,1.617,3.267,2.1,4.76,1.081l14.734-10.08c0.165-0.117,0.349-0.262,0.501-0.403c1.827-1.719,1.803-4.752-0.05-6.771
	C420.639,29.974,417.657,29.729,415.83,31.448"/>
<path fill-rule="evenodd" clip-rule="evenodd" fill="#BCBDC0" d="M252.78,374.275l-0.38-9.442c-0.033-0.849-0.744-1.572-1.694-1.669
	c-1.041-0.107-1.974,0.577-2.084,1.528l-1.084,9.387c-0.01,0.106-0.016,0.23-0.013,0.34c0.053,1.327,1.274,2.369,2.724,2.33
	C251.701,376.709,252.833,375.602,252.78,374.275"/>
<path fill-rule="evenodd" clip-rule="evenodd" fill="#BCBDC0" d="M428.15,58.595l-16.941,5.631c-1.523,0.505-2.464,2.173-2.142,3.95
	c0.35,1.944,2.08,3.28,3.863,2.983l17.607-2.946c0.199-0.037,0.427-0.091,0.624-0.155c2.381-0.791,3.635-3.553,2.804-6.163
	C433.133,59.28,430.531,57.804,428.15,58.595"/>
<path fill-rule="evenodd" clip-rule="evenodd" fill="#BCBDC0" d="M237.653,369.78l3.628-8.726c0.326-0.784-0.014-1.739-0.836-2.226
	c-0.899-0.536-2.033-0.307-2.533,0.509l-4.932,8.06c-0.054,0.092-0.112,0.202-0.154,0.303c-0.51,1.226,0.158,2.685,1.49,3.259
	C235.65,371.534,237.143,371.006,237.653,369.78"/>
<path fill-rule="evenodd" clip-rule="evenodd" fill="#BCBDC0" d="M128.782,160.178c0.006-0.002,0.015-0.004,0.021-0.005
	c0.544-0.062,1.107-0.242,1.611-0.554c1.677-1.036,2.258-3.111,1.297-4.635l-0.086-0.137c0,0-25.545-40.502-25.657-40.646
	c-2.161-2.73-6.627-2.805-9.323,0.126c-1.959,2.133-2.034,5.226-0.373,7.326l23.321,29.464c1.044,1.32,0.03,3.334-1.771,3.519
	l-14.255,1.455c-1.279,0.133-2.499,0.939-3.063,2.203c-0.73,1.646,0.093,3.446,1.695,4.163l37.243,16.635
	c0.735,0.326,1.67,0.051,2.143-0.658c0.501-0.752,0.298-1.702-0.454-2.122l-23.279-13.053c-0.921-0.516-0.512-1.913,0.597-2.026
	L128.782,160.178z"/>
<path fill-rule="evenodd" clip-rule="evenodd" fill="#BCBDC0" d="M130.475,358.739c-2.723,3.428-1.756,8.299,2.211,10.668
	c3.716,2.22,8.723,1.095,11.311-2.163l28.585-35.982c0.449-0.57,0.768-1.24,0.917-1.989c0.499-2.556-1.481-5.006-4.235-5.681
	l-6.057-1.485c-2.203-0.54-3.021-3.017-1.506-4.558l17.514-17.798c1.059-1.081,1.082-2.76-0.01-3.878
	c-1.175-1.199-3.184-1.31-4.487-0.247l-29.946,24.46c-0.965,0.789-1.617,1.917-1.709,3.267c-0.156,2.282,1.659,4.317,4.082,4.912
	l6.761,1.66c2.002,0.489,2.743,2.738,1.35,4.122C148.052,341.212,130.621,358.554,130.475,358.739"/>
<path fill-rule="evenodd" clip-rule="evenodd" fill="#BCBDC0" d="M295.288,128.08l-5.456,14.806
	c-0.492,1.332,0.141,2.901,1.546,3.659c1.536,0.831,3.413,0.372,4.191-1.023l7.679-13.785c0.084-0.158,0.172-0.345,0.237-0.516
	c0.767-2.081-0.449-4.47-2.71-5.337C298.51,125.017,296.055,126,295.288,128.08"/>
</svg>
