<?xml version="1.0" encoding="utf-8"?>
<!-- Generator: Adobe Illustrator 17.0.0, SVG Export Plug-In . SVG Version: 6.00 Build 0)  -->
<!DOCTYPE svg PUBLIC "-//W3C//DTD SVG 1.1//EN" "http://www.w3.org/Graphics/SVG/1.1/DTD/svg11.dtd">
<svg version="1.1" id="Layer_1" xmlns="http://www.w3.org/2000/svg" xmlns:xlink="http://www.w3.org/1999/xlink" x="0px" y="0px"
	 width="418.605px" height="379.478px" viewBox="0 0 418.605 379.478" enable-background="new 0 0 418.605 379.478"
	 xml:space="preserve">
<path fill-rule="evenodd" clip-rule="evenodd" fill="#BCBDC0" d="M384.975,177.765c2.979-0.002,5.6-2.021,6.361-4.902
	c2.861-10.835,1.143-21.277-5.569-30.297c-8.696-11.687-26.007-17.206-38.772-8.608c-3.009,2.028-3.799,6.124-1.773,9.13
	c2.027,3.009,6.121,3.803,9.128,1.775c6.875-4.638,16.335-0.53,20.864,5.553c4.327,5.812,5.238,12.123,3.397,19.088
	c-0.925,3.497,1.184,7.116,4.682,8.041C383.843,177.69,384.406,177.766,384.975,177.765 M268.103,60.511
	c2.262,0,4.38-1.139,5.603-3.052c2.094-3.274,5.151-6.339,8.454-8.369c6.321-3.885,13.285-4.046,20.023-1.046
	c3.302,1.469,7.212-0.037,8.679-3.339c1.471-3.31-0.031-7.209-3.34-8.682c-9.447-4.206-19.21-4.566-28.606-0.077
	c-6.396,3.056-12.67,8.537-16.402,14.598c-1.887,3.066-0.905,7.061,2.131,8.968C265.689,60.168,266.87,60.511,268.103,60.511
	 M308.202,253.5c5.259-0.388,11.28-1.934,15.851-4.644c3.123-1.852,4.162-5.884,2.31-9.009c-1.85-3.124-5.882-4.161-9.007-2.309
	l-0.078,0.045l-0.028,0.015c-2.797,1.559-6.48,2.531-9.635,2.811c-7.48,0.663-14.247-2.017-19.735-7.069
	c-2.671-2.458-6.835-2.29-9.291,0.384c-2.454,2.673-2.288,6.839,0.384,9.297c2.895,2.662,6.107,4.947,9.632,6.699l3.415,1.699
	l-1.262,3.599c-4.467,12.735-3.108,27.459,3.906,39.027c1.004,1.656,2.139,3.231,3.396,4.705l1.096,1.284l-0.066,1.687
	c-0.005,0.142-0.007,0.284-0.003,0.425c0.294,12.032-7.923,20.774-19.957,21.19c-9.803,0.339-19.11-2.792-26.216-9.625
	c-7.891-7.59-11.649-18.128-11.649-28.969v-88.575l3.898-0.383c5.366-0.527,12.441-0.23,16.834,3.2
	c3.883,3.032,4.813,7.993,4.813,12.673c0,3.633,2.945,6.577,6.578,6.577s6.582-2.944,6.583-6.578
	c0.002-8.894-2.681-17.419-9.877-23.039c-6.778-5.292-15.865-6.616-24.231-6.077l-4.598,0.296v-74.852l5.864,2.243
	c3.353,1.283,6.897,1.917,10.486,1.917c17.066,0,30.957-13.885,30.957-30.952c0-3.632-2.945-6.577-6.578-6.577
	s-6.578,2.944-6.578,6.577c0,9.815-7.987,17.796-17.801,17.796c-10.015,0-16.463-8.251-16.463-17.796
	c0-0.685-0.105-1.364-0.315-2.017l-0.207-0.644l-0.001-0.678c-0.004-7.894,0.57-15.997,3.271-23.479
	c5.417-15.006,15.411-29.79,30.927-35.572c17.496-6.52,42.359-2.611,54.56,12.383c2.678,3.291,4.832,7.119,6.027,11.201l0.028,0.094
	l0.023,0.096c0.049,0.199,0.106,0.397,0.173,0.591l0.03,0.089c0.11,0.344,0.236,0.683,0.378,1.014l0.072,0.167l0.058,0.173
	c1.451,4.357,1.81,9.411,1.213,13.94c-1.163,8.812-5.794,16.194-12.419,21.992c-2.723,2.384-2.992,6.562-0.613,9.284
	c1.257,1.438,3.047,2.245,4.954,2.245c1.603,0,3.12-0.577,4.325-1.632c10.229-8.957,16.641-20.335,17.134-34.05l0.248-6.871
	l6.083,3.204c6.298,3.317,11.964,7.944,16.278,13.621c7.375,9.707,9.752,21.177,8.44,33.204l-0.585,5.359l-5.103-1.738
	c-14.414-4.909-29.678-3.918-42.528,4.749c-10.571,7.129-17.838,18.975-21.068,31.163l-0.846,3.194l-3.305,0.019
	c-5.86,0.034-11.289,1.925-16.238,4.998c-3.073,1.908-4.029,5.98-2.12,9.054c1.906,3.069,5.98,4.033,9.051,2.122
	c3.14-1.952,7.092-2.918,10.769-2.727c7.504,0.388,13.402,5.182,17.703,11.012c1.261,1.709,3.22,2.735,5.351,2.735
	c1.38,0,2.706-0.431,3.827-1.238c2.948-2.121,3.623-6.234,1.502-9.183c-3.001-4.172-7.17-8.023-11.449-10.845l-2.527-1.667
	l0.704-2.944c2.271-9.503,7.777-19.234,16.003-24.787c17.736-11.973,42.109-2.502,53.943,13.407
	c10.486,14.097,12.838,29.569,8.374,46.477c-3.799,14.39-12.974,33.951-28.602,38.348l-2.894,0.814l-1.769-2.431
	c-8.699-11.959-21.185-20.401-36.405-20.401c-3.634,0-6.578,2.944-6.578,6.578c0,3.633,2.944,6.578,6.578,6.578
	c8.256,0,15.434,3.855,21.163,9.577c2.618,2.613,5.657,6.403,7.367,9.738c0.217,0.423,0.473,0.827,0.773,1.197l0.055,0.068
	l0.052,0.07c7.979,10.686,10.211,26.513,8.17,39.446c-2.2,13.941-14.665,24.448-27.591,28.424
	c-5.035,1.548-10.836,2.379-16.082,2.154c-8.887-0.381-16.845-3.804-21.601-11.651c-5.553-9.161-6.009-21.739-1.265-31.324
	l1.094-2.211L308.202,253.5z M346.121,33.497c-1.684-3.803-3.916-7.382-6.538-10.608C323.722,3.373,293.159-2.065,270.225,6.472
	c-19.284,7.178-31.938,24.65-38.712,43.432c-4.706,13.05-4.245,27.161-3.719,40.805c0.153,3.962,0.31,7.928,0.31,11.894v182.138
	c0,14.485,5.175,28.339,15.674,38.443c9.141,8.799,21.143,13.33,33.803,13.33c0.687,0,1.374-0.017,2.061-0.043
	c14.492-0.548,26.85-9.399,31.093-23.363l1.246-4.101l4.111,1.214c4.374,1.292,8.936,1.878,13.491,1.878
	c6.053,0,12.087-1.032,17.865-2.809c17.883-5.497,33.72-19.899,36.723-38.949c1.877-11.912,0.667-25.408-3.679-36.667l-1.509-3.907
	l3.859-1.629c18.217-7.689,28.373-27.978,33.154-46.07c5.52-20.89,2.406-40.294-10.541-57.69c-2.987-4.014-6.53-7.631-10.427-10.767
	l-2.081-1.674l0.568-2.61c4.207-19.327,1.304-38.223-11.726-53.492c-7.891-9.247-20.399-17.588-32.507-19.839l-2.239-0.417
	L346.121,33.497z"/>
<path fill-rule="evenodd" clip-rule="evenodd" fill="#BCBDC0" d="M205.246,1.396c-1.589-0.763-3.489-0.096-4.252,1.493l-3.347,6.968
	c-0.763,1.589-0.096,3.489,1.493,4.252c0.733,0.352,1.675,0.428,2.398,0.174c0.724-0.254,1.443-0.811,1.764-1.635l3.347-6.968
	C207.471,3.969,206.835,2.159,205.246,1.396 M184.853,52.154c-8.875-5.015-5.612-15.409-5.5-15.956
	c0.551-1.616-0.297-3.453-2.004-3.972c-1.616-0.55-3.452,0.298-3.971,2.004c-1.855,5.428-2.513,17.448,8.349,23.493
	c0.855,0.411,1.797,0.487,2.611,0.201c0.724-0.254,1.352-0.78,1.736-1.423C186.928,54.88,186.442,52.917,184.853,52.154
	 M211.485,33.353c-5.844-16.648-21.025-19.652-33.511-15.269c-12.395,4.351-22.651,17.403-17.156,33.056
	c2.858,8.143,7.858,11.672,15.791,16.611c0.797,0.533,1.269,1.587,1.84,3.216c1.012,2.592,3.04,8.079,10.64,5.411l18.548-6.511
	c1.628-0.572,2.509-2.405,1.937-4.034c-0.572-1.629-2.405-2.509-4.034-1.937l-18.547,6.511c-1.177,0.413-1.693,0.391-1.693,0.391
	c-0.276-0.208-0.657-1.294-0.911-2.018c-0.699-1.99-1.742-4.673-4.468-6.359c-7.657-4.73-11.094-7.284-13.191-13.255
	c-4.16-11.853,3.51-21.558,13.282-24.988c8.776-3.081,20.742-1.997,25.443,11.394c2.128,6.061,1.1,10.081-2.01,18.591
	c-0.641,1.648,0.298,3.453,1.945,4.094c1.616,0.551,3.453-0.297,4.094-1.945C212.589,47.498,214.344,41.496,211.485,33.353
	 M177.989,9.441l-2.573-7.329c-0.572-1.629-2.405-2.509-4.034-1.938c-1.629,0.572-2.509,2.406-1.938,4.034l2.573,7.329
	c0.572,1.629,2.406,2.509,4.034,1.938C177.68,12.903,178.56,11.069,177.989,9.441 M158.968,28.212
	c0.764-1.59,0.096-3.489-1.493-4.253l-6.968-3.347c-1.589-0.763-3.489-0.096-4.252,1.493s-0.096,3.489,1.493,4.252l6.968,3.347
	c0.733,0.353,1.675,0.429,2.398,0.175C157.897,29.502,158.616,28.945,158.968,28.212 M186.055,83.948
	c0.572,1.628,2.405,2.509,4.034,1.937l20.086-7.051c1.628-0.572,2.509-2.405,1.937-4.034c-0.571-1.629-2.405-2.509-4.034-1.938
	l-19.995,7.02C186.364,80.485,185.483,82.319,186.055,83.948 M190.696,91.668c0.572,1.628,2.406,2.509,4.034,1.937l16.648-5.844
	c1.628-0.572,2.509-2.405,1.937-4.034c-0.571-1.628-2.405-2.509-4.034-1.937l-16.648,5.844
	C191.005,88.206,190.124,90.039,190.696,91.668"/>
<path fill-rule="evenodd" clip-rule="evenodd" fill="#BCBDC0" d="M54.108,99.726H45.47c-1.536,0-2.304-1.024-2.56-1.472
	c-0.256-0.448-0.768-1.6,0-2.943l4.991-8.703l0.704,2.815c0.384,1.472,1.664,2.432,3.136,2.432c0.255,0,0.512-0.064,0.767-0.128
	c1.728-0.448,2.752-2.175,2.368-3.903l-2.623-10.495c-0.192-0.831-0.768-1.536-1.472-1.983c-0.768-0.448-1.6-0.576-2.496-0.321
	l-10.494,2.752c-1.728,0.448-2.752,2.24-2.304,3.968c0.448,1.727,2.24,2.751,3.967,2.303l3.008-0.767l-5.119,8.894
	c-1.728,2.88-1.728,6.335,0,9.279c1.728,2.943,4.735,4.671,8.127,4.671h8.638c1.792,0,3.2-1.472,3.2-3.2
	C57.308,101.198,55.9,99.726,54.108,99.726 M52.124,72.914c1.536,0.896,3.52,0.384,4.416-1.152l4.415-7.615
	c0.768-1.344,2.048-1.472,2.56-1.472c0.512,0,1.792,0.128,2.56,1.472l5.183,8.959l-3.072-0.768
	c-1.728-0.448-3.455,0.576-3.903,2.304c-0.448,1.727,0.576,3.455,2.303,3.903l10.495,2.688c0.256,0.064,0.512,0.128,0.768,0.128
	c0.576,0,1.152-0.128,1.663-0.448c0.768-0.448,1.28-1.152,1.472-1.984l2.56-10.558c0.448-1.728-0.64-3.456-2.368-3.904
	c-1.728-0.448-3.455,0.64-3.903,2.368l-0.64,2.687l-4.991-8.574c-1.728-3.008-4.8-4.735-8.191-4.735
	c-3.392,0-6.463,1.727-8.127,4.671l-4.415,7.615C50.013,70.098,50.525,72.082,52.124,72.914 M89.559,92.111l-4.352-7.487
	c-0.895-1.536-2.879-2.048-4.415-1.152s-2.048,2.88-1.151,4.416l4.351,7.487c0.768,1.343,0.256,2.495,0,2.943
	c-0.256,0.448-1.024,1.472-2.56,1.472h-10.11l2.111-2.112c1.28-1.28,1.28-3.327,0-4.543c-1.28-1.28-3.327-1.28-4.543,0l-7.679,7.551
	c-0.64,0.576-0.96,1.408-0.96,2.304c0,0.895,0.32,1.663,0.96,2.303l7.679,7.551c0.64,0.64,1.472,0.96,2.24,0.96
	c0.832,0,1.663-0.32,2.303-0.96c1.28-1.28,1.216-3.327,0-4.543l-2.111-2.112h10.11c3.392,0,6.463-1.728,8.127-4.671
	C91.223,98.574,91.287,95.055,89.559,92.111"/>
<path fill-rule="evenodd" clip-rule="evenodd" fill="#BCBDC0" d="M201.201,129.501h-23.534v44.946h23.534V129.501z M178.528,125.085
	h21.812c-2.209-2.859-7.795-3.872-10.906-3.872C186.322,121.213,180.737,122.225,178.528,125.085 M187.862,116.797h3.735v-4.823
	h-3.735V116.797z M196.013,117.672c4.492,1.272,9.602,4.439,9.602,9.623v49.359c0,1.22-0.988,2.209-2.208,2.209H175.46
	c-1.22,0-2.208-0.989-2.208-2.209v-49.359c0-5.405,5.518-8.587,10.194-9.774v-7.754c0-1.218,0.989-2.208,2.208-2.208h8.151
	c1.219,0,2.208,0.989,2.208,2.208V117.672z"/>
<path fill-rule="evenodd" clip-rule="evenodd" fill="#BCBDC0" d="M182.106,135.044h14.655c0.807,0,1.459-0.653,1.459-1.459
	s-0.652-1.459-1.459-1.459h-14.655c-0.805,0-1.458,0.653-1.458,1.459C180.649,134.392,181.301,135.044,182.106,135.044"/>
<path fill-rule="evenodd" clip-rule="evenodd" fill="#BCBDC0" d="M214.913,112.974c-0.269-0.27-0.648-0.427-1.035-0.427
	c-0.383,0-0.757,0.157-1.03,0.427c-0.274,0.272-0.428,0.648-0.428,1.034c0,0.382,0.154,0.761,0.428,1.031
	c0.27,0.272,0.646,0.427,1.03,0.427c0.387,0,0.766-0.155,1.035-0.427c0.27-0.27,0.426-0.649,0.426-1.031
	C215.339,113.622,215.183,113.246,214.913,112.974"/>
<path fill-rule="evenodd" clip-rule="evenodd" fill="#BCBDC0" d="M209.003,112.547c-0.382,0-0.76,0.157-1.032,0.427
	c-0.271,0.272-0.426,0.649-0.426,1.034c0,0.383,0.155,0.758,0.426,1.031c0.272,0.272,0.65,0.427,1.032,0.427
	c0.387,0,0.762-0.155,1.033-0.427c0.269-0.27,0.426-0.648,0.426-1.031c0-0.385-0.156-0.762-0.426-1.034
	C209.765,112.704,209.39,112.547,209.003,112.547"/>
<path fill-rule="evenodd" clip-rule="evenodd" fill="#BCBDC0" d="M213.084,110.669c0.384,0,0.761-0.155,1.033-0.427
	c0.272-0.273,0.428-0.649,0.428-1.033s-0.156-0.761-0.428-1.033c-0.272-0.27-0.649-0.427-1.033-0.427
	c-0.383,0-0.76,0.157-1.034,0.427c-0.27,0.272-0.426,0.649-0.426,1.033s0.156,0.76,0.426,1.033
	C212.324,110.514,212.701,110.669,213.084,110.669"/>
<path fill-rule="evenodd" clip-rule="evenodd" fill="#BCBDC0" d="M208.141,112.354c0.385,0,0.762-0.155,1.034-0.427
	c0.27-0.275,0.426-0.65,0.426-1.033c0-0.384-0.156-0.76-0.426-1.033c-0.272-0.268-0.649-0.426-1.034-0.426
	c-0.383,0-0.76,0.157-1.031,0.426c-0.274,0.273-0.428,0.649-0.428,1.033c0,0.383,0.154,0.758,0.428,1.033
	C207.381,112.199,207.758,112.354,208.141,112.354"/>
<path fill-rule="evenodd" clip-rule="evenodd" fill="#BCBDC0" d="M213.084,117.501c-0.383,0-0.76,0.155-1.034,0.429
	c-0.27,0.272-0.426,0.648-0.426,1.031c0,0.386,0.156,0.76,0.426,1.034c0.274,0.271,0.651,0.426,1.034,0.426
	c0.384,0,0.761-0.155,1.033-0.426c0.272-0.274,0.428-0.648,0.428-1.034c0-0.383-0.156-0.758-0.428-1.031
	C213.845,117.656,213.469,117.501,213.084,117.501"/>
<path fill-rule="evenodd" clip-rule="evenodd" fill="#BCBDC0" d="M208.141,115.814c-0.383,0-0.76,0.157-1.031,0.429
	c-0.274,0.272-0.428,0.648-0.428,1.032c0,0.384,0.154,0.76,0.428,1.033c0.271,0.271,0.648,0.426,1.031,0.426
	c0.385,0,0.762-0.155,1.034-0.426c0.27-0.273,0.426-0.649,0.426-1.033c0-0.384-0.156-0.76-0.426-1.032
	C208.903,115.972,208.526,115.814,208.141,115.814"/>
<path fill-rule="evenodd" clip-rule="evenodd" fill="#BCBDC0" d="M204.884,114.623l-1.577-0.538l1.527-0.52
	c0.762-0.26,1.169-1.089,0.91-1.854c-0.26-0.761-1.089-1.169-1.853-0.909l-5.348,1.823c-0.633,0.216-0.998,0.824-0.964,1.46
	c-0.035,0.636,0.33,1.244,0.964,1.459l5.401,1.843c0.156,0.055,0.316,0.078,0.472,0.078c0.608,0,1.175-0.382,1.381-0.989
	C206.058,115.714,205.65,114.885,204.884,114.623"/>
<path fill="#BCBDC0" d="M92.425,163.997H55.666c0.818,3.572,4.523,4.313,7.927,4.992c4.368,0.871,8.372,1.671,8.372,6.555
	c0,2.339-0.616,5.951-1.291,9.902c-0.788,4.62-1.659,9.722-1.659,13.522c0,2.785,0.789,5.502,1.818,7.707
	c1.258,2.699,2.58,4.536,3.054,4.536h0.319c0.473,0,1.796-1.838,3.055-4.536c1.028-2.206,1.818-4.922,1.818-7.707
	c0-3.799-0.872-8.902-1.661-13.522c-0.675-3.951-1.291-7.562-1.291-9.902c0-4.884,4.004-5.684,8.372-6.555
	C87.902,168.31,91.607,167.569,92.425,163.997 M92.592,156.359H55.499v4.503h37.093V156.359z M92.592,142.136
	c-0.283,0.043-0.573,0.065-0.868,0.065c-1.626,0-3.105-0.664-4.176-1.735l0.004-0.003c-1.072-1.072-1.738-2.551-1.738-4.173v-4.44
	h-2.268v0.555c0,1.366-0.56,2.61-1.46,3.511l-0.007,0.006c-0.901,0.9-2.144,1.46-3.51,1.46h-0.001c-1.365,0-2.609-0.56-3.51-1.46
	l-0.006-0.006c-0.9-0.901-1.46-2.145-1.46-3.511v-0.555h-1.666v11.254c0,1.025-0.42,1.958-1.096,2.635l-0.006,0.006
	c-0.677,0.676-1.61,1.096-2.635,1.096c-1.03,0-1.965-0.42-2.641-1.096c-0.676-0.676-1.096-1.612-1.096-2.641V131.85h-1.488v4.906
	c0,1.67-0.682,3.188-1.78,4.286c-1.099,1.098-2.617,1.78-4.287,1.78h-0.001c-0.48,0-0.948-0.056-1.397-0.163v10.565h37.093V142.136z
	 M74.046,198.812c1.446,0,2.617,1.172,2.617,2.618c0,1.446-1.171,2.617-2.617,2.617s-2.618-1.171-2.618-2.617
	C71.428,199.984,72.6,198.812,74.046,198.812 M95.727,140.627v12.597v1.568v1.567v6.071v1.567h-0.091
	c-0.733,6.11-5.847,7.131-10.526,8.065c-3.051,0.609-5.849,1.167-5.849,3.482c0,2.099,0.594,5.573,1.243,9.376
	c0.812,4.755,1.709,10.008,1.709,14.048c0,3.292-0.916,6.468-2.111,9.03c-1.761,3.776-4.415,6.348-5.896,6.348h-0.319
	c-1.481,0-4.135-2.572-5.895-6.348c-1.195-2.562-2.111-5.738-2.111-9.03c0-4.039,0.896-9.293,1.707-14.048
	c0.649-3.803,1.242-7.277,1.242-9.376c0-2.315-2.797-2.873-5.849-3.482c-4.678-0.934-9.793-1.955-10.525-8.065h-0.091v-1.567v-6.071
	v-1.567v-1.568v-12.442c-0.955-1.072-1.536-2.484-1.536-4.026v-11.96c0-1.67,0.682-3.188,1.781-4.287
	c0.991-0.991,2.324-1.644,3.802-1.761v-0.019h0.484h0.001h0.057h1.025h10.21h10.379h0.001h11.567h1.538h0.029h0.021
	c1.622,0,3.101,0.666,4.173,1.738l0.003-0.003c1.071,1.07,1.735,2.548,1.735,4.176v11.65c0,1.62-0.664,3.097-1.735,4.17
	l-0.003,0.003l-0.003,0.003L95.727,140.627z"/>
<path fill-rule="evenodd" clip-rule="evenodd" fill="#BCBDC0" d="M90.787,270.94c-0.41,0.505-1.152,0.583-1.658,0.174
	c-0.505-0.41-0.583-1.152-0.174-1.658c0.409-0.505,1.152-0.583,1.657-0.174C91.118,269.692,91.196,270.434,90.787,270.94
	 M94.45,273.906c-0.41,0.506-1.152,0.584-1.658,0.174c-0.505-0.409-0.583-1.152-0.174-1.657c0.41-0.506,1.152-0.584,1.658-0.174
	C94.781,272.658,94.859,273.401,94.45,273.906 M98.158,269.327c-0.409,0.506-1.152,0.584-1.657,0.174
	c-0.506-0.409-0.584-1.152-0.174-1.657c0.409-0.506,1.152-0.584,1.657-0.174C98.49,268.079,98.568,268.822,98.158,269.327
	 M94.495,266.361c-0.409,0.505-1.152,0.583-1.658,0.174c-0.505-0.41-0.583-1.152-0.174-1.658c0.41-0.506,1.152-0.583,1.658-0.174
	C94.826,265.112,94.904,265.855,94.495,266.361 M133.061,218.738c-0.41,0.506-1.152,0.584-1.658,0.174
	c-0.505-0.409-0.583-1.152-0.174-1.657c0.41-0.506,1.152-0.584,1.658-0.174C133.392,217.49,133.47,218.233,133.061,218.738
	 M136.724,221.705c-0.409,0.505-1.152,0.583-1.657,0.174c-0.506-0.41-0.584-1.152-0.174-1.658c0.409-0.505,1.152-0.583,1.657-0.174
	C137.056,220.457,137.134,221.199,136.724,221.705 M140.433,217.126c-0.41,0.505-1.152,0.583-1.658,0.174
	c-0.506-0.41-0.583-1.152-0.174-1.657c0.409-0.506,1.152-0.584,1.657-0.175C140.764,215.878,140.842,216.62,140.433,217.126
	 M136.769,214.159c-0.409,0.506-1.152,0.584-1.657,0.174c-0.506-0.409-0.584-1.152-0.174-1.657c0.409-0.506,1.152-0.584,1.657-0.174
	C137.101,212.911,137.179,213.653,136.769,214.159 M146.313,231.866l-0.247-0.2c0.548-1.088,1.031-2.153,1.442-3.185l0.934,0.757
	L146.313,231.866z M110.094,275.505l-2.144,2.647l-1.95-1.58c0.819-0.731,1.694-1.493,2.583-2.291L110.094,275.505z
	 M108.406,268.058c-1.238,1.135-2.424,2.206-3.542,3.212c-0.905,0.799-1.772,1.552-2.601,2.276c-1.321,1.144-2.544,2.186-3.67,3.109
	c-3.588,3.008-6.095,4.905-7.049,5.558c-6.013,4.093-6.341,4.16-9.602,1.52c-3.249-2.616-3.262-2.975-0.509-9.708
	c0.441-1.068,1.783-3.924,3.972-8.05c0.669-1.294,1.434-2.706,2.278-4.236c0.536-0.961,1.092-1.967,1.686-3.018
	c0.749-1.318,1.551-2.702,2.406-4.132c5.29-8.985,12.499-20.115,21.374-31.58c2.252-2.65,4.398-4.869,6.432-6.726
	c1.277-1.164,2.511-2.182,3.699-3.069c0.993-0.758,1.962-1.43,2.889-2.013c1.628-1.017,3.147-1.789,4.569-2.366
	c6.539-2.681,10.794-1.176,12.272-0.434c0.774,0.915,3.42,4.726,2.079,12.056c-0.287,1.497-0.725,3.143-1.391,4.939
	c-0.378,1.028-0.834,2.115-1.368,3.244c-0.622,1.347-1.37,2.758-2.244,4.249c-1.377,2.357-3.081,4.89-5.165,7.615
	C125.514,251.614,116.094,260.999,108.406,268.058 M81.996,257.133l2.144-2.646l1.501,1.216c-0.585,1.042-1.158,2.049-1.694,3.01
	L81.996,257.133z M119.517,210.165l-0.312-0.252l2.129-2.628l0.989,0.801C121.408,208.71,120.474,209.394,119.517,210.165
	 M153.24,227.058l-4.121-3.337c3.056-11.508-1.723-17.516-2.811-18.7c-0.106-0.131-0.227-0.244-0.355-0.348
	c-0.119-0.097-0.237-0.176-0.369-0.238c-0.009-0.007-0.009-0.007-0.018-0.015c-0.026-0.005-0.044-0.02-0.063-0.035
	c-2.427-1.328-9.094-3.862-18.867,1.128l-4.167-3.375c-1.008-0.816-2.492-0.668-3.315,0.349l-5.096,6.291
	c-0.823,1.017-0.659,2.499,0.349,3.315l1.484,1.202c-2.053,1.916-4.19,4.143-6.398,6.738c-8.875,11.465-16.067,22.518-21.427,31.553
	l-2.702-2.189c-0.97-0.786-2.425-0.599-3.249,0.417l-5.11,6.31c-0.823,1.017-0.703,2.479,0.268,3.265l4.378,3.545
	c-2.463,4.633-4.003,7.92-4.578,9.304c-2.701,6.593-4.187,10.226,1.857,15.121l0.091,0.075c6.045,4.894,9.29,2.685,15.178-1.327
	c1.234-0.85,4.129-3.04,8.149-6.411l4.378,3.545c0.97,0.786,2.425,0.599,3.248-0.417l5.111-6.31
	c0.823-1.017,0.703-2.479-0.268-3.265l-2.702-2.188c7.73-7.13,17.077-16.499,26.476-27.6c2.048-2.678,3.76-5.205,5.186-7.583
	l1.401,1.135c1.007,0.815,2.492,0.668,3.315-0.348l5.095-6.292C154.412,229.356,154.248,227.874,153.24,227.058"/>
<path fill-rule="evenodd" clip-rule="evenodd" fill="#BCBDC0" d="M111.262,194.702c-0.598-1.445-1.548-2.702-2.829-3.662
	c-1.172-0.876-2.539-1.42-3.972-1.632l0.326-10.121l2.806-3.746l2.111,4.726l6.171,0.837l2.546,5.69l5.136,0.702l-2.828,3.776
	L111.262,194.702z M148.885,134.231l2.715,2.033c3.652,2.736,4.398,7.933,1.663,11.587l-2.729,3.645l-15.966-11.957l2.731-3.645
	C140.033,132.244,145.229,131.496,148.885,134.231 M137.24,152.607C137.239,152.607,137.239,152.607,137.24,152.607
	c-1.004-0.751-2.426-0.546-3.177,0.456l-17.483,23.325c-0.05,0.067-0.086,0.141-0.127,0.212l-3.634-0.495l-2.024-4.528
	c-0.028-0.064-0.067-0.119-0.102-0.179l21.153-28.225l15.965,11.956l-21.153,28.226c-0.067-0.014-0.13-0.038-0.199-0.047
	l-4.925-0.673l-1.495-3.337c0.059-0.063,0.121-0.119,0.174-0.189l17.481-23.325C138.449,154.782,138.244,153.359,137.24,152.607
	 M154.322,132.631l-2.722-2.039c-5.657-4.231-13.702-3.072-17.935,2.58l-32.94,43.965c-0.278,0.372-0.436,0.821-0.452,1.287
	l-0.713,22.039c-0.024,0.741,0.316,1.447,0.91,1.89c0.008,0.006,0.017,0.013,0.026,0.02c0.61,0.441,1.398,0.554,2.107,0.297
	l20.311-7.362c0.415-0.151,0.779-0.419,1.044-0.774l32.939-43.962C161.132,144.915,159.978,136.868,154.322,132.631"/>
<path fill-rule="evenodd" clip-rule="evenodd" fill="#BCBDC0" d="M180.315,309.213l0.813-6.498h-2.553l0.812,6.498H180.315z
	 M180.315,295.289h-0.928l-0.796,5.57h2.52L180.315,295.289z M181.7,316.819c0.413-0.206,0.915-0.037,1.121,0.375
	c1.283,2.577,3.86,4.178,6.728,4.178c2.867,0,5.445-1.601,6.728-4.178c0.206-0.412,0.706-0.582,1.121-0.375
	c0.411,0.206,0.58,0.707,0.374,1.12c-1.567,3.149-4.718,5.105-8.223,5.105s-6.657-1.956-8.224-5.105
	C181.119,317.526,181.286,317.025,181.7,316.819 M189.598,325.829c4.57,0,8.677-2.548,10.717-6.649
	c0.891-1.79,0.162-3.964-1.628-4.854c-1.787-0.893-3.964-0.163-4.854,1.628c-0.809,1.625-2.431,2.635-4.235,2.635
	c-1.804,0-3.426-1.01-4.235-2.634c-0.89-1.79-3.065-2.52-4.853-1.629c-1.79,0.891-2.519,3.065-1.629,4.854
	C180.921,323.281,185.029,325.829,189.598,325.829 M199.809,295.289h-0.928l-0.796,5.57h2.52L199.809,295.289z M189.598,303.643
	c1.025,0,1.857,0.415,1.857,0.928c0,0.514-0.832,0.929-1.857,0.929c-1.025,0-1.857-0.415-1.857-0.929
	C187.741,304.058,188.573,303.643,189.598,303.643 M189.598,314.782c3.588,0,6.498-2.91,6.498-6.497c0-3.588-2.91-6.498-6.498-6.498
	c-3.588,0-6.498,2.91-6.498,6.498C183.1,311.872,186.01,314.782,189.598,314.782 M173.725,303.643
	c0-18.183,8.483-20.514,15.873-20.514c7.391,0,15.873,2.331,15.873,20.514c0,12.116-4.967,25.156-15.873,25.156
	C178.692,328.799,173.725,315.759,173.725,303.643 M205.777,320.24c4.882-0.211,8.791-4.238,8.791-9.171
	c0-0.276-0.018-0.548-0.042-0.819c3.295-1.398,5.612-4.665,5.612-8.463c0-2.782-1.248-5.274-3.205-6.96
	c1.413-1.616,2.276-3.724,2.276-6.036c0-4.859-3.794-8.84-8.575-9.158c0.141-0.64,0.221-1.301,0.221-1.981
	c0-5.067-4.122-9.19-9.189-9.19c-1.464,0-2.843,0.353-4.072,0.964c-1.58-2.788-4.57-4.677-7.996-4.677
	c-3.426,0-6.416,1.889-7.996,4.677c-1.229-0.611-2.608-0.964-4.072-0.964c-5.067,0-9.189,4.123-9.189,9.19
	c0,0.68,0.08,1.343,0.221,1.981c-4.781,0.318-8.575,4.299-8.575,9.158c0,2.104,0.718,4.041,1.913,5.591
	c-2.28,1.674-3.77,4.366-3.77,7.405c0,3.798,2.317,7.065,5.61,8.463c-0.023,0.271-0.04,0.543-0.04,0.819
	c0,5.068,4.122,9.19,9.189,9.19c0.178,0,0.348-0.025,0.524-0.036c2.867,6.555,8.583,12.276,16.099,12.204
	C197.114,332.353,202.84,326.922,205.777,320.24 M199.809,309.213l0.812-6.498h-2.553l0.813,6.498H199.809z"/>
<path fill="#BCBDC0" d="M206.204,185.922c-4.392,0-7.966,3.578-7.966,7.971v15.565c-1.031-0.495-2.196-0.77-3.414-0.77
	c-2.233,0-4.248,0.924-5.689,2.402c-1.447-1.478-3.462-2.402-5.69-2.402c-1.218,0-2.383,0.275-3.414,0.77v-15.565
	c0-4.393-3.579-7.971-7.971-7.971c-4.393,0-7.967,3.578-7.967,7.971v39.835c0,13.81,11.236,25.04,25.042,25.04
	c13.729,0,24.918-11.108,25.03-24.811c0.01-0.08,0.01-0.149,0.01-0.229v-39.835C214.175,189.5,210.601,185.922,206.204,185.922
	 M202.79,193.893c0-1.881,1.536-3.413,3.414-3.413c1.883,0,3.419,1.532,3.419,3.413v29.344c-2.127-1.719-4.653-2.607-6.833-2.973
	V193.893z M191.409,216.659c0-1.883,1.538-3.421,3.415-3.421c1.878,0,3.414,1.538,3.414,3.421v3.414h-6.829V216.659z
	 M180.031,216.659c0-1.883,1.535-3.421,3.414-3.421c1.876,0,3.414,1.538,3.414,3.421v3.414h-6.828V216.659z M189.135,254.216
	c-11.301,0-20.489-9.194-20.489-20.488v-39.835c0-1.881,1.537-3.413,3.414-3.413c1.882,0,3.418,1.532,3.418,3.413v28.456
	c0,1.866,0.442,4.38,1.639,6.736c1.839,3.633,5.472,6.919,12.018,6.919h0.829c-1.83,2.084-3.105,5.03-3.105,9.109
	c0,1.25,1.025,2.276,2.276,2.276c1.249,0,2.274-1.026,2.274-2.276c0-8.779,8.185-9.099,9.105-9.109c1.25,0,2.276-1.026,2.276-2.276
	s-1.026-2.276-2.276-2.276h-11.379c-3.027,0-5.042-0.968-6.387-2.276c-1.436-1.389-2.105-3.154-2.436-4.553h20.192
	c0.271,0,1.159,0.034,2.286,0.293c2.361,0.538,5.758,2.095,6.625,6.536c0.139,0.685,0.208,1.447,0.208,2.276
	c0,0.77-0.048,1.525-0.128,2.276C208.357,246.23,199.652,254.216,189.135,254.216"/>
<path fill-rule="evenodd" clip-rule="evenodd" fill="#BCBDC0" d="M149.866,98.653c0-1.618-1.311-2.929-2.929-2.929
	c-1.618,0-2.929,1.311-2.929,2.929c0,1.618,1.311,2.929,2.929,2.929C148.555,101.582,149.866,100.271,149.866,98.653
	 M146.928,116.26c-12.418,0-22.52-10.103-22.52-22.52c0-12.417,10.102-22.521,22.52-22.521c12.418,0,22.521,10.103,22.521,22.521
	S159.346,116.26,146.928,116.26 M146.928,66.944c-14.776,0-26.796,12.021-26.796,26.796c0,10.248,5.785,19.166,14.259,23.672
	c-4.788,1.691-6.625-0.149-8.411-1.941c-0.286-0.288-0.563-0.565-0.837-0.818c-0.157-0.146-0.33-0.317-0.519-0.502
	c-1.883-1.85-6.89-6.768-13.02-1.504c-0.897,0.77-0.999,2.12-0.23,3.016c0.77,0.895,2.12,0.997,3.015,0.228
	c2.68-2.301,4.47-1.411,7.239,1.31c0.22,0.216,0.422,0.414,0.607,0.585c0.235,0.218,0.471,0.456,0.717,0.703
	c1.586,1.593,3.85,3.865,7.943,3.865c2.332,0,5.261-0.741,8.994-2.762c2.245,0.611,4.603,0.944,7.039,0.944
	c14.777,0,26.796-12.019,26.796-26.795C173.724,78.966,161.705,66.944,146.928,66.944 M160.879,92.277
	c1.208,0,2.401-0.32,3.453-0.924c0.651-0.375,0.981-1.131,0.815-1.864c-0.879-3.851-2.921-7.267-5.902-9.88
	c-0.564-0.496-1.388-0.564-2.027-0.168c-1.546,0.957-2.638,2.457-3.079,4.222c-0.445,1.799-0.164,3.663,0.79,5.25
	C156.196,91.019,158.42,92.277,160.879,92.277 M132.996,95.172c-1.199,0-2.383,0.315-3.424,0.907
	c-0.659,0.377-0.992,1.141-0.818,1.879c0.906,3.84,2.97,7.242,5.97,9.837c0.319,0.275,0.718,0.416,1.119,0.416
	c0.322,0,0.643-0.091,0.927-0.274c3.162-2.046,4.119-6.176,2.177-9.403C137.681,96.428,135.456,95.172,132.996,95.172
	 M129.399,92.739c0.937,0.447,1.938,0.676,2.974,0.676c2.652,0,5.033-1.475,6.213-3.847c1.683-3.375,0.327-7.528-3.02-9.256
	c-0.671-0.346-1.484-0.214-2.01,0.325c-2.774,2.847-4.543,6.412-5.114,10.312C128.334,91.69,128.721,92.415,129.399,92.739
	 M146.937,84.398c3.783,0,6.894-3.077,6.936-6.859c0.009-0.747-0.467-1.412-1.178-1.645c-3.755-1.227-7.76-1.227-11.517,0
	c-0.71,0.233-1.187,0.899-1.179,1.645C140.042,81.321,143.153,84.398,146.937,84.398 M146.937,103.05
	c-3.758,0-6.804,2.941-6.934,6.696c-0.025,0.761,0.454,1.448,1.178,1.685c1.879,0.614,3.816,0.926,5.756,0.926
	c1.941,0,3.877-0.311,5.755-0.926c0.725-0.236,1.205-0.923,1.178-1.684C153.739,105.992,150.695,103.05,146.937,103.05
	 M164.453,94.7c-0.933-0.441-1.926-0.665-2.953-0.665c-2.652,0-5.034,1.475-6.216,3.847c-1.653,3.323-0.343,7.452,2.921,9.202
	c0.255,0.137,0.531,0.203,0.809,0.203c0.446,0,0.886-0.174,1.216-0.508c2.794-2.831,4.584-6.383,5.183-10.275
	C165.527,95.756,165.137,95.021,164.453,94.7 M154.668,93.85c0-1.618-1.311-2.929-2.929-2.929c-1.618,0-2.929,1.311-2.929,2.929
	s1.311,2.929,2.929,2.929C153.357,96.779,154.668,95.468,154.668,93.85 M145.061,93.85c0-1.618-1.312-2.929-2.929-2.929
	c-1.618,0-2.929,1.311-2.929,2.929s1.311,2.929,2.929,2.929C143.749,96.779,145.061,95.468,145.061,93.85 M149.866,89.046
	c0-1.618-1.311-2.929-2.929-2.929c-1.618,0-2.929,1.311-2.929,2.929c0,1.617,1.311,2.929,2.929,2.929
	C148.555,91.975,149.866,90.663,149.866,89.046"/>
<path fill="#BCBDC0" d="M81.253,21.115l-8.061,7.48l4.509,0.817l4.03-3.74L81.253,21.115z M83.696,28.844l-2.833,2.629
	l14.963,16.124c0.331,0.358,0.506,0.831,0.49,1.316l-0.51,13.639l31.218,0.01l-1.112-32.757l-27.544-1.029l-0.156,4.186
	c-0.057,1.517-0.957,2.843-2.352,3.447c-1.395,0.609-2.979,0.368-4.129-0.629L83.696,28.844z M98.5,25.108l29.259,1.094
	c0.963,0.036,1.731,0.809,1.762,1.77l0.56,16.478l0.03,0.001c3.03,0.114,5.586-2.258,5.699-5.288l0.359-9.594
	c0.2-5.372-4.008-9.907-9.38-10.108l-22.545-0.843c-3.03-0.113-5.586,2.258-5.699,5.288L98.5,25.108z M67.915,30.991
	c-0.19-0.204-0.333-0.456-0.416-0.734c-0.193-0.666,0.005-1.385,0.513-1.856l13.435-12.467c0.507-0.471,1.239-0.615,1.889-0.373
	c0.649,0.248,1.11,0.835,1.178,1.523l0.879,8.383l8.735,7.539l0.424-0.184l0.218-5.826c-0.004-0.062-0.006-0.125-0.003-0.189
	l0.116-3.038c0.188-5.051,4.45-9.005,9.498-8.814l22.545,0.843c7.392,0.276,13.182,6.516,12.905,13.908l-0.359,9.594
	c-0.185,4.974-4.321,8.884-9.267,8.82l0.55,16.211c0.015,0.496-0.168,0.976-0.514,1.337c-0.345,0.356-0.822,0.558-1.318,0.558
	l-35.015-0.012c-0.498,0.002-0.973-0.203-1.32-0.561c-0.016-0.006-0.023-0.014-0.03-0.021c-0.329-0.355-0.506-0.831-0.491-1.316
	l0.553-14.784L77.345,33.07l-8.416-1.525C68.535,31.476,68.179,31.276,67.915,30.991"/>
<path fill="#BCBDC0" d="M99.793,51.508c-0.498,0.241-1.106,0.06-1.388-0.426 M106.71,51.508c-0.498,0.241-1.106,0.06-1.388-0.426
	 M113.627,51.508c-0.498,0.241-1.106,0.06-1.388-0.426 M120.544,51.508c-0.498,0.241-1.106,0.06-1.388-0.426 M127.462,51.508
	c-0.498,0.241-1.107,0.06-1.389-0.426 M127.535,48.554c0.293-0.51,0.945-0.686,1.455-0.393c0.509,0.293,0.686,0.946,0.393,1.455
	c-0.454,0.786-1.097,1.42-1.851,1.855l-0.07,0.037c-0.745,0.415-1.591,0.644-2.462,0.644c-0.897,0-1.767-0.243-2.527-0.681
	l-0.003-0.002l-0.002,0.002c-0.332-0.193-0.644-0.423-0.927-0.688c-0.282,0.265-0.594,0.495-0.926,0.688l-0.071,0.037
	c-0.744,0.415-1.59,0.644-2.461,0.644c-0.897,0-1.767-0.243-2.527-0.681l-0.004-0.002l-0.001,0.002
	c-0.332-0.193-0.644-0.423-0.926-0.688c-0.283,0.264-0.594,0.495-0.927,0.688l-0.071,0.037c-0.745,0.415-1.59,0.644-2.461,0.644
	c-0.897,0-1.767-0.243-2.527-0.681l-0.003-0.002l-0.002,0.002c-0.332-0.193-0.644-0.423-0.927-0.688
	c-0.282,0.265-0.594,0.495-0.926,0.688l-0.071,0.037c-0.744,0.415-1.591,0.644-2.461,0.644c-0.897,0-1.767-0.243-2.528-0.681
	l-0.003-0.002l-0.001,0.002c-0.332-0.193-0.643-0.423-0.926-0.688c-0.283,0.264-0.594,0.495-0.927,0.688l-0.071,0.037
	c-0.745,0.415-1.59,0.644-2.461,0.644c-0.897,0-1.768-0.243-2.528-0.681l-0.003-0.002L94.8,51.471
	c-0.754-0.435-1.397-1.069-1.851-1.855c-0.292-0.509-0.116-1.162,0.393-1.455c0.51-0.293,1.162-0.117,1.455,0.393
	c0.259,0.449,0.633,0.814,1.074,1.069l-0.002,0.002c0.432,0.248,0.936,0.386,1.463,0.386c0.509,0,0.995-0.128,1.417-0.361
	l0.044-0.027c0.438-0.253,0.812-0.62,1.074-1.073l0.002,0.001c0.09-0.157,0.222-0.293,0.391-0.39
	c0.509-0.293,1.162-0.117,1.455,0.393c0.259,0.449,0.632,0.814,1.073,1.069l-0.001,0.002c0.431,0.248,0.934,0.386,1.462,0.386
	c0.509,0,0.995-0.128,1.417-0.361l0.044-0.027c0.425-0.245,0.789-0.595,1.046-1.022c0.09-0.178,0.231-0.333,0.416-0.44
	c0.51-0.295,1.164-0.121,1.459,0.389c0.262,0.453,0.636,0.82,1.074,1.073l-0.001,0.002c0.432,0.248,0.935,0.386,1.462,0.386
	c0.509,0,0.995-0.128,1.416-0.361l0.045-0.027c0.438-0.253,0.812-0.62,1.074-1.073l0.002,0.001c0.09-0.157,0.223-0.293,0.391-0.39
	c0.509-0.293,1.162-0.117,1.455,0.393c0.259,0.449,0.632,0.814,1.073,1.069l-0.001,0.002c0.432,0.248,0.935,0.386,1.462,0.386
	c0.509,0,0.995-0.128,1.417-0.361l0.044-0.027c0.425-0.245,0.788-0.595,1.046-1.022c0.09-0.178,0.231-0.333,0.416-0.44
	c0.51-0.295,1.164-0.121,1.459,0.389c0.262,0.453,0.636,0.82,1.074,1.073l-0.001,0.002c0.432,0.248,0.935,0.386,1.462,0.386
	c0.509,0,0.996-0.128,1.417-0.361l0.045-0.027C126.902,49.369,127.276,49.003,127.535,48.554"/>
<path fill="#BCBDC0" d="M30.86,181.163h-5.08c-0.391,0-0.75,0.163-1.009,0.422l-0.003-0.003l-0.003,0.003
	c-0.256,0.257-0.417,0.615-0.417,1.01v38.378c0,0.394,0.161,0.752,0.417,1.008l0.006,0.006c0.256,0.256,0.614,0.417,1.009,0.417
	h22.338c0.394,0,0.751-0.16,1.011-0.416l0.005-0.006c0.257-0.259,0.416-0.617,0.416-1.009v-38.378c0-0.396-0.16-0.753-0.416-1.01
	l-0.006-0.005c-0.256-0.257-0.614-0.417-1.01-0.417h-5.079c-0.791,0-1.433-0.642-1.433-1.433v-4.217h-9.313v4.217
	C32.293,180.521,31.651,181.163,30.86,181.163 M26.563,212.063h20.772v8.267H26.563V212.063z M26.563,202.366h20.772v8.267H26.563
	V202.366z M25.78,178.297h3.647v-2.974c0-0.737,0.301-1.408,0.784-1.891c0.484-0.484,1.156-0.785,1.892-0.785h9.692
	c0.739,0,1.408,0.301,1.892,0.785c0.039,0.039,0.076,0.08,0.109,0.122c0.42,0.474,0.677,1.095,0.677,1.769v2.974h3.645
	c1.178,0,2.252,0.483,3.032,1.261l0.005,0.006c0.778,0.78,1.261,1.853,1.261,3.031v38.378c0,1.179-0.483,2.252-1.26,3.03
	l-0.006,0.006c-0.778,0.778-1.852,1.261-3.032,1.261H25.78c-1.177,0-2.251-0.483-3.031-1.261l-0.005-0.006
	c-0.779-0.78-1.262-1.853-1.262-3.03v-38.378c0-1.178,0.485-2.254,1.264-3.034l-0.002-0.003
	C23.521,178.78,24.597,178.297,25.78,178.297"/>
<path fill-rule="evenodd" clip-rule="evenodd" fill="#BCBDC0" d="M9.468,143.439c-0.839,0.371-1.56,0.979-2.05,1.807
	c-1.259,2.126-0.244,4.939,2.02,6.385l23.443,15.003c1.103,0.708,2.578,0.629,3.489-0.248c1.026-0.987,0.947-2.613-0.173-3.633
	L24.924,152.51c-1.712-1.557-1.377-4.131,0.671-5.042c6.094-2.707,16.74-7.45,17.007-7.685c2.051-1.801,2.048-4.904-0.004-6.931
	c0,0-28.922-28.496-29.28-28.757c-3.907-2.845-9.407-2.216-12.052,1.461c-2.477,3.448-1.157,8.352,2.554,11.055l20.721,15.091
	c2.025,1.473,1.812,4.332-0.392,5.297L9.468,143.439z"/>
<path fill-rule="evenodd" clip-rule="evenodd" fill="#BCBDC0" d="M174.348,365.298l-33.364-33.079l3.96-3.924l33.365,33.083
	L174.348,365.298z M90.794,323.489c-25.136,0-45.587-20.49-45.587-45.673c0.002-25.187,20.449-45.677,45.587-45.677
	c25.133,0,45.591,20.49,45.591,45.677C136.385,303,115.927,323.486,90.794,323.489 M91.401,250.151
	c-2.597,0-4.703-2.106-4.703-4.704c0-2.598,2.106-4.704,4.703-4.704c10.37,0,19.761,4.205,26.556,11
	c6.795,6.795,11,16.186,11,26.556c0,2.597-2.106,4.703-4.704,4.703c-2.598,0-4.704-2.106-4.704-4.703
	c0-7.773-3.151-14.811-8.244-19.904C106.212,253.302,99.174,250.151,91.401,250.151 M190.824,357.197l-41.731-41.374
	c-2.289-2.274-5.979-2.27-8.269-0.005l-1.878,1.856l-3.68-3.596c8.049-9.892,12.883-22.507,12.883-36.262
	c-0.003-31.738-25.68-57.461-57.355-57.461c-31.674,0-57.349,25.723-57.349,57.461c0,31.734,25.675,57.459,57.349,57.459
	c13.706,0,26.279-4.829,36.144-12.868l3.635,3.547l-2.091,2.069c-2.355,2.324-2.317,6.098-0.007,8.387l41.732,41.367
	c2.29,2.267,5.975,2.267,8.264,0.001l12.339-12.192C193.153,363.277,193.149,359.507,190.824,357.197"/>
<path fill-rule="evenodd" clip-rule="evenodd" fill="#FFFFFF" d="M92.371,230.651c26.049,1.24,46.16,23.362,44.92,49.41
	c-1.239,26.049-23.361,46.161-49.41,44.921c-26.049-1.24-46.161-23.362-44.921-49.411C44.2,249.523,66.322,229.411,92.371,230.651"
	/>
<path fill-rule="evenodd" clip-rule="evenodd" fill="#BCBDC0" d="M81.392,282.163c-0.591,0.744-1.673,0.868-2.417,0.278
	c-0.743-0.591-0.867-1.673-0.277-2.417c0.59-0.743,1.672-0.868,2.416-0.278C81.858,280.336,81.982,281.418,81.392,282.163
	 M86.779,286.44c-0.59,0.744-1.672,0.868-2.416,0.278c-0.744-0.59-0.868-1.673-0.277-2.417c0.59-0.743,1.673-0.867,2.416-0.277
	C87.245,284.615,87.37,285.697,86.779,286.44 M92.126,279.706c-0.59,0.743-1.673,0.867-2.416,0.277
	c-0.744-0.59-0.868-1.673-0.278-2.416c0.591-0.744,1.673-0.868,2.417-0.278C92.592,277.88,92.717,278.961,92.126,279.706
	 M86.738,275.427c-0.59,0.744-1.672,0.868-2.416,0.278c-0.743-0.591-0.868-1.673-0.277-2.417c0.59-0.743,1.672-0.868,2.416-0.277
	C87.204,273.602,87.329,274.685,86.738,275.427 M109.631,288.552l-3.09,3.892l-2.87-2.278c1.186-1.078,2.453-2.203,3.738-3.379
	L109.631,288.552z M68.368,262.139l3.09-3.893l2.21,1.753c-0.841,1.529-1.662,3.007-2.431,4.417L68.368,262.139z M91.644,230.625
	c-5.561,8.382-10.403,16.278-14.496,23.332l-3.974-3.155c-1.428-1.134-3.548-0.841-4.736,0.654l-7.367,9.281
	c-1.187,1.495-0.991,3.627,0.436,4.76l6.439,5.112c-3.528,6.795-5.729,11.613-6.549,13.642c-3.848,9.659-5.966,14.982,2.924,22.04
	l0.134,0.107c8.89,7.058,13.595,3.788,22.13-2.15c1.79-1.259,5.984-4.494,11.802-9.472l6.438,5.112
	c1.428,1.134,3.549,0.841,4.736-0.654l7.368-9.281c1.187-1.495,0.991-3.627-0.437-4.76l-3.973-3.155
	c6.527-6.139,13.849-13.4,21.511-21.632c-0.913-2.297-2.003-4.506-3.251-6.614c-8.483,9.211-16.609,17.262-23.716,23.915
	c-1.79,1.674-3.506,3.255-5.123,4.738c-1.309,1.179-2.565,2.29-3.764,3.358c-1.911,1.689-3.681,3.226-5.312,4.589
	c-5.194,4.44-8.825,7.245-10.208,8.211c-8.717,6.057-9.195,6.161-13.99,2.354c-4.779-3.772-4.803-4.296-0.88-14.16
	c0.628-1.565,2.546-5.752,5.682-11.804c0.957-1.897,2.054-3.97,3.265-6.214c0.768-1.41,1.566-2.885,2.417-4.427
	c1.075-1.936,2.225-3.965,3.453-6.065c4.589-7.97,10.191-17.095,16.729-26.788c-2.264-0.447-4.588-0.736-6.961-0.848
	C92.128,230.639,91.886,230.633,91.644,230.625"/>
</svg>
