<?xml version="1.0" encoding="utf-8"?>
<!-- Generator: Adobe Illustrator 17.0.0, SVG Export Plug-In . SVG Version: 6.00 Build 0)  -->
<!DOCTYPE svg PUBLIC "-//W3C//DTD SVG 1.1//EN" "http://www.w3.org/Graphics/SVG/1.1/DTD/svg11.dtd">
<svg version="1.1" id="Layer_1" xmlns="http://www.w3.org/2000/svg" xmlns:xlink="http://www.w3.org/1999/xlink" x="0px" y="0px"
	 width="465.646px" height="444.725px" viewBox="0 0 465.646 444.725" enable-background="new 0 0 465.646 444.725"
	 xml:space="preserve">
<path fill-rule="evenodd" clip-rule="evenodd" fill="#BCBDC0" d="M352.788,272.173c0,5.331-4.337,9.671-9.67,9.671h-77.365
	c-3.745,0-6.639,2.398-9.436,4.712c-2.942,2.437-5.984,4.958-9.905,4.958c-3.922,0-6.963-2.521-9.905-4.958
	c-2.797-2.314-5.691-4.712-9.436-4.712h-77.364c-5.334,0-9.671-4.34-9.671-9.671V156.127c0-2.909,0.943-9.671,9.671-9.671v106.376
	c0,10.667,8.676,19.341,19.341,19.341h62.858c5.334,0,9.671,4.34,9.671,9.671c0,2.671,2.166,4.835,4.835,4.835
	s4.835-2.164,4.835-4.835c0-5.331,4.338-9.671,9.671-9.671h62.858c10.665,0,19.342-8.674,19.342-19.341V146.456
	c8.727,0,9.67,6.762,9.67,9.671V272.173z M159.377,141.645c0-0.01,0.005-0.015,0.005-0.024c0-0.005-0.003-0.01-0.003-0.015
	c0.008-5.326,4.34-9.656,9.669-9.656h62.858c5.334,0,9.671,4.34,9.671,9.671v123.601c-2.86-1.67-6.127-2.719-9.671-2.719h-62.858
	c-5.334,0-9.671-4.34-9.671-9.671V141.645z M251.247,141.621c0-5.331,4.338-9.671,9.671-9.671h62.858
	c5.334,0,9.671,4.34,9.671,9.671v111.211c0,5.331-4.337,9.671-9.671,9.671h-62.858c-3.545,0-6.811,1.049-9.671,2.719V141.621z
	 M343.118,136.785h-0.687c-2.164-8.319-9.668-14.506-18.655-14.506h-62.858c-5.771,0-10.959,2.541-14.506,6.564
	c-3.547-4.023-8.735-6.564-14.506-6.564h-62.858c-8.987,0-16.491,6.187-18.655,14.506h-0.686c-11.569,0-19.342,7.773-19.342,19.342
	v116.046c0,10.667,8.677,19.341,19.342,19.341h77.364c0.646,0.174,2.144,1.562,3.268,2.493c3.658,3.027,8.668,7.178,16.073,7.178
	c7.405,0,12.417-4.151,16.072-7.178c1.125-0.931,2.819-2.338,3.269-2.493h77.365c10.664,0,19.341-8.674,19.341-19.341V156.127
	C362.459,144.558,354.686,136.785,343.118,136.785 M265.753,238.326h48.353c2.669,0,4.835-2.163,4.835-4.835
	s-2.166-4.836-4.835-4.836h-48.353c-2.669,0-4.835,2.164-4.835,4.836S263.084,238.326,265.753,238.326 M265.753,214.15h48.353
	c2.669,0,4.835-2.164,4.835-4.836c0-2.671-2.166-4.835-4.835-4.835h-48.353c-2.669,0-4.835,2.164-4.835,4.835
	C260.918,211.986,263.084,214.15,265.753,214.15 M265.753,189.973h48.353c2.669,0,4.835-2.163,4.835-4.835
	c0-2.671-2.166-4.835-4.835-4.835h-48.353c-2.669,0-4.835,2.164-4.835,4.835C260.918,187.81,263.084,189.973,265.753,189.973
	 M265.753,165.797h48.353c2.669,0,4.835-2.164,4.835-4.835c0-2.672-2.166-4.835-4.835-4.835h-48.353
	c-2.669,0-4.835,2.163-4.835,4.835C260.918,163.633,263.084,165.797,265.753,165.797 M178.718,238.326h48.353
	c2.669,0,4.835-2.163,4.835-4.835s-2.166-4.836-4.835-4.836h-48.353c-2.669,0-4.835,2.164-4.835,4.836
	S176.049,238.326,178.718,238.326 M178.718,214.15h48.353c2.669,0,4.835-2.164,4.835-4.836c0-2.671-2.166-4.835-4.835-4.835h-48.353
	c-2.669,0-4.835,2.164-4.835,4.835C173.883,211.986,176.049,214.15,178.718,214.15 M178.718,189.973h48.353
	c2.669,0,4.835-2.163,4.835-4.835c0-2.671-2.166-4.835-4.835-4.835h-48.353c-2.669,0-4.835,2.164-4.835,4.835
	C173.883,187.81,176.049,189.973,178.718,189.973 M178.718,165.797h48.353c2.669,0,4.835-2.164,4.835-4.835
	c0-2.672-2.166-4.835-4.835-4.835h-48.353c-2.669,0-4.835,2.163-4.835,4.835C173.883,163.633,176.049,165.797,178.718,165.797"/>
<path fill-rule="evenodd" clip-rule="evenodd" fill="#BCBDC0" d="M142.323,61.026h-17.228V45.158h17.228V61.026z M76.132,60.005
	h31.282v21.309H76.132V60.005z M128.722,116.449h-18.588v-15.868h18.588V116.449z M73.639,116.449H55.051v-15.868h18.588V116.449z
	 M57.998,75.873H39.41V60.005h18.588V75.873z M72.052,19.656H90.64v15.867H72.052V19.656z M144.363,41.077h-21.308
	c-1.127,0-2.04,0.914-2.04,2.04v18.814l-9.521,5.91v-9.876c0-1.126-0.913-2.04-2.04-2.04H93.188l-8.484-16.322h7.976
	c1.127,0,2.04-0.914,2.04-2.04V17.616c0-1.127-0.913-2.04-2.04-2.04H70.012c-1.127,0-2.04,0.913-2.04,2.04v19.947
	c0,1.126,0.913,2.04,2.04,2.04h10.096l8.484,16.322h-14.5c-1.127,0-2.04,0.914-2.04,2.04v8.841h-9.974v-8.841
	c0-1.126-0.913-2.04-2.04-2.04H37.37c-1.127,0-2.04,0.914-2.04,2.04v19.949c0,1.126,0.913,2.04,2.04,2.04h22.668
	c1.127,0,2.04-0.914,2.04-2.04v-7.028h9.974v11.869L63.23,96.501H53.011c-1.127,0-2.04,0.913-2.04,2.04v19.948
	c0,1.126,0.913,2.04,2.04,2.04h22.668c1.127,0,2.04-0.914,2.04-2.04V98.541c0-1.127-0.913-2.04-2.04-2.04h-7.601l7.129-11.107
	h33.146l7.294,11.107h-7.553c-1.127,0-2.04,0.913-2.04,2.04v19.948c0,1.126,0.913,2.04,2.04,2.04h22.668
	c1.127,0,2.04-0.914,2.04-2.04V98.541c0-1.127-0.913-2.04-2.04-2.04h-10.233l-9.034-13.757v-10.1l12.142-7.538h20.726
	c1.127,0,2.04-0.914,2.04-2.04V43.117C146.403,41.991,145.49,41.077,144.363,41.077"/>
<line fill="none" stroke="#BCBDC0" stroke-width="4.961" stroke-linecap="round" stroke-linejoin="round" stroke-miterlimit="22.926" x1="354.446" y1="122.942" x2="402.022" y2="75.366"/>
<line fill="none" stroke="#BCBDC0" stroke-width="4.961" stroke-linecap="round" stroke-linejoin="round" stroke-miterlimit="22.926" x1="390.459" y1="76.357" x2="402.023" y2="75.366"/>
<line fill="none" stroke="#BCBDC0" stroke-width="4.961" stroke-linecap="round" stroke-linejoin="round" stroke-miterlimit="22.926" x1="401.031" y1="86.929" x2="402.022" y2="75.365"/>
<path fill="none" stroke="#BCBDC0" stroke-width="4.252" stroke-linecap="round" stroke-linejoin="round" stroke-miterlimit="22.926" stroke-dasharray="4.25,12.76" d="
	M364.451,93.441c-2.988-7.206-3.803-15.128-2.345-22.791c4.128-21.697,25.063-35.939,46.76-31.811s35.939,25.063,31.811,46.759
	c-4.128,21.697-25.063,35.939-46.76,31.811c-6.896-1.312-13.325-4.416-18.641-9"/>
<line fill="none" stroke="#BCBDC0" stroke-width="4.961" stroke-linecap="round" stroke-linejoin="round" stroke-miterlimit="22.926" x1="299.239" y1="107.345" x2="307.946" y2="74.85"/>
<line fill="none" stroke="#BCBDC0" stroke-width="4.961" stroke-linecap="round" stroke-linejoin="round" stroke-miterlimit="22.926" x1="298.428" y1="81.49" x2="307.947" y2="74.85"/>
<line fill="none" stroke="#BCBDC0" stroke-width="4.961" stroke-linecap="round" stroke-linejoin="round" stroke-miterlimit="22.926" x1="312.87" y1="85.36" x2="307.947" y2="74.85"/>
<path fill-rule="evenodd" clip-rule="evenodd" fill="#BCBDC0" d="M309.159,380.816h-22.944c-0.974,0-1.765-0.794-1.765-1.764v-14.12
	c0-0.974,0.791-1.765,1.765-1.765h8.825v-3.53h-8.825c-2.919,0-5.295,2.376-5.295,5.295v14.12c0,2.919,2.376,5.294,5.295,5.294
	h22.944v7.06l10.59-8.825l-10.59-8.824V380.816z M282.685,349.048h10.59c0.97,0,1.765-0.794,1.765-1.765v-7.06
	c0-0.971-0.795-1.765-1.765-1.765h-10.59c-0.97,0-1.765,0.794-1.765,1.765v7.06C280.92,348.254,281.715,349.048,282.685,349.048
	 M300.334,366.697h10.59c0.971,0,1.765-0.794,1.765-1.765v-7.059c0-0.971-0.794-1.766-1.765-1.766h-10.59
	c-0.97,0-1.765,0.795-1.765,1.766v7.059C298.569,365.903,299.364,366.697,300.334,366.697 M335.633,377.286h-10.59
	c-0.97,0-1.765,0.795-1.765,1.766v7.059c0,0.971,0.795,1.765,1.765,1.765h10.59c0.97,0,1.765-0.794,1.765-1.765v-7.059
	C337.398,378.081,336.603,377.286,335.633,377.286 M332.103,341.988h-33.534v3.53h33.534c0.971,0,1.765,0.79,1.765,1.765v10.59
	c0,0.974-0.794,1.764-1.765,1.764h-5.295v-7.059l-10.589,8.824l10.589,8.825v-7.06h5.295c2.919,0,5.295-2.375,5.295-5.294v-10.59
	C337.398,344.364,335.022,341.988,332.103,341.988"/>
<circle fill="none" stroke="#A7A9AC" stroke-width="2.835" stroke-linecap="round" stroke-linejoin="round" stroke-miterlimit="22.926" cx="309.807" cy="362.123" r="47.944"/>
<path fill-rule="evenodd" clip-rule="evenodd" fill="#BCBDC0" d="M345.729,33.794l-14.291,6.052
	c0.102,0.528,0.161,1.073,0.161,1.632c0,4.671-3.787,8.458-8.458,8.458c-4.67,0-8.457-3.787-8.457-8.458
	c0-4.671,3.787-8.457,8.457-8.457c0.514,0,1.013,0.053,1.502,0.14l5.827-14.388c-5.264-1.701-11.138-1.596-16.631,0.73
	c-12.136,5.14-17.807,19.145-12.667,31.279c5.139,12.135,19.144,17.806,31.279,12.668C344.048,58.537,349.735,45.529,345.729,33.794
	 M330.531,37.371l16.657-7.055c-2.571-6.067-7.355-10.519-13.016-12.812l-6.757,16.686
	C328.716,34.954,329.796,36.051,330.531,37.371"/>
<path fill-rule="evenodd" clip-rule="evenodd" fill="#BCBDC0" d="M463.812,243.983h-55.675v-55.485c0-1.013-0.822-1.834-1.835-1.834
	c-1.014,0-1.836,0.821-1.836,1.834v57.322c0,1.013,0.822,1.834,1.836,1.834h57.51c1.013,0,1.834-0.822,1.834-1.834
	C465.646,244.804,464.824,243.983,463.812,243.983"/>
<path fill-rule="evenodd" clip-rule="evenodd" fill="#BCBDC0" d="M415.441,212.461c2.948,0,5.345-2.399,5.345-5.344
	c0-0.259-0.04-0.506-0.076-0.756l5.659-2.368c0.979,1.248,2.483,2.065,4.188,2.065c2.166,0,4.027-1.302,4.865-3.159l3.973,3.25
	c-0.316,0.683-0.505,1.434-0.505,2.236c0,2.947,2.399,5.344,5.345,5.344c2.948,0,5.345-2.398,5.345-5.344
	c0-0.646-0.132-1.256-0.342-1.829l6.317-5.451c0.823,0.517,1.787,0.829,2.83,0.829c2.948,0,5.346-2.398,5.346-5.344
	c0-2.948-2.399-5.347-5.346-5.347s-5.346,2.399-5.346,5.347c0,1.016,0.3,1.958,0.796,2.768l-5.957,5.138
	c-0.956-0.897-2.234-1.458-3.645-1.458c-1.259,0-2.405,0.456-3.32,1.192l-5.074-4.153c-0.317-2.646-2.552-4.712-5.282-4.712
	c-2.946,0-5.344,2.399-5.344,5.346c0,0.363,0.038,0.72,0.107,1.065l-5.492,2.3c-0.966-1.39-2.57-2.306-4.387-2.306
	c-2.947,0-5.344,2.398-5.344,5.345C410.095,210.063,412.494,212.461,415.441,212.461"/>
<path fill-rule="evenodd" clip-rule="evenodd" fill="#BCBDC0" d="M415.441,237.951c2.948,0,5.345-2.399,5.345-5.346
	c0-0.232-0.039-0.451-0.067-0.675l5.811-2.042c0.98,1.136,2.412,1.87,4.027,1.87c2.284,0,4.223-1.447,4.988-3.468l7.729,4.277
	c-0.408,0.757-0.665,1.607-0.665,2.526c0,2.948,2.399,5.346,5.345,5.346c2.948,0,5.346-2.399,5.346-5.346
	c0-1.329-0.505-2.53-1.312-3.466l4.515-6.683c0.216,0.027,0.429,0.066,0.652,0.066c2.948,0,5.346-2.399,5.346-5.344
	c0-2.946-2.399-5.343-5.346-5.343c-2.947,0-5.344,2.397-5.344,5.343c0,1.829,0.925,3.441,2.328,4.406l-4.115,6.094
	c-0.636-0.267-1.336-0.416-2.069-0.416c-1.12,0-2.158,0.348-3.018,0.94l-9.111-5.042c-0.375-2.584-2.582-4.583-5.267-4.583
	c-2.947,0-5.345,2.399-5.345,5.346c0,0.445,0.07,0.87,0.174,1.283l-5.507,1.936c-0.961-1.428-2.591-2.37-4.438-2.37
	c-2.946,0-5.344,2.398-5.344,5.344C410.095,235.553,412.494,237.951,415.441,237.951"/>
<path fill-rule="evenodd" clip-rule="evenodd" fill="#BCBDC0" d="M79.091,177.444l-10.774,14.057
	c-0.236,0.307-0.602,0.488-0.989,0.488s-0.752-0.181-0.988-0.488l-3.446-4.502l-6.643,15.149c-0.196,0.448-0.635,0.737-1.124,0.745
	H55.11c-0.482,0-0.921-0.277-1.126-0.714l-3.392-7.182l-4.887,9.457c-0.221,0.427-0.657,0.672-1.108,0.672
	c-0.191,0-0.388-0.045-0.569-0.138c-0.612-0.316-0.85-1.067-0.536-1.678l6.043-11.694c0.217-0.421,0.664-0.681,1.13-0.672
	c0.474,0.009,0.901,0.284,1.103,0.714l3.299,6.986l6.391-14.574c0.179-0.404,0.556-0.684,0.991-0.737
	c0.437-0.051,0.87,0.13,1.138,0.479l3.74,4.885l9.786-12.768c0.419-0.544,1.2-0.648,1.746-0.23
	C79.405,176.117,79.508,176.899,79.091,177.444 M76.129,201.712H63.518c-0.689,0-1.244-0.556-1.244-1.245s0.555-1.244,1.244-1.244
	h12.611c0.688,0,1.245,0.555,1.245,1.244S76.817,201.712,76.129,201.712 M76.129,206.835H63.518c-0.689,0-1.244-0.556-1.244-1.245
	c0-0.687,0.555-1.244,1.244-1.244h12.611c0.688,0,1.245,0.557,1.245,1.244C77.376,206.278,76.817,206.835,76.129,206.835
	 M46.438,172.357h12.613c0.688,0,1.245,0.555,1.245,1.244c0,0.688-0.557,1.245-1.245,1.245H46.438c-0.687,0-1.244-0.557-1.244-1.245
	C45.192,172.914,45.751,172.357,46.438,172.357 M46.438,166.901h12.613c0.688,0,1.245,0.557,1.245,1.246
	c0,0.688-0.557,1.245-1.245,1.245H46.438c-0.687,0-1.244-0.557-1.244-1.245C45.192,167.459,45.751,166.901,46.438,166.901
	 M46.438,161.448h12.613c0.688,0,1.245,0.557,1.245,1.244c0,0.69-0.557,1.245-1.245,1.245H46.438c-0.687,0-1.244-0.555-1.244-1.245
	C45.192,162.005,45.751,161.448,46.438,161.448 M81.079,168.521l-12.916,0.015l-0.029-11.87L81.079,168.521z M84.879,169.431
	c0.048-0.377-0.058-0.769-0.362-1.046l-16.293-14.923c-0.226-0.205-0.507-0.297-0.789-0.303c-0.169-0.085-0.352-0.143-0.552-0.143
	H38.859c-0.688,0-1.245,0.557-1.245,1.244v58.41c0,0.69,0.557,1.246,1.245,1.246h44.84c0.688,0,1.245-0.556,1.245-1.245v-42.909
	C84.944,169.648,84.908,169.539,84.879,169.431"/>
<circle fill="none" stroke="#BCBDC0" stroke-width="2.835" stroke-linecap="round" stroke-linejoin="round" stroke-miterlimit="22.926" cx="60.927" cy="186.271" r="45.125"/>
<path fill-rule="evenodd" clip-rule="evenodd" fill="#BCBDC0" d="M199.567,55.482c-2.048,0-3.715,1.667-3.715,3.715
	c0,2.047,1.667,3.714,3.715,3.714c2.048,0,3.714-1.667,3.714-3.714C203.281,57.149,201.615,55.482,199.567,55.482 M199.567,66.227
	c-3.877,0-7.031-3.154-7.031-7.03c0-3.877,3.154-7.03,7.031-7.03c3.876,0,7.03,3.153,7.03,7.03
	C206.597,63.073,203.444,66.227,199.567,66.227"/>
<path fill-rule="evenodd" clip-rule="evenodd" fill="#BCBDC0" d="M214.476,70.68c-2.048,0-3.713,1.665-3.713,3.714
	c0,2.048,1.665,3.714,3.713,3.714c2.049,0,3.715-1.666,3.715-3.714C218.191,72.345,216.525,70.68,214.476,70.68 M214.476,81.424
	c-3.876,0-7.029-3.154-7.029-7.03c0-3.877,3.153-7.03,7.029-7.03c3.877,0,7.031,3.153,7.031,7.03
	C221.507,78.27,218.353,81.424,214.476,81.424"/>
<path fill-rule="evenodd" clip-rule="evenodd" fill="#BCBDC0" d="M197.286,78.134c-0.425,0-0.849-0.162-1.172-0.486
	c-0.648-0.647-0.648-1.697,0-2.344l18.983-18.983c0.646-0.647,1.696-0.647,2.344,0c0.648,0.648,0.648,1.697,0,2.345l-18.982,18.982
	C198.135,77.972,197.71,78.134,197.286,78.134"/>
<line fill="none" stroke="#BCBDC0" stroke-width="4.961" stroke-linecap="round" stroke-linejoin="round" stroke-miterlimit="22.926" x1="290.187" y1="49.731" x2="231.722" y2="63.72"/>
<line fill="none" stroke="#BCBDC0" stroke-width="4.961" stroke-linecap="round" stroke-linejoin="round" stroke-miterlimit="22.926" x1="242.096" y1="68.924" x2="231.723" y2="63.719"/>
<line fill="none" stroke="#BCBDC0" stroke-width="4.961" stroke-linecap="round" stroke-linejoin="round" stroke-miterlimit="22.926" x1="238.616" y1="54.383" x2="231.722" y2="63.719"/>
<path fill="none" stroke="#BCBDC0" stroke-width="4.961" stroke-linecap="round" stroke-linejoin="round" stroke-miterlimit="22.926" d="
	M124.036,24.005c5.536-5.999,12.553-10.435,20.347-12.862c24.521-7.637,50.59,6.05,58.227,30.571"/>
<line fill="none" stroke="#BCBDC0" stroke-width="4.961" stroke-linecap="round" stroke-linejoin="round" stroke-miterlimit="22.926" x1="135.641" y1="24.109" x2="124.035" y2="24.006"/>
<line fill="none" stroke="#BCBDC0" stroke-width="4.961" stroke-linecap="round" stroke-linejoin="round" stroke-miterlimit="22.926" x1="126.112" y1="12.587" x2="124.035" y2="24.006"/>
<line fill="none" stroke="#BCBDC0" stroke-width="4.961" stroke-linecap="round" stroke-linejoin="round" stroke-miterlimit="22.926" x1="432.751" y1="178.461" x2="420.793" y2="133.832"/>
<line fill="none" stroke="#BCBDC0" stroke-width="4.961" stroke-linecap="round" stroke-linejoin="round" stroke-miterlimit="22.926" x1="415.87" y1="144.342" x2="420.793" y2="133.832"/>
<line fill="none" stroke="#BCBDC0" stroke-width="4.961" stroke-linecap="round" stroke-linejoin="round" stroke-miterlimit="22.926" x1="430.312" y1="140.473" x2="420.793" y2="133.833"/>
<path fill-rule="evenodd" clip-rule="evenodd" fill="#BCBDC0" d="M96.012,268.528c0-6.927-5.224-12.615-11.918-13.428v15.053H69.041
	c0.813,6.694,6.54,11.918,13.428,11.918C89.937,282.071,96.012,275.996,96.012,268.528 M99.263,268.528
	c0,9.248-7.546,16.794-16.794,16.794c-9.249,0-16.794-7.546-16.794-16.794v-1.625h15.168v-15.131h1.626
	C91.717,251.772,99.263,259.28,99.263,268.528 M62.579,263.807c0-8.358,6.772-15.169,15.169-15.169v15.169H62.579z"/>
<path fill-rule="evenodd" clip-rule="evenodd" fill="#BCBDC0" d="M447.195,302.359v13.981h-11.507l0.115,8.573h-32.566v-48.215
	h44.016v23.589v2.072H447.195z M437.586,324.049l-0.057-5.983h7.997L437.586,324.049z M401.454,274.914v51.782h35.557l11.967-9.033
	v-18.699v-2.071v-21.979H401.454z"/>
<rect x="440.809" y="299.884" fill-rule="evenodd" clip-rule="evenodd" fill="#BCBDC0" width="2.646" height="8.228"/>
<rect x="437.184" y="302.992" fill-rule="evenodd" clip-rule="evenodd" fill="#BCBDC0" width="2.647" height="5.178"/>
<rect x="433.502" y="300.747" fill-rule="evenodd" clip-rule="evenodd" fill="#BCBDC0" width="2.647" height="7.365"/>
<rect x="429.82" y="304.027" fill-rule="evenodd" clip-rule="evenodd" fill="#BCBDC0" width="2.646" height="4.143"/>
<path fill-rule="evenodd" clip-rule="evenodd" fill="#BCBDC0" d="M438.45,300.114c-0.23,0-0.403-0.172-0.403-0.402
	c0-0.23,0.173-0.403,0.403-0.403c0.23,0,0.402,0.173,0.402,0.403C438.91,299.884,438.737,300.114,438.45,300.114 M434.825,297.41
	c-0.23,0-0.403-0.172-0.403-0.402c0-0.231,0.173-0.403,0.403-0.403c0.23,0,0.402,0.172,0.402,0.403
	C435.227,297.18,435.055,297.41,434.825,297.41 M431.545,301.035C431.545,301.093,431.545,301.093,431.545,301.035v0.058
	c0,0,0,0.057-0.057,0.057c0,0,0,0.058-0.058,0.058c-0.057,0.115-0.172,0.172-0.345,0.172c-0.23,0-0.403-0.172-0.403-0.403
	c0-0.115,0.058-0.23,0.115-0.287c0.058-0.058,0.058-0.058,0.116-0.115h0.057h0.115c0.23,0,0.403,0.172,0.403,0.402
	C431.545,300.977,431.545,301.035,431.545,301.035 M441.729,295.511C441.729,295.454,441.729,295.454,441.729,295.511v-0.057
	c0,0,0-0.057,0.058-0.057c0,0,0-0.058,0.057-0.058c0.058-0.115,0.173-0.173,0.345-0.173c0.231,0,0.403,0.173,0.403,0.403
	c0,0.115-0.057,0.23-0.115,0.288l-0.057,0.057l-0.058,0.058h-0.057h-0.116c-0.23,0-0.402-0.173-0.402-0.403
	C441.729,295.569,441.729,295.511,441.729,295.511 M442.132,296.835c0.69,0,1.266-0.575,1.266-1.266c0-0.69-0.576-1.266-1.266-1.266
	c-0.69,0-1.266,0.576-1.266,1.266c0,0.23,0.058,0.46,0.173,0.633l-2.014,2.301c-0.173-0.057-0.345-0.115-0.518-0.115
	c-0.287,0-0.518,0.058-0.69,0.231l-1.726-1.324c0-0.115,0.057-0.23,0.057-0.287c0-0.691-0.575-1.266-1.266-1.266
	c-0.69,0-1.265,0.575-1.265,1.266c0,0.172,0.057,0.402,0.115,0.517l-2.014,2.302c-0.173-0.058-0.288-0.115-0.46-0.115
	c-0.691,0-1.266,0.575-1.266,1.265c0,0.691,0.575,1.266,1.266,1.266c0.69,0,1.266-0.575,1.266-1.266c0-0.23-0.058-0.46-0.173-0.632
	l2.014-2.244c0.172,0.057,0.345,0.115,0.575,0.115c0.287,0,0.575-0.115,0.748-0.23l1.668,1.323c-0.057,0.115-0.057,0.23-0.057,0.403
	c0,0.69,0.575,1.265,1.266,1.265c0.69,0,1.265-0.575,1.265-1.265c0-0.23-0.057-0.403-0.172-0.576l2.071-2.301H442.132z"/>
<path fill-rule="evenodd" clip-rule="evenodd" fill="#BCBDC0" d="M412.904,292.002c0.978,0,1.899-0.23,2.762-0.633l-3.453-5.235
	v-6.675c-3.164,0.346-5.58,2.992-5.58,6.272C406.633,289.183,409.452,292.002,412.904,292.002"/>
<path fill-rule="evenodd" clip-rule="evenodd" fill="#BCBDC0" d="M413.422,279.401v5.638h5.753
	C418.888,282.048,416.471,279.689,413.422,279.401"/>
<path fill-rule="evenodd" clip-rule="evenodd" fill="#BCBDC0" d="M413.767,286.306l2.877,4.43c1.381-1.035,2.301-2.589,2.474-4.43
	H413.767z"/>
<path fill-rule="evenodd" clip-rule="evenodd" fill="#BCBDC0" d="M425.159,296.547h-17.491c-0.403,0-0.69,0.288-0.69,0.69
	c0,0.403,0.287,0.691,0.69,0.691h17.491c0.403,0,0.69-0.288,0.69-0.691C425.849,296.892,425.562,296.547,425.159,296.547"/>
<path fill-rule="evenodd" clip-rule="evenodd" fill="#BCBDC0" d="M425.159,304.027h-17.491c-0.403,0-0.69,0.288-0.69,0.691
	c0,0.402,0.287,0.69,0.69,0.69h17.491c0.403,0,0.69-0.288,0.69-0.69C425.849,304.315,425.562,304.027,425.159,304.027"/>
<path fill-rule="evenodd" clip-rule="evenodd" fill="#BCBDC0" d="M442.42,311.506h-34.751c-0.403,0-0.691,0.288-0.691,0.69
	c0,0.403,0.288,0.691,0.691,0.691h34.751c0.403,0,0.691-0.288,0.691-0.691C443.111,311.794,442.823,311.506,442.42,311.506"/>
<path fill-rule="evenodd" clip-rule="evenodd" fill="#BCBDC0" d="M431.258,318.583h-23.59c-0.402,0-0.69,0.288-0.69,0.69
	c0,0.403,0.288,0.691,0.69,0.691h23.59c0.403,0,0.69-0.288,0.69-0.691C431.948,318.928,431.661,318.583,431.258,318.583"/>
<path fill-rule="evenodd" clip-rule="evenodd" fill="#BCBDC0" d="M421.765,290.506h20.713c0.402,0,0.69-0.288,0.69-0.691
	c0-0.402-0.288-0.69-0.69-0.69h-20.713c-0.403,0-0.691,0.288-0.691,0.69C421.074,290.218,421.42,290.506,421.765,290.506"/>
<path fill-rule="evenodd" clip-rule="evenodd" fill="#BCBDC0" d="M421.765,283.026h20.713c0.402,0,0.69-0.287,0.69-0.69
	c0-0.403-0.288-0.691-0.69-0.691h-20.713c-0.403,0-0.691,0.288-0.691,0.691C421.074,282.739,421.42,283.026,421.765,283.026"/>
<path fill="none" stroke="#BCBDC0" stroke-width="4.961" stroke-linecap="round" stroke-linejoin="round" stroke-miterlimit="22.926" d="
	M368.481,368.944c7.885,2.113,16.187,2.113,24.072,0c16.047-4.3,28.582-16.835,32.882-32.882"/>
<line fill="none" stroke="#BCBDC0" stroke-width="4.961" stroke-linecap="round" stroke-linejoin="round" stroke-miterlimit="22.926" x1="378.235" y1="362.656" x2="368.48" y2="368.944"/>
<line fill="none" stroke="#BCBDC0" stroke-width="4.961" stroke-linecap="round" stroke-linejoin="round" stroke-miterlimit="22.926" x1="376.337" y1="377.486" x2="368.48" y2="368.944"/>
<line fill="none" stroke="#BCBDC0" stroke-width="4.961" stroke-linecap="round" stroke-linejoin="round" stroke-miterlimit="22.926" x1="211.273" y1="305.687" x2="189.324" y2="387.603"/>
<line fill="none" stroke="#BCBDC0" stroke-width="4.961" stroke-linecap="round" stroke-linejoin="round" stroke-miterlimit="22.926" x1="204.738" y1="376.851" x2="189.324" y2="387.604"/>
<line fill="none" stroke="#BCBDC0" stroke-width="4.961" stroke-linecap="round" stroke-linejoin="round" stroke-miterlimit="22.926" x1="181.351" y1="370.585" x2="189.324" y2="387.604"/>
<path fill="none" stroke="#BCBDC0" stroke-width="3.596" stroke-linecap="round" stroke-linejoin="round" stroke-miterlimit="22.926" stroke-dasharray="7.19,10.79" d="
	M207.582,350.16c5.615,3.464,10.093,8.494,12.885,14.472c7.904,16.923,0.592,37.049-16.332,44.953
	c-16.923,7.904-37.05,0.592-44.953-16.331c-7.904-16.923-0.592-37.05,16.331-44.954c5.379-2.512,11.324-3.564,17.239-3.05"/>
<line fill="none" stroke="#BCBDC0" stroke-width="4.961" stroke-linecap="round" stroke-linejoin="round" stroke-miterlimit="22.926" x1="357.857" y1="325.668" x2="386.074" y2="304.56"/>
<line fill="none" stroke="#BCBDC0" stroke-width="4.961" stroke-linecap="round" stroke-linejoin="round" stroke-miterlimit="22.926" x1="377.86" y1="304.086" x2="386.074" y2="304.56"/>
<line fill="none" stroke="#BCBDC0" stroke-width="4.961" stroke-linecap="round" stroke-linejoin="round" stroke-miterlimit="22.926" x1="384.209" y1="312.574" x2="386.074" y2="304.561"/>
<path fill-rule="evenodd" clip-rule="evenodd" fill="#BCBDC0" d="M82.825,359.744h14.8l2.23,6.965H80.594L82.825,359.744z
	 M101.27,319.699c-1.368,0.071-2.547,1.38-2.476,2.748c0.071,1.367,1.38,2.547,2.748,2.475h4.135l-12.84,12.841l-6.53-6.529
	c-0.538-0.785-1.531-1.233-2.475-1.116c-0.586,0.078-1.143,0.361-1.551,0.789l-15.67,15.67c-1.065,0.944-1.118,2.806-0.108,3.809
	c1.011,1.003,2.872,0.936,3.808-0.136l13.82-13.82l6.203,6.203c0.355,0.796,1.135,1.389,1.997,1.518
	c0.863,0.129,1.782-0.208,2.355-0.865l14.691-14.691v4.162c-0.019,1.38,1.232,2.649,2.612,2.649s2.631-1.269,2.611-2.649v-10.446
	c0-1.368-1.244-2.612-2.611-2.612H101.27z M59.755,316.217h60.939v38.304H59.755V316.217z M56.273,309.252h67.903v1.741H56.273
	V309.252z M54.532,304.029c-1.884,0-3.482,1.598-3.482,3.482v5.223c0,1.885,1.598,3.483,3.482,3.483v40.045
	c0,2.005,1.749,3.482,3.564,3.482h19.261l-6.148,19.207c-0.56,1.329,0.23,3.054,1.601,3.499c1.372,0.444,3.023-0.489,3.35-1.894
	l2.748-8.624h22.634l2.748,8.624c0.326,1.405,1.978,2.338,3.349,1.894c1.372-0.445,2.161-2.17,1.602-3.499l-6.148-19.207h19.261
	c1.814,0,3.564-1.477,3.564-3.482v-40.045c1.884,0,3.482-1.598,3.482-3.483v-5.223c0-1.884-1.598-3.482-3.482-3.482H54.532z"/>
<path fill="none" stroke="#BCBDC0" stroke-width="4.961" stroke-linecap="round" stroke-linejoin="round" stroke-miterlimit="22.926" d="
	M36.948,295.411c-7.885-2.112-15.074-6.263-20.847-12.036c-18.16-18.16-18.16-47.604,0-65.764"/>
<line fill="none" stroke="#BCBDC0" stroke-width="4.961" stroke-linecap="round" stroke-linejoin="round" stroke-miterlimit="22.926" x1="31.644" y1="285.089" x2="36.948" y2="295.412"/>
<line fill="none" stroke="#BCBDC0" stroke-width="4.961" stroke-linecap="round" stroke-linejoin="round" stroke-miterlimit="22.926" x1="25.873" y1="298.881" x2="36.949" y2="295.412"/>
<path fill-rule="evenodd" clip-rule="evenodd" fill="#BCBDC0" d="M422.809,371.39c-2.048,0-3.715,1.667-3.715,3.714
	c0,2.048,1.667,3.715,3.715,3.715c2.048,0,3.714-1.667,3.714-3.715C426.523,373.057,424.857,371.39,422.809,371.39 M422.809,382.135
	c-3.877,0-7.031-3.154-7.031-7.03c0-3.877,3.154-7.03,7.031-7.03c3.876,0,7.03,3.153,7.03,7.03
	C429.839,378.981,426.686,382.135,422.809,382.135"/>
<path fill-rule="evenodd" clip-rule="evenodd" fill="#BCBDC0" d="M437.719,386.589c-2.048,0-3.713,1.666-3.713,3.714
	c0,2.048,1.665,3.714,3.713,3.714c2.049,0,3.715-1.666,3.715-3.714C441.434,388.255,439.767,386.589,437.719,386.589
	 M437.719,397.333c-3.876,0-7.029-3.153-7.029-7.03c0-3.877,3.153-7.03,7.029-7.03c3.877,0,7.031,3.153,7.031,7.03
	C444.749,394.18,441.595,397.333,437.719,397.333"/>
<path fill-rule="evenodd" clip-rule="evenodd" fill="#BCBDC0" d="M420.528,394.043c-0.425,0-0.849-0.162-1.172-0.486
	c-0.648-0.647-0.648-1.697,0-2.344l18.983-18.983c0.646-0.647,1.696-0.647,2.344,0c0.648,0.648,0.648,1.697,0,2.345l-18.982,18.982
	C421.377,393.881,420.952,394.043,420.528,394.043"/>
<path fill="none" stroke="#BCBDC0" stroke-width="4.961" stroke-linecap="round" stroke-linejoin="round" stroke-miterlimit="22.926" d="
	M287.297,412.822c-2.998,7.592-7.942,14.261-14.335,19.337c-20.114,15.97-49.365,12.612-65.336-7.502"/>
<line fill="none" stroke="#BCBDC0" stroke-width="4.961" stroke-linecap="round" stroke-linejoin="round" stroke-miterlimit="22.926" x1="276.437" y1="416.912" x2="287.298" y2="412.82"/>
<line fill="none" stroke="#BCBDC0" stroke-width="4.961" stroke-linecap="round" stroke-linejoin="round" stroke-miterlimit="22.926" x1="289.481" y1="424.219" x2="287.298" y2="412.82"/>
<path fill-rule="evenodd" clip-rule="evenodd" fill="#BCBDC0" d="M227.953,16.794c0,6.927,5.224,12.615,11.918,13.428V15.169h15.053
	c-0.813-6.694-6.54-11.918-13.428-11.918C234.028,3.251,227.953,9.326,227.953,16.794 M224.702,16.794
	C224.702,7.546,232.248,0,241.496,0c9.249,0,16.794,7.546,16.794,16.794v1.625h-15.169V33.55h-1.625
	C232.248,33.55,224.702,26.042,224.702,16.794 M261.386,21.515c0,8.358-6.772,15.169-15.169,15.169V21.515H261.386z"/>
<line fill="none" stroke="#BCBDC0" stroke-width="4.961" stroke-linecap="round" stroke-linejoin="round" stroke-miterlimit="22.926" x1="176.641" y1="329.984" x2="141.763" y2="324.957"/>
<line fill="none" stroke="#BCBDC0" stroke-width="4.961" stroke-linecap="round" stroke-linejoin="round" stroke-miterlimit="22.926" x1="147.236" y1="331.1" x2="141.763" y2="324.957"/>
<line fill="none" stroke="#BCBDC0" stroke-width="4.961" stroke-linecap="round" stroke-linejoin="round" stroke-miterlimit="22.926" x1="148.748" y1="320.609" x2="141.763" y2="324.957"/>
</svg>
