<?xml version="1.0" encoding="UTF-8" standalone="no"?>
<!-- Created with Inkscape (http://www.inkscape.org/) -->

<svg
   xmlns:dc="http://purl.org/dc/elements/1.1/"
   xmlns:cc="http://creativecommons.org/ns#"
   xmlns:rdf="http://www.w3.org/1999/02/22-rdf-syntax-ns#"
   xmlns:svg="http://www.w3.org/2000/svg"
   xmlns="http://www.w3.org/2000/svg"
   xmlns:sodipodi="http://sodipodi.sourceforge.net/DTD/sodipodi-0.dtd"
   xmlns:inkscape="http://www.inkscape.org/namespaces/inkscape"
   width="45.585403mm"
   height="36.151871mm"
   viewBox="0 0 161.52308 128.09718"
   id="svg4182"
   version="1.1"
   inkscape:version="0.91 r13725"
   sodipodi:docname="cambiar-imagen-icon.svg">
  <defs
     id="defs4184" />
  <sodipodi:namedview
     id="base"
     pagecolor="#ffffff"
     bordercolor="#666666"
     borderopacity="1.0"
     inkscape:pageopacity="0.0"
     inkscape:pageshadow="2"
     inkscape:zoom="0.35"
     inkscape:cx="-105.667"
     inkscape:cy="-350.23713"
     inkscape:document-units="px"
     inkscape:current-layer="layer1"
     showgrid="false"
     fit-margin-top="0"
     fit-margin-left="0"
     fit-margin-right="0"
     fit-margin-bottom="0"
     inkscape:window-width="1366"
     inkscape:window-height="747"
     inkscape:window-x="0"
     inkscape:window-y="21"
     inkscape:window-maximized="1" />
  <metadata
     id="metadata4187">
    <rdf:RDF>
      <cc:Work
         rdf:about="">
        <dc:format>image/svg+xml</dc:format>
        <dc:type
           rdf:resource="http://purl.org/dc/dcmitype/StillImage" />
        <dc:title></dc:title>
      </cc:Work>
    </rdf:RDF>
  </metadata>
  <g
     inkscape:label="Layer 1"
     inkscape:groupmode="layer"
     id="layer1"
     transform="translate(-47.80986,-54.027902)">
    <g
       id="g4289"
       transform="matrix(4.6473252,-0.99265527,0.99265527,4.6473252,38.439529,64.586357)">
      <g
         id="g4245">
        <g
           id="g4247">
          <path
             id="path4249"
             d="M 28,6 24,6 20,2 11.999,2 8,6 4,6 C 4,6 0,6 0,10 l 0,12 c 0,4 4,4 4,4 0,0 5.662,0 11.518,0 1.614,2.411 4.361,3.999 7.482,4 3.875,-0.002 7.167,-2.454 8.436,-5.889 C 31.995,23.076 32,22 32,22 32,22 32,14 32,10 32,6 28,6 28,6 Z M 14.033,21.66 C 11.686,20.848 10,18.626 10,16 c 0,-3.312 2.684,-6 6,-6 1.914,0 3.607,0.908 4.706,2.306 C 16.848,13.321 14,16.822 14,21 c 0,0.223 0.018,0.441 0.033,0.66 z M 23,27.883 C 19.199,27.874 16.124,24.799 16.115,21 16.124,17.199 19.199,14.124 23,14.115 26.799,14.124 29.874,17.199 29.883,21 29.874,24.799 26.799,27.874 23,27.883 Z"
             inkscape:connector-curvature="0"
             style="fill:#ffffff" />
          <polygon
             id="polygon4251"
             points="22,20 18,20 18,22 22,22 22,26 24.002,26 24.002,22 28,22 28,20 24.002,20 24.002,16 22,16 "
             style="fill:#ffffff" />
        </g>
      </g>
      <g
         id="g4253" />
      <g
         id="g4255" />
      <g
         id="g4257" />
      <g
         id="g4259" />
      <g
         id="g4261" />
      <g
         id="g4263" />
      <g
         id="g4265" />
      <g
         id="g4267" />
      <g
         id="g4269" />
      <g
         id="g4271" />
      <g
         id="g4273" />
      <g
         id="g4275" />
      <g
         id="g4277" />
      <g
         id="g4279" />
      <g
         id="g4281" />
    </g>
  </g>
</svg>
