<?xml version="1.0" encoding="iso-8859-1"?>
<!-- Generator: Adobe Illustrator 19.0.0, SVG Export Plug-In . SVG Version: 6.00 Build 0)  -->
<svg version="1.1" id="Capa_1" xmlns="http://www.w3.org/2000/svg" xmlns:xlink="http://www.w3.org/1999/xlink" x="0px" y="0px"
	 viewBox="0 0 512 512" style="enable-background:new 0 0 512 512;" xml:space="preserve">
<path style="fill:#73BCFF;" d="M512,361v105h-60v-90h-30v90H302L60,286v-60h392l30,51C500.6,300.099,512,329.2,512,361z"/>
<path style="fill:#3AAAFF;" d="M512,361v105h-60v-90h-30v90h-60V226h90l30,51C500.6,300.099,512,329.2,512,361z"/>
<path style="fill:#FF9F00;" d="M150,46c-49.501,0-90,40.499-90,90c0,49.499,40.499,90,90,90s90-40.501,90-90
	C240,86.499,199.501,46,150,46z"/>
<path style="fill:#73BCFF;" d="M362,46c-49.501,0-90,40.499-90,90c0,49.499,40.499,90,90,90s90-40.501,90-90
	C452,86.499,411.501,46,362,46z"/>
<path style="fill:#FF9F00;" d="M302,376v90H90v-90H60v90H0v-90c0-82.8,67.2-150,150-150S302,293.2,302,376z"/>
<path style="fill:#73BCFF;" d="M30,346L30,346c-16.569,0-30-13.431-30-30v-60c0-16.569,13.431-30,30-30h30v90
	C60,332.569,46.569,346,30,346z"/>
<g>
	<path style="fill:#FF7816;" d="M302,376v90H150V226C232.8,226,302,293.2,302,376z"/>
	<path style="fill:#FF7816;" d="M240,136c0,49.499-40.499,90-90,90V46C199.501,46,240,86.499,240,136z"/>
</g>
<path style="fill:#3AAAFF;" d="M452,136c0,49.499-40.499,90-90,90V46C411.501,46,452,86.499,452,136z"/>
<path style="fill:#FF7816;" d="M482,346L482,346c-16.569,0-30-13.431-30-30v-90h30c16.569,0,30,13.431,30,30v60
	C512,332.569,498.569,346,482,346z"/>
<g>
</g>
<g>
</g>
<g>
</g>
<g>
</g>
<g>
</g>
<g>
</g>
<g>
</g>
<g>
</g>
<g>
</g>
<g>
</g>
<g>
</g>
<g>
</g>
<g>
</g>
<g>
</g>
<g>
</g>
</svg>
