<?xml version="1.0" encoding="UTF-8" standalone="no"?>
<!-- Generator: Adobe Illustrator 17.0.0, SVG Export Plug-In . SVG Version: 6.00 Build 0)  -->

<svg
   xmlns:dc="http://purl.org/dc/elements/1.1/"
   xmlns:cc="http://creativecommons.org/ns#"
   xmlns:rdf="http://www.w3.org/1999/02/22-rdf-syntax-ns#"
   xmlns:svg="http://www.w3.org/2000/svg"
   xmlns="http://www.w3.org/2000/svg"
   xmlns:sodipodi="http://sodipodi.sourceforge.net/DTD/sodipodi-0.dtd"
   xmlns:inkscape="http://www.inkscape.org/namespaces/inkscape"
   version="1.1"
   id="Layer_1"
   x="0px"
   y="0px"
   width="361.8px"
   height="108.333px"
   viewBox="0 0 361.8 108.333"
   enable-background="new 0 0 361.8 108.333"
   xml:space="preserve"
   inkscape:version="0.91 r13725"
   sodipodi:docname="gabinete-black.svg"><metadata
     id="metadata13"><rdf:RDF><cc:Work
         rdf:about=""><dc:format>image/svg+xml</dc:format><dc:type
           rdf:resource="http://purl.org/dc/dcmitype/StillImage" /><dc:title></dc:title></cc:Work></rdf:RDF></metadata><defs
     id="defs11" /><sodipodi:namedview
     pagecolor="#ffffff"
     bordercolor="#666666"
     borderopacity="1"
     objecttolerance="10"
     gridtolerance="10"
     guidetolerance="10"
     inkscape:pageopacity="0"
     inkscape:pageshadow="2"
     inkscape:window-width="1600"
     inkscape:window-height="879"
     id="namedview9"
     showgrid="false"
     inkscape:zoom="1.8116234"
     inkscape:cx="180.89999"
     inkscape:cy="54.1665"
     inkscape:window-x="0"
     inkscape:window-y="21"
     inkscape:window-maximized="1"
     inkscape:current-layer="Layer_1" /><g
     id="g3"
     style="fill:#000000"><path
       fill-rule="evenodd"
       clip-rule="evenodd"
       fill="#58595B"
       d="M323.494,35.49c0,0-29.132,0-29.201,3.508   c-0.055,2.457-1.947,54.478-1.947,54.478s-0.595,10.654,11.402,9.901c11.244-0.694,10.362-1.863,10.362-4.391   c0-2.537-1.417-29.504-1.417-29.504s8.276,24.737,9.316,26.213c1.04,1.496,2.834,7.314,13.116,7.532   c10.288,0.238,25.193-1.338,25.193-1.338s1.531,0.179,1.482-4.549c-0.05-4.915-0.154-56.263-0.154-56.263s-0.664-4.906-4.762-5.213   c-3.598-0.267-14.905,1.269-14.905,1.269s-1.482,0.377-1.417,1.784c0.075,1.417,1.794,34.36,1.794,34.36s-9.246-27.799-9.841-28.84   C331.918,43.399,329.678,36.838,323.494,35.49L323.494,35.49z M50.471,36.095c6.095,0.387,6.927,7.75,6.927,7.75   s0.743,22.576,0.52,36.738c-0.223,14.152-6.927,24.063-31.149,24.142c-24.212,0.07-26.367-9.821-26.749-15.579   c-0.382-5.837,4.47-9.99,4.47-9.99s0.223-0.218,0.52,0.089c0.902,0.912,3.434,3.152,10.158,3.023   c9.97-0.188,9.891-5.569,10.183-6.68c0.302-1.12,0.842-31.526,0.966-35.549c0.154-4.549,11.338-4.014,11.338-4.014   S48.088,35.946,50.471,36.095L50.471,36.095z M126.401,74.379c-3.702,4.331-9.008,6.68-14.479,7.958   c8.979-7.314,3.409-19.435-1.754-27.552c2.498,0.486,5,1.239,7.557,2.25c4.157,1.615,7.953,4.331,11.03,7.403   C132.536,68.056,129.479,70.94,126.401,74.379L126.401,74.379z M77.978,69.315l0.366-0.535c1.08-6.144,11.194-11.575,17.344-13.379   c0.575-0.159,1.15-0.297,1.72-0.426c-7.83,7.175-9.261,20.783-1.179,28.077C88.355,81.713,81.154,77.501,77.978,69.315   L77.978,69.315z M141.991,69.107c0-1.745,0.981-34.985-36.996-34.985c0,0-40.291-2.547-40.222,36.927   c0,0-3.503,34.162,39.251,33.111C143.557,103.19,141.991,71.119,141.991,69.107L141.991,69.107z M223.189,50.356   c-2.998-9.039-10.501-13.597-20.153-12.716c-8.548,0.872-13.469,4.43-17.75,11.516c-4.281-6.392-9.207-10.346-17.755-11.486   c-9.643-1.11-17.14,5.084-20.143,13.181c-3.642,9.227-1.071,20.059,5.575,29.435c7.498,10.991,18.434,15.371,27.65,22.864   c1.655,1.437,3.9,3.092,4.628,5.183h0.08c0.738-2.081,2.993-3.885,4.643-5.53c9.212-8.821,20.139-16.402,27.65-25.332   C224.259,70.127,226.821,61.039,223.189,50.356L223.189,50.356z M279.382,35.569c0,0-40.242,0.872-45.53,1.794   c-3.434,0.585-3.127,2.23-3.275,4.688c-0.158,2.458-1.942,51.05-1.942,51.05s0.302,10.376,11.853,10.208   c10.728-0.158,46.724-1.338,46.724-1.338s0.739-12.824,0.521-13.934c-0.233-1.12-1.794-4.995-5.659-5.223   c-3.88-0.228-22.136,0-22.136,0l-0.074-6.402l22.651-0.218l0.069-11.11c0,0-0.51-3.429-4.162-3.736   c-3.662-0.288-18.78-0.139-18.78-0.139l-0.08-5.738h26.164l0.733-13.558C286.458,41.912,286.012,36.372,279.382,35.569z"
       id="path5"
       style="fill:#000000" /><path
       fill-rule="evenodd"
       clip-rule="evenodd"
       fill="#58595B"
       d="M114.588,20.139c0.154,0,0.382,0,0.694-0.03   c0.302,0,0.649-0.029,1.041-0.079c0.392-0.03,0.798-0.099,1.224-0.188c0.426-0.089,0.838-0.208,1.219-0.347v-6.868   c-0.149-0.03-0.293-0.04-0.417-0.04c-0.139,0-0.267,0-0.421,0c-0.728-0.01-1.511,0.04-2.358,0.198   c-0.842,0.149-1.675,0.396-2.483,0.763c-0.243,0.109-0.421,0.169-0.535,0.179c-0.119,0.01-0.232-0.089-0.341-0.267l-0.664-1.635   c-0.089-0.179-0.119-0.317-0.079-0.436c0.02-0.129,0.129-0.238,0.302-0.337c0.698-0.456,1.57-0.803,2.581-1.071   c1.011-0.258,2.002-0.377,2.974-0.377c0.555,0,0.996,0.01,1.343,0.03c0.342,0.02,0.674,0.059,0.996,0.089   c0.922,0.179,1.541,0.466,1.868,0.872c0.317,0.406,0.475,1.071,0.475,1.992v7.958c0,0.416-0.158,0.723-0.475,0.931   c-0.585,0.367-1.224,0.655-1.918,0.872c-0.694,0.208-1.378,0.387-2.047,0.496c-0.679,0.119-1.308,0.198-1.878,0.238   c-0.579,0.049-1.055,0.069-1.417,0.069c-1.526,0-2.879-0.228-4.078-0.683c-1.199-0.436-2.215-1.13-3.053-2.062   c-0.832-0.932-1.466-2.111-1.903-3.528c-0.446-1.427-0.659-3.122-0.659-5.054c0-1.804,0.218-3.429,0.684-4.886   c0.461-1.457,1.11-2.695,1.958-3.727c0.847-1.031,1.878-1.814,3.117-2.378C111.575,0.288,112.953,0,114.494,0   c0.897,0,1.888,0.08,2.973,0.248c1.075,0.158,2.161,0.515,3.251,1.07c0.134,0.059,0.228,0.158,0.278,0.278   c0.05,0.119,0.015,0.297-0.114,0.525l-0.803,1.833c-0.079,0.139-0.158,0.248-0.243,0.297c-0.069,0.059-0.208,0.04-0.401-0.049   c-0.659-0.268-1.432-0.496-2.309-0.674c-0.882-0.158-1.734-0.257-2.567-0.257c-1.214,0-2.25,0.257-3.092,0.743   c-0.847,0.496-1.536,1.14-2.042,1.953c-0.52,0.793-0.882,1.715-1.115,2.736c-0.223,1.02-0.332,2.081-0.332,3.181   c0,1.13,0.089,2.2,0.267,3.182c0.188,1.001,0.521,1.873,1.021,2.626c0.486,0.743,1.165,1.348,2.017,1.784   C112.135,19.92,113.245,20.139,114.588,20.139L114.588,20.139z M141.684,22.794c-0.233,0-0.421-0.02-0.545-0.059   c-0.129-0.05-0.237-0.198-0.317-0.456l-1.516-4.549h-8.692l-1.511,4.549c-0.064,0.178-0.154,0.297-0.263,0.386   c-0.109,0.089-0.272,0.129-0.505,0.129h-2.478c-0.228,0-0.376-0.059-0.446-0.208c-0.069-0.149-0.069-0.287,0-0.466l7.126-20.446   c0.203-0.565,0.412-0.921,0.644-1.11c0.228-0.189,0.629-0.278,1.184-0.307h1.065c0.634,0,1.08,0.109,1.313,0.307   c0.233,0.198,0.436,0.574,0.609,1.11l7.156,20.446c0.064,0.179,0.064,0.317,0,0.466c-0.064,0.149-0.203,0.208-0.416,0.208H141.684   L141.684,22.794z M136.381,8.602l-1.437-4.549h-0.158l-1.348,4.39l-1.958,6.363h6.868L136.381,8.602L136.381,8.602z    M161.777,15.837c0-1.169-0.362-2.101-1.085-2.815c-0.729-0.723-1.794-1.08-3.216-1.08h-5.744v7.8h5.719   c0.857,0,1.556-0.129,2.111-0.377c0.56-0.257,1.006-0.585,1.333-0.971c0.332-0.386,0.565-0.803,0.699-1.269   C161.718,16.66,161.777,16.233,161.777,15.837L161.777,15.837z M151.733,9.148h5.684c0.317,0,0.674-0.04,1.076-0.129   c0.391-0.08,0.768-0.238,1.11-0.456c0.347-0.218,0.62-0.545,0.852-0.961c0.223-0.397,0.327-0.922,0.327-1.566   c0-0.852-0.278-1.526-0.842-2.022c-0.57-0.486-1.338-0.743-2.299-0.743h-5.907V9.148L151.733,9.148z M161.683,10.436   c1.224,0.475,2.121,1.229,2.681,2.279c0.575,1.041,0.857,2.161,0.857,3.34c0,1.001-0.198,1.923-0.58,2.745   c-0.387,0.823-0.922,1.536-1.586,2.131c-0.679,0.595-1.462,1.061-2.364,1.378c-0.897,0.317-1.859,0.486-2.894,0.486h-7.671   c-0.619,0-1.07-0.139-1.338-0.406c-0.258-0.267-0.397-0.703-0.397-1.328V2.022c0-0.614,0.139-1.061,0.397-1.328   c0.267-0.267,0.719-0.396,1.338-0.396l7.165-0.04c1.006,0,1.933,0.109,2.785,0.307c0.852,0.198,1.595,0.535,2.22,0.971   c0.615,0.456,1.105,1.031,1.437,1.724c0.347,0.694,0.52,1.536,0.52,2.517c0,0.991-0.243,1.873-0.733,2.646   c-0.496,0.783-1.11,1.387-1.838,1.784V10.436L161.683,10.436z M170.677,0.991c0-0.297,0.064-0.475,0.188-0.555   c0.139-0.07,0.313-0.109,0.56-0.109h1.848c0.283,0,0.471,0.04,0.58,0.109c0.099,0.079,0.159,0.257,0.159,0.555v21.13   c0,0.297-0.06,0.486-0.159,0.565c-0.109,0.08-0.297,0.109-0.58,0.109h-1.848c-0.248,0-0.421-0.029-0.56-0.109   c-0.124-0.079-0.188-0.267-0.188-0.565V0.991L170.677,0.991z M194.497,0.962c0-0.288,0.064-0.476,0.188-0.555   c0.139-0.079,0.312-0.109,0.55-0.109H197c0.283,0,0.476,0.03,0.58,0.109c0.104,0.079,0.163,0.267,0.163,0.555v20.069   c0,0.594-0.129,1.04-0.376,1.338c-0.238,0.288-0.694,0.426-1.368,0.426h-0.962c-0.511,0-0.887-0.109-1.12-0.327   c-0.233-0.209-0.505-0.555-0.793-1.051l-7.066-11.783l-2.641-4.549h-0.094v17.036c0,0.297-0.054,0.486-0.158,0.565   c-0.099,0.08-0.293,0.109-0.575,0.109h-1.774c-0.233,0-0.412-0.029-0.54-0.109c-0.124-0.079-0.198-0.267-0.198-0.565V2.062   c0-0.605,0.124-1.041,0.371-1.338c0.253-0.287,0.709-0.426,1.363-0.426h0.966c0.52,0,0.887,0.109,1.12,0.317   c0.238,0.218,0.505,0.565,0.803,1.061l6.977,11.645l2.725,4.688h0.094V0.962L194.497,0.962z M218.679,22.051   c0,0.248-0.055,0.417-0.124,0.555c-0.064,0.129-0.253,0.188-0.56,0.188h-8.919c-1.095,0-1.997-0.149-2.711-0.466   c-0.723-0.317-1.298-0.713-1.724-1.239c-0.426-0.505-0.729-1.11-0.897-1.804c-0.174-0.674-0.258-1.397-0.258-2.141V5.976   c0-0.754,0.099-1.467,0.302-2.151c0.203-0.694,0.535-1.298,0.986-1.814c0.451-0.525,1.015-0.941,1.734-1.258   c0.698-0.307,1.551-0.456,2.567-0.456h8.801c0.287,0,0.475,0.059,0.555,0.188c0.074,0.129,0.109,0.307,0.109,0.545v1.536   c0,0.278-0.034,0.466-0.109,0.565c-0.08,0.089-0.268,0.139-0.555,0.139h-8.801c-0.817,0-1.403,0.178-1.749,0.525   c-0.357,0.357-0.535,0.921-0.535,1.695v3.954h10.02c0.277,0,0.456,0.049,0.53,0.158c0.064,0.109,0.114,0.297,0.114,0.575v1.348   c0,0.238-0.05,0.416-0.114,0.545c-0.074,0.129-0.253,0.188-0.53,0.188h-10.02v5.332c0,0.644,0.179,1.159,0.535,1.576   c0.347,0.406,0.932,0.604,1.749,0.604h8.919c0.308,0,0.496,0.07,0.56,0.159c0.069,0.119,0.124,0.307,0.124,0.585V22.051   L218.679,22.051z M228.02,3.241h-6.14c-0.233,0-0.377-0.03-0.436-0.119c-0.05-0.099-0.084-0.228-0.084-0.417V0.902   c0-0.188,0.035-0.337,0.084-0.436c0.059-0.089,0.203-0.139,0.436-0.139h15.827c0.238,0,0.387,0.049,0.436,0.139   c0.055,0.099,0.08,0.248,0.08,0.436v1.803c0,0.188-0.025,0.317-0.08,0.417c-0.049,0.089-0.198,0.119-0.436,0.119h-6.288v18.88   c0,0.297-0.054,0.486-0.158,0.565c-0.109,0.08-0.307,0.109-0.58,0.109h-1.937c-0.223,0-0.406-0.029-0.545-0.109   c-0.119-0.079-0.179-0.267-0.179-0.565V3.241L228.02,3.241z M257.227,22.051c0,0.248-0.04,0.417-0.109,0.555   c-0.079,0.129-0.268,0.188-0.56,0.188h-8.929c-1.09,0-1.992-0.149-2.711-0.466c-0.713-0.317-1.293-0.713-1.72-1.239   c-0.426-0.505-0.724-1.11-0.897-1.804c-0.174-0.674-0.253-1.397-0.253-2.141V5.976c0-0.754,0.099-1.467,0.302-2.151   c0.203-0.694,0.521-1.298,0.976-1.814c0.451-0.525,1.026-0.941,1.734-1.258c0.709-0.307,1.561-0.456,2.567-0.456h8.796   c0.302,0,0.49,0.059,0.565,0.188c0.079,0.129,0.114,0.307,0.114,0.545v1.536c0,0.278-0.035,0.466-0.114,0.565   c-0.075,0.089-0.263,0.139-0.565,0.139h-8.796c-0.818,0-1.392,0.178-1.75,0.525c-0.347,0.357-0.525,0.921-0.525,1.695v3.954h10.005   c0.292,0,0.456,0.049,0.545,0.158c0.064,0.109,0.099,0.297,0.099,0.575v1.348c0,0.238-0.035,0.416-0.099,0.545   c-0.089,0.129-0.253,0.188-0.545,0.188h-10.005v5.332c0,0.644,0.179,1.159,0.525,1.576c0.357,0.406,0.932,0.604,1.75,0.604h8.929   c0.292,0,0.481,0.07,0.56,0.159c0.07,0.119,0.109,0.307,0.109,0.585V22.051z"
       id="path7"
       style="fill:#000000" /></g></svg>