<?xml version="1.0" encoding="UTF-8" standalone="no"?>
<!-- Generator: Adobe Illustrator 19.0.0, SVG Export Plug-In . SVG Version: 6.00 Build 0)  -->

<svg
   xmlns:dc="http://purl.org/dc/elements/1.1/"
   xmlns:cc="http://creativecommons.org/ns#"
   xmlns:rdf="http://www.w3.org/1999/02/22-rdf-syntax-ns#"
   xmlns:svg="http://www.w3.org/2000/svg"
   xmlns="http://www.w3.org/2000/svg"
   xmlns:sodipodi="http://sodipodi.sourceforge.net/DTD/sodipodi-0.dtd"
   xmlns:inkscape="http://www.inkscape.org/namespaces/inkscape"
   version="1.1"
   id="Capa_1"
   x="0px"
   y="0px"
   viewBox="0 0 480 480"
   style="enable-background:new 0 0 480 480;"
   xml:space="preserve"
   inkscape:version="0.91 r13725"
   sodipodi:docname="heart.svg"><metadata
     id="metadata61"><rdf:RDF><cc:Work
         rdf:about=""><dc:format>image/svg+xml</dc:format><dc:type
           rdf:resource="http://purl.org/dc/dcmitype/StillImage" /><dc:title></dc:title></cc:Work></rdf:RDF></metadata><defs
     id="defs59" /><sodipodi:namedview
     pagecolor="#ffffff"
     bordercolor="#666666"
     borderopacity="1"
     objecttolerance="10"
     gridtolerance="10"
     guidetolerance="10"
     inkscape:pageopacity="0"
     inkscape:pageshadow="2"
     inkscape:window-width="1600"
     inkscape:window-height="879"
     id="namedview57"
     showgrid="false"
     inkscape:zoom="0.98333333"
     inkscape:cx="538.53495"
     inkscape:cy="273.87223"
     inkscape:window-x="0"
     inkscape:window-y="21"
     inkscape:window-maximized="1"
     inkscape:current-layer="Capa_1" /><g
     id="g3"
     style="fill:#ffffff"><g
       id="g5"
       style="fill:#ffffff"><path
         d="M479.352,204.832l-48-112c-1.261-2.941-4.152-4.848-7.352-4.848h-80c-4.418-0.001-8.001,3.58-8.002,7.998    c0,0.538,0.054,1.075,0.162,1.602l8,40c0.76,3.725,4.038,6.401,7.84,6.4h32.696l3.76,41.368    c-8.236-6.092-18.212-9.376-28.456-9.368c-9.546,0.049-18.807,3.259-26.336,9.128c-25.574-15.744-58.615-11.854-79.832,9.4    L240,208.344l-13.832-13.832c-21.217-21.254-54.258-25.144-79.832-9.4c-7.529-5.869-16.79-9.079-26.336-9.128    c-10.251-0.01-20.233,3.278-28.472,9.376l3.752-41.376H128c3.802,0.001,7.08-2.675,7.84-6.4l8-40    c0.884-4.329-1.909-8.555-6.238-9.438c-0.527-0.108-1.064-0.162-1.602-0.162H56c-3.2,0-6.091,1.907-7.352,4.848l-48,112    c-0.43,0.995-0.651,2.068-0.648,3.152v56c0,2.904,1.574,5.581,4.112,6.992l72,40c1.189,0.661,2.527,1.008,3.888,1.008h79.072    l75.2,77.6c3.075,3.172,8.14,3.251,11.312,0.176c0.059-0.058,0.118-0.116,0.176-0.176l75.2-77.6H400    c1.361,0,2.699-0.347,3.888-1.008l72-40c2.538-1.411,4.112-4.088,4.112-6.992v-56C480.003,206.9,479.783,205.827,479.352,204.832z     M82.072,295.984L82.072,295.984L16,259.272v-49.648l45.272-105.64h64.968l-4.8,24H96c0-4.418-3.582-8-8-8c-4.418,0-8,3.582-8,8    v7.64l-7.272,80c-0.487,2.76-0.73,5.557-0.728,8.36c-0.004,4.281,3.363,7.807,7.64,8c4.304,0.262,8.023-2.974,8.36-7.272    l0.616-6.848c2.95-15.008,16.089-25.843,31.384-25.88c4.688,0.024,9.291,1.253,13.368,3.568c-1.168,1.224-2.344,2.4-3.424,3.76    c-11.153,13.62-16.285,31.19-14.216,48.672h-9.84c-5.864,0.022-11.466-2.433-15.424-6.76c-2.2-2.613-5.879-3.427-8.976-1.984    l-1.272,0.64c-3.63,1.849-5.074,6.29-3.225,9.92c0.289,0.567,0.649,1.094,1.073,1.568c7.003,8.046,17.157,12.651,27.824,12.616    h13.832c3.128,8.086,7.848,15.461,13.88,21.688l9.968,10.312H82.072z M240,372.488l-94.936-97.96    c-18.82-19.422-18.332-50.423,1.089-69.243c8.531-8.266,19.775-13.15,31.639-13.741c0.8,0,1.6-0.056,2.4-0.056    c12.989,0.007,25.445,5.162,34.64,14.336l19.488,19.488c3.124,3.123,8.188,3.123,11.312,0l19.488-19.488    c19.079-19.167,50.084-19.238,69.251-0.159c19.016,18.929,19.258,49.637,0.541,68.863L240,372.488z M464,259.272l-66.072,36.712    h-61.496l9.968-10.312c6.032-6.227,10.752-13.602,13.88-21.688h13.832c10.667,0.035,20.821-4.57,27.824-12.616    c2.715-3.037,2.453-7.7-0.584-10.415c-0.474-0.424-1.001-0.784-1.568-1.073l-1.272-0.64c-3.097-1.443-6.776-0.629-8.976,1.984    c-3.958,4.327-9.56,6.782-15.424,6.76h-9.84c2.067-17.479-3.065-35.046-14.216-48.664c-1.08-1.32-2.256-2.544-3.424-3.76    c4.074-2.322,8.679-3.553,13.368-3.576c15.298,0.02,28.449,10.847,31.408,25.856l0.624,6.872c0.32,4.294,4.03,7.533,8.328,7.272    c4.277-0.193,7.644-3.719,7.64-8c0.002-2.808-0.242-5.611-0.728-8.376L400,135.984v-8c0-4.418-3.582-8-8-8c-4.418,0-8,3.582-8,8    h-25.44l-4.8-24h64.968L464,209.624V259.272z"
         id="path7"
         style="fill:#ffffff" /></g></g><g
     id="g9"
     style="fill:#ffffff"><g
       id="g11"
       style="fill:#ffffff"><path
         d="M269.46,290.328c-3.1-2.995-8.016-2.995-11.116,0c-10.266,9.799-26.422,9.799-36.688,0    c-3.178-3.07-8.242-2.982-11.312,0.196c-2.994,3.1-2.994,8.015,0,11.116c16.369,16.379,42.917,16.386,59.295,0.017    c0.006-0.006,0.011-0.011,0.017-0.017C272.726,298.462,272.638,293.398,269.46,290.328z"
         id="path13"
         style="fill:#ffffff" /></g></g><g
     id="g15"
     style="fill:#ffffff"><g
       id="g17"
       style="fill:#ffffff"><path
         d="m 188,239.984 c -6.627,0 -12,5.373 -12,12 0,6.627 5.373,12 12,12 6.627,0 12,-5.373 12,-12 0,-6.627 -5.373,-12 -12,-12 z"
         id="path19"
         inkscape:connector-curvature="0"
         sodipodi:nodetypes="sssss"
         style="fill:#ffffff" /></g></g><g
     id="g21"
     style="fill:#ffffff"><g
       id="g23"
       style="fill:#ffffff"><path
         d="m 292,239.984 c -6.627,0 -12,5.373 -12,12 0,6.627 5.373,12 12,12 6.627,0 12,-5.373 12,-12 0,-6.627 -5.373,-12 -12,-12 z"
         id="path25"
         inkscape:connector-curvature="0"
         sodipodi:nodetypes="sssss"
         style="fill:#ffffff" /></g></g><g
     id="g27" /><g
     id="g29" /><g
     id="g31" /><g
     id="g33" /><g
     id="g35" /><g
     id="g37" /><g
     id="g39" /><g
     id="g41" /><g
     id="g43" /><g
     id="g45" /><g
     id="g47" /><g
     id="g49" /><g
     id="g51" /><g
     id="g53" /><g
     id="g55" /></svg>