<?xml version="1.0" encoding="UTF-8" standalone="no"?>
<!-- Generator: Adobe Illustrator 21.0.2, SVG Export Plug-In . SVG Version: 6.00 Build 0)  -->

<svg
   xmlns:dc="http://purl.org/dc/elements/1.1/"
   xmlns:cc="http://creativecommons.org/ns#"
   xmlns:rdf="http://www.w3.org/1999/02/22-rdf-syntax-ns#"
   xmlns:svg="http://www.w3.org/2000/svg"
   xmlns="http://www.w3.org/2000/svg"
   xmlns:xlink="http://www.w3.org/1999/xlink"
   xmlns:sodipodi="http://sodipodi.sourceforge.net/DTD/sodipodi-0.dtd"
   xmlns:inkscape="http://www.inkscape.org/namespaces/inkscape"
   version="1.1"
   id="svg15457"
   inkscape:version="0.91 r13725"
   sodipodi:docname="historia-small.svg"
   x="0px"
   y="0px"
   viewBox="0 0 176 129.1"
   xml:space="preserve"
   width="176"
   height="129.10001"><metadata
     id="metadata242"><rdf:RDF><cc:Work
         rdf:about=""><dc:format>image/svg+xml</dc:format><dc:type
           rdf:resource="http://purl.org/dc/dcmitype/StillImage" /><dc:title></dc:title></cc:Work></rdf:RDF></metadata><defs
     id="defs240"><defs
       id="defs8"><rect
         height="156.10001"
         width="423"
         x="0"
         id="SVGID_1_"
         y="0" /></defs><clipPath
       id="SVGID_2_"><use
         id="use12"
         style="overflow:visible"
         xlink:href="#SVGID_1_"
         x="0"
         y="0"
         width="100%"
         height="100%" /></clipPath></defs><style
     type="text/css"
     id="style3">
	.st0{clip-path:url(#SVGID_2_);}
	.st1{fill:#FED9A8;}
	.st2{fill:#F4C28C;}
	.st3{fill:#454545;}
	.st4{fill:#04CACE;}
	.st5{fill:none;stroke:#FFFFFF;stroke-width:1.4003;stroke-miterlimit:10;}
	.st6{fill:#FFFFFF;}
	.st7{opacity:0.14;fill:#2B2B2B;}
	.st8{fill:#6955A0;stroke:#6955A0;stroke-width:2.0596;stroke-miterlimit:10;}
	.st9{fill:none;stroke:#FFFFFF;stroke-width:1.7937;stroke-miterlimit:10;}
	.st10{fill:#FF6CBD;}
	.st11{fill:none;stroke:#FFFFFF;stroke-width:1.263;stroke-miterlimit:10;}
</style><sodipodi:namedview
     bordercolor="#666666"
     borderopacity="1.0"
     fit-margin-bottom="0"
     fit-margin-left="0"
     fit-margin-right="0"
     fit-margin-top="0"
     id="base"
     inkscape:current-layer="svg15457"
     inkscape:cx="296.20669"
     inkscape:cy="20.235933"
     inkscape:document-units="px"
     inkscape:pageopacity="0.0"
     inkscape:pageshadow="2"
     inkscape:window-height="747"
     inkscape:window-maximized="1"
     inkscape:window-width="1366"
     inkscape:window-x="1366"
     inkscape:window-y="337"
     inkscape:zoom="1.4"
     pagecolor="#ffffff"
     showgrid="false" /><g
     id="g16"
     transform="translate(-20,-26.999745)"><polygon
       class="st1"
       points="93.3,109.2 102.6,88.6 54.5,88.6 63.8,109.2 58.9,188.7 98.2,188.7 "
       id="polygon18"
       style="fill:#fed9a8" /><polygon
       class="st2"
       points="102.6,88.6 100.4,66.5 83.7,107.1 86.4,188.7 98.2,188.7 93.3,109.2 "
       id="polygon20"
       style="fill:#f4c28c" /><path
       class="st3"
       d="M 112.6,102.2 36.9,88.1 C 33.6,87.5 31.4,84.3 32,81 l 6.9,-36.8 c 0.6,-3.3 3.8,-5.5 7.1,-4.9 l 75.7,14.1 c 3.3,0.6 5.5,3.8 4.9,7.1 l -6.9,36.8 c -0.5,3.3 -3.7,5.5 -7.1,4.9 z"
       id="path22"
       inkscape:connector-curvature="0"
       style="fill:#454545" /><path
       class="st4"
       d="M 104.4,95.3 40.7,83.4 C 39.1,83.1 38,81.6 38.3,80 l 6.1,-32.5 c 0.3,-1.6 1.8,-2.7 3.4,-2.4 L 111.6,57 c 1.6,0.3 2.7,1.8 2.4,3.4 L 107.9,93 c -0.3,1.6 -1.9,2.6 -3.5,2.3 z"
       id="path24"
       inkscape:connector-curvature="0"
       style="fill:#04cace" /><g
       id="g26"><circle
         transform="matrix(0.1968,-0.9805,0.9805,0.1968,-7.3978,133.9899)"
         class="st5"
         cx="78.099998"
         cy="71.5"
         id="ellipse28"
         r="10"
         style="fill:none;stroke:#ffffff;stroke-width:1.40030003;stroke-miterlimit:10" /><path
         class="st6"
         d="M 83.2,71.3 79.6,70.6 80.3,67 c 0.1,-0.7 -0.3,-1.3 -1,-1.5 l 0,0 c -0.7,-0.1 -1.3,0.3 -1.5,1 L 77.1,70 73.5,69.3 c -0.7,-0.1 -1.3,0.3 -1.5,1 l 0,0 c -0.1,0.7 0.3,1.3 1,1.5 l 3.6,0.7 -0.7,3.6 c -0.1,0.7 0.3,1.3 1,1.5 l 0,0 c 0.7,0.1 1.3,-0.3 1.5,-1 l 0.7,-3.6 3.6,0.7 c 0.7,0.1 1.3,-0.3 1.5,-1 l 0,0 c 0.1,-0.6 -0.4,-1.3 -1,-1.4 z"
         id="path30"
         inkscape:connector-curvature="0"
         style="fill:#ffffff" /></g><path
       class="st7"
       d="m 121.7,53.4 -39.4,-6.6 22.2,53.9 8.1,1.5 c 3.3,0.6 6.5,-1.6 7.1,-4.9 l 6.9,-36.8 c 0.7,-3.3 -1.5,-6.5 -4.9,-7.1 z"
       id="path32"
       inkscape:connector-curvature="0"
       style="opacity:0.13999999;fill:#2b2b2b" /><g
       id="g34"><path
         class="st1"
         d="m 62.8,52.4 -0.4,0 C 59.9,52.2 58,49.9 58.2,47.3 l 0.5,-5.4 c 0.2,-2.5 2.5,-4.4 5.1,-4.2 l 0.4,0 c 2.5,0.2 4.4,2.5 4.2,5.1 l -0.5,5.4 c -0.3,2.6 -2.5,4.4 -5.1,4.2 z"
         id="path36"
         inkscape:connector-curvature="0"
         style="fill:#fed9a8" /><path
         class="st2"
         d="m 68.4,42.6 c 0.2,-1.6 -0.7,-3.1 -2,-4.1 -1.5,0.6 -2.6,2 -2.8,3.6 L 63.1,48 c -0.2,1.6 0.7,3.1 2,4.1 1.5,-0.6 2.6,-2 2.8,-3.6 l 0.5,-5.9 z"
         id="path38"
         inkscape:connector-curvature="0"
         style="fill:#f4c28c" /></g><g
       id="g40"><path
         class="st1"
         d="m 73.3,55.3 -0.5,0 c -3.1,-0.3 -5.3,-3 -5,-6.1 l 0.6,-6.5 c 0.3,-3.1 3,-5.3 6.1,-5 l 0.5,0 c 3.1,0.3 5.3,3 5,6.1 l -0.6,6.5 c -0.2,3.1 -3,5.3 -6.1,5 z"
         id="path42"
         inkscape:connector-curvature="0"
         style="fill:#fed9a8" /><path
         class="st2"
         d="m 80.1,43.5 c 0.2,-2 -0.8,-3.8 -2.5,-4.9 -1.8,0.8 -3.2,2.4 -3.4,4.3 l -0.7,7 c -0.2,2 0.8,3.8 2.5,4.9 1.8,-0.8 3.2,-2.4 3.4,-4.3 l 0.7,-7 z"
         id="path44"
         inkscape:connector-curvature="0"
         style="fill:#f4c28c" /></g><g
       id="g46"><path
         class="st1"
         d="m 84.1,56.1 -0.4,0 c -2.6,-0.3 -4.6,-2.6 -4.3,-5.2 l 0.5,-5.6 c 0.3,-2.6 2.6,-4.6 5.2,-4.3 l 0.4,0 c 2.6,0.3 4.6,2.6 4.3,5.2 l -0.5,5.6 c -0.3,2.6 -2.6,4.5 -5.2,4.3 z"
         id="path48"
         inkscape:connector-curvature="0"
         style="fill:#fed9a8" /><path
         class="st2"
         d="m 89.9,46 c 0.2,-1.7 -0.7,-3.3 -2.1,-4.2 -1.6,0.6 -2.7,2 -2.9,3.7 l -0.6,6 c -0.2,1.7 0.7,3.3 2.1,4.2 1.6,-0.6 2.7,-2 2.9,-3.7 l 0.6,-6 z"
         id="path50"
         inkscape:connector-curvature="0"
         style="fill:#f4c28c" /></g><g
       id="g52"><path
         class="st1"
         d="m 93.6,57.5 -0.4,0 C 90.6,57.3 88.8,55 89,52.4 L 89.5,47 c 0.2,-2.6 2.5,-4.4 5.1,-4.2 l 0.4,0 c 2.6,0.2 4.4,2.5 4.2,5.1 l -0.5,5.4 c -0.3,2.6 -2.6,4.5 -5.1,4.2 z"
         id="path54"
         inkscape:connector-curvature="0"
         style="fill:#fed9a8" /><path
         class="st2"
         d="m 99.2,47.7 c 0.2,-1.6 -0.7,-3.2 -2,-4.1 -1.5,0.6 -2.6,2 -2.8,3.6 L 93.8,53 c -0.2,1.6 0.7,3.2 2,4.1 1.5,-0.6 2.6,-2 2.8,-3.6 l 0.6,-5.8 z"
         id="path56"
         inkscape:connector-curvature="0"
         style="fill:#f4c28c" /></g><path
       d="m 115.4,85.2 0,0 c -1.1,-0.2 -1.9,-1.3 -1.6,-2.4 l 1.7,-9.2 c 0.2,-1.1 1.3,-1.9 2.4,-1.6 l 0,0 c 1.1,0.2 1.9,1.3 1.6,2.4 l -1.7,9.2 c -0.2,1.1 -1.3,1.8 -2.4,1.6 z"
       id="path58"
       inkscape:connector-curvature="0" /><path
       d="m 37.3,68.9 0,0 C 36.9,68.8 36.6,68.4 36.7,68 l 2.2,-11.7 c 0.1,-0.4 0.5,-0.7 0.9,-0.6 l 0,0 c 0.4,0.1 0.7,0.5 0.6,0.9 l -2.2,11.7 c 0,0.4 -0.4,0.7 -0.9,0.6 z"
       id="path60"
       inkscape:connector-curvature="0" /><g
       id="g62"><path
         class="st1"
         d="m 69.5,73.2 1.3,1.4 c 2,2.1 1.9,5.4 -0.2,7.4 l -3.7,3.4 c -1.8,1.7 -2.6,3.5 -0.9,5.3 l 0.7,1 c 15.9,-1 15,17.6 15,17.6 L 68.4,112 c -1.7,-0.6 -3.3,-1.6 -4.6,-2.9 L 51.5,93.9 c -3.1,-3.3 -3,-8.4 0.2,-11.4 l 10.4,-9.7 c 2.1,-1.9 5.4,-1.7 7.4,0.4 z"
         id="path64"
         inkscape:connector-curvature="0"
         style="fill:#fed9a8" /></g><g
       id="g66"><circle
         cx="41.099998"
         cy="49.700001"
         r="1.7"
         id="circle68" /><circle
         class="st6"
         cx="40.700001"
         cy="49.200001"
         r="0.5"
         id="circle70"
         style="fill:#ffffff" /></g></g><g
     id="g184"
     transform="translate(-20,-26.999745)"><polygon
       class="st1"
       points="151.8,140.7 160.2,122.1 116.8,122.1 125.2,140.7 120.8,212.4 156.2,212.4 "
       id="polygon186"
       style="fill:#fed9a8" /><polygon
       class="st2"
       points="160.2,122.1 158.2,102.2 143.1,138.8 145.6,212.4 156.2,212.4 151.8,140.7 "
       id="polygon188"
       style="fill:#f4c28c" /><path
       class="st3"
       d="m 169.2,134.4 -68.3,-12.7 c -3,-0.6 -5,-3.4 -4.4,-6.4 l 6.2,-33.1 c 0.6,-3 3.4,-5 6.4,-4.4 l 68.3,12.7 c 3,0.6 5,3.4 4.4,6.4 l -6.2,33.1 c -0.5,3 -3.4,4.9 -6.4,4.4 z"
       id="path190"
       inkscape:connector-curvature="0"
       style="fill:#454545" /><path
       class="st10"
       d="m 161.8,128.2 -57.5,-10.7 c -1.4,-0.3 -2.4,-1.7 -2.1,-3.1 l 5.5,-29.3 c 0.3,-1.4 1.7,-2.4 3.1,-2.1 l 57.5,10.7 c 1.4,0.3 2.4,1.7 2.1,3.1 l -5.5,29.3 c -0.2,1.4 -1.6,2.4 -3.1,2.1 z"
       id="path192"
       inkscape:connector-curvature="0"
       style="fill:#ff6cbd" /><g
       id="g194"><circle
         transform="matrix(0.1968,-0.9805,0.9805,0.1968,6.2654,221.0769)"
         class="st11"
         cx="138.10001"
         cy="106.7"
         id="ellipse196"
         r="9"
         style="fill:none;stroke:#ffffff;stroke-width:1.26300001;stroke-miterlimit:10" /><path
         class="st6"
         d="m 142.7,106.5 -3.3,-0.7 0.7,-3.3 c 0.1,-0.6 -0.3,-1.2 -0.9,-1.3 l 0,0 c -0.6,-0.1 -1.2,0.3 -1.3,0.9 l -0.7,3.3 -3.3,-0.7 c -0.6,-0.1 -1.2,0.3 -1.3,0.9 l 0,0 c -0.1,0.6 0.3,1.2 0.9,1.3 l 3.3,0.7 -0.7,3.3 c -0.1,0.6 0.3,1.2 0.9,1.3 l 0,0 c 0.6,0.1 1.2,-0.3 1.3,-0.9 l 0.7,-3.3 3.3,0.7 c 0.6,0.1 1.2,-0.3 1.3,-0.9 l 0,0 c 0.1,-0.6 -0.3,-1.2 -0.9,-1.3 z"
         id="path198"
         inkscape:connector-curvature="0"
         style="fill:#ffffff" /></g><path
       class="st7"
       d="m 177.4,90.4 -35.5,-6 20,48.6 7.3,1.4 c 3,0.6 5.9,-1.4 6.4,-4.4 l 6.2,-33.1 c 0.6,-3.1 -1.4,-6 -4.4,-6.5 z"
       id="path200"
       inkscape:connector-curvature="0"
       style="opacity:0.13999999;fill:#2b2b2b" /><g
       id="g202"><path
         class="st1"
         d="m 124.3,89.5 -0.4,0 c -2.3,-0.2 -4,-2.3 -3.8,-4.6 l 0.5,-4.9 c 0.2,-2.3 2.3,-4 4.6,-3.8 l 0.4,0 c 2.3,0.2 4,2.3 3.8,4.6 l -0.5,4.9 c -0.3,2.3 -2.3,4 -4.6,3.8 z"
         id="path204"
         inkscape:connector-curvature="0"
         style="fill:#fed9a8" /><path
         class="st2"
         d="m 129.4,80.7 c 0.1,-1.5 -0.6,-2.8 -1.8,-3.7 -1.4,0.6 -2.4,1.8 -2.5,3.2 l -0.5,5.2 c -0.1,1.5 0.6,2.8 1.8,3.7 1.4,-0.6 2.4,-1.8 2.5,-3.2 l 0.5,-5.2 z"
         id="path206"
         inkscape:connector-curvature="0"
         style="fill:#f4c28c" /></g><g
       id="g208"><path
         class="st1"
         d="m 133.8,92.1 -0.4,0 c -2.8,-0.3 -4.8,-2.7 -4.5,-5.5 l 0.6,-5.9 c 0.3,-2.8 2.7,-4.8 5.5,-4.5 l 0.4,0 c 2.8,0.3 4.8,2.7 4.5,5.5 l -0.6,5.9 c -0.3,2.8 -2.7,4.8 -5.5,4.5 z"
         id="path210"
         inkscape:connector-curvature="0"
         style="fill:#fed9a8" /><path
         class="st2"
         d="m 139.9,81.5 c 0.2,-1.8 -0.7,-3.4 -2.2,-4.4 -1.7,0.7 -2.9,2.1 -3,3.9 l -0.6,6.3 c -0.2,1.8 0.7,3.4 2.2,4.4 1.7,-0.7 2.9,-2.1 3,-3.9 l 0.6,-6.3 z"
         id="path212"
         inkscape:connector-curvature="0"
         style="fill:#f4c28c" /></g><g
       id="g214"><path
         class="st1"
         d="m 143.5,92.8 -0.4,0 c -2.4,-0.2 -4.1,-2.3 -3.9,-4.7 l 0.5,-5 c 0.2,-2.4 2.3,-4.1 4.7,-3.9 l 0.4,0 c 2.4,0.2 4.1,2.3 3.9,4.7 l -0.5,5 c -0.2,2.4 -2.4,4.1 -4.7,3.9 z"
         id="path216"
         inkscape:connector-curvature="0"
         style="fill:#fed9a8" /><path
         class="st2"
         d="m 148.7,83.7 c 0.1,-1.5 -0.6,-2.9 -1.9,-3.8 -1.4,0.6 -2.4,1.8 -2.6,3.3 l -0.5,5.4 c -0.1,1.5 0.6,2.9 1.9,3.8 1.4,-0.6 2.4,-1.8 2.6,-3.3 l 0.5,-5.4 z"
         id="path218"
         inkscape:connector-curvature="0"
         style="fill:#f4c28c" /></g><g
       id="g220"><path
         class="st1"
         d="m 152,94.1 -0.4,0 c -2.3,-0.2 -4,-2.3 -3.8,-4.6 l 0.5,-4.9 c 0.2,-2.3 2.3,-4 4.6,-3.8 l 0.4,0 c 2.3,0.2 4,2.3 3.8,4.6 l -0.5,4.9 c -0.2,2.4 -2.3,4 -4.6,3.8 z"
         id="path222"
         inkscape:connector-curvature="0"
         style="fill:#fed9a8" /><path
         class="st2"
         d="m 157.1,85.3 c 0.1,-1.5 -0.6,-2.9 -1.8,-3.7 -1.4,0.6 -2.4,1.8 -2.5,3.2 l -0.5,5.3 c -0.1,1.5 0.6,2.9 1.8,3.7 1.4,-0.6 2.4,-1.8 2.5,-3.2 l 0.5,-5.3 z"
         id="path224"
         inkscape:connector-curvature="0"
         style="fill:#f4c28c" /></g><path
       d="m 171.7,119.1 0,0 c -1,-0.2 -1.7,-1.2 -1.5,-2.2 l 1.5,-8.3 c 0.2,-1 1.2,-1.7 2.2,-1.5 l 0,0 c 1,0.2 1.7,1.2 1.5,2.2 l -1.5,8.3 c -0.2,1 -1.2,1.7 -2.2,1.5 z"
       id="path226"
       inkscape:connector-curvature="0" /><path
       d="m 101.3,104.4 0,0 c -0.4,-0.1 -0.6,-0.4 -0.5,-0.8 l 2,-10.6 c 0.1,-0.4 0.4,-0.6 0.8,-0.5 l 0,0 c 0.4,0.1 0.6,0.4 0.5,0.8 l -2,10.6 c 0,0.3 -0.4,0.6 -0.8,0.5 z"
       id="path228"
       inkscape:connector-curvature="0" /><g
       id="g230"><path
         class="st1"
         d="m 130.3,108.3 1.1,1.2 c 1.8,1.9 1.7,4.9 -0.2,6.7 l -3.3,3.1 c -1.6,1.5 -2.3,3.2 -0.8,4.8 l 0.7,0.9 c 14.4,-0.9 13.6,15.8 13.6,15.8 l -12,2.4 c -1.6,-0.5 -3,-1.4 -4.1,-2.7 l -11.2,-13.6 c -2.8,-3 -2.7,-7.6 0.2,-10.2 l 9.4,-8.7 c 1.8,-1.8 4.8,-1.7 6.6,0.3 z"
         id="path232"
         inkscape:connector-curvature="0"
         style="fill:#fed9a8" /></g><g
       id="g234"><circle
         cx="104.7"
         cy="87"
         r="1.5"
         id="circle236" /><circle
         class="st6"
         cx="104.3"
         cy="86.599998"
         r="0.40000001"
         id="circle238"
         style="fill:#ffffff" /></g></g></svg>