<?xml version="1.0" encoding="UTF-8" standalone="no"?>
<!-- Created with Inkscape (http://www.inkscape.org/) -->

<svg
   xmlns:dc="http://purl.org/dc/elements/1.1/"
   xmlns:cc="http://creativecommons.org/ns#"
   xmlns:rdf="http://www.w3.org/1999/02/22-rdf-syntax-ns#"
   xmlns:svg="http://www.w3.org/2000/svg"
   xmlns="http://www.w3.org/2000/svg"
   xmlns:sodipodi="http://sodipodi.sourceforge.net/DTD/sodipodi-0.dtd"
   xmlns:inkscape="http://www.inkscape.org/namespaces/inkscape"
   width="149.21387mm"
   height="55.059925mm"
   viewBox="0 0 528.71055 195.09422"
   id="svg15457"
   version="1.1"
   inkscape:version="0.91 r13725"
   sodipodi:docname="historia.svg">
  <defs
     id="defs15459">
    <clipPath
       clipPathUnits="userSpaceOnUse"
       id="clipPath330">
      <path
         d="m 32.01,54.445 437.979,0 0,188.74 -437.979,0 0,-188.74 z"
         id="path332"
         inkscape:connector-curvature="0" />
    </clipPath>
  </defs>
  <sodipodi:namedview
     id="base"
     pagecolor="#ffffff"
     bordercolor="#666666"
     borderopacity="1.0"
     inkscape:pageopacity="0.0"
     inkscape:pageshadow="2"
     inkscape:zoom="0.35"
     inkscape:cx="259.35532"
     inkscape:cy="-325.31003"
     inkscape:document-units="px"
     inkscape:current-layer="layer1"
     showgrid="false"
     fit-margin-top="0"
     fit-margin-left="0"
     fit-margin-right="0"
     fit-margin-bottom="0"
     inkscape:window-width="1920"
     inkscape:window-height="1059"
     inkscape:window-x="0"
     inkscape:window-y="21"
     inkscape:window-maximized="1" />
  <metadata
     id="metadata15462">
    <rdf:RDF>
      <cc:Work
         rdf:about="">
        <dc:format>image/svg+xml</dc:format>
        <dc:type
           rdf:resource="http://purl.org/dc/dcmitype/StillImage" />
        <dc:title></dc:title>
      </cc:Work>
    </rdf:RDF>
  </metadata>
  <g
     inkscape:label="Layer 1"
     inkscape:groupmode="layer"
     id="layer1"
     transform="translate(-115.64468,-11.957948)">
    <g
       id="g76"
       transform="matrix(1.25,0,0,-1.25,218.80724,40.345168)">
      <path
         d="m 0,0 c -25.956,0.566 -51.923,2.653 -77.655,6.074 -3.528,0.469 -4.436,-4.804 -1.73,-6.387 5.959,-3.486 11.842,-7.092 17.658,-10.807 1.748,-1.887 4.527,-3.552 7.684,-4.993 0.038,-0.026 0.076,-0.05 0.114,-0.075 8.259,-5.486 16.229,-11.798 24.99,-16.461 1.216,-0.648 2.443,-0.152 3.083,0.746 0.46,0.079 0.935,0.255 1.418,0.573 1.226,0.809 2.376,1.759 3.48,2.791 0.974,-0.743 1.947,-1.486 2.921,-2.231 1.293,-0.987 3.624,-0.256 4.313,1.131 2.304,4.647 4.368,9.414 6.466,14.157 0.133,0.291 0.261,0.579 0.381,0.863 0.1,0.234 0.168,0.467 0.218,0.696 2.975,2.706 6.018,5.332 9.18,7.837 C 5.079,-4.059 2.818,-0.062 0,0"
         style="fill:#ff00ff;fill-opacity:1;fill-rule:nonzero;stroke:none"
         id="path78"
         inkscape:connector-curvature="0" />
    </g>
    <g
       id="g80"
       transform="matrix(1.25,0,0,-1.25,174.51464,155.41355)">
      <path
         d="m 0,0 c -0.413,-0.004 -0.84,-0.077 -1.274,-0.245 0.095,0.101 0.192,0.201 0.288,0.304 0.202,0.215 0.337,0.449 0.424,0.689 C -0.376,0.498 -0.187,0.249 0,0 M 23.35,-15.057 C 16.667,-7.279 10.221,0.625 3.932,8.724 3.016,9.903 1.743,10.217 0.515,9.975 -0.01,10.179 -0.642,10.164 -1.313,9.79 -9.61,5.166 -16.465,-2.026 -23.415,-8.41 c -7.547,-6.933 -15.036,-13.93 -22.548,-20.901 -2.851,-2.645 0.174,-6.936 3.602,-6.186 21.334,4.665 42.646,9.445 64.007,13.985 3.048,0.649 3.465,4.405 1.704,6.455"
         style="fill:#00ffff;fill-opacity:1;fill-rule:nonzero;stroke:none"
         id="path82"
         inkscape:connector-curvature="0" />
    </g>
    <g
       id="g84"
       transform="matrix(1.25,0,0,-1.25,534.68744,49.035418)">
      <path
         d="M 0,0 C -0.15,0.178 -0.304,0.352 -0.457,0.526 -0.06,0.625 0.336,0.729 0.732,0.829 0.456,0.583 0.211,0.302 0,0 M 75.503,29.507 C 49.028,21.374 22.354,13.746 -3.642,4.177 -5.047,3.66 -5.388,2.27 -4.969,1.219 -5.071,0.904 -5.098,0.557 -5.009,0.192 c 1.331,-5.484 4.107,-10.695 6.917,-15.636 -0.637,-2.867 -0.516,-5.862 -0.914,-8.758 -0.336,-2.448 2.125,-5.398 4.708,-3.619 0.808,0.556 1.643,1.109 2.482,1.671 1.946,-3.204 3.943,-6.377 6.012,-9.497 1.729,-2.608 5.097,-1.846 6.339,0.16 0.79,0.15 1.547,0.493 2.119,0.976 20.451,17.284 32.319,43.772 55.339,58.11 3.027,1.884 1.119,7.016 -2.49,5.908"
         style="fill:#00ff00;fill-opacity:1;fill-rule:nonzero;stroke:none"
         id="path86"
         inkscape:connector-curvature="0" />
    </g>
    <g
       id="g88"
       transform="matrix(1.25,0,0,-1.25,643.52274,200.09855)">
      <path
         d="m 0,0 c -4.384,5.683 -10.344,9.865 -15.868,14.376 -6.299,5.145 -12.645,10.232 -18.976,15.339 -1.708,1.377 -4.281,1.415 -5.493,-0.709 C -44.367,21.948 -49.063,15.53 -54.4,9.491 -55.874,9.13 -56.746,7.978 -57.01,6.62 c -0.165,-0.177 -0.323,-0.356 -0.489,-0.532 -1.49,-1.574 0.111,-4.402 1.98,-3.969 0.639,-0.545 1.469,-0.919 2.492,-1.006 16.401,-1.306 32.691,-3.212 48.803,-6.606 C -1.423,-6.084 2.171,-2.813 0,0"
         style="fill:#ffff00;fill-opacity:1;fill-rule:nonzero;stroke:none"
         id="path90"
         inkscape:connector-curvature="0" />
    </g>
    <g
       id="g92"
       transform="matrix(1.25,0,0,-1.25,518.57094,178.90203)">
      <path
         d="M 0,0 C 0.433,-1.256 0.566,-3.797 -0.759,-4.632 L -1.022,-4.13 C 0.193,-2.652 -1.074,2.36 -3.131,0.689 -3.3,0.549 -3.493,0.566 -3.639,0.654 -3.709,0.502 -3.844,0.386 -4.06,0.386 -33.447,0.064 -62.87,-0.87 -92.259,-0.754 c -0.245,0 -0.35,0.205 -0.327,0.392 -0.216,-0.018 -0.42,0.088 -0.473,0.362 -0.958,5.55 -6.18,8.932 -11.729,10.392 -2.816,0.748 -5.713,0.993 -8.184,0.783 -7.932,-0.684 -13.038,-5.345 -17.682,-11.257 l -0.479,0.403 c 3.026,7.028 11.426,11.467 18.792,11.905 0.111,0.005 0.216,0.011 0.327,0.017 7.553,0.333 18.511,-3.464 19.96,-11.963 0.024,-0.128 -0.006,-0.239 -0.052,-0.333 29.293,1.291 58.729,1.221 88.046,1.438 0.041,0 0.071,-0.012 0.106,-0.018 -0.07,4.205 -0.205,8.464 0.023,12.67 l 0.508,0.035 C -3.131,9.96 -3.195,5.789 -3.213,1.665 -1.98,2.296 -0.443,1.297 0,0"
         style="fill:#1c1c1b;fill-opacity:1;fill-rule:nonzero;stroke:none"
         id="path94"
         inkscape:connector-curvature="0" />
    </g>
    <g
       id="g96"
       transform="matrix(1.25,0,0,-1.25,296.80344,203.32578)">
      <path
         d="m 0,0 c 0.111,0.31 -0.969,1.816 -1.11,2.114 -0.637,1.332 -1.185,2.704 -1.623,4.113 -2.016,6.402 -2.045,13.499 0.175,19.848 -4.265,-0.163 -8.552,-0.175 -12.817,-0.057 0.077,-0.1 0.1,-0.229 0.018,-0.345 -5.117,-7.209 -7.459,-15.912 -6.151,-24.662 3.295,2.347 6.461,4.836 9.51,7.494 0.251,0.222 0.619,0.186 0.806,-0.106 C -9.054,4.982 -6.116,2.208 -2.482,0.42 -1.717,0.041 -0.356,-0.993 0,0 m 176.392,15.409 0.263,-0.502 c -0.023,-0.228 -0.176,-0.438 -0.468,-0.432 -18.61,0.421 -37.209,0.654 -55.82,0.321 -9.304,-0.169 -18.604,-0.444 -27.898,-0.829 -2.324,-0.1 -4.65,-0.27 -6.975,-0.304 -1.027,-0.017 -2.272,-0.094 -3.166,0.543 -0.952,0.684 -1.18,1.752 -0.747,2.681 -2.448,0.199 -3.814,1.992 -5.246,3.884 -2.921,3.856 -7.4,5.795 -12.243,4.896 C 59.839,24.872 56.457,22.156 53.852,18.832 53.086,17.862 52.409,16.7 51.165,16.273 50.02,15.883 49.699,16.514 49.833,15.012 49.845,14.89 49.78,14.802 49.687,14.761 49.705,14.51 49.553,14.247 49.226,14.235 40.434,13.938 31.59,14.2 22.793,14.2 14.148,14.2 5.491,14.06 -3.143,14.416 -3.072,12.705 -2.862,10.987 -2.488,9.27 -1.881,6.489 -0.864,3.884 0.415,1.349 0.952,0.298 1.606,-0.45 0.952,-1.554 0.835,-1.741 0.59,-1.857 0.374,-1.788 c -5.053,1.618 -9.212,4.767 -12.121,9.171 -3.171,-2.734 -6.455,-5.31 -9.878,-7.716 -0.256,-0.182 -0.701,-0.006 -0.753,0.304 -0.812,4.678 -0.648,9.41 0.473,13.902 -4.515,0.094 -9.031,0.181 -13.546,0.28 -4.241,0.094 -8.751,-0.21 -12.933,0.543 -0.204,0.035 -0.21,0.386 0,0.415 0.024,0.006 0.047,0.006 0.07,0.006 4.189,0.567 8.64,0.088 12.863,0 4.597,-0.088 9.2,-0.186 13.797,-0.28 0.415,1.46 0.923,2.892 1.542,4.281 l 0.205,0.444 c 1.057,2.285 2.383,4.458 4.007,6.473 -1.466,0.04 -2.927,0.093 -4.387,0.163 -0.304,0.012 -0.304,0.474 0,0.474 7.699,0.034 15.38,0.233 23.074,0.426 0.479,0.011 0.467,-0.702 0,-0.737 -1.449,-0.098 -2.904,-0.174 -4.364,-0.245 0.006,-0.047 0.006,-0.098 -0.012,-0.163 -0.648,-2.161 -1.116,-4.341 -1.367,-6.537 l -0.023,-0.49 -0.029,0 c -0.135,-1.297 -0.181,-2.6 -0.158,-3.903 8.645,0.357 17.308,0.217 25.959,0.217 8.786,0 17.612,0.263 26.386,-0.035 -0.105,0.467 -0.211,0.941 -0.304,1.407 -0.064,0.298 0.181,0.578 0.497,0.497 2.494,-0.666 4.012,2.804 5.415,4.287 1.016,1.082 2.155,2.051 3.399,2.869 2.22,1.471 4.825,2.441 7.495,2.588 2.336,0.134 4.731,-0.316 6.834,-1.362 0.426,-0.21 0.841,-0.449 1.244,-0.713 2.927,-1.921 4.498,-6.716 8.271,-6.91 0.333,-0.012 0.491,-0.286 0.48,-0.537 0.053,-0.105 0.064,-0.222 -0.012,-0.333 0.584,-1.787 1.583,-2.564 2.996,-2.325 0.392,0.017 0.777,0.041 1.163,0.058 0.97,0.047 1.94,0.094 2.903,0.135 1.939,0.088 3.878,0.169 5.812,0.251 3.873,0.153 7.752,0.286 11.624,0.404 7.56,0.227 15.118,0.374 22.677,0.449 15.497,0.152 31.023,0.064 46.514,-0.514 0.077,0 0.147,-0.018 0.205,-0.047"
         style="fill:#1c1c1b;fill-opacity:1;fill-rule:nonzero;stroke:none"
         id="path98"
         inkscape:connector-curvature="0" />
    </g>
    <g
       id="g100"
       transform="matrix(1.25,0,0,-1.25,514.95644,182.34078)">
      <path
         d="M 0,0 C 0.345,0.018 0.345,0.52 0,0.537 -2.026,0.654 -4.106,0.543 -6.133,0.473 -6.396,0.467 -6.396,0.069 -6.133,0.064 -4.106,-0.006 -2.026,-0.111 0,0 M 0,1.191 C 0.321,1.203 0.321,1.676 0,1.687 -1.162,1.729 -2.342,1.658 -3.505,1.618 -3.732,1.606 -3.732,1.268 -3.505,1.262 -2.342,1.221 -1.162,1.145 0,1.191 M -0.239,3.44 c 2.056,1.671 3.324,-3.341 2.108,-4.819 -0.057,0.029 -0.128,0.047 -0.204,0.047 -15.491,0.578 -31.018,0.666 -46.515,0.514 -7.558,-0.076 -15.117,-0.222 -22.676,-0.45 -3.872,-0.117 -7.751,-0.251 -11.624,-0.403 -1.934,-0.082 -3.873,-0.163 -5.813,-0.251 -0.963,-0.041 -1.933,-0.088 -2.902,-0.135 -0.386,-0.017 -0.772,-0.041 -1.163,-0.058 -1.413,-0.239 -2.412,0.538 -2.996,2.325 0.076,0.111 0.064,0.227 0.011,0.333 0.012,0.251 -0.146,0.525 -0.479,0.537 -3.774,0.193 -5.345,4.989 -8.272,6.91 -0.402,0.264 -0.817,0.503 -1.244,0.713 l 0.38,0.695 c 0.392,-0.227 0.783,-0.466 1.197,-0.724 0.246,-0.157 0.492,0.187 0.304,0.386 -0.525,0.572 -1.221,1.01 -1.985,1.332 l 0.216,0.742 c 1.132,-0.357 2.073,-0.889 2.938,-1.759 0.269,-0.274 0.684,0.146 0.42,0.421 -0.952,1.005 -2.295,1.711 -3.674,1.857 l -0.023,0 0.339,1.49 c 5.548,-1.46 10.771,-4.842 11.729,-10.392 0.053,-0.274 0.257,-0.38 0.473,-0.362 -0.024,-0.187 0.082,-0.392 0.327,-0.392 29.388,-0.116 58.811,0.818 88.199,1.14 0.216,0 0.351,0.116 0.421,0.268 0.145,-0.088 0.339,-0.105 0.508,0.035"
         style="fill:#f9ca5f;fill-opacity:1;fill-rule:nonzero;stroke:none"
         id="path102"
         inkscape:connector-curvature="0" />
    </g>
    <g
       id="g104"
       transform="matrix(1.25,0,0,-1.25,514.95644,180.2314)">
      <path
         d="m 0,0 c 0.321,-0.012 0.321,-0.484 0,-0.496 -1.162,-0.047 -2.342,0.029 -3.505,0.07 -0.227,0.006 -0.227,0.345 0,0.357 C -2.342,-0.029 -1.162,0.041 0,0"
         style="fill:#1c1c1b;fill-opacity:1;fill-rule:nonzero;stroke:none"
         id="path106"
         inkscape:connector-curvature="0" />
    </g>
    <g
       id="g108"
       transform="matrix(1.25,0,0,-1.25,514.95644,181.66928)">
      <path
         d="m 0,0 c 0.345,-0.018 0.345,-0.52 0,-0.537 -2.026,-0.111 -4.106,-0.006 -6.133,0.064 -0.263,0.005 -0.263,0.403 0,0.409 C -4.106,0.006 -2.026,0.117 0,0"
         style="fill:#1c1c1b;fill-opacity:1;fill-rule:nonzero;stroke:none"
         id="path110"
         inkscape:connector-curvature="0" />
    </g>
    <g
       id="g112"
       transform="matrix(1.25,0,0,-1.25,377.23914,161.59728)">
      <path
         d="m 0,0 c -11.887,8.248 -25.492,13.377 -39.552,16.49 -0.029,-0.017 -0.064,-0.035 -0.105,-0.035 -15.053,0.059 -29.989,-0.525 -44.985,-1.916 -0.186,-0.018 -0.18,0.27 0,0.293 14.283,1.717 28.805,2.453 43.192,2.056 -1.384,0.292 -2.775,0.566 -4.171,0.817 -9.112,1.653 -18.412,2.734 -27.688,2.6 -4.153,-0.065 -8.447,-0.286 -12.606,-1.034 -3.82,-3.376 -7.669,-6.711 -11.565,-10 -3.225,-2.71 -6.444,-5.731 -9.937,-8.184 16.776,5.56 35.019,7.751 52.584,7.682 C -36.222,8.698 -17.699,5.725 0,0 m 0.829,31.865 c 0,0.187 0.094,0.316 0.211,0.392 -4.188,10.105 -15.999,15.07 -25.796,17.979 -10.847,3.219 -21.875,3.58 -33.044,2.279 -0.024,-0.03 -0.035,-0.065 -0.071,-0.094 -6.711,-6.653 -13.703,-13.05 -20.69,-19.417 -6.098,-5.561 -12.144,-11.496 -18.704,-16.555 3.342,2.098 7.249,3.242 11.245,3.903 0.117,0.099 0.234,0.198 0.351,0.303 0.256,0.222 0.584,0.082 0.707,-0.145 2.786,0.402 5.589,0.595 8.247,0.729 9.668,0.486 19.376,-0.513 28.903,-2.096 C -30.474,16.269 -13.4,10.736 1.069,0.538 0.45,10.912 0.795,21.474 0.829,31.865 M 108.796,1.128 C 96.867,10.591 85.676,21.392 74.705,31.941 63.975,31.474 53.069,28.547 42.946,25.077 c 7.383,1.473 15.041,2.027 22.541,1.811 0.322,-0.012 0.322,-0.496 0,-0.496 -7.962,0.011 -15.724,-0.643 -23.604,-1.752 -0.041,-0.006 -0.076,0.011 -0.1,0.034 C 40.592,24.26 39.412,23.839 38.249,23.412 24.487,18.389 12.349,11.087 1.811,0.923 1.805,0.789 1.799,0.648 1.793,0.515 15.614,10.311 34.348,10.532 50.639,10.164 70.33,9.721 89.893,6.636 108.796,1.128 m 0.8,-0.223 c 0.017,-0.227 0.035,-0.449 0.047,-0.676 L 109.135,0.193 C 109.023,0.082 108.859,0.023 108.661,0.082 90.155,5.485 71.02,8.558 51.743,9.09 34.569,9.563 15.959,9.096 1.168,-0.753 1.174,-1.021 0.999,-1.297 0.707,-1.297 c -0.053,0 -0.111,0.012 -0.17,0.029 -17.862,5.872 -36.56,8.914 -55.37,8.997 -18.967,0.076 -37.192,-3.301 -55.388,-8.401 l -0.426,0.065 c -0.169,0.17 -0.158,0.52 0.14,0.625 0.485,0.175 0.97,0.333 1.455,0.503 3.464,3.528 7.64,6.524 11.396,9.725 3.364,2.862 6.7,5.766 10.018,8.681 -4.241,-0.924 -8.295,-2.46 -11.858,-5.031 -0.333,-0.239 -0.73,0.293 -0.432,0.556 0.21,0.187 0.432,0.362 0.648,0.537 -0.163,0.03 -0.274,0.269 -0.134,0.409 6.437,6.601 13.791,12.43 20.597,18.664 6.84,6.261 13.51,12.693 20.281,19.025 0.122,0.11 0.257,0.14 0.385,0.122 11.887,2.349 24.669,1.075 36.123,-2.739 9.259,-3.084 19.581,-7.95 23.809,-17.29 15.101,13.107 35.774,21.308 55.499,23.633 0.164,0.018 0.286,-0.046 0.368,-0.152 0.193,-0.263 0.141,-0.741 -0.239,-0.8 C 47.292,54.319 37.467,51.813 28.027,47.806 18.669,43.834 10.281,38.466 2.027,32.595 2.08,32.479 2.126,32.367 2.173,32.257 2.302,31.93 2.097,31.707 1.834,31.643 1.934,21.742 2.302,11.688 1.846,1.782 c 9.235,10.526 22.291,17.46 35.235,22.302 7.074,2.646 14.364,4.72 21.73,6.408 8.014,1.834 16.163,3.055 24.387,2.308 -3.889,4.165 -7.792,8.289 -11.957,12.184 -4.334,4.061 -9.059,7.659 -13.4,11.689 -0.017,0.012 -0.028,0.029 -0.034,0.041 -0.159,0.223 0.122,0.55 0.361,0.391 4.825,-3.136 9.166,-7.178 13.377,-11.075 4.475,-4.141 8.838,-8.469 12.828,-13.085 0.187,-0.216 0.14,-0.472 -0.006,-0.642 0.071,-0.304 -0.082,-0.649 -0.473,-0.608 -2.559,0.269 -5.141,0.357 -7.74,0.292 5.415,-4.988 10.778,-10.029 16.21,-15.006 5.684,-5.199 11.589,-10.205 17.074,-15.614 0.099,-0.099 0.111,-0.204 0.07,-0.298 0.047,-0.035 0.082,-0.088 0.088,-0.164"
         style="fill:#1c1c1b;fill-opacity:1;fill-rule:nonzero;stroke:none"
         id="path114"
         inkscape:connector-curvature="0" />
    </g>
    <g
       id="g116"
       transform="matrix(1.25,0,0,-1.25,414.63904,176.07603)">
      <path
         d="M 0,0 C 0.286,0.053 0.163,0.496 -0.123,0.443 -1.753,0.151 -3.377,0.059 -5.029,0.1 c -0.217,0 -0.211,-0.316 0,-0.333 C -3.342,-0.38 -1.671,-0.28 0,0 m 0.812,1.186 c 0.262,0 0.262,0.409 0,0.409 -1.46,-0.006 -2.921,-0.018 -4.381,-0.024 -0.234,0 -0.234,-0.362 0,-0.362 L 0.812,1.186 Z M 40.247,12.15 c 0.187,-0.011 0.181,0.275 0,0.287 C 23.85,13.424 7.032,12.617 -9.119,9.521 -9.229,9.498 -9.183,9.334 -9.072,9.352 7.359,11.718 23.646,12.827 40.247,12.15 M 60.686,9.042 c 0.297,0.006 0.297,0.462 0,0.468 -1.846,0.023 -3.698,-0.006 -5.549,-0.03 -0.258,-0.005 -0.258,-0.403 0,-0.403 1.851,-0.023 3.703,-0.058 5.549,-0.035 m 1.711,0.66 c 0.193,-0.064 0.275,0.245 0.082,0.304 -1.449,0.462 -2.903,0.648 -4.422,0.578 -0.175,-0.006 -0.175,-0.274 0,-0.269 1.484,0.041 2.926,-0.157 4.34,-0.613 m 0.328,-3.609 c 0.204,-0.012 0.198,0.303 0,0.321 C 49.722,7.6 36.602,7.506 23.599,6.385 23.505,6.379 23.505,6.227 23.599,6.238 36.654,7.272 49.675,7.144 62.725,6.093 m 16.466,-6.987 c -0.035,0.006 -0.064,0.018 -0.105,0.018 -29.317,-0.217 -58.753,-0.146 -88.047,-1.437 0.047,0.093 0.076,0.205 0.053,0.333 -1.449,8.499 -12.407,12.295 -19.96,11.962 -0.111,-0.005 -0.217,-0.011 -0.327,-0.017 l -0.018,0.321 c 0.292,0 0.467,0.276 0.461,0.544 14.791,9.849 33.401,10.316 50.575,9.843 19.277,-0.532 38.412,-3.605 56.918,-9.008 0.198,-0.059 0.363,0 0.474,0.111 C 78.986,7.57 79.121,3.312 79.191,-0.894"
         style="fill:#f5f5f5;fill-opacity:1;fill-rule:nonzero;stroke:none"
         id="path118"
         inkscape:connector-curvature="0" />
    </g>
    <g
       id="g120"
       transform="matrix(1.25,0,0,-1.25,465.94764,141.4374)">
      <path
         d="m 0,0 c 0.315,-0.046 0.456,0.433 0.135,0.479 -14.114,2.244 -28.764,2.103 -42.759,-0.875 -0.158,-0.036 -0.088,-0.263 0.063,-0.241 C -28.365,1.671 -14.247,2.039 0,0 m 8.476,-6.109 c 0.292,-0.065 0.42,0.374 0.128,0.455 -1.822,0.491 -3.732,0.648 -5.613,0.56 -0.246,-0.016 -0.246,-0.385 0,-0.385 1.869,0.012 3.662,-0.222 5.485,-0.63 m 0.887,1.214 C 9.674,-4.953 9.808,-4.474 9.492,-4.416 8.026,-4.142 6.56,-3.884 5.094,-3.621 4.849,-3.58 4.743,-3.948 4.988,-3.995 6.443,-4.299 7.903,-4.608 9.363,-4.895 M 3.738,15.813 C 14.709,5.264 25.9,-5.537 37.829,-15 c -18.903,5.508 -38.466,8.593 -58.157,9.036 -16.291,0.368 -35.025,0.147 -48.846,-9.649 0.006,0.134 0.012,0.274 0.018,0.408 10.538,10.164 22.677,17.466 36.438,22.489 1.163,0.427 2.343,0.848 3.534,1.262 0.024,-0.023 0.059,-0.04 0.1,-0.034 7.88,1.109 15.643,1.763 23.605,1.752 0.321,0 0.321,0.484 0,0.496 -7.5,0.217 -15.159,-0.338 -22.542,-1.811 10.124,3.47 21.029,6.397 31.759,6.864"
         style="fill:#f5f5f5;fill-opacity:1;fill-rule:nonzero;stroke:none"
         id="path122"
         inkscape:connector-curvature="0" />
    </g>
    <g
       id="g124"
       transform="matrix(1.25,0,0,-1.25,493.04484,168.05852)">
      <path
         d="m 0,0 c 0.198,-0.018 0.204,-0.333 0,-0.321 -13.05,1.05 -26.07,1.179 -39.126,0.145 -0.094,-0.011 -0.094,0.141 0,0.147 C -26.123,1.092 -13.003,1.186 0,0"
         style="fill:#1c1c1b;fill-opacity:1;fill-rule:nonzero;stroke:none"
         id="path126"
         inkscape:connector-curvature="0" />
    </g>
    <g
       id="g128"
       transform="matrix(1.25,0,0,-1.25,492.73714,163.56878)">
      <path
         d="m 0,0 c 0.193,-0.059 0.111,-0.368 -0.081,-0.304 -1.414,0.456 -2.857,0.655 -4.341,0.614 -0.175,-0.006 -0.175,0.262 0,0.268 C -2.902,0.648 -1.448,0.462 0,0"
         style="fill:#1c1c1b;fill-opacity:1;fill-rule:nonzero;stroke:none"
         id="path130"
         inkscape:connector-curvature="0" />
    </g>
    <g
       id="g132"
       transform="matrix(1.25,0,0,-1.25,490.49604,164.1889)">
      <path
         d="m 0,0 c 0.298,-0.006 0.298,-0.462 0,-0.468 -1.846,-0.023 -3.697,0.012 -5.549,0.035 -0.258,0 -0.258,0.398 0,0.404 C -3.697,-0.006 -1.846,0.023 0,0"
         style="fill:#1c1c1b;fill-opacity:1;fill-rule:nonzero;stroke:none"
         id="path134"
         inkscape:connector-curvature="0" />
    </g>
    <g
       id="g136"
       transform="matrix(1.25,0,0,-1.25,477.81294,146.9574)">
      <path
         d="m 0,0 c 0.315,-0.058 0.182,-0.537 -0.129,-0.479 -1.46,0.287 -2.92,0.596 -4.375,0.9 -0.245,0.047 -0.14,0.415 0.106,0.374 C -2.933,0.532 -1.466,0.274 0,0"
         style="fill:#1c1c1b;fill-opacity:1;fill-rule:nonzero;stroke:none"
         id="path138"
         inkscape:connector-curvature="0" />
    </g>
    <g
       id="g140"
       transform="matrix(1.25,0,0,-1.25,476.70334,148.50528)">
      <path
         d="m 0,0 c 0.292,-0.081 0.163,-0.52 -0.129,-0.455 -1.822,0.408 -3.615,0.642 -5.484,0.631 -0.246,0 -0.246,0.368 0,0.385 C -3.732,0.648 -1.822,0.491 0,0"
         style="fill:#1c1c1b;fill-opacity:1;fill-rule:nonzero;stroke:none"
         id="path142"
         inkscape:connector-curvature="0" />
    </g>
    <g
       id="g144"
       transform="matrix(1.25,0,0,-1.25,387.36004,147.99377)">
      <path
         d="M 0,0 C 0.326,0.157 0.04,0.643 -0.287,0.49 -1.385,-0.035 -2.36,-0.789 -3.207,-1.653 -3.383,-1.834 -3.12,-2.085 -2.938,-1.928 -2.051,-1.133 -1.063,-0.525 0,0 m 0.332,-0.812 c 0.193,0.175 -0.012,0.538 -0.263,0.45 -1.548,-0.567 -2.88,-2.243 -3.668,-3.633 -0.152,-0.276 0.245,-0.503 0.421,-0.246 0.473,0.713 1.004,1.373 1.629,1.963 0.585,0.549 1.291,0.934 1.881,1.466 m 43.689,40.855 c 0.343,0.081 0.198,0.602 -0.147,0.531 C 27.191,37.291 10.76,30.305 -3.172,20.573 -3.318,20.474 -3.184,20.24 -3.032,20.334 11.583,29.668 27.121,36.17 44.021,40.043 m 4.094,-5.532 c 0.379,0.052 0.216,0.636 -0.164,0.578 -17.623,-2.6 -34.879,-9.463 -48.968,-20.474 -0.111,-0.088 0.036,-0.28 0.158,-0.199 14.703,10.381 31.099,17.472 48.974,20.095 m 8.178,-6.42 c 0.339,0.047 0.263,0.648 -0.082,0.601 C 35.702,26.128 15.561,18.5 -1.309,6.524 -1.461,6.414 -1.32,6.169 -1.163,6.273 16.268,17.805 35.567,25.252 56.293,28.091 m 2.967,5.935 c 0.164,-0.269 0.585,-0.029 0.427,0.245 -0.584,0.994 -1.472,1.823 -2.5,2.336 -0.199,0.094 -0.363,-0.174 -0.175,-0.297 0.94,-0.596 1.67,-1.337 2.248,-2.284 m 1.192,0.824 c 0.163,-0.135 0.461,0.046 0.321,0.245 -0.899,1.285 -2.156,2.43 -3.248,3.546 -0.181,0.18 -0.45,-0.094 -0.286,-0.281 1.011,-1.179 2.027,-2.511 3.213,-3.51 M 75.102,21.917 C 66.877,22.664 58.729,21.443 50.714,19.609 43.349,17.921 36.059,15.848 28.984,13.201 16.04,8.359 2.984,1.425 -6.251,-9.101 c 0.456,9.907 0.088,19.96 -0.012,29.861 0.263,0.064 0.468,0.287 0.339,0.614 -0.047,0.11 -0.093,0.222 -0.145,0.338 8.254,5.871 16.641,11.239 26,15.211 9.439,4.008 19.264,6.514 29.382,8.056 0.379,0.058 0.431,0.537 0.239,0.799 l 0.158,0.053 c 0.006,-0.012 0.018,-0.029 0.034,-0.041 4.341,-4.03 9.067,-7.628 13.401,-11.688 4.165,-3.896 8.067,-8.02 11.957,-12.185"
         style="fill:#f5f5f5;fill-opacity:1;fill-rule:nonzero;stroke:none"
         id="path146"
         inkscape:connector-curvature="0" />
    </g>
    <g
       id="g148"
       transform="matrix(1.25,0,0,-1.25,466.11614,140.83803)">
      <path
         d="m 0,0 c 0.321,-0.047 0.181,-0.525 -0.135,-0.479 -14.247,2.039 -28.365,1.67 -42.56,-0.637 -0.152,-0.023 -0.222,0.205 -0.064,0.24 C -28.764,2.103 -14.113,2.243 0,0"
         style="fill:#1c1c1b;fill-opacity:1;fill-rule:nonzero;stroke:none"
         id="path150"
         inkscape:connector-curvature="0" />
    </g>
    <g
       id="g152"
       transform="matrix(1.25,0,0,-1.25,464.94794,160.5304)">
      <path
         d="m 0,0 c 0.181,-0.012 0.187,-0.298 0,-0.286 -16.602,0.677 -32.888,-0.433 -49.319,-2.799 -0.111,-0.018 -0.158,0.147 -0.047,0.17 C -33.215,0.181 -16.397,0.987 0,0"
         style="fill:#1c1c1b;fill-opacity:1;fill-rule:nonzero;stroke:none"
         id="path154"
         inkscape:connector-curvature="0" />
    </g>
    <g
       id="g156"
       transform="matrix(1.25,0,0,-1.25,463.32684,104.1254)">
      <path
         d="M 0,0 C 0.14,-0.198 -0.158,-0.38 -0.321,-0.245 -1.508,0.754 -2.523,2.086 -3.534,3.266 -3.698,3.452 -3.43,3.727 -3.248,3.546 -2.156,2.431 -0.899,1.285 0,0"
         style="fill:#1c1c1b;fill-opacity:1;fill-rule:nonzero;stroke:none"
         id="path158"
         inkscape:connector-curvature="0" />
    </g>
    <g
       id="g160"
       transform="matrix(1.25,0,0,-1.25,461.96814,105.1544)">
      <path
         d="M 0,0 C 0.158,-0.274 -0.263,-0.515 -0.427,-0.245 -1.005,0.701 -1.734,1.442 -2.675,2.038 -2.862,2.161 -2.698,2.43 -2.5,2.336 -1.472,1.822 -0.584,0.993 0,0"
         style="fill:#1c1c1b;fill-opacity:1;fill-rule:nonzero;stroke:none"
         id="path162"
         inkscape:connector-curvature="0" />
    </g>
    <g
       id="g164"
       transform="matrix(1.25,0,0,-1.25,457.62364,112.12827)">
      <path
         d="m 0,0 c 0.345,0.047 0.421,-0.555 0.082,-0.602 -20.726,-2.838 -40.025,-10.286 -57.456,-21.817 -0.157,-0.104 -0.298,0.141 -0.146,0.251 C -40.65,-10.192 -20.509,-2.564 0,0"
         style="fill:#1c1c1b;fill-opacity:1;fill-rule:nonzero;stroke:none"
         id="path166"
         inkscape:connector-curvature="0" />
    </g>
    <g
       id="g168"
       transform="matrix(1.25,0,0,-1.25,447.29894,104.13277)">
      <path
         d="m 0,0 c 0.38,0.059 0.543,-0.525 0.164,-0.578 -17.875,-2.623 -34.271,-9.714 -48.975,-20.095 -0.122,-0.081 -0.268,0.111 -0.157,0.199 C -34.879,-9.463 -17.623,-2.6 0,0"
         style="fill:#1c1c1b;fill-opacity:1;fill-rule:nonzero;stroke:none"
         id="path170"
         inkscape:connector-curvature="0" />
    </g>
    <g
       id="g172"
       transform="matrix(1.25,0,0,-1.25,442.20254,97.276018)">
      <path
         d="m 0,0 c 0.345,0.07 0.49,-0.45 0.146,-0.531 -16.899,-3.873 -32.437,-10.375 -47.052,-19.709 -0.152,-0.094 -0.286,0.139 -0.14,0.239 C -33.114,-10.27 -16.683,-3.283 0,0"
         style="fill:#1c1c1b;fill-opacity:1;fill-rule:nonzero;stroke:none"
         id="path174"
         inkscape:connector-curvature="0" />
    </g>
    <g
       id="g176"
       transform="matrix(1.25,0,0,-1.25,415.65344,174.08265)">
      <path
         d="m 0,0 c 0.263,0 0.263,-0.409 0,-0.409 l -4.381,0.023 c -0.233,0 -0.233,0.363 0,0.363 C -2.921,-0.018 -1.46,-0.006 0,0"
         style="fill:#1c1c1b;fill-opacity:1;fill-rule:nonzero;stroke:none"
         id="path178"
         inkscape:connector-curvature="0" />
    </g>
    <g
       id="g180"
       transform="matrix(1.25,0,0,-1.25,414.48534,175.5219)">
      <path
         d="m 0,0 c 0.286,0.053 0.409,-0.391 0.123,-0.443 -1.671,-0.281 -3.342,-0.38 -5.029,-0.234 -0.211,0.018 -0.217,0.333 0,0.333 C -3.254,-0.385 -1.63,-0.292 0,0"
         style="fill:#1c1c1b;fill-opacity:1;fill-rule:nonzero;stroke:none"
         id="path182"
         inkscape:connector-curvature="0" />
    </g>
    <g
       id="g184"
       transform="matrix(1.25,0,0,-1.25,391.78384,170.0959)">
      <path
         d="m 0,0 c 0.264,-0.274 -0.151,-0.695 -0.42,-0.421 -0.865,0.87 -1.806,1.402 -2.938,1.759 -0.123,0.034 -0.246,0.069 -0.369,0.104 -0.221,0.059 -0.186,0.415 0.03,0.415 l 0.023,0 C -2.295,1.711 -0.952,1.005 0,0"
         style="fill:#1c1c1b;fill-opacity:1;fill-rule:nonzero;stroke:none"
         id="path186"
         inkscape:connector-curvature="0" />
    </g>
    <g
       id="g188"
       transform="matrix(1.25,0,0,-1.25,389.79784,171.01627)">
      <path
         d="m 0,0 c 0.187,-0.198 -0.058,-0.543 -0.304,-0.386 -0.414,0.258 -0.805,0.497 -1.197,0.725 -1.08,0.619 -2.138,1.081 -3.511,1.25 -0.233,0.029 -0.251,0.386 0,0.38 0.976,-0.03 2.057,-0.234 3.027,-0.637 C -1.221,1.011 -0.525,0.572 0,0"
         style="fill:#1c1c1b;fill-opacity:1;fill-rule:nonzero;stroke:none"
         id="path190"
         inkscape:connector-curvature="0" />
    </g>
    <g
       id="g192"
       transform="matrix(1.25,0,0,-1.25,387.92154,170.59265)">
      <path
         d="m 0,0 -0.38,-0.695 c -2.102,1.046 -4.498,1.496 -6.834,1.361 -2.669,-0.146 -5.275,-1.116 -7.494,-2.588 -1.245,-0.817 -2.384,-1.787 -3.4,-2.868 -1.402,-1.483 -2.921,-4.953 -5.415,-4.287 -0.315,0.081 -0.561,-0.199 -0.497,-0.497 0.094,-0.467 0.199,-0.941 0.304,-1.407 -8.774,0.297 -17.6,0.035 -26.386,0.035 -8.65,0 -17.313,0.139 -25.959,-0.217 -0.022,1.303 0.024,2.605 0.158,3.902 l 0.029,0 c 16.374,-0.777 32.899,-0.204 49.284,-0.035 0.345,0.006 0.491,0.304 0.456,0.567 4.644,5.912 9.749,10.573 17.682,11.256 2.471,0.21 5.368,-0.035 8.183,-0.783 L -0.607,2.255 c -0.216,0 -0.251,-0.357 -0.03,-0.415 0.123,-0.035 0.245,-0.07 0.368,-0.105 L -0.484,0.993 c -0.97,0.403 -2.051,0.608 -3.027,0.637 -0.251,0.006 -0.233,-0.351 0,-0.38 C -2.138,1.081 -1.08,0.619 0,0"
         style="fill:#f9ca5f;fill-opacity:1;fill-rule:nonzero;stroke:none"
         id="path194"
         inkscape:connector-curvature="0" />
    </g>
    <g
       id="g196"
       transform="matrix(1.25,0,0,-1.25,387.44664,148.44665)">
      <path
         d="m 0,0 c 0.251,0.088 0.456,-0.274 0.263,-0.449 -0.59,-0.532 -1.296,-0.918 -1.881,-1.467 -0.625,-0.59 -1.156,-1.25 -1.629,-1.963 C -3.423,-4.136 -3.82,-3.908 -3.668,-3.633 -2.88,-2.243 -1.548,-0.566 0,0"
         style="fill:#1c1c1b;fill-opacity:1;fill-rule:nonzero;stroke:none"
         id="path198"
         inkscape:connector-curvature="0" />
    </g>
    <g
       id="g200"
       transform="matrix(1.25,0,0,-1.25,387.00114,147.38102)">
      <path
         d="M 0,0 C 0.327,0.152 0.613,-0.333 0.287,-0.49 -0.776,-1.016 -1.764,-1.623 -2.651,-2.418 -2.833,-2.575 -3.096,-2.324 -2.92,-2.144 -2.073,-1.279 -1.098,-0.525 0,0"
         style="fill:#1c1c1b;fill-opacity:1;fill-rule:nonzero;stroke:none"
         id="path202"
         inkscape:connector-curvature="0" />
    </g>
    <g
       id="g204"
       transform="matrix(1.25,0,0,-1.25,332.41434,97.224768)">
      <path
         d="m 0,0 c 0.292,0.029 0.292,0.426 0,0.455 -1.817,0.182 -3.721,0.047 -5.549,0 C -5.842,0.449 -5.842,0.006 -5.549,0 -3.727,-0.047 -1.817,-0.182 0,0 m 0.31,-1.928 c 0.233,-0.035 0.286,0.363 0.058,0.415 -1.063,0.222 -2.156,0.35 -3.23,0.514 -0.217,0.035 -0.316,-0.292 -0.094,-0.339 1.086,-0.198 2.173,-0.45 3.266,-0.59 m 29.72,-36.777 c 0.263,-0.147 0.497,0.257 0.234,0.403 -20.638,11.315 -44.634,17.541 -68.233,16.321 -0.222,-0.012 -0.222,-0.345 0,-0.339 23.833,0.123 46.97,-4.959 67.999,-16.385 m 0.59,9.661 c 0.298,-0.145 0.555,0.287 0.263,0.444 -18.219,9.96 -40.446,15.948 -61.253,15.691 -0.204,-0.006 -0.198,-0.299 0,-0.311 10.626,-0.688 21.053,-1.81 31.392,-4.479 10.322,-2.664 20.048,-6.654 29.598,-11.345 m 1.84,9.47 c 0.287,-0.176 0.549,0.274 0.263,0.449 -16.064,9.645 -34.698,14.762 -53.46,14.247 -0.234,-0.006 -0.24,-0.368 0,-0.368 18.757,0.129 37.087,-4.661 53.197,-14.328 m 1.642,-8.879 c 0.093,0.28 -0.357,0.402 -0.444,0.122 -0.263,-0.794 -0.327,-1.618 -0.217,-2.441 0.03,-0.176 0.316,-0.129 0.31,0.041 -0.017,0.788 0.1,1.53 0.351,2.278 m 1.401,-3.739 c 0.141,1.232 0.164,2.664 -0.251,3.855 -0.07,0.211 -0.449,0.199 -0.42,-0.059 0.152,-1.285 0.379,-2.488 0.327,-3.796 -0.006,-0.228 0.321,-0.216 0.344,0 m 1.397,12.951 c -0.117,-0.076 -0.211,-0.205 -0.211,-0.392 -0.034,-10.391 -0.379,-20.953 0.24,-31.327 -14.469,10.198 -31.543,15.731 -48.881,18.605 -9.527,1.583 -19.235,2.582 -28.903,2.096 -2.658,-0.134 -5.461,-0.327 -8.248,-0.729 -0.123,0.227 -0.45,0.367 -0.707,0.145 -0.116,-0.105 -0.233,-0.204 -0.35,-0.303 -3.996,-0.661 -7.903,-1.805 -11.245,-3.903 6.56,5.059 12.606,10.994 18.704,16.555 6.987,6.367 13.979,12.764 20.69,19.417 0.035,0.029 0.047,0.064 0.071,0.094 11.169,1.301 22.197,0.94 33.044,-2.279 C 20.9,-4.171 32.711,-9.136 36.9,-19.241"
         style="fill:#f5f5f5;fill-opacity:1;fill-rule:nonzero;stroke:none"
         id="path206"
         inkscape:connector-curvature="0" />
    </g>
    <g
       id="g208"
       transform="matrix(1.25,0,0,-1.25,246.72834,162.0929)">
      <path
         d="M 0,0 C 0.187,0.087 0.053,0.367 -0.14,0.327 -1.524,-0.006 -2.903,-0.619 -4.229,-1.128 -4.445,-1.21 -4.357,-1.549 -4.136,-1.473 -2.769,-1.022 -1.302,-0.625 0,0 m 0.841,-0.643 c 0.286,0.111 0.176,0.561 -0.134,0.473 -1.168,-0.333 -2.348,-0.788 -3.476,-1.25 -0.192,-0.082 -0.122,-0.368 0.082,-0.315 1.18,0.309 2.389,0.654 3.528,1.092 m 68.298,-7.465 c 0.181,-0.018 0.181,0.262 0,0.28 -3.312,0.356 -6.624,0.666 -9.942,0.999 -0.129,0.012 -0.129,-0.187 0,-0.198 3.318,-0.363 6.63,-0.743 9.942,-1.081 m -0.03,9.025 c 0.187,-0.047 0.269,0.245 0.082,0.298 -1.075,0.292 -2.155,0.549 -3.23,0.817 -0.187,0.047 -0.263,-0.233 -0.076,-0.28 1.069,-0.286 2.144,-0.572 3.224,-0.835 m 2.874,0.7 C 72.27,1.565 72.392,2.003 72.106,2.05 70.838,2.26 69.577,2.477 68.309,2.675 68.076,2.71 67.97,2.359 68.21,2.313 69.466,2.073 70.728,1.846 71.983,1.617 m 9.37,-4.859 c 0.239,-0.041 0.339,0.321 0.099,0.362 C 56.054,1.127 29.038,1.916 3.692,-3.015 3.587,-3.032 3.604,-3.219 3.715,-3.201 c 12.752,1.554 25.404,2.937 38.279,2.978 13.184,0.041 26.333,-0.993 39.359,-3.019 m 23.763,2.342 0.017,-0.322 c -7.366,-0.437 -15.766,-4.877 -18.792,-11.904 -16.39,-0.192 -32.857,0.239 -49.237,-0.444 0.251,2.196 0.719,4.376 1.367,6.537 0.018,0.064 0.018,0.116 0.012,0.163 1.46,0.07 2.915,0.146 4.364,0.245 0.467,0.035 0.479,0.748 0,0.736 -7.694,-0.192 -15.375,-0.391 -23.074,-0.425 -0.304,0 -0.304,-0.462 0,-0.474 1.46,-0.07 2.921,-0.123 4.387,-0.163 -1.624,-2.016 -2.95,-4.189 -4.007,-6.473 -0.029,0.169 -0.146,0.316 -0.386,0.316 -8.201,-0.181 -16.297,-0.205 -24.498,0.093 -0.263,0.661 -0.509,1.315 -0.719,1.98 0.181,0.023 0.35,0.181 0.304,0.421 -0.719,3.534 -0.73,6.794 -0.666,10.339 18.196,5.099 36.421,8.476 55.388,8.4 18.809,-0.082 37.507,-3.125 55.37,-8.996 0.058,-0.018 0.117,-0.029 0.17,-0.029"
         style="fill:#f5f5f5;fill-opacity:1;fill-rule:nonzero;stroke:none"
         id="path210"
         inkscape:connector-curvature="0" />
    </g>
    <g
       id="g212"
       transform="matrix(1.25,0,0,-1.25,376.47994,132.6459)">
      <path
         d="m 0,0 c 0.415,-1.191 0.392,-2.623 0.251,-3.855 -0.023,-0.216 -0.35,-0.228 -0.344,0 0.052,1.308 -0.176,2.511 -0.327,3.796 C -0.45,0.199 -0.07,0.211 0,0"
         style="fill:#1c1c1b;fill-opacity:1;fill-rule:nonzero;stroke:none"
         id="path214"
         inkscape:connector-curvature="0" />
    </g>
    <g
       id="g216"
       transform="matrix(1.25,0,0,-1.25,374.48644,132.63853)">
      <path
         d="M 0,0 C 0.087,0.28 0.538,0.158 0.444,-0.122 0.193,-0.87 0.076,-1.612 0.093,-2.4 0.099,-2.57 -0.187,-2.617 -0.216,-2.441 -0.327,-1.618 -0.263,-0.794 0,0"
         style="fill:#1c1c1b;fill-opacity:1;fill-rule:nonzero;stroke:none"
         id="path218"
         inkscape:connector-curvature="0" />
    </g>
    <g
       id="g220"
       transform="matrix(1.25,0,0,-1.25,373.31834,121.13102)">
      <path
         d="m 0,0 c 0.286,-0.175 0.023,-0.625 -0.263,-0.449 -16.111,9.667 -34.441,14.457 -53.197,14.328 -0.24,0 -0.234,0.362 0,0.368 C -34.698,14.762 -16.064,9.645 0,0"
         style="fill:#1c1c1b;fill-opacity:1;fill-rule:nonzero;stroke:none"
         id="path222"
         inkscape:connector-curvature="0" />
    </g>
    <g
       id="g224"
       transform="matrix(1.25,0,0,-1.25,371.01844,132.97427)">
      <path
         d="m 0,0 c 0.292,-0.157 0.035,-0.59 -0.263,-0.444 -9.55,4.691 -19.277,8.68 -29.598,11.344 -10.34,2.669 -20.766,3.791 -31.392,4.48 -0.198,0.012 -0.204,0.305 0,0.31 C -40.446,15.947 -18.219,9.96 0,0"
         style="fill:#1c1c1b;fill-opacity:1;fill-rule:nonzero;stroke:none"
         id="path226"
         inkscape:connector-curvature="0" />
    </g>
    <g
       id="g228"
       transform="matrix(1.25,0,0,-1.25,370.24394,145.1019)">
      <path
         d="m 0,0 c 0.263,-0.146 0.029,-0.55 -0.233,-0.403 -21.029,11.425 -44.167,16.507 -68,16.384 -0.222,-0.005 -0.222,0.328 0,0.339 C -44.634,17.541 -20.637,11.314 0,0"
         style="fill:#1c1c1b;fill-opacity:1;fill-rule:nonzero;stroke:none"
         id="path230"
         inkscape:connector-curvature="0" />
    </g>
    <g
       id="g232"
       transform="matrix(1.25,0,0,-1.25,355.25364,179.00452)">
      <path
         d="m 0,0 c 0.035,-0.263 -0.111,-0.561 -0.456,-0.566 -16.385,-0.169 -32.91,-0.743 -49.283,0.035 l 0.023,0.49 c 16.38,0.684 32.846,0.252 49.237,0.444 L 0,0 Z"
         style="fill:#1c1c1b;fill-opacity:1;fill-rule:nonzero;stroke:none"
         id="path234"
         inkscape:connector-curvature="0" />
    </g>
    <g
       id="g236"
       transform="matrix(1.25,0,0,-1.25,285.31044,149.38902)">
      <path
         d="M 0,0 C 0.315,0.035 0.333,0.521 0,0.503 -1.373,0.427 -2.769,0.281 -4.13,0.07 -4.352,0.041 -4.299,-0.315 -4.083,-0.31 -2.728,-0.274 -1.343,-0.169 0,0 m 1.466,1.099 c 0.316,-0.03 0.304,0.45 0,0.485 C 0.269,1.729 -0.94,1.63 -2.108,1.373 -2.348,1.32 -2.243,0.987 -2.015,1.022 -0.847,1.198 0.292,1.198 1.466,1.099 M 33.991,6.724 C 48.051,3.61 61.656,-1.519 73.543,-9.767 55.844,-4.042 37.321,-1.068 18.71,-0.998 1.145,-0.929 -17.098,-3.119 -33.874,-8.68 c 3.493,2.453 6.712,5.474 9.937,8.184 3.895,3.289 7.745,6.624 11.565,10 4.159,0.748 8.453,0.97 12.606,1.034 C 9.51,10.673 18.81,9.592 27.922,7.938 29.318,7.687 30.708,7.413 32.093,7.121 17.706,7.519 3.184,6.782 -11.099,5.065 c -0.18,-0.023 -0.186,-0.31 0,-0.293 14.995,1.391 29.932,1.975 44.985,1.916 0.041,0 0.076,0.018 0.105,0.036"
         style="fill:#f5f5f5;fill-opacity:1;fill-rule:nonzero;stroke:none"
         id="path238"
         inkscape:connector-curvature="0" />
    </g>
    <g
       id="g240"
       transform="matrix(1.25,0,0,-1.25,348.54344,165.69278)">
      <path
         d="m 0,0 c 0.24,-0.041 0.14,-0.403 -0.099,-0.362 -13.026,2.026 -26.175,3.06 -39.359,3.019 -12.875,-0.041 -25.527,-1.425 -38.279,-2.978 -0.111,-0.018 -0.128,0.169 -0.023,0.186 C -52.415,4.796 -25.398,4.007 0,0"
         style="fill:#1c1c1b;fill-opacity:1;fill-rule:nonzero;stroke:none"
         id="path242"
         inkscape:connector-curvature="0" />
    </g>
    <g
       id="g244"
       transform="matrix(1.25,0,0,-1.25,336.86084,159.53065)">
      <path
         d="M 0,0 C 0.286,-0.047 0.164,-0.484 -0.123,-0.433 -1.378,-0.204 -2.64,0.023 -3.896,0.263 -4.136,0.31 -4.03,0.66 -3.797,0.625 -2.529,0.427 -1.268,0.21 0,0"
         style="fill:#1c1c1b;fill-opacity:1;fill-rule:nonzero;stroke:none"
         id="path246"
         inkscape:connector-curvature="0" />
    </g>
    <g
       id="g248"
       transform="matrix(1.25,0,0,-1.25,333.21694,160.5744)">
      <path
         d="m 0,0 c 0.187,-0.053 0.105,-0.345 -0.082,-0.298 -1.08,0.263 -2.155,0.549 -3.224,0.835 -0.187,0.047 -0.111,0.327 0.076,0.28 C -2.155,0.549 -1.075,0.292 0,0"
         style="fill:#1c1c1b;fill-opacity:1;fill-rule:nonzero;stroke:none"
         id="path250"
         inkscape:connector-curvature="0" />
    </g>
    <g
       id="g252"
       transform="matrix(1.25,0,0,-1.25,333.15164,171.87803)">
      <path
         d="m 0,0 c 0.181,-0.018 0.181,-0.298 0,-0.28 -3.312,0.339 -6.624,0.718 -9.942,1.081 -0.129,0.011 -0.129,0.21 0,0.198 C -6.624,0.666 -3.312,0.356 0,0"
         style="fill:#1c1c1b;fill-opacity:1;fill-rule:nonzero;stroke:none"
         id="path254"
         inkscape:connector-curvature="0" />
    </g>
    <g
       id="g256"
       transform="matrix(1.25,0,0,-1.25,332.87394,99.115648)">
      <path
         d="m 0,0 c 0.228,-0.053 0.175,-0.45 -0.058,-0.415 -1.093,0.14 -2.179,0.392 -3.266,0.59 C -3.545,0.222 -3.446,0.549 -3.23,0.514 -2.155,0.35 -1.063,0.222 0,0"
         style="fill:#1c1c1b;fill-opacity:1;fill-rule:nonzero;stroke:none"
         id="path258"
         inkscape:connector-curvature="0" />
    </g>
    <g
       id="g260"
       transform="matrix(1.25,0,0,-1.25,332.41434,96.655898)">
      <path
         d="m 0,0 c 0.292,-0.029 0.292,-0.426 0,-0.455 -1.817,-0.182 -3.727,-0.047 -5.549,0 -0.293,0.006 -0.293,0.449 0,0.455 1.828,0.047 3.732,0.182 5.549,0"
         style="fill:#1c1c1b;fill-opacity:1;fill-rule:nonzero;stroke:none"
         id="path262"
         inkscape:connector-curvature="0" />
    </g>
    <g
       id="g264"
       transform="matrix(1.25,0,0,-1.25,275.86954,178.0109)">
      <path
         d="M 0,0 C 0.099,0.222 -0.181,0.386 -0.327,0.192 -1.145,-0.894 -1.799,-2.255 -2.395,-3.47 -2.465,-3.604 -2.284,-3.71 -2.196,-3.587 -1.425,-2.471 -0.555,-1.238 0,0 m 0.736,-0.678 c 0.146,0.245 -0.21,0.439 -0.374,0.222 -0.409,-0.566 -0.747,-1.191 -1.104,-1.787 -0.099,-0.164 0.14,-0.292 0.245,-0.147 0.421,0.562 0.871,1.117 1.233,1.712 m 10.158,-11.968 c 0.106,-0.141 0.327,-0.024 0.24,0.139 -0.438,0.813 -0.538,1.624 -0.392,2.524 0.053,0.309 -0.409,0.45 -0.479,0.134 -0.216,-0.969 0.041,-2.009 0.631,-2.797 m 1.752,-1.45 c 0.083,-0.163 0.363,-0.047 0.298,0.123 -0.519,1.373 -0.496,2.623 -0.444,4.054 0.012,0.274 -0.396,0.321 -0.467,0.065 -0.385,-1.391 0,-2.98 0.613,-4.242 m 2.991,-4.042 c 0.141,-0.298 1.221,-1.804 1.11,-2.114 -0.356,-0.993 -1.717,0.041 -2.482,0.42 -3.634,1.788 -6.572,4.562 -8.71,7.979 -0.187,0.292 -0.555,0.328 -0.806,0.106 -3.049,-2.658 -6.215,-5.147 -9.51,-7.494 -1.308,8.75 1.034,17.453 6.151,24.662 0.082,0.116 0.059,0.245 -0.017,0.345 4.264,-0.118 8.551,-0.106 12.816,0.057 -2.22,-6.349 -2.191,-13.446 -0.175,-19.848 0.438,-1.409 0.986,-2.781 1.623,-4.113"
         style="fill:#e83842;fill-opacity:1;fill-rule:nonzero;stroke:none"
         id="path266"
         inkscape:connector-curvature="0" />
    </g>
    <g
       id="g268"
       transform="matrix(1.25,0,0,-1.25,292.04994,195.47665)">
      <path
         d="m 0,0 c 0.064,-0.17 -0.216,-0.286 -0.298,-0.123 -0.613,1.262 -0.998,2.851 -0.613,4.241 0.07,0.257 0.479,0.21 0.467,-0.064 C -0.496,2.623 -0.52,1.373 0,0"
         style="fill:#1c1c1b;fill-opacity:1;fill-rule:nonzero;stroke:none"
         id="path270"
         inkscape:connector-curvature="0" />
    </g>
    <g
       id="g272"
       transform="matrix(1.25,0,0,-1.25,289.78684,193.6444)">
      <path
         d="M 0,0 C 0.087,-0.163 -0.134,-0.28 -0.24,-0.14 -0.83,0.648 -1.086,1.688 -0.871,2.658 -0.8,2.974 -0.339,2.833 -0.392,2.523 -0.538,1.624 -0.438,0.812 0,0"
         style="fill:#1c1c1b;fill-opacity:1;fill-rule:nonzero;stroke:none"
         id="path274"
         inkscape:connector-curvature="0" />
    </g>
    <g
       id="g276"
       transform="matrix(1.25,0,0,-1.25,287.14334,147.40902)">
      <path
         d="m 0,0 c 0.304,-0.035 0.315,-0.515 0,-0.485 -1.174,0.099 -2.313,0.099 -3.481,-0.077 -0.228,-0.035 -0.333,0.298 -0.094,0.351 C -2.407,0.046 -1.197,0.146 0,0"
         style="fill:#1c1c1b;fill-opacity:1;fill-rule:nonzero;stroke:none"
         id="path278"
         inkscape:connector-curvature="0" />
    </g>
    <g
       id="g280"
       transform="matrix(1.25,0,0,-1.25,285.31044,148.7604)">
      <path
         d="M 0,0 C 0.333,0.018 0.315,-0.468 0,-0.503 -1.343,-0.672 -2.728,-0.777 -4.083,-0.812 -4.299,-0.818 -4.352,-0.462 -4.13,-0.433 -2.769,-0.222 -1.373,-0.076 0,0"
         style="fill:#1c1c1b;fill-opacity:1;fill-rule:nonzero;stroke:none"
         id="path282"
         inkscape:connector-curvature="0" />
    </g>
    <g
       id="g284"
       transform="matrix(1.25,0,0,-1.25,276.32244,178.5809)">
      <path
         d="M 0,0 C 0.164,0.217 0.52,0.023 0.374,-0.222 0.012,-0.817 -0.438,-1.372 -0.859,-1.934 -0.964,-2.079 -1.204,-1.951 -1.104,-1.787 -0.748,-1.191 -0.409,-0.566 0,0"
         style="fill:#1c1c1b;fill-opacity:1;fill-rule:nonzero;stroke:none"
         id="path286"
         inkscape:connector-curvature="0" />
    </g>
    <g
       id="g288"
       transform="matrix(1.25,0,0,-1.25,275.46054,177.7704)">
      <path
         d="M 0,0 C 0.146,0.193 0.426,0.029 0.327,-0.192 -0.228,-1.431 -1.098,-2.663 -1.869,-3.779 -1.957,-3.902 -2.138,-3.797 -2.068,-3.662 -1.472,-2.447 -0.818,-1.086 0,0"
         style="fill:#1c1c1b;fill-opacity:1;fill-rule:nonzero;stroke:none"
         id="path290"
         inkscape:connector-curvature="0" />
    </g>
    <g
       id="g292"
       transform="matrix(1.25,0,0,-1.25,271.91934,178.87265)">
      <path
         d="m 0,0 -0.205,-0.444 c -0.052,-0.03 -0.11,-0.052 -0.181,-0.058 -8.136,-0.848 -16.7,-0.689 -24.82,0.286 -0.064,0.006 -0.116,0.035 -0.163,0.07 -0.012,0.005 -0.024,0.017 -0.029,0.023 -0.018,0.018 -0.035,0.035 -0.047,0.059 l -0.029,0.029 c -0.065,0.117 -0.105,0.245 -0.164,0.368 -0.006,0 -0.006,0 -0.011,0.006 -0.935,0.502 -2.074,-0.147 -2.495,-1.023 -0.484,-1.016 -0.181,-2.202 -0.011,-3.254 0.035,-0.221 -0.094,-0.39 -0.258,-0.455 -0.186,-0.07 -0.414,-0.011 -0.479,0.251 -0.361,1.426 -0.601,3.313 0.497,4.493 0.666,0.712 1.659,1.022 2.489,0.63 -0.287,0.847 -0.421,1.747 -0.404,2.641 0,0.052 0.024,0.093 0.053,0.122 -0.73,3.05 -0.911,6.455 -0.134,9.469 l 0.426,-0.065 c -0.064,-3.544 -0.053,-6.804 0.666,-10.338 0.047,-0.24 -0.122,-0.398 -0.304,-0.421 0.21,-0.665 0.456,-1.32 0.719,-1.98 C -16.683,0.111 -8.587,0.135 -0.386,0.315 -0.146,0.315 -0.029,0.169 0,0"
         style="fill:#1c1c1b;fill-opacity:1;fill-rule:nonzero;stroke:none"
         id="path294"
         inkscape:connector-curvature="0" />
    </g>
    <g
       id="g296"
       transform="matrix(1.25,0,0,-1.25,248.07904,183.31978)">
      <path
         d="m 0,0 c 0.21,-0.012 0.205,0.304 0,0.321 -1.647,0.147 -3.306,0.211 -4.959,0.298 -0.14,0.012 -0.134,-0.198 0,-0.21 C -3.312,0.263 -1.653,0.094 0,0 M 0.584,1.099 C 0.9,1.093 0.9,1.595 0.584,1.589 -0.484,1.565 -1.56,1.542 -2.628,1.519 -2.856,1.513 -2.856,1.174 -2.628,1.168 -1.56,1.146 -0.484,1.122 0.584,1.099 m 18.103,1.957 c 0.07,0.006 0.128,0.028 0.181,0.057 -0.619,-1.389 -1.128,-2.821 -1.542,-4.281 -4.597,0.094 -9.201,0.192 -13.798,0.28 -4.223,0.088 -8.674,0.567 -12.862,0 l -0.006,0.053 c 0.163,0.064 0.292,0.233 0.257,0.455 -0.169,1.052 -0.473,2.237 0.012,3.254 0.42,0.876 1.559,1.524 2.494,1.022 0.006,-0.005 0.006,-0.005 0.012,-0.005 0.058,-0.123 0.099,-0.251 0.163,-0.369 L -6.373,3.493 C -6.361,3.47 -6.343,3.452 -6.326,3.435 -6.32,3.429 -6.309,3.417 -6.297,3.411 -6.25,3.377 -6.197,3.348 -6.133,3.342 1.986,2.366 10.55,2.208 18.687,3.056"
         style="fill:#f9ca5f;fill-opacity:1;fill-rule:nonzero;stroke:none"
         id="path298"
         inkscape:connector-curvature="0" />
    </g>
    <g
       id="g300"
       transform="matrix(1.25,0,0,-1.25,248.80954,181.33365)">
      <path
         d="m 0,0 c 0.315,0.006 0.315,-0.496 0,-0.49 -1.069,0.023 -2.144,0.047 -3.213,0.069 -0.228,0.006 -0.228,0.345 0,0.351 C -2.144,-0.047 -1.069,-0.023 0,0"
         style="fill:#1c1c1b;fill-opacity:1;fill-rule:nonzero;stroke:none"
         id="path302"
         inkscape:connector-curvature="0" />
    </g>
    <g
       id="g304"
       transform="matrix(1.25,0,0,-1.25,248.07904,182.91815)">
      <path
         d="m 0,0 c 0.205,-0.018 0.21,-0.333 0,-0.321 -1.653,0.093 -3.312,0.262 -4.959,0.409 -0.134,0.012 -0.14,0.222 0,0.21 C -3.306,0.211 -1.647,0.146 0,0"
         style="fill:#1c1c1b;fill-opacity:1;fill-rule:nonzero;stroke:none"
         id="path306"
         inkscape:connector-curvature="0" />
    </g>
    <g
       id="g308"
       transform="matrix(1.25,0,0,-1.25,247.61204,162.30527)">
      <path
         d="M 0,0 C 0.31,0.088 0.42,-0.362 0.134,-0.473 -1.005,-0.911 -2.214,-1.256 -3.394,-1.565 -3.598,-1.618 -3.668,-1.332 -3.476,-1.25 -2.348,-0.788 -1.168,-0.333 0,0"
         style="fill:#1c1c1b;fill-opacity:1;fill-rule:nonzero;stroke:none"
         id="path310"
         inkscape:connector-curvature="0" />
    </g>
    <g
       id="g312"
       transform="matrix(1.25,0,0,-1.25,246.55314,161.68403)">
      <path
         d="M 0,0 C 0.193,0.04 0.327,-0.24 0.14,-0.327 -1.162,-0.952 -2.628,-1.35 -3.996,-1.8 -4.217,-1.876 -4.305,-1.537 -4.089,-1.455 -2.763,-0.946 -1.384,-0.333 0,0"
         style="fill:#1c1c1b;fill-opacity:1;fill-rule:nonzero;stroke:none"
         id="path314"
         inkscape:connector-curvature="0" />
    </g>
    <g
       transform="matrix(1.25,0,0,-1.25,64.841143,306.7783)"
       id="g326">
      <g
         id="g328"
         clip-path="url(#clipPath330)">
        <g
           id="g334"
           transform="translate(113.4746,198.9453)">
          <path
             d="M 0,0 C -0.019,-0.018 -0.027,-0.039 -0.042,-0.059 -19.167,5.854 -38.385,11.785 -57.814,16.663 -34.588,15.095 -11.362,13.443 11.88,12.168 8.202,7.812 4.195,3.871 0,0 m 0.419,-0.812 c -1.025,-4.956 -3.01,-9.447 -6.034,-13.454 -0.367,2.292 -0.513,4.578 -0.486,6.891 0.076,0.077 0.155,0.152 0.23,0.23 0.298,0.31 0.101,0.696 -0.205,0.805 0.005,0.153 0.005,0.305 0.012,0.457 0.513,-0.008 0.859,0.729 0.31,1.006 -12.757,6.418 -26.024,12.09 -39.562,16.86 15.028,-4.321 30.077,-8.56 45.013,-13.218 0.406,-0.127 0.676,0.166 0.723,0.493 0.012,0.005 0.024,0.013 0.037,0.017 -0.012,-0.03 -0.03,-0.052 -0.038,-0.087 m -7.596,-7.644 c -0.085,-2.315 0.114,-4.616 0.536,-6.926 -1.609,0.929 -3.301,1.929 -5.036,2.598 1.531,1.416 3.039,2.858 4.5,4.328 m -10.227,-8.456 C -32.28,-4.785 -48.4,6.024 -64.096,17.09 c 0.122,-0.009 0.243,-0.018 0.366,-0.026 19.487,-6.307 38.346,-13.71 56.809,-22.599 -0.063,-0.452 -0.116,-0.902 -0.157,-1.353 -3.58,-3.151 -7.047,-6.564 -10.326,-10.024 m 29.96,29.857 c -0.05,0.302 -0.26,0.584 -0.648,0.614 -26.24,2.033 -52.523,3.578 -78.784,5.313 -0.857,0.057 -0.992,-1.07 -0.403,-1.486 16.575,-11.707 32.72,-24.288 49.741,-35.333 0.358,-0.233 0.785,0.204 0.661,0.541 1.472,1.259 2.934,2.553 4.378,3.87 0.021,-0.019 0.036,-0.042 0.062,-0.058 1.758,-1.098 3.877,-1.853 5.801,-2.622 0.116,-0.047 0.217,-0.019 0.295,0.04 0.234,-0.169 0.589,-0.195 0.781,0.038 3.601,4.392 5.999,9.451 6.97,15.053 0.067,0.391 -0.264,0.646 -0.565,0.64 4.703,3.585 8.869,7.924 12.553,12.534 0.474,0.593 -0.346,1.439 -0.842,0.856"
             style="fill:#1c1c1b;fill-opacity:1;fill-rule:nonzero;stroke:none"
             id="path336"
             inkscape:connector-curvature="0" />
        </g>
        <g
           id="g338"
           transform="translate(52.8882,90.2969)">
          <path
             d="m 0,0 c 16.57,5.129 33.078,12.115 48.762,19.279 0.113,0.051 0.177,0.137 0.217,0.232 2.854,-2.834 5.442,-5.833 8.109,-8.825 C 38.169,6.553 19.13,2.998 0,0 m -4.189,-0.654 c 16.835,7.813 33.001,17.518 48.481,27.667 1.146,-2.248 2.435,-4.428 3.678,-6.622 0.061,-0.108 0.146,-0.163 0.236,-0.192 C 31.019,13.367 13.457,6.886 -3.48,-0.544 -3.716,-0.58 -3.953,-0.619 -4.189,-0.654 m 62.71,11.174 c -2.479,3.704 -5.852,7.081 -9.237,9.955 -0.164,0.139 -0.348,0.131 -0.497,0.056 0.023,0.095 0.017,0.2 -0.046,0.311 -1.267,2.207 -2.498,4.448 -3.866,6.596 0.382,0.471 -0.152,1.281 -0.746,0.901 C 27.643,17.774 10.583,8.476 -6.513,-1.013 -6.531,-1.016 -6.548,-1.018 -6.566,-1.021 7.41,11.831 21.573,24.529 35.147,37.804 c 0.85,-1.423 2.291,-2.616 3.398,-3.784 1.666,-1.757 3.307,-3.546 5.03,-5.249 0.516,-0.508 1.268,0.258 0.791,0.791 -1.535,1.715 -3.155,3.356 -4.745,5.02 -1.347,1.408 -2.78,3.421 -4.57,4.241 -0.142,0.066 -0.379,-0.048 -0.304,-0.233 0.019,-0.047 0.045,-0.091 0.066,-0.137 C 34.801,38.444 34.788,38.441 34.776,38.432 19.821,25.486 5.439,11.848 -9.123,-1.537 c -0.548,-0.505 0.053,-1.217 0.658,-1.129 22.204,3.243 44.273,7.257 66.194,12.052 0.268,0.058 0.409,0.227 0.466,0.424 0.29,0.077 0.528,0.406 0.326,0.71"
             style="fill:#1c1c1b;fill-opacity:1;fill-rule:nonzero;stroke:none"
             id="path340"
             inkscape:connector-curvature="0" />
        </g>
        <g
           id="g342"
           transform="translate(445.1055,228.9629)">
          <path
             d="m 0,0 c -21.873,-10.056 -44.062,-20.422 -64.649,-32.89 -0.007,0.025 -0.003,0.047 -0.014,0.073 -1.679,4.022 -4.273,7.89 -7.468,10.899 24.624,5.806 48.841,13.837 72.617,22.451 C 0.323,0.355 0.162,0.177 0,0 m -3.253,-3.563 c -19.102,-12.27 -38.134,-24.791 -56.803,-37.708 -0.264,0.236 -0.682,-0.038 -0.518,-0.401 -0.001,-0.002 -0.001,-0.004 -0.002,-0.006 -0.15,0.273 -0.594,0.358 -0.789,0.027 -1.053,-1.773 -1.932,-3.462 -3.139,-5.073 -0.22,4.381 -0.284,8.763 -0.385,13.149 0.075,-0.033 0.158,-0.048 0.251,-10e-4 21.029,10.362 41.591,21.523 62.788,31.553 -0.469,-0.512 -0.934,-1.028 -1.403,-1.54 m -47.676,-52.908 c -2.44,4.98 -5.48,10.057 -8.676,14.585 18.007,11.368 35.811,23.175 53.443,35.135 -15.042,-16.462 -29.908,-33.097 -44.767,-49.72 m -13.038,8.608 c 1.467,1.717 2.779,3.623 3.404,5.802 0.056,-0.096 0.147,-0.171 0.259,-0.182 0.552,-1.175 1.138,-2.357 1.746,-3.537 -1.777,-0.783 -3.586,-1.435 -5.409,-2.083 M 2.624,1.172 c 0.082,0.094 0.165,0.186 0.247,0.279 0.343,0.391 0.023,1.163 -0.555,0.953 -24.707,-9.013 -49.832,-16.355 -75.045,-23.765 -0.066,0.057 -0.127,0.122 -0.194,0.179 -0.21,0.182 -0.604,-0.064 -0.414,-0.32 0.008,-0.011 0.016,-0.021 0.024,-0.031 -0.003,-10e-4 -0.005,-0.002 -0.008,-0.003 -0.405,-0.118 -0.237,-0.726 0.174,-0.63 0.083,0.019 0.165,0.041 0.248,0.061 2.653,-3.603 5.022,-7.211 7.15,-11.17 0.069,-0.128 0.176,-0.202 0.293,-0.241 -0.381,-4.885 -0.312,-9.782 -0.074,-14.673 0.006,-0.124 0.056,-0.235 0.131,-0.326 -0.033,-0.143 0.027,-0.304 0.211,-0.284 2.459,0.278 4.846,1.096 7.088,2.141 1.997,-3.795 4.248,-7.554 6.616,-10.967 0.211,-0.305 0.55,-0.282 0.756,-0.104 0.2,-0.062 0.422,-0.033 0.61,0.174 16.188,17.859 32.401,35.72 48.362,53.785 0.126,0.086 0.253,0.171 0.379,0.257 0.157,0.108 0.214,0.26 0.213,0.411 0.711,0.805 1.428,1.604 2.138,2.411 0.669,0.312 1.332,0.634 2.003,0.944 0.54,0.25 0.163,0.985 -0.353,0.919"
             style="fill:#1c1c1b;fill-opacity:1;fill-rule:nonzero;stroke:none"
             id="path344"
             inkscape:connector-curvature="0" />
        </g>
        <g
           id="g346"
           transform="translate(407.3447,90.1592)">
          <path
             d="M 0,0 C 3.15,2.628 6.118,5.476 8.892,8.499 8.975,8.589 9.008,8.687 9.021,8.784 20.85,1.255 34.733,-2.715 48.114,-6.556 32.004,-4.859 16.002,-2.507 0,0 m 12.735,15.427 c 1.909,2.321 3.757,4.737 5.443,7.232 C 26.521,12.478 38.073,5.653 47.04,-3.868 35.773,2.759 24.298,9.423 12.735,15.427 M 51.415,-7.04 c -9.336,11.895 -23.029,19.234 -32.49,30.992 -0.025,0.208 -0.191,0.391 -0.388,0.45 -0.528,0.567 -1.351,-0.224 -1.02,-0.891 -1.996,-2.6 -3.845,-5.352 -5.56,-8.135 C 11.94,15.348 11.951,15.32 11.945,15.292 11.821,15.078 11.84,14.78 12.112,14.596 23.332,6.965 35.95,0.222 48.313,-5.468 35.792,-1.749 23.665,2.278 12.001,8.13 c 0.028,0.06 0.044,0.13 0.043,0.211 -0.022,1.99 -0.044,4.017 -0.222,6 -0.03,0.347 -0.509,0.348 -0.541,0 C 11.112,12.446 11.084,10.512 11.063,8.606 10.413,8.938 9.759,9.252 9.111,9.596 8.875,9.723 8.664,9.583 8.594,9.394 8.444,9.427 8.282,9.397 8.141,9.249 5.159,6.124 2.075,3.116 -1.081,0.168 c -0.058,0.009 -0.116,0.018 -0.174,0.027 -0.491,0.077 -0.714,-0.659 -0.21,-0.759 17.322,-3.45 34.89,-5.728 52.455,-7.499 0.581,-0.059 0.705,0.666 0.425,1.023"
             style="fill:#1c1c1b;fill-opacity:1;fill-rule:nonzero;stroke:none"
             id="path348"
             inkscape:connector-curvature="0" />
        </g>
        <g
           id="g350"
           transform="translate(139.8921,171.0146)">
          <path
             d="m 0,0 c -2.93,-2.938 -9.389,-7.327 -13.048,-2.781 -1.734,0.927 -1.899,2.379 -0.497,4.352 -0.248,1.921 0.345,3.383 1.78,4.387 1.237,1.297 3.142,2.175 4.767,2.832 2.951,1.191 6.193,1.623 9.341,1.141 C 3.457,6.419 2.807,2.813 0,0 m 18.332,-3.862 c -1.59,7.693 -7.404,13.656 -14.689,15.301 -3.709,8.707 -14.196,13.298 -23.342,10.858 -0.486,-0.13 -0.273,-0.818 0.204,-0.739 8.285,1.382 16.474,-1.61 20.742,-9.133 0.122,-0.215 0.232,-0.431 0.34,-0.648 -1.591,0.174 -3.232,0.165 -4.906,-0.094 C -9.863,10.667 -23.206,1.161 -13.296,-5.038 -6.053,-9.569 6.084,-0.858 4.821,7.315 4.705,8.064 4.54,8.791 4.335,9.497 10.808,7.65 15.256,2.118 16.623,-4.333 c 0.237,-1.116 1.939,-0.643 1.709,0.471"
             style="fill:#1c1c1b;fill-opacity:1;fill-rule:nonzero;stroke:none"
             id="path352"
             inkscape:connector-curvature="0" />
        </g>
        <g
           id="g354"
           transform="translate(123.7524,126.5381)">
          <path
             d="m 0,0 c 2.526,-1.706 5.616,-5.783 4.919,-9.121 -1.258,-1.81 -2.517,-3.618 -3.775,-5.427 -1.299,0.399 -2.598,0.797 -3.896,1.195 -1.556,1.117 -2.18,4.752 -2.144,6.392 0.062,2.811 1.256,5.524 3.139,7.893 C -1.118,0.664 -0.523,0.354 0,0 M 26.173,2.143 C 22.521,13.703 7.597,11.501 -0.047,5.506 -1.102,4.679 -2.072,3.74 -2.929,2.714 c -6.453,1.673 -14.89,-0.38 -13.266,-8.347 0.092,-0.451 0.863,-0.358 0.815,0.111 -0.708,6.798 6.193,8.408 11.586,7.114 -1.623,-2.293 -2.678,-4.959 -2.827,-7.836 -0.2,-3.86 1.396,-9.224 5.787,-9.986 3.655,-0.636 6.555,2.368 7.175,5.761 C 7.106,-6.282 4.939,-2.103 1.75,0.489 1.019,1.084 0.138,1.591 -0.833,2.004 6.299,9.718 20.68,12.935 24.552,1.696 24.901,0.683 26.501,1.103 26.173,2.143"
             style="fill:#1c1c1b;fill-opacity:1;fill-rule:nonzero;stroke:none"
             id="path356"
             inkscape:connector-curvature="0" />
        </g>
        <g
           id="g358"
           transform="translate(363.9307,162.6641)">
          <path
             d="m 0,0 c 2.718,-0.192 11.108,-2.174 4.47,-7.927 -3.713,-3.216 -10.951,0.563 -12.07,4.382 -0.19,0.652 -0.29,1.328 -0.34,2.01 1.037,0.467 2.117,0.842 3.237,1.102 C -3.168,-0.074 -1.577,0.112 0,0 M 9.973,17.555 C 0.919,17.351 -7.997,10.817 -9.443,1.542 -9.55,0.859 -9.596,0.198 -9.595,-0.442 c -7.46,-3.879 -12.109,-12.335 -13.911,-20.478 -0.212,-0.957 1.15,-1.328 1.464,-0.403 2.031,5.974 4.126,11.932 8.901,16.334 1.13,1.041 2.371,1.945 3.699,2.693 1.201,-7.224 9.343,-10.755 16.435,-6.317 2.776,1.736 3.291,4.585 1.084,7.091 -2.574,2.923 -7.519,3.563 -11.129,3.127 -1.739,-0.21 -3.36,-0.667 -4.887,-1.286 0.177,2.082 0.87,4.156 1.832,5.914 3.28,5.998 9.369,9.568 16.08,10.197 0.708,0.066 0.736,1.142 0,1.125"
             style="fill:#1c1c1b;fill-opacity:1;fill-rule:nonzero;stroke:none"
             id="path360"
             inkscape:connector-curvature="0" />
        </g>
        <g
           id="g362"
           transform="translate(396.1963,112.6963)">
          <path
             d="M 0,0 C -1.312,-2.185 -4.291,-2.984 -6.468,-1.757 -6.482,-1.702 -6.49,-1.649 -6.521,-1.592 -9.452,3.83 -5.808,7.362 -1.217,8.473 0.258,5.934 1.708,2.845 0,0 M 16.456,-2.513 C 15.04,4.777 8.455,10.75 0.842,10.569 0.203,10.555 -0.436,10.476 -1.063,10.343 c -12.639,8.941 -30.642,4.044 -37.652,-9.785 -0.372,-0.735 0.688,-1.37 1.111,-0.651 7.62,12.938 22.246,16.496 35.119,10.035 -5.014,-1.769 -8.736,-7.004 -5.087,-12.148 0.132,-0.186 0.308,-0.26 0.484,-0.268 2.191,-1.959 5.822,-1.094 7.663,1.079 2.386,2.818 1.62,7.337 -0.537,10.108 1.893,0.268 3.856,0.142 5.528,-0.421 5.047,-1.7 8.455,-6.104 9.819,-11.1 0.19,-0.697 1.207,-0.399 1.071,0.295"
             style="fill:#1c1c1b;fill-opacity:1;fill-rule:nonzero;stroke:none"
             id="path364"
             inkscape:connector-curvature="0" />
        </g>
      </g>
    </g>
    <g
       transform="matrix(1.25,0,0,1.25,64.841143,306.7783)"
       style="font-style:normal;font-weight:normal;font-size:20px;line-height:100%;font-family:sans-serif;letter-spacing:0px;word-spacing:0px;fill:#000000;fill-opacity:1;stroke:none;stroke-width:1px;stroke-linecap:butt;stroke-linejoin:miter;stroke-opacity:1"
       id="text15227">
      <path
         inkscape:connector-curvature="0"
         d="m 200.94188,-227.69674 q 0.86,0 1.54,0.32 0.68,0.32 0.68,0.76 0,0.34 -0.28,0.58 -0.28,0.22 -0.72,0.3 -0.44,0.08 -0.7,0.1 -0.24,0.02 -0.46,0.02 -1.3,0 -2.92,0.34 l -1.36,0.3 0.26,1.38 q 0.24,1.5 0.56,5.78 0.32,4.28 0.38,4.72 0.06,0.36 0.06,0.7 0,0.96 -0.82,0.96 -0.38,0 -0.62,-0.26 -0.22,-0.26 -0.42,-1.04 -0.18,-0.78 -0.3,-1.92 -0.1,-1.16 -0.24,-3.22 -0.14,-2.04 -0.34,-3.62 -0.18,-1.58 -0.36,-2.32 -0.16,-0.74 -0.3,-0.84 -0.12,-0.08 -0.36,-0.08 -0.16,0 -1.42,0.2 -1.26,0.2 -2,0.2 -0.46,0 -1.32,0.16 -0.86,0.14 -1.2,0.14 -0.56,0 -0.94,-0.24 -0.38,-0.26 -0.38,-0.64 0,-0.46 0.58,-0.66 0.48,-0.16 4.06,-0.68 3.2,-0.46 6.34,-1.02 2.46,-0.42 3,-0.42 z"
         style="font-style:normal;font-variant:normal;font-weight:bold;font-stretch:normal;font-size:20px;line-height:100%;font-family:Purisa;-inkscape-font-specification:'Purisa Bold';text-align:center;letter-spacing:-1.66400003px;text-anchor:middle"
         id="path15236" />
      <path
         inkscape:connector-curvature="0"
         d="m 205.27319,-221.37674 q 1.68,-1.44 2.86,-1.9 1.2,-0.46 3,-0.46 2.78,0 3.48,1.56 0.4,0.88 0.4,2.18 0,2.06 -1,4.2 -0.98,2.14 -2.5,3 -1.48,0.82 -3.14,0.82 -2.44,0 -3.72,-1.44 -0.9,-1 -1.18,-1.7 -0.26,-0.72 -0.26,-1.98 0,-2.5 2.06,-4.28 z m 3.62,7.74 q 1.64,0 3.02,-2.08 1.4,-2.1 1.4,-4.76 0,-0.28 -0.06,-0.44 -0.04,-0.16 -0.1,-0.22 -0.06,-0.08 -0.22,-0.2 -0.72,-0.52 -1.52,-0.52 -0.12,0 -0.34,0.04 -0.2,0.02 -0.62,0.08 -0.4,0.04 -0.88,0.08 -0.66,0.06 -1.08,0.26 -0.4,0.18 -1.04,0.72 -1.2,1.02 -1.72,1.88 -0.5,0.84 -0.5,1.84 0,1.46 1.02,2.4 1.02,0.92 2.64,0.92 z"
         style="font-style:normal;font-variant:normal;font-weight:bold;font-stretch:normal;font-size:20px;line-height:100%;font-family:Purisa;-inkscape-font-specification:'Purisa Bold';text-align:center;letter-spacing:-1.66400003px;text-anchor:middle"
         id="path15238" />
      <path
         inkscape:connector-curvature="0"
         d="m 223.11169,-220.59674 q -1.16,-0.68 -1.58,-0.68 -0.28,0 -1.72,1.18 -1.44,1.18 -1.74,1.8 -0.18,0.36 -0.18,1.54 0,1.34 0.24,1.74 0.18,0.28 0.94,0.64 0.78,0.36 1.48,0.36 1.34,0 3.48,-1.8 1.5,-1.26 1.66,-1.74 0,-0.5 -0.84,-1.5 -0.82,-1 -1.74,-1.54 z m 2.9,5.32 q -0.02,0.02 -0.42,0.44 -0.38,0.4 -0.86,0.8 -0.46,0.4 -1.12,0.86 -0.64,0.46 -1.5,0.74 -0.86,0.28 -1.74,0.28 -0.76,0 -1.66,-0.3 -2.82,-0.96 -2.82,-3.96 0,-1.22 0.42,-2.32 0.44,-1.12 1.1,-1.9 0.68,-0.8 1.46,-1.38 0.8,-0.58 1.54,-0.86 0.74,-0.3 1.28,-0.3 0.62,0 1.98,0.72 1.36,0.72 1.92,1.38 0.32,0.4 0.48,0.52 0.08,-0.7 0.14,-5.44 0.06,-4.76 0.26,-5.24 0.32,-0.78 1.02,-0.78 l 0.8,0 -0.16,8.48 q -0.06,2.92 -0.06,5.22 0,3.1 0.14,4.44 0.14,1.32 0.14,1.46 0,0.42 -0.22,0.86 -0.22,0.44 -0.74,0.44 -0.64,0 -0.9,-0.74 -0.26,-0.72 -0.34,-1.92 -0.06,-1.2 -0.14,-1.5 z"
         style="font-style:normal;font-variant:normal;font-weight:bold;font-stretch:normal;font-size:20px;line-height:100%;font-family:Purisa;-inkscape-font-specification:'Purisa Bold';text-align:center;letter-spacing:-1.66400003px;text-anchor:middle"
         id="path15240" />
      <path
         inkscape:connector-curvature="0"
         d="m 235.45926,-214.65674 q 0,-0.24 0.66,-0.8 0.66,-0.56 0.68,-0.72 0,-0.08 -0.12,-0.22 -0.12,-0.14 -0.64,-0.32 -0.5,-0.18 -1.32,-0.18 -0.88,0 -1.54,0.26 -0.64,0.26 -0.96,0.64 -0.32,0.38 -0.46,0.7 -0.14,0.32 -0.14,0.56 0,0.4 0.06,0.52 0.08,0.1 0.38,0.24 0.46,0.18 0.74,0.18 0.44,0 1.1,-0.22 0.66,-0.22 1.12,-0.42 l 0.44,-0.22 z m 3.6,1.28 q -0.04,0.46 -0.36,0.8 -0.3,0.32 -0.5,0.32 -0.12,0 -0.24,-0.04 -0.1,-0.04 -0.2,-0.14 -0.08,-0.12 -0.16,-0.2 -0.06,-0.1 -0.12,-0.28 -0.04,-0.18 -0.08,-0.28 -0.04,-0.12 -0.08,-0.34 -0.04,-0.22 -0.06,-0.32 0,-0.1 -0.04,-0.32 -0.04,-0.22 -0.04,-0.28 -0.64,0.74 -1.9,1.44 -1.24,0.68 -2.12,0.68 -0.56,0 -1.34,-0.18 -0.78,-0.18 -1.14,-0.44 -0.62,-0.46 -0.62,-1.96 0,-0.88 0.5,-1.52 0.5,-0.64 1.8,-1.28 1.46,-0.74 2.74,-0.74 0.56,0 0.92,0.14 0.38,0.14 0.58,0.34 0.22,0.18 0.24,0.18 0.32,0.06 0.56,0.26 0,-1.32 -0.12,-2.2 -0.1,-0.9 -0.3,-1.32 -0.2,-0.42 -0.4,-0.58 -0.2,-0.16 -0.48,-0.16 -0.96,0 -2.08,0.38 -1.1,0.38 -2,0.78 -0.88,0.38 -1.28,0.38 -0.5,0 -0.5,-0.46 0,-0.28 0.12,-0.5 0.12,-0.24 0.28,-0.4 0.18,-0.16 0.54,-0.32 0.38,-0.18 0.68,-0.28 0.32,-0.12 0.92,-0.32 0.6,-0.22 1.04,-0.38 1.2,-0.42 2.1,-0.42 1.62,0 2.42,1.52 0.36,0.68 0.42,1.24 0.08,0.56 0.12,3.26 0.04,2.54 0.18,3.94 z"
         style="font-style:normal;font-variant:normal;font-weight:bold;font-stretch:normal;font-size:20px;line-height:100%;font-family:Purisa;-inkscape-font-specification:'Purisa Bold';text-align:center;letter-spacing:-1.66400003px;text-anchor:middle"
         id="path15242" />
      <path
         inkscape:connector-curvature="0"
         d="m 251.82938,-214.25674 q 0,-1.62 -0.4,-6.44 -0.38,-4.84 -0.38,-6.28 0,-1.14 0.16,-1.38 0.34,-0.56 0.7,-0.56 0.54,0 0.68,0.84 0.16,0.82 0.4,4.36 0.14,1.9 0.22,3.1 l 0.1,1.38 q 0.58,-1 2.28,-2.42 1.72,-1.44 2.4,-1.44 0.68,0 1.34,0.58 0.66,0.58 0.86,1.28 0.18,0.62 0.18,4.7 l 0,0.42 q 0,3.9 -0.8,3.9 -0.42,0 -0.54,-0.62 -0.1,-0.62 -0.16,-2.56 -0.02,-0.64 -0.04,-1 -0.12,-3.8 -0.52,-4.86 l -0.22,-0.62 -0.96,0.8 q -1.02,0.84 -1.84,1.94 -0.82,1.1 -1.12,1.94 -0.14,0.5 -0.3,1.94 -0.14,1.44 -0.38,2.4 -0.24,0.96 -0.7,0.96 -0.2,0 -0.5,-0.24 -0.46,-0.36 -0.46,-2.12 z"
         style="font-style:normal;font-variant:normal;font-weight:bold;font-stretch:normal;font-size:20px;line-height:100%;font-family:Purisa;-inkscape-font-specification:'Purisa Bold';text-align:center;letter-spacing:-1.66400003px;text-anchor:middle"
         id="path15244" />
      <path
         inkscape:connector-curvature="0"
         d="m 262.44225,-223.75674 q 0.34,-0.24 0.66,-0.24 0.32,0 0.54,0.26 0.32,0.6 0.52,3.48 0.22,2.88 0.22,5.38 0,1.8 -0.12,2.04 -0.4,0.32 -0.86,0.32 -0.7,0 -0.86,-0.42 -0.1,-0.32 -0.32,-4.16 -0.2,-3.86 -0.2,-5.16 0,-1.22 0.42,-1.5 z m -0.22,-4.68 q 0.04,-0.38 0.32,-0.62 0.3,-0.24 0.58,-0.24 0.28,0 0.72,0.26 0.44,0.26 0.44,0.7 0,0.48 -0.24,0.86 -0.24,0.38 -0.64,0.38 -0.42,0 -0.8,-0.38 -0.38,-0.4 -0.38,-0.96 z"
         style="font-style:normal;font-variant:normal;font-weight:bold;font-stretch:normal;font-size:20px;line-height:100%;font-family:Purisa;-inkscape-font-specification:'Purisa Bold';text-align:center;letter-spacing:-1.66400003px;text-anchor:middle"
         id="path15246" />
      <path
         inkscape:connector-curvature="0"
         d="m 266.13294,-213.69674 q 0,-0.34 0.18,-0.58 0.18,-0.26 0.44,-0.26 0.5,0 0.88,0.7 0.22,0.42 0.96,0.8 0.74,0.36 1.38,0.36 0.8,0 1.46,-0.88 0.68,-0.9 0.68,-1.38 0,-0.08 -0.06,-0.22 -0.06,-0.16 -0.34,-0.42 -0.26,-0.26 -0.68,-0.38 -0.68,-0.2 -1.48,-0.5 -0.8,-0.32 -1.18,-0.4 -0.6,-0.12 -1.58,-0.84 -0.98,-0.72 -0.98,-1.52 0,-0.8 1.14,-2.06 1.14,-1.26 2.82,-1.62 l 2,-0.18 q 0.54,0 0.82,0.14 0.28,0.12 0.7,0.6 0.68,0.78 0.68,1.14 0,0.5 -0.52,0.5 -0.44,0 -0.9,-0.46 -0.44,-0.48 -1.1,-0.48 -0.9,0 -1.88,0.52 -0.96,0.5 -1.52,1.06 -0.56,0.54 -0.56,0.78 0,0.16 0.22,0.38 0.24,0.2 0.78,0.48 0.56,0.28 1.32,0.5 2.1,0.62 2.9,1.22 0.8,0.6 0.8,1.68 0,0.94 -0.34,1.7 -0.28,0.66 -1.1,1.36 -0.82,0.72 -1.68,0.72 -0.62,0 -1.62,-0.18 -0.98,-0.16 -1.52,-0.4 -0.44,-0.22 -0.78,-0.78 -0.34,-0.58 -0.34,-1.1 z"
         style="font-style:normal;font-variant:normal;font-weight:bold;font-stretch:normal;font-size:20px;line-height:100%;font-family:Purisa;-inkscape-font-specification:'Purisa Bold';text-align:center;letter-spacing:-1.66400003px;text-anchor:middle"
         id="path15248" />
      <path
         inkscape:connector-curvature="0"
         d="m 278.72738,-223.29674 q -0.64,0.04 -1.76,0.24 -1.1,0.18 -1.48,0.18 -0.86,0 -0.86,-0.68 0,-0.54 0.76,-0.82 0.76,-0.28 1.8,-0.44 1.06,-0.16 1.36,-0.32 0.16,-0.16 0.16,-0.86 0,-0.72 -0.18,-1.88 -0.18,-1.16 -0.18,-2.1 0,-0.64 0.34,-0.94 0.34,-0.32 0.74,-0.32 0.44,0 0.62,0.36 0.1,0.3 0.34,2.62 0.24,2.3 0.3,2.66 0.16,-0.02 1.06,-0.16 0.92,-0.16 1.4,-0.16 0.68,0 0.96,0.22 0.28,0.22 0.28,0.48 0,0.38 -0.52,0.64 -0.52,0.26 -1.88,0.6 l -1.14,0.18 0.16,3.04 q 0.16,2.82 0.56,5.28 0.4,2.46 0.4,2.84 0,0.88 -0.92,0.88 -0.54,0 -0.8,-0.2 -0.6,-0.54 -0.6,-2.26 0,-0.7 -0.08,-1.42 -0.08,-0.74 -0.28,-2.28 -0.18,-1.56 -0.34,-3.22 -0.2,-2.08 -0.22,-2.16 z"
         style="font-style:normal;font-variant:normal;font-weight:bold;font-stretch:normal;font-size:20px;line-height:100%;font-family:Purisa;-inkscape-font-specification:'Purisa Bold';text-align:center;letter-spacing:-1.66400003px;text-anchor:middle"
         id="path15250" />
      <path
         inkscape:connector-curvature="0"
         d="m 287.15651,-221.37674 q 1.68,-1.44 2.86,-1.9 1.2,-0.46 3,-0.46 2.78,0 3.48,1.56 0.4,0.88 0.4,2.18 0,2.06 -1,4.2 -0.98,2.14 -2.5,3 -1.48,0.82 -3.14,0.82 -2.44,0 -3.72,-1.44 -0.9,-1 -1.18,-1.7 -0.26,-0.72 -0.26,-1.98 0,-2.5 2.06,-4.28 z m 3.62,7.74 q 1.64,0 3.02,-2.08 1.4,-2.1 1.4,-4.76 0,-0.28 -0.06,-0.44 -0.04,-0.16 -0.1,-0.22 -0.06,-0.08 -0.22,-0.2 -0.72,-0.52 -1.52,-0.52 -0.12,0 -0.34,0.04 -0.2,0.02 -0.62,0.08 -0.4,0.04 -0.88,0.08 -0.66,0.06 -1.08,0.26 -0.4,0.18 -1.04,0.72 -1.2,1.02 -1.72,1.88 -0.5,0.84 -0.5,1.84 0,1.46 1.02,2.4 1.02,0.92 2.64,0.92 z"
         style="font-style:normal;font-variant:normal;font-weight:bold;font-stretch:normal;font-size:20px;line-height:100%;font-family:Purisa;-inkscape-font-specification:'Purisa Bold';text-align:center;letter-spacing:-1.66400003px;text-anchor:middle"
         id="path15252" />
      <path
         inkscape:connector-curvature="0"
         d="m 305.43501,-222.11674 q 0.38,0 0.66,0.18 0.28,0.16 0.36,0.32 0.1,0.16 0.1,0.28 0,0.4 -0.92,0.74 -1.22,0.46 -2.66,2.26 -1.42,1.8 -1.72,3.38 -0.38,2.02 -0.64,2.68 -0.26,0.68 -0.76,0.68 -0.2,0 -0.36,-0.06 -0.14,-0.04 -0.24,-0.18 -0.1,-0.14 -0.16,-0.24 -0.06,-0.1 -0.12,-0.32 -0.04,-0.24 -0.06,-0.34 0,-0.12 -0.04,-0.38 -0.02,-0.28 -0.02,-0.34 -0.48,-4.68 -0.48,-7.86 0,-0.66 0.08,-1.02 0.08,-0.38 0.4,-0.66 0.2,-0.18 0.44,-0.18 0.26,0 0.44,0.22 0.18,0.2 0.18,0.54 0,0.74 0.2,2.1 0.22,1.34 0.4,2.1 0.16,-0.22 0.46,-0.68 0.76,-1.24 2.12,-2.22 1.36,-1 2.34,-1 z"
         style="font-style:normal;font-variant:normal;font-weight:bold;font-stretch:normal;font-size:20px;line-height:100%;font-family:Purisa;-inkscape-font-specification:'Purisa Bold';text-align:center;letter-spacing:-1.66400003px;text-anchor:middle"
         id="path15254" />
      <path
         inkscape:connector-curvature="0"
         d="m 308.65351,-223.75674 q 0.34,-0.24 0.66,-0.24 0.32,0 0.54,0.26 0.32,0.6 0.52,3.48 0.22,2.88 0.22,5.38 0,1.8 -0.12,2.04 -0.4,0.32 -0.86,0.32 -0.7,0 -0.86,-0.42 -0.1,-0.32 -0.32,-4.16 -0.2,-3.86 -0.2,-5.16 0,-1.22 0.42,-1.5 z m -0.22,-4.68 q 0.04,-0.38 0.32,-0.62 0.3,-0.24 0.58,-0.24 0.28,0 0.72,0.26 0.44,0.26 0.44,0.7 0,0.48 -0.24,0.86 -0.24,0.38 -0.64,0.38 -0.42,0 -0.8,-0.38 -0.38,-0.4 -0.38,-0.96 z"
         style="font-style:normal;font-variant:normal;font-weight:bold;font-stretch:normal;font-size:20px;line-height:100%;font-family:Purisa;-inkscape-font-specification:'Purisa Bold';text-align:center;letter-spacing:-1.66400003px;text-anchor:middle"
         id="path15256" />
      <path
         inkscape:connector-curvature="0"
         d="m 317.94419,-214.65674 q 0,-0.24 0.66,-0.8 0.66,-0.56 0.68,-0.72 0,-0.08 -0.12,-0.22 -0.12,-0.14 -0.64,-0.32 -0.5,-0.18 -1.32,-0.18 -0.88,0 -1.54,0.26 -0.64,0.26 -0.96,0.64 -0.32,0.38 -0.46,0.7 -0.14,0.32 -0.14,0.56 0,0.4 0.06,0.52 0.08,0.1 0.38,0.24 0.46,0.18 0.74,0.18 0.44,0 1.1,-0.22 0.66,-0.22 1.12,-0.42 l 0.44,-0.22 z m 3.6,1.28 q -0.04,0.46 -0.36,0.8 -0.3,0.32 -0.5,0.32 -0.12,0 -0.24,-0.04 -0.1,-0.04 -0.2,-0.14 -0.08,-0.12 -0.16,-0.2 -0.06,-0.1 -0.12,-0.28 -0.04,-0.18 -0.08,-0.28 -0.04,-0.12 -0.08,-0.34 -0.04,-0.22 -0.06,-0.32 0,-0.1 -0.04,-0.32 -0.04,-0.22 -0.04,-0.28 -0.64,0.74 -1.9,1.44 -1.24,0.68 -2.12,0.68 -0.56,0 -1.34,-0.18 -0.78,-0.18 -1.14,-0.44 -0.62,-0.46 -0.62,-1.96 0,-0.88 0.5,-1.52 0.5,-0.64 1.8,-1.28 1.46,-0.74 2.74,-0.74 0.56,0 0.92,0.14 0.38,0.14 0.58,0.34 0.22,0.18 0.24,0.18 0.32,0.06 0.56,0.26 0,-1.32 -0.12,-2.2 -0.1,-0.9 -0.3,-1.32 -0.2,-0.42 -0.4,-0.58 -0.2,-0.16 -0.48,-0.16 -0.96,0 -2.08,0.38 -1.1,0.38 -2,0.78 -0.88,0.38 -1.28,0.38 -0.5,0 -0.5,-0.46 0,-0.28 0.12,-0.5 0.12,-0.24 0.28,-0.4 0.18,-0.16 0.54,-0.32 0.38,-0.18 0.68,-0.28 0.32,-0.12 0.92,-0.32 0.6,-0.22 1.04,-0.38 1.2,-0.42 2.1,-0.42 1.62,0 2.42,1.52 0.36,0.68 0.42,1.24 0.08,0.56 0.12,3.26 0.04,2.54 0.18,3.94 z"
         style="font-style:normal;font-variant:normal;font-weight:bold;font-stretch:normal;font-size:20px;line-height:100%;font-family:Purisa;-inkscape-font-specification:'Purisa Bold';text-align:center;letter-spacing:-1.66400003px;text-anchor:middle"
         id="path15258" />
      <path
         inkscape:connector-curvature="0"
         d="m 178.16388,-202.81674 q 0,-1.04 0.66,-1.04 0.44,0.02 0.58,0.54 0.14,0.52 0.4,2.92 0.06,0.54 0.1,0.84 l 0.28,2.28 0.22,-0.66 q 0.42,-1.3 0.72,-1.9 0.32,-0.6 1.16,-1.7 1.62,-2.14 2.74,-2.14 0.74,0 1.28,0.82 0.64,0.9 0.78,1.8 0.16,0.9 0.22,4.12 0.04,2.04 0.04,2.48 0,1.32 -0.18,1.8 -0.18,0.46 -0.74,0.46 -0.38,0 -0.5,-0.2 -0.12,-0.22 -0.12,-0.86 0,-0.3 0.04,-1.24 0.04,-0.94 0.04,-1.56 0,-1.7 -0.14,-3.18 -0.14,-1.48 -0.32,-1.86 -0.08,-0.16 -0.2,-0.3 -0.12,-0.16 -0.22,-0.24 -0.08,-0.08 -0.12,-0.08 -0.32,0 -1.32,1.34 -0.98,1.34 -1.66,2.74 -0.7,1.48 -0.94,2.16 -0.22,0.68 -0.36,1.84 -0.22,1.86 -0.36,2.06 -0.1,0.12 -0.22,0.12 -0.3,-0.04 -0.64,-0.42 -0.18,-0.2 -0.28,-0.5 -0.08,-0.32 -0.14,-0.96 -0.06,-0.66 -0.1,-1.4 -0.04,-0.76 -0.16,-2.18 -0.12,-1.44 -0.3,-2.98 -0.24,-2.4 -0.24,-2.92 z"
         style="font-style:normal;font-variant:normal;font-weight:bold;font-stretch:normal;font-size:20px;line-height:100%;font-family:Purisa;-inkscape-font-specification:'Purisa Bold';text-align:center;letter-spacing:-1.66400003px;text-anchor:middle"
         id="path15260" />
      <path
         inkscape:connector-curvature="0"
         d="m 194.69738,-194.65674 q 0,-0.24 0.66,-0.8 0.66,-0.56 0.68,-0.72 0,-0.08 -0.12,-0.22 -0.12,-0.14 -0.64,-0.32 -0.5,-0.18 -1.32,-0.18 -0.88,0 -1.54,0.26 -0.64,0.26 -0.96,0.64 -0.32,0.38 -0.46,0.7 -0.14,0.32 -0.14,0.56 0,0.4 0.06,0.52 0.08,0.1 0.38,0.24 0.46,0.18 0.74,0.18 0.44,0 1.1,-0.22 0.66,-0.22 1.12,-0.42 l 0.44,-0.22 z m 3.6,1.28 q -0.04,0.46 -0.36,0.8 -0.3,0.32 -0.5,0.32 -0.12,0 -0.24,-0.04 -0.1,-0.04 -0.2,-0.14 -0.08,-0.12 -0.16,-0.2 -0.06,-0.1 -0.12,-0.28 -0.04,-0.18 -0.08,-0.28 -0.04,-0.12 -0.08,-0.34 -0.04,-0.22 -0.06,-0.32 0,-0.1 -0.04,-0.32 -0.04,-0.22 -0.04,-0.28 -0.64,0.74 -1.9,1.44 -1.24,0.68 -2.12,0.68 -0.56,0 -1.34,-0.18 -0.78,-0.18 -1.14,-0.44 -0.62,-0.46 -0.62,-1.96 0,-0.88 0.5,-1.52 0.5,-0.64 1.8,-1.28 1.46,-0.74 2.74,-0.74 0.56,0 0.92,0.14 0.38,0.14 0.58,0.34 0.22,0.18 0.24,0.18 0.32,0.06 0.56,0.26 0,-1.32 -0.12,-2.2 -0.1,-0.9 -0.3,-1.32 -0.2,-0.42 -0.4,-0.58 -0.2,-0.16 -0.48,-0.16 -0.96,0 -2.08,0.38 -1.1,0.38 -2,0.78 -0.88,0.38 -1.28,0.38 -0.5,0 -0.5,-0.46 0,-0.28 0.12,-0.5 0.12,-0.24 0.28,-0.4 0.18,-0.16 0.54,-0.32 0.38,-0.18 0.68,-0.28 0.32,-0.12 0.92,-0.32 0.6,-0.22 1.04,-0.38 1.2,-0.42 2.1,-0.42 1.62,0 2.42,1.52 0.36,0.68 0.42,1.24 0.08,0.56 0.12,3.26 0.04,2.54 0.18,3.94 z"
         style="font-style:normal;font-variant:normal;font-weight:bold;font-stretch:normal;font-size:20px;line-height:100%;font-family:Purisa;-inkscape-font-specification:'Purisa Bold';text-align:center;letter-spacing:-1.66400003px;text-anchor:middle"
         id="path15262" />
      <path
         inkscape:connector-curvature="0"
         d="m 209.04182,-197.51674 q 0.48,0 0.48,0.62 0,0.48 -1,1.72 -1,1.22 -1.74,1.72 -1.78,1.18 -3.2,1.18 -1.04,0 -2.24,-0.54 -1.22,-0.54 -1.76,-1.46 -0.54,-0.94 -0.66,-2.7 0,-0.18 -0.04,-0.52 -0.02,-0.36 -0.02,-0.52 0,-1.54 1.58,-3.16 1.6,-1.64 2.86,-1.94 0.56,-0.14 1.46,-0.14 1.72,0 3,1.04 1.28,1.04 1.28,2.12 0,0.36 -0.22,0.68 -0.2,0.32 -0.54,0.32 -0.08,0 -0.18,-0.02 -0.1,-0.02 -0.32,-0.22 -0.2,-0.2 -0.24,-0.56 -0.02,-0.14 -0.24,-0.48 -0.2,-0.34 -0.4,-0.54 -0.24,-0.26 -0.38,-0.36 -0.12,-0.1 -0.72,-0.22 -0.6,-0.14 -1.62,-0.14 -0.76,0 -1.14,0.24 -0.38,0.22 -0.98,0.98 -1.5,1.86 -1.5,3.32 0,0.76 0.2,1.28 0.2,0.5 0.34,0.64 0.14,0.14 0.56,0.48 0.56,0.48 0.86,0.62 0.3,0.12 0.84,0.12 1.72,0 3.86,-2.28 1.2,-1.28 1.82,-1.28 z"
         style="font-style:normal;font-variant:normal;font-weight:bold;font-stretch:normal;font-size:20px;line-height:100%;font-family:Purisa;-inkscape-font-specification:'Purisa Bold';text-align:center;letter-spacing:-1.66400003px;text-anchor:middle"
         id="path15264" />
      <path
         inkscape:connector-curvature="0"
         d="m 218.21969,-200.33674 q 0,-0.16 -0.88,-0.82 -0.64,-0.48 -0.92,-0.6 -0.26,-0.12 -0.76,-0.12 -1,0 -1.48,0.16 -0.46,0.14 -0.98,0.64 -1.54,1.5 -1.56,1.94 0.08,0.02 0.34,0.02 1.94,0 5.38,-0.68 0.86,-0.16 0.86,-0.54 z m 2.58,3.16 q 0.36,0 0.36,0.42 0,0.46 -0.58,1.32 -0.58,0.84 -1.16,1.36 -2.24,1.92 -4.62,1.92 -1.96,0 -3.54,-1.54 -1.58,-1.54 -1.58,-4.24 0,-0.76 0.22,-1.46 0.42,-1.24 1.88,-2.58 1.46,-1.36 2.8,-1.36 0.36,0 1.06,0.06 1.08,0.08 1.52,0.22 0.46,0.12 1.04,0.5 0.64,0.42 1.16,1.2 0.52,0.76 0.52,1.34 0,0.76 -0.62,1.12 -0.62,0.36 -2.1,0.66 -1.94,0.38 -4,0.5 l -1.74,0.08 0,0.52 q 0,0.74 0.32,1.3 0.34,0.56 1.08,1.18 1.06,0.88 2.16,0.88 0.88,0 1.86,-0.52 0.98,-0.54 1.66,-1.18 0.7,-0.64 1.34,-1.16 0.66,-0.54 0.96,-0.54 z"
         style="font-style:normal;font-variant:normal;font-weight:bold;font-stretch:normal;font-size:20px;line-height:100%;font-family:Purisa;-inkscape-font-specification:'Purisa Bold';text-align:center;letter-spacing:-1.66400003px;text-anchor:middle"
         id="path15266" />
      <path
         inkscape:connector-curvature="0"
         d="m 241.21982,-200.33674 q 0,-0.16 -0.88,-0.82 -0.64,-0.48 -0.92,-0.6 -0.26,-0.12 -0.76,-0.12 -1,0 -1.48,0.16 -0.46,0.14 -0.98,0.64 -1.54,1.5 -1.56,1.94 0.08,0.02 0.34,0.02 1.94,0 5.38,-0.68 0.86,-0.16 0.86,-0.54 z m 2.58,3.16 q 0.36,0 0.36,0.42 0,0.46 -0.58,1.32 -0.58,0.84 -1.16,1.36 -2.24,1.92 -4.62,1.92 -1.96,0 -3.54,-1.54 -1.58,-1.54 -1.58,-4.24 0,-0.76 0.22,-1.46 0.42,-1.24 1.88,-2.58 1.46,-1.36 2.8,-1.36 0.36,0 1.06,0.06 1.08,0.08 1.52,0.22 0.46,0.12 1.04,0.5 0.64,0.42 1.16,1.2 0.52,0.76 0.52,1.34 0,0.76 -0.62,1.12 -0.62,0.36 -2.1,0.66 -1.94,0.38 -4,0.5 l -1.74,0.08 0,0.52 q 0,0.74 0.32,1.3 0.34,0.56 1.08,1.18 1.06,0.88 2.16,0.88 0.88,0 1.86,-0.52 0.98,-0.54 1.66,-1.18 0.7,-0.64 1.34,-1.16 0.66,-0.54 0.96,-0.54 z"
         style="font-style:normal;font-variant:normal;font-weight:bold;font-stretch:normal;font-size:20px;line-height:100%;font-family:Purisa;-inkscape-font-specification:'Purisa Bold';text-align:center;letter-spacing:-1.66400003px;text-anchor:middle"
         id="path15268" />
      <path
         inkscape:connector-curvature="0"
         d="m 245.91425,-202.81674 q 0,-1.04 0.66,-1.04 0.44,0.02 0.58,0.54 0.14,0.52 0.4,2.92 0.06,0.54 0.1,0.84 l 0.28,2.28 0.22,-0.66 q 0.42,-1.3 0.72,-1.9 0.32,-0.6 1.16,-1.7 1.62,-2.14 2.74,-2.14 0.74,0 1.28,0.82 0.64,0.9 0.78,1.8 0.16,0.9 0.22,4.12 0.04,2.04 0.04,2.48 0,1.32 -0.18,1.8 -0.18,0.46 -0.74,0.46 -0.38,0 -0.5,-0.2 -0.12,-0.22 -0.12,-0.86 0,-0.3 0.04,-1.24 0.04,-0.94 0.04,-1.56 0,-1.7 -0.14,-3.18 -0.14,-1.48 -0.32,-1.86 -0.08,-0.16 -0.2,-0.3 -0.12,-0.16 -0.22,-0.24 -0.08,-0.08 -0.12,-0.08 -0.32,0 -1.32,1.34 -0.98,1.34 -1.66,2.74 -0.7,1.48 -0.94,2.16 -0.22,0.68 -0.36,1.84 -0.22,1.86 -0.36,2.06 -0.1,0.12 -0.22,0.12 -0.3,-0.04 -0.64,-0.42 -0.18,-0.2 -0.28,-0.5 -0.08,-0.32 -0.14,-0.96 -0.06,-0.66 -0.1,-1.4 -0.04,-0.76 -0.16,-2.18 -0.12,-1.44 -0.3,-2.98 -0.24,-2.4 -0.24,-2.92 z"
         style="font-style:normal;font-variant:normal;font-weight:bold;font-stretch:normal;font-size:20px;line-height:100%;font-family:Purisa;-inkscape-font-specification:'Purisa Bold';text-align:center;letter-spacing:-1.66400003px;text-anchor:middle"
         id="path15270" />
      <path
         inkscape:connector-curvature="0"
         d="m 275.99345,-200.33674 q 0,-0.16 -0.88,-0.82 -0.64,-0.48 -0.92,-0.6 -0.26,-0.12 -0.76,-0.12 -1,0 -1.48,0.16 -0.46,0.14 -0.98,0.64 -1.54,1.5 -1.56,1.94 0.08,0.02 0.34,0.02 1.94,0 5.38,-0.68 0.86,-0.16 0.86,-0.54 z m 2.58,3.16 q 0.36,0 0.36,0.42 0,0.46 -0.58,1.32 -0.58,0.84 -1.16,1.36 -2.24,1.92 -4.62,1.92 -1.96,0 -3.54,-1.54 -1.58,-1.54 -1.58,-4.24 0,-0.76 0.22,-1.46 0.42,-1.24 1.88,-2.58 1.46,-1.36 2.8,-1.36 0.36,0 1.06,0.06 1.08,0.08 1.52,0.22 0.46,0.12 1.04,0.5 0.64,0.42 1.16,1.2 0.52,0.76 0.52,1.34 0,0.76 -0.62,1.12 -0.62,0.36 -2.1,0.66 -1.94,0.38 -4,0.5 l -1.74,0.08 0,0.52 q 0,0.74 0.32,1.3 0.34,0.56 1.08,1.18 1.06,0.88 2.16,0.88 0.88,0 1.86,-0.52 0.98,-0.54 1.66,-1.18 0.7,-0.64 1.34,-1.16 0.66,-0.54 0.96,-0.54 z"
         style="font-style:normal;font-variant:normal;font-weight:bold;font-stretch:normal;font-size:20px;line-height:100%;font-family:Purisa;-inkscape-font-specification:'Purisa Bold';text-align:center;letter-spacing:-1.66400003px;text-anchor:middle"
         id="path15272" />
      <path
         inkscape:connector-curvature="0"
         d="m 288.92788,-190.81674 q 0,0 -0.14,-2.22 -0.02,-0.18 -0.44,-0.56 -0.4,-0.38 -0.72,-0.38 -0.34,0 -0.34,0.52 0,1.18 0.32,2.4 0.34,1.24 0.66,1.76 0.04,-0.1 0.26,-0.68 0.22,-0.58 0.4,-0.84 z m -2.76,-11.48 q -0.78,0 -1.7,0.34 -0.92,0.34 -1.8,0.96 -0.86,0.62 -1.44,1.66 -0.58,1.04 -0.58,2.28 0,0.92 0.22,1.66 0.22,0.72 0.74,0.72 0.58,0 1.84,-1.18 1.26,-1.2 1.72,-1.98 0.3,-0.6 0.64,-2.1 0.36,-1.52 0.5,-1.76 0.08,-0.16 0.08,-0.32 0,-0.28 -0.22,-0.28 z m 5.26,4.56 q 0,0.28 -1.06,1.32 -1.04,1.04 -1.62,1.48 0.24,0.12 0.46,0.34 0.84,0.84 1.02,1.16 0.2,0.32 0.2,1.1 0,0.1 -0.02,0.42 0,0.32 0,0.56 0,0.38 -0.02,0.62 0,0.24 -0.04,0.44 -0.04,0.2 -0.08,0.3 -0.04,0.1 -0.14,0.34 -0.08,0.24 -0.14,0.42 -0.4,1.12 -0.82,1.48 -0.42,0.36 -1.06,0.36 -0.46,0 -0.7,-0.06 -0.24,-0.06 -0.54,-0.34 -0.3,-0.26 -0.5,-0.84 -0.18,-0.58 -0.4,-1.6 -0.22,-1.02 -0.42,-2.62 l -0.34,-2.56 -0.96,0.74 q -1.7,1.28 -2.74,1.28 -0.72,0 -1.24,-0.32 -0.52,-0.34 -0.78,-0.9 -0.26,-0.56 -0.38,-1.14 -0.1,-0.58 -0.1,-1.2 0,-2.78 2.02,-4.82 2.04,-2.06 4.86,-2.06 0.5,0 1.02,0.18 0.52,0.2 0.74,0.54 0.24,0.34 0.24,1.02 0,0.7 -0.38,2.88 -0.38,2.18 -0.42,2.96 0,0.3 0.04,0.46 0.18,-0.1 0.94,-0.74 0.78,-0.64 1.56,-1.14 0.78,-0.5 1.3,-0.5 0.22,0 0.36,0.14 0.14,0.12 0.14,0.3 z"
         style="font-style:normal;font-variant:normal;font-weight:bold;font-stretch:normal;font-size:20px;line-height:100%;font-family:Purisa;-inkscape-font-specification:'Purisa Bold';text-align:center;letter-spacing:-1.66400003px;text-anchor:middle"
         id="path15274" />
      <path
         inkscape:connector-curvature="0"
         d="m 293.14076,-203.13674 q 0.36,0 0.64,0.3 0.3,0.3 0.3,0.92 0,0.22 -0.04,0.66 -0.04,0.44 -0.04,0.98 0,0.52 0.06,1.88 0.06,1.34 0.26,3.14 0.22,1.8 0.54,2.04 0.1,0.06 0.2,0.06 0.4,0 1.32,-0.72 1.2,-0.92 2.32,-2.94 1.14,-2.02 1.58,-4.04 0.34,-1.54 0.6,-2.02 0.28,-0.48 0.74,-0.48 0.36,0 0.56,0.22 0.22,0.22 0.22,0.58 0,0.28 -0.3,2.24 -0.28,1.96 -0.28,2.82 0,1.16 0.5,2.96 0.52,1.78 0.52,2.04 -0.06,0.44 -0.38,0.62 -0.2,0.12 -0.44,0.12 -0.52,0 -0.88,-0.78 -0.34,-0.8 -0.6,-1.86 -0.26,-1.06 -0.44,-1.34 -0.06,0.06 -0.16,0.2 -0.08,0.12 -0.22,0.32 -0.12,0.18 -0.22,0.32 -0.92,1.36 -2.14,2.36 -1.2,0.98 -2.14,0.98 -1.44,0 -1.94,-0.9 -0.5,-0.9 -0.82,-3.86 -0.14,-1.26 -0.14,-3.32 0,-1.88 0.18,-2.68 0.18,-0.82 0.64,-0.82 z"
         style="font-style:normal;font-variant:normal;font-weight:bold;font-stretch:normal;font-size:20px;line-height:100%;font-family:Purisa;-inkscape-font-specification:'Purisa Bold';text-align:center;letter-spacing:-1.66400003px;text-anchor:middle"
         id="path15276" />
      <path
         inkscape:connector-curvature="0"
         d="m 304.68082,-203.75674 q 0.34,-0.24 0.66,-0.24 0.32,0 0.54,0.26 0.32,0.6 0.52,3.48 0.22,2.88 0.22,5.38 0,1.8 -0.12,2.04 -0.4,0.32 -0.86,0.32 -0.7,0 -0.86,-0.42 -0.1,-0.32 -0.32,-4.16 -0.2,-3.86 -0.2,-5.16 0,-1.22 0.42,-1.5 z m -0.22,-4.68 q 0.04,-0.38 0.32,-0.62 0.3,-0.24 0.58,-0.24 0.28,0 0.72,0.26 0.44,0.26 0.44,0.7 0,0.48 -0.24,0.86 -0.24,0.38 -0.64,0.38 -0.42,0 -0.8,-0.38 -0.38,-0.4 -0.38,-0.96 z"
         style="font-style:normal;font-variant:normal;font-weight:bold;font-stretch:normal;font-size:20px;line-height:100%;font-family:Purisa;-inkscape-font-specification:'Purisa Bold';text-align:center;letter-spacing:-1.66400003px;text-anchor:middle"
         id="path15278" />
      <path
         inkscape:connector-curvature="0"
         d="m 307.8915,-200.73674 q 0,-0.36 0.56,-0.84 0.56,-0.5 0.56,-0.76 0,-0.44 0.28,-1.04 0.28,-0.6 0.88,-0.6 0.4,0 0.64,0.32 0.26,0.3 0.36,0.3 0.18,0 1.56,-0.3 1.38,-0.32 2.48,-0.32 0.92,0 2.02,0.22 2.32,0.5 2.32,2.74 0,1.7 -1.26,4.24 -0.86,1.76 -2.2,2.72 -1.34,0.96 -2.88,0.96 -0.4,0 -0.66,-0.04 l -0.6,-0.08 0.16,0.68 q 0.78,3.28 0.78,4.26 0,0.86 -0.9,0.86 -0.58,0 -0.86,-0.34 -0.36,-0.46 -0.84,-2.8 -0.46,-2.32 -0.8,-6 -0.12,-1.28 -0.2,-1.98 -0.06,-0.72 -0.14,-1.06 -0.08,-0.36 -0.14,-0.44 -0.06,-0.08 -0.18,-0.08 -0.94,0 -0.94,-0.62 z m 9.18,-1.16 q -0.24,-0.12 -1.18,-0.12 -1.94,0 -3.46,0.44 l -1.26,0.38 0.04,1.1 q 0.06,1.52 0.24,3.26 0.2,1.74 0.36,1.74 0.4,0 0.84,0.26 0.44,0.24 0.64,0.24 0.76,0 1.8,-0.98 1.06,-0.98 1.82,-2.38 0.76,-1.42 0.76,-2.5 0,-0.4 -0.14,-0.74 -0.14,-0.36 -0.28,-0.5 -0.12,-0.16 -0.18,-0.2 z"
         style="font-style:normal;font-variant:normal;font-weight:bold;font-stretch:normal;font-size:20px;line-height:100%;font-family:Purisa;-inkscape-font-specification:'Purisa Bold';text-align:center;letter-spacing:-1.66400003px;text-anchor:middle"
         id="path15280" />
      <path
         inkscape:connector-curvature="0"
         d="m 322.34813,-201.37674 q 1.68,-1.44 2.86,-1.9 1.2,-0.46 3,-0.46 2.78,0 3.48,1.56 0.4,0.88 0.4,2.18 0,2.06 -1,4.2 -0.98,2.14 -2.5,3 -1.48,0.82 -3.14,0.82 -2.44,0 -3.72,-1.44 -0.9,-1 -1.18,-1.7 -0.26,-0.72 -0.26,-1.98 0,-2.5 2.06,-4.28 z m 3.62,7.74 q 1.64,0 3.02,-2.08 1.4,-2.1 1.4,-4.76 0,-0.28 -0.06,-0.44 -0.04,-0.16 -0.1,-0.22 -0.06,-0.08 -0.22,-0.2 -0.72,-0.52 -1.52,-0.52 -0.12,0 -0.34,0.04 -0.2,0.02 -0.62,0.08 -0.4,0.04 -0.88,0.08 -0.66,0.06 -1.08,0.26 -0.4,0.18 -1.04,0.72 -1.2,1.02 -1.72,1.88 -0.5,0.84 -0.5,1.84 0,1.46 1.02,2.4 1.02,0.92 2.64,0.92 z"
         style="font-style:normal;font-variant:normal;font-weight:bold;font-stretch:normal;font-size:20px;line-height:100%;font-family:Purisa;-inkscape-font-specification:'Purisa Bold';text-align:center;letter-spacing:-1.66400003px;text-anchor:middle"
         id="path15282" />
    </g>
  </g>
</svg>
