<?xml version="1.0" encoding="utf-8"?>
<!-- Generator: Adobe Illustrator 21.0.2, SVG Export Plug-In . SVG Version: 6.00 Build 0)  -->
<svg version="1.1"
	 id="svg15457" inkscape:version="0.91 r13725" sodipodi:docname="historia.svg" xmlns:cc="http://creativecommons.org/ns#" xmlns:dc="http://purl.org/dc/elements/1.1/" xmlns:inkscape="http://www.inkscape.org/namespaces/inkscape" xmlns:rdf="http://www.w3.org/1999/02/22-rdf-syntax-ns#" xmlns:sodipodi="http://sodipodi.sourceforge.net/DTD/sodipodi-0.dtd" xmlns:svg="http://www.w3.org/2000/svg"
	 xmlns="http://www.w3.org/2000/svg" xmlns:xlink="http://www.w3.org/1999/xlink" x="0px" y="0px" viewBox="0 0 423 156.1"
	 style="enable-background:new 0 0 423 156.1;" xml:space="preserve">
<style type="text/css">
	.st0{clip-path:url(#SVGID_2_);}
	.st1{fill:#FED9A8;}
	.st2{fill:#F4C28C;}
	.st3{fill:#454545;}
	.st4{fill:#04CACE;}
	.st5{fill:none;stroke:#FFFFFF;stroke-width:1.4003;stroke-miterlimit:10;}
	.st6{fill:#FFFFFF;}
	.st7{opacity:0.14;fill:#2B2B2B;}
	.st8{fill:#6955A0;stroke:#6955A0;stroke-width:2.0596;stroke-miterlimit:10;}
	.st9{fill:none;stroke:#FFFFFF;stroke-width:1.7937;stroke-miterlimit:10;}
	.st10{fill:#FF6CBD;}
	.st11{fill:none;stroke:#FFFFFF;stroke-width:1.263;stroke-miterlimit:10;}
</style>
<sodipodi:namedview  bordercolor="#666666" borderopacity="1.0" fit-margin-bottom="0" fit-margin-left="0" fit-margin-right="0" fit-margin-top="0" id="base" inkscape:current-layer="layer1" inkscape:cx="259.35532" inkscape:cy="-325.31003" inkscape:document-units="px" inkscape:pageopacity="0.0" inkscape:pageshadow="2" inkscape:window-height="1059" inkscape:window-maximized="1" inkscape:window-width="1920" inkscape:window-x="0" inkscape:window-y="21" inkscape:zoom="0.35" pagecolor="#ffffff" showgrid="false">
	</sodipodi:namedview>
<g>
	<defs>
		<rect id="SVGID_1_" x="0" width="423" height="156.1"/>
	</defs>
	<clipPath id="SVGID_2_">
		<use xlink:href="#SVGID_1_"  style="overflow:visible;"/>
	</clipPath>
	<g class="st0">
		<g>
			<polygon class="st1" points="102.6,88.6 54.5,88.6 63.8,109.2 58.9,188.7 98.2,188.7 93.3,109.2 			"/>
			<polygon class="st2" points="100.4,66.5 83.7,107.1 86.4,188.7 98.2,188.7 93.3,109.2 102.6,88.6 			"/>
			<path class="st3" d="M112.6,102.2L36.9,88.1c-3.3-0.6-5.5-3.8-4.9-7.1l6.9-36.8c0.6-3.3,3.8-5.5,7.1-4.9l75.7,14.1
				c3.3,0.6,5.5,3.8,4.9,7.1l-6.9,36.8C119.2,100.6,116,102.8,112.6,102.2z"/>
			<path class="st4" d="M104.4,95.3L40.7,83.4c-1.6-0.3-2.7-1.8-2.4-3.4l6.1-32.5c0.3-1.6,1.8-2.7,3.4-2.4L111.6,57
				c1.6,0.3,2.7,1.8,2.4,3.4L107.9,93C107.6,94.6,106,95.6,104.4,95.3z"/>
			<g>
				<ellipse transform="matrix(0.1968 -0.9805 0.9805 0.1968 -7.3978 133.9899)" class="st5" cx="78.1" cy="71.5" rx="10" ry="10"/>
				<path class="st6" d="M83.2,71.3l-3.6-0.7l0.7-3.6c0.1-0.7-0.3-1.3-1-1.5l0,0c-0.7-0.1-1.3,0.3-1.5,1L77.1,70l-3.6-0.7
					c-0.7-0.1-1.3,0.3-1.5,1v0c-0.1,0.7,0.3,1.3,1,1.5l3.6,0.7l-0.7,3.6c-0.1,0.7,0.3,1.3,1,1.5l0,0c0.7,0.1,1.3-0.3,1.5-1l0.7-3.6
					l3.6,0.7c0.7,0.1,1.3-0.3,1.5-1v0C84.3,72.1,83.8,71.4,83.2,71.3z"/>
			</g>
			<path class="st7" d="M121.7,53.4l-39.4-6.6l22.2,53.9l8.1,1.5c3.3,0.6,6.5-1.6,7.1-4.9l6.9-36.8C127.3,57.2,125.1,54,121.7,53.4z
				"/>
			<g>
				<path class="st1" d="M62.8,52.4l-0.4,0c-2.5-0.2-4.4-2.5-4.2-5.1l0.5-5.4c0.2-2.5,2.5-4.4,5.1-4.2l0.4,0
					c2.5,0.2,4.4,2.5,4.2,5.1l-0.5,5.4C67.6,50.8,65.4,52.6,62.8,52.4z"/>
				<path class="st2" d="M68.4,42.6c0.2-1.6-0.7-3.1-2-4.1c-1.5,0.6-2.6,2-2.8,3.6L63.1,48c-0.2,1.6,0.7,3.1,2,4.1
					c1.5-0.6,2.6-2,2.8-3.6L68.4,42.6z"/>
			</g>
			<g>
				<path class="st1" d="M73.3,55.3l-0.5,0c-3.1-0.3-5.3-3-5-6.1l0.6-6.5c0.3-3.1,3-5.3,6.1-5l0.5,0c3.1,0.3,5.3,3,5,6.1l-0.6,6.5
					C79.2,53.4,76.4,55.6,73.3,55.3z"/>
				<path class="st2" d="M80.1,43.5c0.2-2-0.8-3.8-2.5-4.9c-1.8,0.8-3.2,2.4-3.4,4.3l-0.7,7c-0.2,2,0.8,3.8,2.5,4.9
					c1.8-0.8,3.2-2.4,3.4-4.3L80.1,43.5z"/>
			</g>
			<g>
				<path class="st1" d="M84.1,56.1l-0.4,0c-2.6-0.3-4.6-2.6-4.3-5.2l0.5-5.6c0.3-2.6,2.6-4.6,5.2-4.3l0.4,0
					c2.6,0.3,4.6,2.6,4.3,5.2l-0.5,5.6C89,54.4,86.7,56.3,84.1,56.1z"/>
				<path class="st2" d="M89.9,46c0.2-1.7-0.7-3.3-2.1-4.2c-1.6,0.6-2.7,2-2.9,3.7l-0.6,6c-0.2,1.7,0.7,3.3,2.1,4.2
					c1.6-0.6,2.7-2,2.9-3.7L89.9,46z"/>
			</g>
			<g>
				<path class="st1" d="M93.6,57.5l-0.4,0c-2.6-0.2-4.4-2.5-4.2-5.1l0.5-5.4c0.2-2.6,2.5-4.4,5.1-4.2l0.4,0
					c2.6,0.2,4.4,2.5,4.2,5.1l-0.5,5.4C98.4,55.9,96.1,57.8,93.6,57.5z"/>
				<path class="st2" d="M99.2,47.7c0.2-1.6-0.7-3.2-2-4.1c-1.5,0.6-2.6,2-2.8,3.6l-0.6,5.8c-0.2,1.6,0.7,3.2,2,4.1
					c1.5-0.6,2.6-2,2.8-3.6L99.2,47.7z"/>
			</g>
			<path d="M115.4,85.2L115.4,85.2c-1.1-0.2-1.9-1.3-1.6-2.4l1.7-9.2c0.2-1.1,1.3-1.9,2.4-1.6l0,0c1.1,0.2,1.9,1.3,1.6,2.4l-1.7,9.2
				C117.6,84.7,116.5,85.4,115.4,85.2z"/>
			<path d="M37.3,68.9L37.3,68.9c-0.4-0.1-0.7-0.5-0.6-0.9l2.2-11.7c0.1-0.4,0.5-0.7,0.9-0.6l0,0c0.4,0.1,0.7,0.5,0.6,0.9l-2.2,11.7
				C38.2,68.7,37.8,69,37.3,68.9z"/>
			<g>
				<path class="st1" d="M69.5,73.2l1.3,1.4c2,2.1,1.9,5.4-0.2,7.4l-3.7,3.4c-1.8,1.7-2.6,3.5-0.9,5.3l0.7,1c15.9-1,15,17.6,15,17.6
					L68.4,112c-1.7-0.6-3.3-1.6-4.6-2.9L51.5,93.9c-3.1-3.3-3-8.4,0.2-11.4l10.4-9.7C64.2,70.9,67.5,71.1,69.5,73.2z"/>
			</g>
			<g>
				<circle cx="41.1" cy="49.7" r="1.7"/>
				<circle class="st6" cx="40.7" cy="49.2" r="0.5"/>
			</g>
		</g>
		<g>
			<polygon class="st1" points="361.2,88.6 313.1,88.6 322.5,109.2 317.5,188.7 356.8,188.7 351.9,109.2 			"/>
			<polygon class="st2" points="359,66.5 342.3,107.1 345,188.7 356.8,188.7 351.9,109.2 361.2,88.6 			"/>
			<path class="st3" d="M371.3,102.2l-75.7-14.1c-3.3-0.6-5.5-3.8-4.9-7.1l6.9-36.8c0.6-3.3,3.8-5.5,7.1-4.9l75.7,14.1
				c3.3,0.6,5.5,3.8,4.9,7.1l-6.9,36.8C377.8,100.6,374.6,102.8,371.3,102.2z"/>
			<path class="st4" d="M363,95.3l-63.8-11.9c-1.6-0.3-2.7-1.8-2.4-3.4l6.1-32.5c0.3-1.6,1.8-2.7,3.4-2.4L370.2,57
				c1.6,0.3,2.7,1.8,2.4,3.4L366.5,93C366.2,94.6,364.6,95.6,363,95.3z"/>
			<g>
				
					<ellipse transform="matrix(0.1968 -0.9805 0.9805 0.1968 200.3292 387.5464)" class="st5" cx="336.7" cy="71.5" rx="10" ry="10"/>
				<path class="st6" d="M341.8,71.3l-3.6-0.7l0.7-3.6c0.1-0.7-0.3-1.3-1-1.5h0c-0.7-0.1-1.3,0.3-1.5,1l-0.7,3.6l-3.6-0.7
					c-0.7-0.1-1.3,0.3-1.5,1v0c-0.1,0.7,0.3,1.3,1,1.5l3.6,0.7l-0.7,3.6c-0.1,0.7,0.3,1.3,1,1.5l0,0c0.7,0.1,1.3-0.3,1.5-1l0.7-3.6
					l3.6,0.7c0.7,0.1,1.3-0.3,1.5-1v0C342.9,72.1,342.5,71.4,341.8,71.3z"/>
			</g>
			<path class="st7" d="M380.4,53.4L341,46.8l22.2,53.9l8.1,1.5c3.3,0.6,6.5-1.6,7.1-4.9l6.9-36.8C385.9,57.2,383.7,54,380.4,53.4z"
				/>
			<g>
				<path class="st1" d="M321.4,52.4l-0.4,0c-2.5-0.2-4.4-2.5-4.2-5.1l0.5-5.4c0.2-2.5,2.5-4.4,5.1-4.2l0.4,0
					c2.5,0.2,4.4,2.5,4.2,5.1l-0.5,5.4C326.3,50.8,324,52.6,321.4,52.4z"/>
				<path class="st2" d="M327,42.6c0.2-1.6-0.7-3.1-2-4.1c-1.5,0.6-2.6,2-2.8,3.6l-0.6,5.8c-0.2,1.6,0.7,3.1,2,4.1
					c1.5-0.6,2.6-2,2.8-3.6L327,42.6z"/>
			</g>
			<g>
				<path class="st1" d="M332,55.3l-0.5,0c-3.1-0.3-5.3-3-5-6.1l0.6-6.5c0.3-3.1,3-5.3,6.1-5l0.5,0c3.1,0.3,5.3,3,5,6.1l-0.6,6.5
					C337.8,53.4,335,55.6,332,55.3z"/>
				<path class="st2" d="M338.7,43.5c0.2-2-0.8-3.8-2.5-4.9c-1.8,0.8-3.2,2.4-3.4,4.3l-0.7,7c-0.2,2,0.8,3.8,2.5,4.9
					c1.8-0.8,3.2-2.4,3.4-4.3L338.7,43.5z"/>
			</g>
			<g>
				<path class="st1" d="M342.7,56.1l-0.4,0c-2.6-0.3-4.6-2.6-4.3-5.2l0.5-5.6c0.3-2.6,2.6-4.6,5.2-4.3l0.4,0
					c2.6,0.3,4.6,2.6,4.3,5.2l-0.5,5.6C347.7,54.4,345.3,56.3,342.7,56.1z"/>
				<path class="st2" d="M348.5,46c0.2-1.7-0.7-3.3-2.1-4.2c-1.6,0.6-2.7,2-2.9,3.7l-0.6,6c-0.2,1.7,0.7,3.3,2.1,4.2
					c1.6-0.6,2.7-2,2.9-3.7L348.5,46z"/>
			</g>
			<g>
				<path class="st1" d="M352.2,57.5l-0.4,0c-2.6-0.2-4.4-2.5-4.2-5.1l0.5-5.4c0.2-2.6,2.5-4.4,5.1-4.2l0.4,0
					c2.6,0.2,4.4,2.5,4.2,5.1l-0.5,5.4C357,55.9,354.7,57.8,352.2,57.5z"/>
				<path class="st2" d="M357.8,47.7c0.2-1.6-0.7-3.2-2-4.1c-1.5,0.6-2.6,2-2.8,3.6l-0.6,5.8c-0.2,1.6,0.7,3.2,2,4.1
					c1.5-0.6,2.6-2,2.8-3.6L357.8,47.7z"/>
			</g>
			<path d="M374,85.2L374,85.2c-1.1-0.2-1.9-1.3-1.6-2.4l1.7-9.2c0.2-1.1,1.3-1.9,2.4-1.6l0,0c1.1,0.2,1.9,1.3,1.6,2.4l-1.7,9.2
				C376.2,84.7,375.1,85.4,374,85.2z"/>
			<path d="M296,68.9L296,68.9c-0.4-0.1-0.7-0.5-0.6-0.9l2.2-11.7c0.1-0.4,0.5-0.7,0.9-0.6l0,0c0.4,0.1,0.7,0.5,0.6,0.9l-2.2,11.7
				C296.8,68.7,296.4,69,296,68.9z"/>
			<g>
				<path class="st1" d="M328.1,73.2l1.3,1.4c2,2.1,1.9,5.4-0.2,7.4l-3.7,3.4c-1.8,1.7-2.6,3.5-0.9,5.3l0.7,1
					c15.9-1,15,17.6,15,17.6l-13.4,2.6c-1.7-0.6-3.3-1.6-4.6-2.9l-12.4-15.1c-3.1-3.3-3-8.4,0.2-11.4l10.4-9.7
					C322.8,70.9,326.1,71.1,328.1,73.2z"/>
			</g>
			<g>
				<circle cx="299.8" cy="49.7" r="1.7"/>
				<circle class="st6" cx="299.3" cy="49.2" r="0.5"/>
			</g>
		</g>
		<g>
			<polygon class="st1" points="260.4,78.8 198.7,78.8 210.7,105.3 204.4,207.1 254.7,207.1 248.4,105.3 			"/>
			<polygon class="st2" points="257.6,50.5 236.1,102.6 239.6,207.1 254.7,207.1 248.4,105.3 260.4,78.8 			"/>
			<path class="st3" d="M273.2,96.3l-97-18.1c-4.3-0.8-7.1-4.9-6.3-9.2l8.8-47.1c0.8-4.3,4.9-7.1,9.2-6.3l97,18.1
				c4.3,0.8,7.1,4.9,6.3,9.2L282.4,90C281.6,94.3,277.5,97.1,273.2,96.3z"/>
			<path class="st8" d="M262.7,87.5L181,72.2c-2.1-0.4-3.4-2.4-3-4.4l7.8-41.6c0.4-2.1,2.4-3.4,4.4-3l81.7,15.2
				c2.1,0.4,3.4,2.4,3,4.4l-7.8,41.6C266.7,86.5,264.7,87.9,262.7,87.5z"/>
			<g>
				
					<ellipse transform="matrix(0.1968 -0.9805 0.9805 0.1968 128.0217 270.2262)" class="st9" cx="228.9" cy="57" rx="12.8" ry="12.8"/>
				<path class="st6" d="M235.5,56.7l-4.7-0.9l0.9-4.7c0.2-0.9-0.4-1.7-1.2-1.9l0,0c-0.9-0.2-1.7,0.4-1.9,1.2l-0.9,4.7l-4.7-0.9
					c-0.9-0.2-1.7,0.4-1.9,1.2v0c-0.2,0.9,0.4,1.7,1.2,1.9l4.7,0.9l-0.9,4.7c-0.2,0.9,0.4,1.7,1.2,1.9h0c0.9,0.2,1.7-0.4,1.9-1.2
					l0.9-4.7l4.7,0.9c0.9,0.2,1.7-0.4,1.9-1.2v0C236.9,57.7,236.3,56.8,235.5,56.7z"/>
			</g>
			<path class="st7" d="M284.9,33.8l-50.4-8.5l28.4,69.1l10.4,1.9c4.3,0.8,8.4-2,9.2-6.3l8.8-47.1C291.9,38.7,289.1,34.6,284.9,33.8
				z"/>
			<g>
				<path class="st1" d="M209.4,32.5l-0.5-0.1c-3.3-0.3-5.6-3.2-5.3-6.5l0.7-6.9c0.3-3.3,3.2-5.6,6.5-5.3l0.5,0.1
					c3.3,0.3,5.6,3.2,5.3,6.5l-0.7,6.9C215.6,30.4,212.7,32.8,209.4,32.5z"/>
				<path class="st2" d="M216.6,20c0.2-2.1-0.9-4-2.6-5.2c-1.9,0.8-3.4,2.5-3.6,4.6l-0.7,7.4c-0.2,2.1,0.9,4,2.6,5.2
					c1.9-0.8,3.4-2.5,3.6-4.6L216.6,20z"/>
			</g>
			<g>
				<path class="st1" d="M222.9,36.3l-0.6-0.1c-3.9-0.4-6.8-3.9-6.5-7.8l0.8-8.4c0.4-3.9,3.9-6.8,7.8-6.5l0.6,0.1
					c3.9,0.4,6.8,3.9,6.5,7.8l-0.8,8.4C230.3,33.8,226.8,36.7,222.9,36.3z"/>
				<path class="st2" d="M231.6,21.1c0.2-2.5-1-4.9-3.2-6.3c-2.3,1-4.1,3-4.3,5.6l-0.9,9c-0.2,2.5,1,4.9,3.2,6.3
					c2.3-1,4.1-3,4.3-5.6L231.6,21.1z"/>
			</g>
			<g>
				<path class="st1" d="M236.6,37.2l-0.5-0.1c-3.4-0.3-5.8-3.3-5.5-6.7l0.7-7.2c0.3-3.4,3.3-5.8,6.7-5.5l0.5,0.1
					c3.4,0.3,5.8,3.3,5.5,6.7l-0.7,7.2C243,35.1,240,37.6,236.6,37.2z"/>
				<path class="st2" d="M244,24.3c0.2-2.2-0.9-4.2-2.7-5.4c-2,0.8-3.5,2.6-3.7,4.7l-0.7,7.7c-0.2,2.2,0.9,4.2,2.7,5.4
					c2-0.8,3.5-2.6,3.7-4.7L244,24.3z"/>
			</g>
			<g>
				<path class="st1" d="M248.8,39.1l-0.5-0.1c-3.3-0.3-5.7-3.2-5.4-6.5l0.7-7c0.3-3.3,3.2-5.7,6.5-5.4l0.5,0.1
					c3.3,0.3,5.7,3.2,5.4,6.5l-0.7,7C255,37,252,39.4,248.8,39.1z"/>
				<path class="st2" d="M256,26.5c0.2-2.1-0.9-4.1-2.6-5.2c-1.9,0.8-3.4,2.5-3.6,4.6l-0.7,7.5c-0.2,2.1,0.9,4.1,2.6,5.2
					c1.9-0.8,3.4-2.5,3.6-4.6L256,26.5z"/>
			</g>
			<path d="M276.8,74.5L276.8,74.5c-1.4-0.3-2.4-1.6-2.1-3.1l2.2-11.7c0.3-1.4,1.6-2.4,3.1-2.1v0c1.4,0.3,2.4,1.6,2.1,3.1l-2.2,11.7
				C279.6,73.9,278.2,74.8,276.8,74.5z"/>
			<path d="M176.8,53.7L176.8,53.7c-0.5-0.1-0.9-0.6-0.8-1.1l2.8-15c0.1-0.5,0.6-0.9,1.1-0.8l0,0c0.5,0.1,0.9,0.6,0.8,1.1l-2.8,15
				C177.8,53.4,177.3,53.8,176.8,53.7z"/>
			<g>
				<path class="st1" d="M217.9,59.2l1.6,1.7c2.5,2.7,2.4,7-0.2,9.4l-4.7,4.4c-2.3,2.1-3.3,4.5-1.1,6.8l0.9,1.3
					c20.4-1.3,19.3,22.5,19.3,22.5l-17.1,3.4c-2.2-0.7-4.3-2-5.9-3.8l-15.9-19.4c-4-4.2-3.8-10.7,0.3-14.5l13.3-12.4
					C211.1,56.2,215.3,56.4,217.9,59.2z"/>
			</g>
			<g>
				<circle cx="181.6" cy="29" r="2.1"/>
				<circle class="st6" cx="181" cy="28.4" r="0.6"/>
			</g>
		</g>
		<g>
			<polygon class="st1" points="160.2,122.1 116.8,122.1 125.2,140.7 120.8,212.4 156.2,212.4 151.8,140.7 			"/>
			<polygon class="st2" points="158.2,102.2 143.1,138.8 145.6,212.4 156.2,212.4 151.8,140.7 160.2,122.1 			"/>
			<path class="st3" d="M169.2,134.4l-68.3-12.7c-3-0.6-5-3.4-4.4-6.4l6.2-33.1c0.6-3,3.4-5,6.4-4.4l68.3,12.7c3,0.6,5,3.4,4.4,6.4
				l-6.2,33.1C175.1,133,172.2,134.9,169.2,134.4z"/>
			<path class="st10" d="M161.8,128.2l-57.5-10.7c-1.4-0.3-2.4-1.7-2.1-3.1l5.5-29.3c0.3-1.4,1.7-2.4,3.1-2.1l57.5,10.7
				c1.4,0.3,2.4,1.7,2.1,3.1l-5.5,29.3C164.7,127.5,163.3,128.5,161.8,128.2z"/>
			<g>
				<ellipse transform="matrix(0.1968 -0.9805 0.9805 0.1968 6.2654 221.0769)" class="st11" cx="138.1" cy="106.7" rx="9" ry="9"/>
				<path class="st6" d="M142.7,106.5l-3.3-0.7l0.7-3.3c0.1-0.6-0.3-1.2-0.9-1.3l0,0c-0.6-0.1-1.2,0.3-1.3,0.9l-0.7,3.3l-3.3-0.7
					c-0.6-0.1-1.2,0.3-1.3,0.9l0,0c-0.1,0.6,0.3,1.2,0.9,1.3l3.3,0.7l-0.7,3.3c-0.1,0.6,0.3,1.2,0.9,1.3l0,0
					c0.6,0.1,1.2-0.3,1.3-0.9l0.7-3.3l3.3,0.7c0.6,0.1,1.2-0.3,1.3-0.9l0,0C143.7,107.2,143.3,106.6,142.7,106.5z"/>
			</g>
			<path class="st7" d="M177.4,90.4l-35.5-6l20,48.6l7.3,1.4c3,0.6,5.9-1.4,6.4-4.4l6.2-33.1C182.4,93.8,180.4,90.9,177.4,90.4z"/>
			<g>
				<path class="st1" d="M124.3,89.5l-0.4,0c-2.3-0.2-4-2.3-3.8-4.6l0.5-4.9c0.2-2.3,2.3-4,4.6-3.8l0.4,0c2.3,0.2,4,2.3,3.8,4.6
					l-0.5,4.9C128.6,88,126.6,89.7,124.3,89.5z"/>
				<path class="st2" d="M129.4,80.7c0.1-1.5-0.6-2.8-1.8-3.7c-1.4,0.6-2.4,1.8-2.5,3.2l-0.5,5.2c-0.1,1.5,0.6,2.8,1.8,3.7
					c1.4-0.6,2.4-1.8,2.5-3.2L129.4,80.7z"/>
			</g>
			<g>
				<path class="st1" d="M133.8,92.1l-0.4,0c-2.8-0.3-4.8-2.7-4.5-5.5l0.6-5.9c0.3-2.8,2.7-4.8,5.5-4.5l0.4,0
					c2.8,0.3,4.8,2.7,4.5,5.5l-0.6,5.9C139,90.4,136.6,92.4,133.8,92.1z"/>
				<path class="st2" d="M139.9,81.5c0.2-1.8-0.7-3.4-2.2-4.4c-1.7,0.7-2.9,2.1-3,3.9l-0.6,6.3c-0.2,1.8,0.7,3.4,2.2,4.4
					c1.7-0.7,2.9-2.1,3-3.9L139.9,81.5z"/>
			</g>
			<g>
				<path class="st1" d="M143.5,92.8l-0.4,0c-2.4-0.2-4.1-2.3-3.9-4.7l0.5-5c0.2-2.4,2.3-4.1,4.7-3.9l0.4,0c2.4,0.2,4.1,2.3,3.9,4.7
					l-0.5,5C148,91.3,145.8,93,143.5,92.8z"/>
				<path class="st2" d="M148.7,83.7c0.1-1.5-0.6-2.9-1.9-3.8c-1.4,0.6-2.4,1.8-2.6,3.3l-0.5,5.4c-0.1,1.5,0.6,2.9,1.9,3.8
					c1.4-0.6,2.4-1.8,2.6-3.3L148.7,83.7z"/>
			</g>
			<g>
				<path class="st1" d="M152,94.1l-0.4,0c-2.3-0.2-4-2.3-3.8-4.6l0.5-4.9c0.2-2.3,2.3-4,4.6-3.8l0.4,0c2.3,0.2,4,2.3,3.8,4.6
					l-0.5,4.9C156.4,92.7,154.3,94.3,152,94.1z"/>
				<path class="st2" d="M157.1,85.3c0.1-1.5-0.6-2.9-1.8-3.7c-1.4,0.6-2.4,1.8-2.5,3.2l-0.5,5.3c-0.1,1.5,0.6,2.9,1.8,3.7
					c1.4-0.6,2.4-1.8,2.5-3.2L157.1,85.3z"/>
			</g>
			<path d="M171.7,119.1L171.7,119.1c-1-0.2-1.7-1.2-1.5-2.2l1.5-8.3c0.2-1,1.2-1.7,2.2-1.5l0,0c1,0.2,1.7,1.2,1.5,2.2l-1.5,8.3
				C173.7,118.6,172.7,119.3,171.7,119.1z"/>
			<path d="M101.3,104.4L101.3,104.4c-0.4-0.1-0.6-0.4-0.5-0.8l2-10.6c0.1-0.4,0.4-0.6,0.8-0.5l0,0c0.4,0.1,0.6,0.4,0.5,0.8l-2,10.6
				C102.1,104.2,101.7,104.5,101.3,104.4z"/>
			<g>
				<path class="st1" d="M130.3,108.3l1.1,1.2c1.8,1.9,1.7,4.9-0.2,6.7l-3.3,3.1c-1.6,1.5-2.3,3.2-0.8,4.8l0.7,0.9
					c14.4-0.9,13.6,15.8,13.6,15.8l-12,2.4c-1.6-0.5-3-1.4-4.1-2.7l-11.2-13.6c-2.8-3-2.7-7.6,0.2-10.2l9.4-8.7
					C125.5,106.2,128.5,106.3,130.3,108.3z"/>
			</g>
			<g>
				<circle cx="104.7" cy="87" r="1.5"/>
				<circle class="st6" cx="104.3" cy="86.6" r="0.4"/>
			</g>
		</g>
	</g>
</g>
</svg>
