<?xml version="1.0" encoding="UTF-8" standalone="no"?>
<!-- Created with Inkscape (http://www.inkscape.org/) -->

<svg
   xmlns:dc="http://purl.org/dc/elements/1.1/"
   xmlns:cc="http://creativecommons.org/ns#"
   xmlns:rdf="http://www.w3.org/1999/02/22-rdf-syntax-ns#"
   xmlns:svg="http://www.w3.org/2000/svg"
   xmlns="http://www.w3.org/2000/svg"
   xmlns:sodipodi="http://sodipodi.sourceforge.net/DTD/sodipodi-0.dtd"
   xmlns:inkscape="http://www.inkscape.org/namespaces/inkscape"
   width="46.759396mm"
   height="19.100008mm"
   viewBox="0 0 165.6829 67.677193"
   id="svg15457"
   version="1.1"
   inkscape:version="0.91 r13725"
   sodipodi:docname="icons-historia.svg">
  <defs
     id="defs15459">
    <clipPath
       clipPathUnits="userSpaceOnUse"
       id="clipPath330">
      <path
         d="m 32.01,54.445 437.979,0 0,188.74 -437.979,0 0,-188.74 z"
         id="path332"
         inkscape:connector-curvature="0" />
    </clipPath>
  </defs>
  <sodipodi:namedview
     id="base"
     pagecolor="#ffffff"
     bordercolor="#666666"
     borderopacity="1.0"
     inkscape:pageopacity="0.0"
     inkscape:pageshadow="2"
     inkscape:zoom="1.979899"
     inkscape:cx="219.45576"
     inkscape:cy="3.6001463"
     inkscape:document-units="px"
     inkscape:current-layer="layer1"
     showgrid="false"
     inkscape:window-width="1920"
     inkscape:window-height="1059"
     inkscape:window-x="0"
     inkscape:window-y="21"
     inkscape:window-maximized="1"
     fit-margin-top="0"
     fit-margin-left="0"
     fit-margin-right="0"
     fit-margin-bottom="0" />
  <metadata
     id="metadata15462">
    <rdf:RDF>
      <cc:Work
         rdf:about="">
        <dc:format>image/svg+xml</dc:format>
        <dc:type
           rdf:resource="http://purl.org/dc/dcmitype/StillImage" />
        <dc:title></dc:title>
      </cc:Work>
    </rdf:RDF>
  </metadata>
  <g
     inkscape:label="Layer 1"
     inkscape:groupmode="layer"
     id="layer1"
     transform="translate(-124.67674,-66.050946)">
    <g
       id="g76"
       transform="matrix(1.25,0,0,-1.25,225.87831,73.680206)">
      <path
         d="m 0,0 c -25.956,0.566 -51.923,2.653 -77.655,6.074 -3.528,0.469 -4.436,-4.804 -1.73,-6.387 5.959,-3.486 11.842,-7.092 17.658,-10.807 1.748,-1.887 4.527,-3.552 7.684,-4.993 0.038,-0.026 0.076,-0.05 0.114,-0.075 8.259,-5.486 16.229,-11.798 24.99,-16.461 1.216,-0.648 2.443,-0.152 3.083,0.746 0.46,0.079 0.935,0.255 1.418,0.573 1.226,0.809 2.376,1.759 3.48,2.791 0.974,-0.743 1.947,-1.486 2.921,-2.231 1.293,-0.987 3.624,-0.256 4.313,1.131 2.304,4.647 4.368,9.414 6.466,14.157 0.133,0.291 0.261,0.579 0.381,0.863 0.1,0.234 0.168,0.467 0.218,0.696 2.975,2.706 6.018,5.332 9.18,7.837 C 5.079,-4.059 2.818,-0.062 0,0"
         style="fill:#ff00ff;fill-opacity:1;fill-rule:nonzero;stroke:none"
         id="path78"
         inkscape:connector-curvature="0" />
    </g>
    <g
       id="g80"
       transform="matrix(1.25,0,0,-1.25,259.87253,89.248558)">
      <path
         d="m 0,0 c -0.413,-0.004 -0.84,-0.077 -1.274,-0.245 0.095,0.101 0.192,0.201 0.288,0.304 0.202,0.215 0.337,0.449 0.424,0.689 C -0.376,0.498 -0.187,0.249 0,0 M 23.35,-15.057 C 16.667,-7.279 10.221,0.625 3.932,8.724 3.016,9.903 1.743,10.217 0.515,9.975 -0.01,10.179 -0.642,10.164 -1.313,9.79 -9.61,5.166 -16.465,-2.026 -23.415,-8.41 c -7.547,-6.933 -15.036,-13.93 -22.548,-20.901 -2.851,-2.645 0.174,-6.936 3.602,-6.186 21.334,4.665 42.646,9.445 64.007,13.985 3.048,0.649 3.465,4.405 1.704,6.455"
         style="fill:#00ffff;fill-opacity:1;fill-rule:nonzero;stroke:none"
         id="path82"
         inkscape:connector-curvature="0" />
    </g>
    <g
       id="g334"
       transform="matrix(1.25,0,0,-1.25,213.75546,91.431706)">
      <path
         d="M 0,0 C -0.019,-0.018 -0.027,-0.039 -0.042,-0.059 -19.167,5.854 -38.385,11.785 -57.814,16.663 -34.588,15.095 -11.362,13.443 11.88,12.168 8.202,7.812 4.195,3.871 0,0 m 0.419,-0.812 c -1.025,-4.956 -3.01,-9.447 -6.034,-13.454 -0.367,2.292 -0.513,4.578 -0.486,6.891 0.076,0.077 0.155,0.152 0.23,0.23 0.298,0.31 0.101,0.696 -0.205,0.805 0.005,0.153 0.005,0.305 0.012,0.457 0.513,-0.008 0.859,0.729 0.31,1.006 -12.757,6.418 -26.024,12.09 -39.562,16.86 15.028,-4.321 30.077,-8.56 45.013,-13.218 0.406,-0.127 0.676,0.166 0.723,0.493 0.012,0.005 0.024,0.013 0.037,0.017 -0.012,-0.03 -0.03,-0.052 -0.038,-0.087 m -7.596,-7.644 c -0.085,-2.315 0.114,-4.616 0.536,-6.926 -1.609,0.929 -3.301,1.929 -5.036,2.598 1.531,1.416 3.039,2.858 4.5,4.328 m -10.227,-8.456 C -32.28,-4.785 -48.4,6.024 -64.096,17.09 c 0.122,-0.009 0.243,-0.018 0.366,-0.026 19.487,-6.307 38.346,-13.71 56.809,-22.599 -0.063,-0.452 -0.116,-0.902 -0.157,-1.353 -3.58,-3.151 -7.047,-6.564 -10.326,-10.024 m 29.96,29.857 c -0.05,0.302 -0.26,0.584 -0.648,0.614 -26.24,2.033 -52.523,3.578 -78.784,5.313 -0.857,0.057 -0.992,-1.07 -0.403,-1.486 16.575,-11.707 32.72,-24.288 49.741,-35.333 0.358,-0.233 0.785,0.204 0.661,0.541 1.472,1.259 2.934,2.553 4.378,3.87 0.021,-0.019 0.036,-0.042 0.062,-0.058 1.758,-1.098 3.877,-1.853 5.801,-2.622 0.116,-0.047 0.217,-0.019 0.295,0.04 0.234,-0.169 0.589,-0.195 0.781,0.038 3.601,4.392 5.999,9.451 6.97,15.053 0.067,0.391 -0.264,0.646 -0.565,0.64 4.703,3.585 8.869,7.924 12.553,12.534 0.474,0.593 -0.346,1.439 -0.842,0.856"
         style="fill:#1c1c1b;fill-opacity:1;fill-rule:nonzero;stroke:none"
         id="path336"
         inkscape:connector-curvature="0" />
    </g>
    <g
       id="g338"
       transform="matrix(1.25,0,0,-1.25,216.30928,127.74218)">
      <path
         d="m 0,0 c 16.57,5.129 33.078,12.115 48.762,19.279 0.113,0.051 0.177,0.137 0.217,0.232 2.854,-2.834 5.442,-5.833 8.109,-8.825 C 38.169,6.553 19.13,2.998 0,0 m -4.189,-0.654 c 16.835,7.813 33.001,17.518 48.481,27.667 1.146,-2.248 2.435,-4.428 3.678,-6.622 0.061,-0.108 0.146,-0.163 0.236,-0.192 C 31.019,13.367 13.457,6.886 -3.48,-0.544 -3.716,-0.58 -3.953,-0.619 -4.189,-0.654 m 62.71,11.174 c -2.479,3.704 -5.852,7.081 -9.237,9.955 -0.164,0.139 -0.348,0.131 -0.497,0.056 0.023,0.095 0.017,0.2 -0.046,0.311 -1.267,2.207 -2.498,4.448 -3.866,6.596 0.382,0.471 -0.152,1.281 -0.746,0.901 C 27.643,17.774 10.583,8.476 -6.513,-1.013 -6.531,-1.016 -6.548,-1.018 -6.566,-1.021 7.41,11.831 21.573,24.529 35.147,37.804 c 0.85,-1.423 2.291,-2.616 3.398,-3.784 1.666,-1.757 3.307,-3.546 5.03,-5.249 0.516,-0.508 1.268,0.258 0.791,0.791 -1.535,1.715 -3.155,3.356 -4.745,5.02 -1.347,1.408 -2.78,3.421 -4.57,4.241 -0.142,0.066 -0.379,-0.048 -0.304,-0.233 0.019,-0.047 0.045,-0.091 0.066,-0.137 C 34.801,38.444 34.788,38.441 34.776,38.432 19.821,25.486 5.439,11.848 -9.123,-1.537 c -0.548,-0.505 0.053,-1.217 0.658,-1.129 22.204,3.243 44.273,7.257 66.194,12.052 0.268,0.058 0.409,0.227 0.466,0.424 0.29,0.077 0.528,0.406 0.326,0.71"
         style="fill:#1c1c1b;fill-opacity:1;fill-rule:nonzero;stroke:none"
         id="path340"
         inkscape:connector-curvature="0" />
    </g>
    <g
       id="g358"
       transform="matrix(1.25,0,0,-1.25,557.63524,158.50149)" />
  </g>
</svg>
