<?xml version="1.0" encoding="UTF-8" standalone="no"?>
<svg
   xmlns:dc="http://purl.org/dc/elements/1.1/"
   xmlns:cc="http://creativecommons.org/ns#"
   xmlns:rdf="http://www.w3.org/1999/02/22-rdf-syntax-ns#"
   xmlns:svg="http://www.w3.org/2000/svg"
   xmlns="http://www.w3.org/2000/svg"
   xml:space="preserve"
   enable-background="new 0 0 128 128"
   viewBox="0 0 141.55733 141.55733"
   height="141.55733"
   width="141.55733"
   y="0px"
   x="0px"
   id="レイヤー_1"
   version="1.1"><metadata
     id="metadata19"><rdf:RDF><cc:Work
         rdf:about=""><dc:format>image/svg+xml</dc:format><dc:type
           rdf:resource="http://purl.org/dc/dcmitype/StillImage" /><dc:title></dc:title></cc:Work></rdf:RDF></metadata><defs
     id="defs17" /><g
     style="fill:#1a1a1a"
     transform="matrix(0.76370519,0,0,0.76370519,15.901259,17.901708)"
     id="g3"><g
       style="fill:#1a1a1a"
       id="g7"><g
         style="fill:#1a1a1a"
         id="g9" /><path
         style="fill:#1a1a1a"
         id="path13"
         d="m 108.471,90.174 c -6.746,4.804 -16.612,5.816 -23.691,5.816 -6.62,0 -11.708,-0.871 -11.758,-0.879 -0.753,-0.134 -1.498,0.268 -1.807,0.962 -0.31,0.703 -0.101,1.523 0.501,1.992 0.385,0.302 9.657,7.381 21.959,7.381 1.958,0 3.908,-0.185 5.808,-0.552 9.339,-1.791 11.683,-9.541 11.615,-13.39 -0.008,-0.619 -0.359,-1.18 -0.912,-1.457 -0.552,-0.283 -1.213,-0.232 -1.715,0.127 z" /></g></g><g
     style="display:inline"
     id="layer1"><circle
       r="70.778664"
       cy="70.778664"
       cx="70.778664"
       id="path3337"
       style="fill:#ffffff" /></g><g
     style="display:inline"
     id="layer2"><path
       style="fill:#1a1a1a"
       id="path11"
       d="m 119.349,78.032 0,-10.494 C 114.127,62.191 105.541,55.822 93.808,55.144 70.092,53.754 59.547,68.132 55.531,74.392 l 2.301,-25.165 c 12.118,1.85 22.135,-1.624 26.412,-3.481 2.828,1.908 8.636,3.615 19.473,-0.896 3.85,-1.607 5.339,-4.26 5.908,-6.201 1.456,-4.954 -1.473,-10.302 -2.578,-12.084 C 104.922,17.912 103.072,11.971 100.06,7.401 99.382,6.363 92.93,-2.583 76.804,2.723 67.18,5.887 56.36,12.013 44.627,20.933 23.211,37.227 11.889,73.354 9.604,84.727 7.27,96.401 9.562,102.351 12.81,108.912 c 0.929,1.875 5.13,6.586 11.582,8.385 7.423,2.076 47.726,9.256 94.958,9.649 l 0,-6.661 C 73.415,119.891 33.121,112.82 26.183,110.887 21.781,109.657 19.07,106.443 18.777,105.958 15.932,100.192 14.208,95.69 16.141,86.032 18.844,72.542 30.35,40.164 48.661,26.239 59.8,17.762 69.967,11.979 78.889,9.051 85.534,6.858 89.626,7.762 91.952,8.967 c 1.465,0.552 2.812,1.498 3.699,3.096 0.469,0.854 0.962,2.101 1.397,3.28 0.611,1.699 1.08,3.264 1.08,3.264 l 0,0 c 1.08,2.896 2.109,6.728 2.259,7.23 0.151,0.486 0.075,0.871 -0.092,1.189 -0.226,0.427 -0.628,0.736 -1.08,0.929 -0.795,0.326 -2.151,0.427 -2.82,-0.536 -0.661,-0.962 -1.933,-4.034 -2.192,-4.962 l -2.427,-6.21 0,0 0,0 c 0,0 -0.519,-0.979 -1.364,-1.188 -0.669,-0.167 -1.757,0.142 -2.143,0.745 -0.494,0.77 -0.1,1.933 -0.1,1.933 0,0 4.226,10.737 4.427,11.323 0.376,1.113 -0.327,1.774 -1.104,2.125 -0.787,0.343 -2.125,0.46 -2.804,-0.477 C 88.027,29.804 83.977,20.139 83.675,19.427 L 83.65,19.351 c 0,0 -0.519,-0.979 -1.364,-1.179 -0.669,-0.167 -1.766,0.133 -2.143,0.736 -0.594,0.971 -0.15,1.958 -0.15,1.958 0.879,1.95 4.887,10.821 5.08,11.339 0.41,1.071 -0.259,1.749 -1.013,2.117 -0.753,0.36 -2.067,0.527 -2.77,-0.368 -0.703,-0.904 -5.891,-11.222 -5.891,-11.222 0,0 -0.611,-0.92 -1.473,-1.038 -0.678,-0.101 -1.791,0.293 -2.05,0.954 -0.31,0.803 0.092,1.941 0.092,1.941 0,0 5.197,10.436 5.481,11.005 0.519,1.071 -0.101,1.824 -0.837,2.268 -0.737,0.444 -2.067,0.728 -2.879,-0.125 -0.644,-0.687 -4.82,-7.917 -6.527,-10.879 -3.264,2.51 -1.339,5.808 -0.728,7.757 0.368,1.155 0.452,5.105 -1.473,6.846 -1.297,1.18 -2.82,1.448 -4.008,1.439 -0.569,-0.05 -1.146,-0.134 -1.724,-0.217 -0.142,-0.034 -0.243,-0.067 -0.243,-0.067 0,0 0.042,0.034 0.059,0.042 -1.138,-0.159 -2.285,-0.36 -3.457,-0.645 -0.946,-0.226 -1.933,-0.025 -2.711,0.536 -0.787,0.561 -1.289,1.439 -1.38,2.402 l -3.264,35.658 c -0.083,0.895 0.201,1.774 0.778,2.46 0.577,0.678 1.406,1.105 2.293,1.164 0.469,0.042 4.594,0.243 7.59,-2.996 0.469,-0.51 0.887,-1.171 1.515,-2.176 3.172,-5.062 11.624,-18.486 32.972,-17.273 15.171,0.879 24.427,13.976 25.924,16.244 z M 91.558,35.628 c 1.046,-0.787 7.632,-3.841 10.151,-4.996 0.603,-0.284 0.979,-0.452 0.979,-0.452 0,0 1.564,2 1.205,4.603 -0.075,0.519 -0.284,0.971 -0.561,1.381 -0.619,0.896 -1.59,1.54 -2.418,1.891 -2.82,1.18 -5.247,2.184 -5.85,2.335 -2.251,0.578 -3.414,0.008 -3.967,-1.004 -0.56,-1.013 -0.836,-2.779 0.461,-3.758 z"
       transform="matrix(0.76370519,0,0,0.76370519,15.901259,17.901708)" /></g><g
     style="display:none"
     id="layer3"><g
       transform="matrix(0.80764893,0,0,0.80764893,11.935575,13.611688)"
       id="g4"><path
         d="m 112.28,65.24 c -0.46,-0.79 -1.05,-1.53 -1.9,-2.21 -6.65,-5.33 -18.68,-5.59 -27.01,-4.71 -7.22,0.76 -13.41,4.03 -18.65,9 -1.89,1.8 -3.46,3.8 -5.36,5.62 -1.31,1.25 -2.64,3.37 -4.28,4.19 -2.74,1.36 -3.21,-0.24 -3.21,-2.72 0.03,-5.6 0.91,-10.74 1.6,-16.21 0.35,-2.83 0.77,-5.6 1.09,-8.42 0.29,-2.65 1.14,-3.14 3.74,-3.21 4.79,-0.13 9.67,-0.59 14.06,-2.01 4.38,-1.41 9.12,-3.35 13.79,-3.35 2.55,0 4.51,1.4 6.96,1.61 2.34,0.2 4.63,0.08 6.82,-0.67 2.21,-0.76 6.52,-2.34 7.57,-4.69 0.8,-1.8 -0.3,-4.28 -0.49,-5.86 -0.27,-2.33 -2.16,-2.71 -3.09,-4.88 -0.84,-1.94 -0.17,-4.15 -1.31,-5.83 -1.11,-1.65 -1.36,-4.05 -2.12,-5.9 C 99.75,13.14 99.08,11.14 98.08,9.5 96.75,7.32 96.09,6.13 93.62,5.33 92.04,4.82 90.52,3.9 88.84,3.71 84.45,3.22 79.88,4.27 75.97,5.74 70.3,7.88 64.25,9.88 59.22,13.36 c -3.59,2.48 -7.03,4.95 -10.57,7.63 -1.99,1.51 -4.18,2.82 -5.92,4.57 -0.23,0.23 -0.46,0.51 -0.69,0.8 -3.87,1.36 -8.54,13.05 -10.31,15.87 -4.1,6.54 -8.62,12.81 -11.97,19.79 -5.57,11.65 -9.39,27.79 -4.73,40.39 1.78,4.82 6.4,10.02 11.76,10.6 5.86,0.64 11.45,1.08 17.17,3.05 3.89,1.34 7.72,2.94 11.77,3.77 4.93,1 9.99,0.65 15,0.65 5.11,0 4.95,0.56 10.8,0.77 1.15,0.04 3.92,0.31 5.07,0.23 l 2.2,0.08 30.53,1.07 0,-54.11 -7.05,-3.28 z m -72.73,-36.36 1.32,-1.1 c -0.39,0.45 -0.81,0.86 -1.32,1.1 z"
         style="fill:#fcc21b"
         id="path6" /><g
         id="g8"><g
           id="g10"><path
             d="m 105.05,26.57 c -1.49,-6.08 -0.82,-4.93 -4.5,-14.26 -2.76,-7.01 -7.59,-8.63 -12.88,-8.7 1.63,0.2 3.21,0.43 4.62,1.48 1.42,1.04 2.47,5.38 3.36,6.98 0.47,0.85 0.96,2.1 1.4,3.28 0.61,1.7 1.08,3.26 1.08,3.26 1.08,2.9 2.11,6.73 2.26,7.23 0.07,0.21 0.08,0.4 0.07,0.58 -0.01,0.23 -0.07,0.43 -0.16,0.61 -0.23,0.43 -0.63,0.74 -1.08,0.93 -0.79,0.33 -2.15,0.43 -2.82,-0.54 -0.66,-0.96 -1.93,-4.03 -2.19,-4.96 l -2.43,-6.21 c 0,0 -0.52,-0.98 -1.36,-1.19 -0.67,-0.17 -1.76,0.14 -2.14,0.74 -0.49,0.77 -0.1,1.93 -0.1,1.93 0,0 4.23,10.74 4.43,11.32 0.38,1.11 -0.33,1.77 -1.1,2.13 -0.79,0.34 -2.13,0.46 -2.8,-0.48 C 88.05,29.8 84,20.13 83.7,19.42 l -0.03,-0.08 c 0,0 -0.52,-0.98 -1.36,-1.18 -0.67,-0.17 -1.77,0.13 -2.14,0.74 -0.59,0.97 -0.15,1.96 -0.15,1.96 0.88,1.95 4.89,10.82 5.08,11.34 0.41,1.07 -0.26,1.75 -1.01,2.12 -0.75,0.36 -2.07,0.53 -2.77,-0.37 -0.7,-0.9 -5.89,-11.22 -5.89,-11.22 0,0 -0.61,-0.92 -1.47,-1.04 -0.68,-0.1 -1.79,0.29 -2.05,0.95 -0.31,0.8 0.09,1.94 0.09,1.94 0,0 5.2,10.44 5.48,11 0.52,1.07 -0.1,1.82 -0.84,2.27 -0.74,0.44 -2.07,0.73 -2.88,-0.13 -0.64,-0.69 -4.82,-7.92 -6.53,-10.88 -3.26,2.51 -1.34,5.81 -0.73,7.76 0.37,1.16 0.45,5.11 -1.47,6.85 -1.3,1.18 -2.82,1.45 -4.01,1.44 -0.57,-0.05 -1.15,-0.13 -1.72,-0.22 -0.14,-0.03 -0.24,-0.07 -0.24,-0.07 0,0 0.04,0.03 0.06,0.04 -1.14,-0.16 -2.28,-0.36 -3.46,-0.64 -0.95,-0.23 -1.93,-0.02 -2.71,0.54 -0.79,0.56 -1.29,1.44 -1.38,2.4 L 48.31,80.6 c -0.08,0.89 0.99,3.47 1.56,4.15 2.11,-3.83 2.49,-4.62 5.74,-7.94 -0.02,0.03 0.43,-7.67 0.43,-7.67 l 1.82,-19.93 c 12.12,1.85 22.13,-1.62 26.41,-3.48 2.83,1.91 8.64,3.62 19.47,-0.9 0.14,-0.06 0.26,-0.13 0.39,-0.19 3.54,-1.62 4.97,-4.14 5.52,-6.01 1.43,-4.93 -3.5,-10.28 -4.6,-12.06 z m -1.16,8.21 c -0.08,0.52 -0.28,0.97 -0.56,1.38 -0.62,0.9 -1.59,1.54 -2.42,1.89 -2.82,1.18 -5.25,2.18 -5.85,2.33 -2.25,0.58 -3.41,0.01 -3.97,-1 -0.56,-1.01 -0.84,-2.78 0.46,-3.76 1.05,-0.79 7.63,-3.84 10.15,-5 0.6,-0.28 0.98,-0.45 0.98,-0.45 0,0 1.57,2.01 1.21,4.61 z"
             style="fill:#e48c15"
             id="path12" /><path
             d="m 119.35,120.28 c -45.93,-0.39 -86.23,-7.46 -93.17,-9.4 -4.4,-1.23 -11.63,-9.63 -12.24,-12.13 2.81,10.37 10.59,16.64 14.68,18.87 4.09,2.23 46.59,8.95 90.72,9.32 l 0,-6.66 z"
             style="fill:#e48c15"
             id="path14" /></g><path
           d="m 108.47,90.17 c -6.75,4.8 -16.61,5.82 -23.69,5.82 -6.62,0 -11.71,-0.87 -11.76,-0.88 -0.75,-0.13 -1.5,0.27 -1.81,0.96 -0.31,0.7 -0.1,1.52 0.5,1.99 0.39,0.3 9.66,7.38 21.96,7.38 1.96,0 3.91,-0.18 5.81,-0.55 9.34,-1.79 11.68,-9.54 11.62,-13.39 -0.01,-0.62 -0.36,-1.18 -0.91,-1.46 -0.56,-0.28 -1.22,-0.23 -1.72,0.13 z"
           style="fill:#e48c15"
           id="path16" /></g></g></g></svg>