<?xml version="1.0" encoding="UTF-8" standalone="no"?>
<!-- Created with Inkscape (http://www.inkscape.org/) -->

<svg
   xmlns:dc="http://purl.org/dc/elements/1.1/"
   xmlns:cc="http://creativecommons.org/ns#"
   xmlns:rdf="http://www.w3.org/1999/02/22-rdf-syntax-ns#"
   xmlns:svg="http://www.w3.org/2000/svg"
   xmlns="http://www.w3.org/2000/svg"
   xmlns:sodipodi="http://sodipodi.sourceforge.net/DTD/sodipodi-0.dtd"
   xmlns:inkscape="http://www.inkscape.org/namespaces/inkscape"
   width="194.50491mm"
   height="71.498535mm"
   viewBox="0 0 689.19064 253.34127"
   id="svg22171"
   version="1.1"
   inkscape:version="0.91 r13725"
   sodipodi:docname="ingenia-logo5.svg">
  <defs
     id="defs22173" />
  <sodipodi:namedview
     id="base"
     pagecolor="#ffffff"
     bordercolor="#666666"
     borderopacity="1.0"
     inkscape:pageopacity="0.0"
     inkscape:pageshadow="2"
     inkscape:zoom="0.85585937"
     inkscape:cx="-182.23858"
     inkscape:cy="-67.408021"
     inkscape:document-units="px"
     inkscape:current-layer="layer1"
     showgrid="false"
     fit-margin-top="0"
     fit-margin-left="0"
     fit-margin-right="0"
     fit-margin-bottom="0"
     inkscape:window-width="1920"
     inkscape:window-height="1059"
     inkscape:window-x="0"
     inkscape:window-y="21"
     inkscape:window-maximized="1" />
  <metadata
     id="metadata22176">
    <rdf:RDF>
      <cc:Work
         rdf:about="">
        <dc:format>image/svg+xml</dc:format>
        <dc:type
           rdf:resource="http://purl.org/dc/dcmitype/StillImage" />
        <dc:title></dc:title>
      </cc:Work>
    </rdf:RDF>
  </metadata>
  <g
     inkscape:label="Layer 1"
     inkscape:groupmode="layer"
     id="layer1"
     transform="translate(-30.867061,-211.61291)">
    <path
       inkscape:connector-curvature="0"
       id="path12600"
       style="fill:#2d2d2d;fill-opacity:1;fill-rule:evenodd;stroke:none"
       d="M 199.33488,326.15416 161.79536,275.8989 c -4.97663,-6.66344 -3.60762,-16.11381 3.05932,-21.09044 4.5296,-3.38411 10.52252,-3.8905 15.48518,-1.53315 l 0.22351,-0.28288 44.98875,34.83642 -11.13019,-51.09691 c -1.77063,-8.13025 3.41205,-16.15921 11.5388,-17.91937 6.60757,-1.43187 13.39675,1.77063 16.53639,7.73561 l 27.3837,51.96302 14.00441,-55.50429 c 2.03256,-8.06389 10.25012,-12.96718 18.31051,-10.93462 6.72981,1.69729 11.46547,7.84387 11.39213,14.76925 l 1.59252,68.32129 c 0.006,0.27241 0.006,0.54481 -0.003,0.81373 11.83216,5.58081 21.46064,14.06728 28.90289,24.67361 2.22813,-4.75661 6.88346,-8.22803 12.48523,-8.67505 l 60.86508,-4.85789 c 3.12568,-0.24447 6.25833,0.5029 8.92302,2.08495 2.45863,-2.26306 5.61573,-3.6635 9.0208,-3.93242 l 12.32109,-0.98834 0.0279,0.39813 c 2.7485,0.38416 5.36428,1.51918 7.52606,3.32125 l 25.62704,21.30348 -0.95691,-12.02075 c -0.66705,-8.30137 5.55287,-15.59345 13.85424,-16.257 l 25.48385,-2.03256 c 3.18155,-0.25508 6.37358,0.52735 9.06969,2.16876 2.39926,-2.05701 5.4027,-3.32474 8.61918,-3.58317 l 47.49628,-3.79272 c 8.30137,-0.66006 15.59344,5.55287 16.25699,13.85424 l 1.73571,21.72955 c 0.55529,7.01269 -3.82764,13.36182 -10.2571,15.52011 l 1.95224,24.47804 c 2.45863,0.24447 4.809,1.08962 6.84854,2.43419 l 26.89477,-73.11284 c 1.79508,-5.93703 7.0511,-10.19074 13.25705,-10.68666 l 13.97648,-1.11407 0.0313,0.38067 c 4.58898,0.64958 8.73093,3.40507 11.06384,7.54353 l 51.16327,90.83313 c 1.35504,2.09543 2.15479,4.48072 2.35386,6.97078 l 0.28986,3.62159 c 0.66006,8.30137 -5.55636,15.59345 -13.85424,16.257 l -24.37327,1.94176 c -5.82179,0.46798 -11.45499,-2.518 -14.33969,-7.60639 l -1.94176,-3.42951 -19.26044,1.54014 -1.21534,3.25838 c -1.93478,5.71352 -7.07904,9.73674 -13.11037,10.21869 l -24.36978,1.94874 c -2.06749,0.16428 -4.12799,-0.0944 -6.07324,-0.75785 -1.81254,0.9639 -3.8032,1.54363 -5.86719,1.70778 l -49.44502,3.94638 c -2.98947,0.24111 -5.96846,-0.42258 -8.55981,-1.86144 -2.32242,1.83699 -5.14775,2.95455 -8.15818,3.19902 l -12.14647,0.96738 -0.0316,-0.38765 c -2.75897,-0.38416 -5.38523,-1.52267 -7.554,-3.32125 l -25.47686,-21.14981 0.98136,12.26871 c 0.66355,8.30486 -5.54939,15.58995 -13.85076,16.257 l -25.76673,2.057 c -2.99296,0.23748 -5.97545,-0.42607 -8.5598,-1.86842 -2.32942,1.84048 -5.15824,2.96154 -8.16517,3.20251 l -62.12234,4.95568 c -6.70885,0.53782 -12.76462,-3.42253 -15.18484,-9.3421 -10.25361,13.52945 -24.89713,23.19983 -40.73853,28.9832 -21.92861,7.99405 -46.78383,7.88928 -68.10128,-1.99414 -10.08946,-4.68327 -18.87977,-11.25592 -26.19978,-19.39315 -0.0978,7.70418 -6.06975,14.22444 -13.89965,14.84608 l -12.18464,0.97437 -0.0279,-0.39464 c -2.745,-0.38416 -5.36079,-1.52267 -7.52257,-3.31775 l -25.47337,-21.14632 0.97786,12.26521 c 0.66356,8.30137 -5.55287,15.59345 -13.84726,16.257 l -25.77022,2.05352 c -2.71008,0.22016 -5.42365,-0.30384 -7.84038,-1.48775 -2.20019,1.55759 -4.78804,2.50403 -7.51209,2.71706 l -49.445025,3.94988 c -8.30137,0.65656 -15.59345,-5.55637 -16.257,-13.85425 l -1.74269,-21.86924 c -0.59021,-7.39685 4.27117,-13.99045 11.21401,-15.80997 l -1.95573,-24.47106 c -6.70536,-1.10359 -12.02424,-6.66345 -12.59001,-13.70058 l -1.73221,-21.72606 c -0.66355,-8.30137 5.54938,-15.59694 13.85075,-16.257 l 47.496277,-3.79271 c 2.779929,-0.22352 5.556366,0.33526 8.014998,1.57855 2.34687,-1.89636 5.2211,-3.05233 8.27693,-3.30029 l 12.28966,-0.97787 0.0316,0.38416 c 2.75897,0.38416 5.38524,1.52617 7.554,3.32824 l 25.62704,21.30347 -0.95691,-12.02075 c -0.66705,-8.30137 5.55287,-15.59344 13.85424,-16.25699 l 25.48385,-2.03606 c 2.41672,-0.18859 4.76709,0.20619 6.89744,1.07915" />
    <path
       inkscape:connector-curvature="0"
       id="path12604"
       style="fill:#ffffff;fill-opacity:1;fill-rule:evenodd;stroke:none"
       d="m 261.24627,294.45682 -17.44091,6.35961 -14.654,-67.27359 32.09491,60.91398 z m -32.93308,14.58066 -13.23958,13.00909 -41.20651,-55.16553 54.44609,42.15644 z m 71.7997,-13.50501 -18.44671,-2.07447 16.84371,-66.7637 1.603,68.83817 z m -107.607,142.81013 -52.98629,-43.98994 3.82066,47.91187 c -8.63315,0.69149 -17.26979,1.38298 -25.76673,2.05701 l -7.81593,-97.91567 9.05572,-0.71943 53.14694,44.18201 -3.80669,-47.70232 25.48734,-2.03606 7.78101,97.50008 -8.91603,0.71245 z M 418.63007,322.17578 c -22.84361,1.82302 -38.30086,3.05932 -60.86508,4.85789 2.58086,32.31144 5.17919,64.90576 7.78101,97.49659 22.56422,-1.80206 39.27872,-3.13266 62.12233,-4.95917 -0.59021,-7.37939 -1.1874,-14.89846 -1.77063,-22.14514 -14.62257,1.16645 -22.97982,1.83699 -37.32299,2.979 -0.47147,-5.84973 -0.915,-11.42356 -1.3725,-17.1301 l 33.15309,-2.64721 c -0.59021,-7.37939 -1.18042,-14.76576 -1.76714,-22.14514 l -33.1496,2.64721 -1.10359,-13.78788 c 14.35016,-1.149 21.58985,-1.72873 36.07621,-2.88471 -0.60069,-7.51907 -1.20137,-15.04165 -1.78111,-22.28134 m 100.6956,90.07879 8.91603,-0.70895 -7.78101,-97.50357 c -8.49694,0.6845 -16.99389,1.36202 -25.49083,2.03605 l 3.81018,47.70931 -53.15043,-44.189 -9.05223,0.72292 7.81244,97.91567 c 8.50043,-0.67752 17.13707,-1.36551 25.77022,-2.057 l -3.82415,-47.91187 52.98978,43.98644 z m 60.93493,-26.86683 -4.3026,-53.90129 11.42355,-0.91151 -1.73571,-21.72955 -47.49628,3.78923 1.73222,21.72955 11.42355,-0.91151 4.29912,53.90478 -12.39444,0.98834 1.74619,21.86575 49.44851,-3.94638 -1.74618,-21.86575 -12.39793,0.98834 z m 83.84839,-18.46767 -22.28134,1.77762 8.95444,-26.50712 13.3269,24.7295 z m 16.47003,32.4651 24.37328,-1.94525 -0.28638,-3.62159 -51.61029,-91.61543 -10.72159,0.85214 -36.28576,98.6351 0.28987,3.62159 24.37677,-1.94525 4.73216,-12.71224 38.44056,-3.0698 6.69138,11.80073 z m -592.498585,25.28478 -4.302604,-53.90128 11.420061,-0.91151 -1.732217,-21.72955 -47.49628,3.78922 1.73222,21.72955 11.42355,-0.91151 4.29911,53.90478 -12.39094,0.98834 1.7427,21.86925 49.448515,-3.94639 -1.74619,-21.86924 -12.397925,0.98834 z M 212.47179,401.83682 c 16.78435,45.42879 59.31097,55.58461 93.19398,43.22859 24.55487,-8.95444 45.98757,-28.85049 45.36942,-60.11422 -0.15367,-14.60859 -4.80551,-27.36623 -10.42474,-40.41025 l -63.0059,22.97633 10.76,29.50706 28.35807,-10.34441 c -1.43537,14.97529 -8.87412,21.78891 -22.58169,26.78301 -20.17543,7.36192 -38.39864,-2.3818 -46.45205,-24.46757 -7.42828,-20.36752 -1.9243,-41.35319 19.58872,-49.20055 13.512,-4.92774 23.93673,-3.55175 33.62108,5.85321 l 33.50233,-12.21632 c -18.54799,-30.76082 -51.59981,-34.45226 -78.50854,-24.85522 -33.8865,12.35951 -59.81737,47.69534 -43.42068,93.26034" />
  </g>
</svg>
