<?xml version="1.0" encoding="UTF-8" standalone="no"?>
<!-- Generator: Adobe Illustrator 17.0.0, SVG Export Plug-In . SVG Version: 6.00 Build 0)  -->

<svg
   xmlns:dc="http://purl.org/dc/elements/1.1/"
   xmlns:cc="http://creativecommons.org/ns#"
   xmlns:rdf="http://www.w3.org/1999/02/22-rdf-syntax-ns#"
   xmlns:svg="http://www.w3.org/2000/svg"
   xmlns="http://www.w3.org/2000/svg"
   xmlns:sodipodi="http://sodipodi.sourceforge.net/DTD/sodipodi-0.dtd"
   xmlns:inkscape="http://www.inkscape.org/namespaces/inkscape"
   version="1.1"
   id="Layer_2"
   x="0px"
   y="0px"
   width="490.32px"
   height="180px"
   viewBox="48.707 368.706 490.32 180"
   enable-background="new 48.707 368.706 490.32 180"
   xml:space="preserve"
   inkscape:version="0.91 r13725"
   sodipodi:docname="ingenia-logo2.svg"><metadata
     id="metadata13"><rdf:RDF><cc:Work
         rdf:about=""><dc:format>image/svg+xml</dc:format><dc:type
           rdf:resource="http://purl.org/dc/dcmitype/StillImage" /></cc:Work></rdf:RDF></metadata><defs
     id="defs11" /><sodipodi:namedview
     pagecolor="#ffffff"
     bordercolor="#666666"
     borderopacity="1"
     objecttolerance="10"
     gridtolerance="10"
     guidetolerance="10"
     inkscape:pageopacity="0"
     inkscape:pageshadow="2"
     inkscape:window-width="1366"
     inkscape:window-height="747"
     id="namedview9"
     showgrid="false"
     inkscape:zoom="1.3367705"
     inkscape:cx="245.16"
     inkscape:cy="89.999999"
     inkscape:window-x="0"
     inkscape:window-y="21"
     inkscape:window-maximized="1"
     inkscape:current-layer="Layer_2" /><g
     id="g3"><polygon
       fill="#939598"
       points="484.781,500.664 500.798,500.68 492.707,482.255  "
       id="polygon5"
       style="fill:#ffffff" /><path
       fill="#939598"
       d="M539.025,522.229c0.002-1.786-0.428-3.539-1.274-5.112l-31.31-67.804c-1.42-3.091-4.224-5.294-7.464-6.023   l0.001-0.275l-10.049-0.007c-4.456-0.005-8.454,2.728-10.081,6.864l-23.409,50.661c-1.382-1.08-3.015-1.816-4.755-2.131   l0.016-17.59c4.717-1.174,8.208-5.454,8.223-10.494l0.006-15.616c0.01-5.964-4.849-10.821-10.812-10.825l-34.129-0.029   c-2.307-0.001-4.537,0.728-6.365,2.061c-1.835-1.324-4.061-2.068-6.349-2.071l-18.312-0.012   c-5.968-0.005-10.825,4.842-10.832,10.809l-0.007,8.639l-17.072-16.69c-1.435-1.403-3.242-2.368-5.183-2.802l0.003-0.284   l-8.854-0.007c-2.448-0.002-4.778,0.819-6.662,2.292c-1.826-1.283-4.011-2-6.253-2.001l-43.748-0.034   c-4.022-0.005-7.544,2.204-9.409,5.474c-4.705-8.005-11.089-14.618-19.218-19.28c0.022-0.195,0.036-0.39,0.052-0.581l2.789-48.876   c0.456-4.941-2.573-9.606-7.279-11.205c-5.64-1.913-11.79,1.113-13.702,6.754l-13.196,38.828l-16.563-38.681   c-1.898-4.44-6.564-7.115-11.361-6.475c-5.91,0.789-10.068,6.224-9.273,12.131l5.011,37.126l-30.121-27.461l-0.174,0.188   c-3.411-1.97-7.714-1.952-11.15,0.203c-5.049,3.168-6.567,9.84-3.395,14.882l23.909,38.045c-1.475-0.746-3.128-1.164-4.859-1.165   l-18.317-0.013c-5.965-0.005-10.823,4.844-10.825,10.811l-0.008,8.638l-17.074-16.687c-1.449-1.413-3.255-2.379-5.202-2.81v-0.276   l-8.83-0.006c-2.2-0.004-4.32,0.657-6.104,1.875c-1.684-1.026-3.637-1.584-5.63-1.585l-34.135-0.029   c-5.962-0.005-10.821,4.845-10.829,10.811l-0.008,15.615c-0.005,5.057,3.477,9.333,8.201,10.51l-0.013,17.583   c-5.06,0.9-8.917,5.328-8.92,10.643l-0.014,15.715c-0.001,5.966,4.847,10.822,10.812,10.828l35.534,0.025   c1.96,0.006,3.858-0.52,5.524-1.504c1.655,0.984,3.562,1.512,5.511,1.516l18.514,0.012c5.967,0.006,10.822-4.841,10.833-10.807   l0.001-8.817l16.972,16.566c1.443,1.407,3.242,2.369,5.18,2.803l-0.002,0.283l8.756,0.007c5.628,0.003,10.264-4.309,10.78-9.803   c4.755,6.23,10.655,11.431,17.591,15.354c14.65,8.285,32.392,9.79,48.51,5.341c11.645-3.214,22.656-9.278,30.761-18.349   c1.388,4.367,5.48,7.543,10.301,7.544l44.636,0.037c2.169,0.001,4.255-0.639,6.021-1.815c1.763,1.177,3.854,1.822,6.002,1.827   l18.522,0.013c5.968,0.005,10.818-4.845,10.825-10.81l0.009-8.818l16.969,16.567c1.449,1.412,3.256,2.376,5.207,2.808l-0.006,0.279   l8.728,0.005c2.163,0.002,4.253-0.635,6.016-1.815c1.767,1.177,3.852,1.821,6.002,1.824l35.535,0.029   c1.48,0.001,2.947-0.296,4.285-0.882c1.352,0.583,2.812,0.889,4.288,0.888l17.527,0.015c4.33,0.004,8.235-2.576,9.944-6.543   l1.053-2.258l13.843,0.011l1.189,2.555c1.77,3.804,5.617,6.26,9.801,6.264l17.516,0.011c5.962,0.006,10.829-4.841,10.83-10.809   L539.025,522.229z M95.064,524.485l-35.538-0.029l0.016-15.715l8.906,0.007l0.029-38.738l-8.208-0.005l0.017-15.614l34.125,0.027   l-0.005,15.615l-8.212-0.007l-0.027,38.738l8.906,0.004L95.064,524.485z M166.353,524.541l-6.402-0.005l-35.311-34.46   l-0.032,34.432c-6.202-0.006-12.411-0.011-18.516-0.017l0.064-70.364l6.501,0.004l35.402,34.612l0.029-34.284   c6.107,0.005,12.21,0.01,18.315,0.014L166.353,524.541z M247.816,379.508l-2.819,49.248l-13.052-2.541L247.816,379.508z    M217.307,425.753l-12.818,3.537l-6.596-48.883L217.307,425.753z M156.504,401.031l36.454,33.234l-10.204,8.531L156.504,401.031z    M276.214,495.537c-1.361,22.36-17.808,35.329-35.859,40.31c-24.905,6.875-54.683-2.827-64.053-36.226   c-9.088-33.482,11.462-57.224,36.369-64.095c19.766-5.307,43.153-0.769,54.631,22.266l-24.626,6.793   c-6.376-7.273-13.739-8.857-23.674-6.115c-15.808,4.365-20.949,19.034-16.82,34.004c4.484,16.231,16.931,24.238,31.764,20.145   c10.076-2.777,15.775-7.215,17.669-17.827l-20.85,5.756l-5.983-21.688l46.315-12.78   C274.358,475.72,276.944,485.094,276.214,495.537z M328.936,524.668c-16.411-0.015-28.427-0.025-44.638-0.034   c0.019-23.423,0.031-46.847,0.049-70.069c16.217,0.012,27.326,0.024,43.744,0.034c-0.002,5.206-0.008,10.608-0.013,16.017   c-10.411-0.01-15.613-0.015-25.921-0.02l-0.006,9.909l23.82,0.018c-0.002,5.306-0.01,10.61-0.016,15.913l-23.82-0.017   c-0.003,4.103-0.008,8.107-0.012,12.312c10.311,0.008,16.319,0.012,26.828,0.022C328.946,513.958,328.942,519.361,328.936,524.668z    M401.208,524.722l-6.402-0.005l-35.313-34.459l-0.02,34.433c-6.204-0.002-12.412-0.01-18.52-0.013l0.056-70.369l6.508,0.006   l35.407,34.611l0.028-34.284c6.104,0.004,12.214,0.011,18.316,0.015L401.208,524.722z M448.757,524.759l-35.531-0.027l0.009-15.713   l8.905,0.007l0.035-38.737l-8.207-0.006l0.011-15.614l34.133,0.026l-0.013,15.615l-8.208-0.009l-0.028,38.739l8.909,0.005   L448.757,524.759z M528.208,524.822l-17.522-0.013l-4.093-8.812l-27.628-0.022l-4.111,8.805l-17.516-0.013l0.002-2.601   l31.581-68.342l7.709,0.004l31.58,68.395L528.208,524.822z"
       id="path7"
       style="fill:#ffffff" /></g></svg>
