<?xml version="1.0" encoding="UTF-8" standalone="no"?>
<!-- Created with Inkscape (http://www.inkscape.org/) -->

<svg
   xmlns:dc="http://purl.org/dc/elements/1.1/"
   xmlns:cc="http://creativecommons.org/ns#"
   xmlns:rdf="http://www.w3.org/1999/02/22-rdf-syntax-ns#"
   xmlns:svg="http://www.w3.org/2000/svg"
   xmlns="http://www.w3.org/2000/svg"
   xmlns:sodipodi="http://sodipodi.sourceforge.net/DTD/sodipodi-0.dtd"
   xmlns:inkscape="http://www.inkscape.org/namespaces/inkscape"
   width="299.86127mm"
   height="112.83001mm"
   viewBox="0 0 1062.5006 399.79137"
   id="svg3400"
   version="1.1"
   inkscape:version="0.91 r13725"
   sodipodi:docname="ingenia2018.svg">
  <defs
     id="defs3402">
    <clipPath
       clipPathUnits="userSpaceOnUse"
       id="clipPath22">
      <path
         d="m 0,1080 1920,0 L 1920,0 0,0 0,1080 Z"
         id="path24"
         inkscape:connector-curvature="0" />
    </clipPath>
  </defs>
  <sodipodi:namedview
     id="base"
     pagecolor="#ffffff"
     bordercolor="#666666"
     borderopacity="1.0"
     inkscape:pageopacity="0.0"
     inkscape:pageshadow="2"
     inkscape:zoom="0.35"
     inkscape:cx="511.96457"
     inkscape:cy="-45.818608"
     inkscape:document-units="px"
     inkscape:current-layer="layer1"
     showgrid="false"
     fit-margin-top="0"
     fit-margin-left="0"
     fit-margin-right="0"
     fit-margin-bottom="0"
     inkscape:window-width="1920"
     inkscape:window-height="1059"
     inkscape:window-x="1366"
     inkscape:window-y="21"
     inkscape:window-maximized="1" />
  <metadata
     id="metadata3405">
    <rdf:RDF>
      <cc:Work
         rdf:about="">
        <dc:format>image/svg+xml</dc:format>
        <dc:type
           rdf:resource="http://purl.org/dc/dcmitype/StillImage" />
        <dc:title></dc:title>
      </cc:Work>
    </rdf:RDF>
  </metadata>
  <g
     inkscape:label="Layer 1"
     inkscape:groupmode="layer"
     id="layer1"
     transform="translate(136.96457,-86.752234)">
    <g
       id="g18"
       transform="matrix(1.25,0,0,-1.25,-805.7146,988.47111)">
      <g
         id="g20"
         clip-path="url(#clipPath22)">
        <g
           id="g26"
           transform="translate(751.5928,570.376)">
          <path
             d="m 0,0 -45.663,61.13 c -6.054,8.108 -4.389,19.601 3.719,25.655 5.512,4.119 12.8,4.735 18.838,1.869 l 0.273,0.342 54.726,-42.375 -13.539,62.155 c -2.155,9.889 4.146,19.657 14.033,21.797 8.036,1.739 16.296,-2.152 20.117,-9.407 l 33.31,-63.213 17.034,67.519 c 2.474,9.807 12.465,15.774 22.272,13.301 8.187,-2.066 13.946,-9.542 13.857,-17.97 l 1.938,-83.102 c 0.006,-0.332 0.006,-0.663 -0.004,-0.994 14.39,-6.786 26.104,-17.107 35.158,-30.01 2.71,5.788 8.37,10.006 15.185,10.55 l 74.037,5.91 c 3.801,0.301 7.613,-0.612 10.855,-2.536 2.99,2.753 6.833,4.457 10.974,4.787 l 14.984,1.196 0.034,-0.476 c 3.344,-0.47 6.528,-1.854 9.158,-4.042 l 31.171,-25.916 -1.166,14.624 c -0.808,10.098 6.753,18.967 16.85,19.773 l 31.003,2.475 c 3.87,0.308 7.75,-0.646 11.033,-2.639 2.917,2.503 6.573,4.043 10.485,4.356 l 57.776,4.612 c 10.097,0.805 18.966,-6.754 19.772,-16.85 l 2.109,-26.43 c 0.68,-8.53 -4.653,-16.253 -12.473,-18.881 l 2.376,-29.774 c 2.988,-0.298 5.846,-1.325 8.329,-2.961 l 32.714,88.937 c 2.182,7.221 8.577,12.395 16.126,12.998 l 17.001,1.355 0.036,-0.467 c 5.584,-0.787 10.624,-4.138 13.459,-9.173 l 62.239,-110.489 c 1.642,-2.55 2.62,-5.454 2.861,-8.48 l 0.352,-4.405 c 0.804,-10.099 -6.756,-18.968 -16.851,-19.773 l -29.649,-2.367 c -7.083,-0.566 -13.933,3.068 -17.443,9.259 l -2.36,4.164 -23.431,-1.869 -1.477,-3.967 c -2.35,-6.945 -8.611,-11.843 -15.946,-12.429 l -29.647,-2.366 c -2.513,-0.203 -5.018,0.112 -7.382,0.919 -2.206,-1.172 -4.63,-1.878 -7.142,-2.079 l -60.145,-4.8 c -3.636,-0.292 -7.262,0.517 -10.406,2.268 -2.828,-2.235 -6.267,-3.6 -9.926,-3.891 l -14.778,-1.18 -0.037,0.471 c -3.355,0.465 -6.549,1.853 -9.187,4.042 l -30.99,25.724 1.193,-14.922 c 0.804,-10.1 -6.755,-18.967 -16.85,-19.774 l -31.343,-2.502 c -3.64,-0.29 -7.269,0.519 -10.415,2.273 -2.831,-2.238 -6.27,-3.605 -9.93,-3.895 l -75.564,-6.033 c -8.164,-0.651 -15.526,4.165 -18.471,11.369 -12.472,-16.46 -30.285,-28.224 -49.556,-35.253 -26.673,-9.727 -56.906,-9.603 -82.837,2.422 -12.275,5.693 -22.965,13.691 -31.871,23.59 -0.118,-9.371 -7.384,-17.302 -16.906,-18.063 l -14.82,-1.183 -0.036,0.479 c -3.338,0.469 -6.521,1.855 -9.149,4.039 l -30.987,25.722 1.192,-14.921 c 0.803,-10.099 -6.755,-18.967 -16.851,-19.775 l -31.344,-2.502 c -3.294,-0.262 -6.595,0.375 -9.538,1.815 -2.676,-1.894 -5.819,-3.042 -9.135,-3.305 l -60.146,-4.803 c -10.099,-0.803 -18.967,6.757 -19.774,16.852 l -2.124,26.599 c -0.716,8.997 5.202,17.018 13.642,19.232 l -2.378,29.767 c -8.158,1.343 -14.626,8.104 -15.31,16.664 l -2.111,26.43 c -0.806,10.098 6.754,18.971 16.85,19.775 l 57.775,4.609 c 3.377,0.273 6.755,-0.404 9.746,-1.915 2.856,2.305 6.352,3.713 10.072,4.009 l 14.948,1.194 0.039,-0.469 c 3.354,-0.464 6.55,-1.853 9.188,-4.046 l 31.172,-25.917 -1.164,14.624 c -0.808,10.097 6.751,18.967 16.849,19.775 L -8.388,1.312 C -5.453,1.545 -2.594,1.063 0,0"
             style="fill:#000100;fill-opacity:1;fill-rule:evenodd;stroke:none"
             id="path28"
             inkscape:connector-curvature="0" />
        </g>
        <g
           id="g30"
           transform="translate(739.9248,582.0435)">
          <path
             d="m 0,0 -45.661,61.13 c -6.054,8.108 -4.39,19.601 3.718,25.655 5.511,4.118 12.799,4.734 18.837,1.869 l 0.273,0.343 54.726,-42.377 -13.538,62.156 c -2.155,9.889 4.146,19.657 14.033,21.797 8.035,1.739 16.296,-2.151 20.117,-9.406 l 33.31,-63.215 17.033,67.521 c 2.474,9.807 12.466,15.772 22.273,13.3 8.187,-2.067 13.946,-9.543 13.857,-17.971 l 1.937,-83.101 c 0.006,-0.332 0.006,-0.663 -0.003,-0.993 14.389,-6.787 26.105,-17.107 35.159,-30.011 2.709,5.788 8.369,10.006 15.184,10.55 l 74.037,5.91 c 3.8,0.301 7.612,-0.613 10.855,-2.537 2.99,2.754 6.833,4.458 10.973,4.788 l 14.986,1.197 0.033,-0.478 c 3.344,-0.469 6.528,-1.854 9.157,-4.041 l 31.172,-25.917 -1.166,14.624 c -0.808,10.098 6.754,18.968 16.851,19.774 l 31.002,2.475 c 3.869,0.307 7.75,-0.646 11.032,-2.64 2.918,2.504 6.573,4.044 10.485,4.356 l 57.776,4.613 c 10.097,0.805 18.967,-6.753 19.773,-16.85 l 2.109,-26.43 c 0.68,-8.531 -4.652,-16.254 -12.474,-18.881 l 2.376,-29.775 c 2.988,-0.298 5.847,-1.324 8.33,-2.96 l 32.713,88.936 c 2.182,7.222 8.577,12.395 16.127,12.999 l 17.001,1.355 0.037,-0.466 c 5.583,-0.788 10.622,-4.139 13.458,-9.174 l 62.239,-110.49 c 1.643,-2.551 2.62,-5.454 2.861,-8.478 l 0.352,-4.407 c 0.803,-10.097 -6.757,-18.967 -16.851,-19.774 l -29.65,-2.364 c -7.082,-0.568 -13.932,3.065 -17.443,9.258 l -2.359,4.165 -23.432,-1.871 -1.475,-3.965 c -2.352,-6.947 -8.612,-11.845 -15.946,-12.43 l -29.648,-2.366 c -2.513,-0.203 -5.018,0.111 -7.382,0.918 -2.207,-1.17 -4.63,-1.877 -7.142,-2.078 l -60.145,-4.799 c -3.635,-0.293 -7.262,0.516 -10.407,2.267 -2.828,-2.236 -6.267,-3.599 -9.925,-3.891 l -14.779,-1.182 -0.037,0.473 c -3.353,0.466 -6.549,1.852 -9.187,4.042 l -30.988,25.724 1.192,-14.922 c 0.805,-10.099 -6.755,-18.967 -16.851,-19.775 l -31.343,-2.503 c -3.64,-0.288 -7.268,0.521 -10.415,2.276 -2.83,-2.241 -6.269,-3.607 -9.929,-3.896 l -75.565,-6.032 c -8.164,-0.651 -15.524,4.164 -18.47,11.368 -12.472,-16.461 -30.285,-28.225 -49.556,-35.254 -26.673,-9.725 -56.906,-9.602 -82.838,2.423 -12.274,5.692 -22.965,13.69 -31.871,23.591 -0.118,-9.372 -7.383,-17.303 -16.906,-18.065 l -14.819,-1.182 -0.037,0.479 c -3.337,0.47 -6.52,1.856 -9.148,4.037 l -30.988,25.723 1.192,-14.922 c 0.803,-10.098 -6.754,-18.966 -16.849,-19.772 l -31.345,-2.502 c -3.295,-0.263 -6.596,0.375 -9.537,1.813 -2.677,-1.894 -5.821,-3.042 -9.137,-3.304 l -60.146,-4.803 c -10.098,-0.804 -18.966,6.757 -19.774,16.85 l -2.123,26.601 c -0.716,8.995 5.202,17.019 13.642,19.23 l -2.378,29.769 c -8.157,1.343 -14.626,8.104 -15.311,16.663 l -2.11,26.43 c -0.805,10.1 6.754,18.971 16.849,19.775 l 57.775,4.611 c 3.377,0.272 6.755,-0.406 9.746,-1.916 2.856,2.304 6.352,3.713 10.072,4.009 l 14.949,1.195 0.038,-0.471 c 3.354,-0.463 6.55,-1.852 9.189,-4.045 l 31.172,-25.917 -1.165,14.623 c -0.808,10.098 6.752,18.967 16.849,19.775 L -8.388,1.311 C -5.452,1.545 -2.594,1.063 0,0"
             style="fill:#000100;fill-opacity:1;fill-rule:evenodd;stroke:none"
             id="path32"
             inkscape:connector-curvature="0" />
        </g>
        <g
           id="g34"
           transform="translate(815.2334,620.6001)">
          <path
             d="M 0,0 -21.213,-7.735 -39.043,74.1 0,0 Z m -40.058,-17.735 -16.105,-15.826 -50.123,67.104 66.228,-51.278 z m 87.335,16.429 -22.441,2.522 20.491,81.215 1.95,-83.737 z m -130.889,-173.715 -64.458,53.509 4.651,-58.281 c -10.504,-0.841 -21.008,-1.678 -31.344,-2.502 l -9.506,119.104 11.012,0.878 64.65,-53.746 -4.633,58.027 c 10.337,0.824 20.67,1.649 31.006,2.474 l 9.466,-118.597 -10.844,-0.866 z m 275.058,141.308 c -27.787,-2.219 -46.592,-3.721 -74.039,-5.911 3.138,-39.305 6.301,-78.951 9.466,-118.596 27.447,2.19 47.778,3.814 75.564,6.031 -0.717,8.978 -1.447,18.128 -2.152,26.938 -17.788,-1.421 -27.954,-2.232 -45.403,-3.624 -0.57,7.115 -1.109,13.894 -1.666,20.839 l 40.325,3.219 c -0.718,8.979 -1.435,17.958 -2.15,26.938 l -40.323,-3.218 -1.34,16.773 c 17.451,1.393 26.26,2.096 43.88,3.504 -0.729,9.149 -1.458,18.298 -2.162,27.107 m 122.486,-109.578 10.842,0.866 -9.464,118.6 c -10.336,-0.827 -20.67,-1.653 -31.006,-2.476 l 4.631,-58.029 -64.648,53.75 -11.012,-0.879 9.505,-119.108 c 10.337,0.825 20.84,1.664 31.345,2.502 l -4.653,58.283 64.46,-53.509 z m 74.118,32.686 -5.233,65.567 13.893,1.109 -2.109,26.429 -57.775,-4.609 2.11,-26.431 13.892,1.109 5.234,-65.569 -15.079,-1.203 2.122,-26.598 60.148,4.799 -2.123,26.599 -15.08,-1.202 z m 101.996,22.463 -27.109,-2.164 10.896,32.243 16.213,-30.079 z m 20.033,-39.492 29.648,2.368 -0.351,4.401 -62.774,111.447 -13.046,-1.04 -44.133,-119.979 0.351,-4.405 29.649,2.366 5.757,15.465 46.762,3.731 8.137,-14.354 z m -720.717,-30.756 -5.234,65.566 13.892,1.11 -2.108,26.429 -57.774,-4.609 2.109,-26.43 13.895,1.108 5.232,-65.569 -15.08,-1.202 2.123,-26.599 60.147,4.798 -2.124,26.6 -15.078,-1.202 z m 151.312,27.772 c 20.414,-55.257 72.142,-67.612 113.36,-52.58 29.869,10.894 55.936,35.093 55.185,73.121 -0.184,17.773 -5.844,33.288 -12.681,49.159 l -76.642,-27.952 13.088,-35.892 34.499,12.581 c -1.749,-18.214 -10.796,-26.498 -27.468,-32.576 -24.545,-8.953 -46.709,2.9 -56.506,29.761 -9.034,24.777 -2.341,50.305 23.825,59.848 16.439,5.994 29.119,4.322 40.901,-7.122 l 40.753,14.863 C 66.422,-9.988 26.22,-5.498 -6.515,-17.175 -47.732,-32.207 -79.276,-75.193 -59.326,-130.618"
             style="fill:#ffffff;fill-opacity:1;fill-rule:evenodd;stroke:none"
             id="path36"
             inkscape:connector-curvature="0" />
        </g>
      </g>
    </g>
  </g>
</svg>
