<?xml version="1.0" encoding="utf-8"?>
<!-- Generator: Adobe Illustrator 17.0.0, SVG Export Plug-In . SVG Version: 6.00 Build 0)  -->
<!DOCTYPE svg PUBLIC "-//W3C//DTD SVG 1.1//EN" "http://www.w3.org/Graphics/SVG/1.1/DTD/svg11.dtd">
<svg version="1.1" xmlns="http://www.w3.org/2000/svg" xmlns:xlink="http://www.w3.org/1999/xlink" x="0px" y="0px"
	 width="494.555px" height="187.189px" viewBox="0 0 494.555 187.189" enable-background="new 0 0 494.555 187.189"
	 xml:space="preserve">
<g id="Layer_1">
	<g>
		<path fill-rule="evenodd" clip-rule="evenodd" fill="#BCBEC0" d="M119.986,84.453l-28.11-35.055
			c-3.729-4.646-2.985-11.447,1.667-15.173c3.166-2.534,7.439-3.045,11.053-1.48l0.152-0.206l33.069,23.829l-9.232-36.308
			c-1.466-5.777,2.041-11.653,7.822-13.113c4.692-1.185,9.634,0.938,12.028,5.131l20.886,36.529l8.661-40.084
			c1.254-5.822,7.016-9.533,12.838-8.279c4.859,1.049,8.402,5.336,8.515,10.297l2.83,48.874c0.007,0.191,0.015,0.387,0.015,0.583
			c8.61,3.7,15.71,9.538,21.3,16.951c1.478-3.463,4.724-6.061,8.72-6.516l43.463-4.979c2.228-0.256,4.48,0.206,6.441,1.271
			c1.703-1.679,3.923-2.762,6.355-3.041l8.796-1.007l0.03,0.282c1.978,0.208,3.884,0.96,5.47,2.189l18.872,14.625l-0.983-8.583
			c-0.677-5.928,3.593-11.3,9.522-11.979l18.193-2.086c2.273-0.26,4.57,0.224,6.544,1.33c1.663-1.533,3.795-2.513,6.087-2.776
			l33.907-3.882c5.924-0.68,11.307,3.589,11.981,9.515l1.783,15.513c0.562,5.009-2.415,9.661-6.966,11.367l1.999,17.476
			c1.765,0.113,3.471,0.658,4.968,1.572l17.451-53.009c1.142-4.295,4.8-7.469,9.228-7.974l9.984-1.145l0.03,0.274
			c3.302,0.353,6.34,2.221,8.105,5.129l38.873,63.771c1.02,1.466,1.648,3.159,1.851,4.933l0.3,2.584
			c0.683,5.928-3.597,11.302-9.52,11.979l-17.402,1.996c-4.157,0.475-8.26-1.524-10.454-5.1l-1.474-2.402l-13.753,1.575
			l-0.788,2.364c-1.243,4.137-4.827,7.147-9.128,7.64l-17.413,1.993c-1.466,0.17-2.952,0.033-4.362-0.391
			c-1.262,0.735-2.685,1.198-4.156,1.367l-35.304,4.043c-2.136,0.244-4.281-0.157-6.171-1.124c-1.616,1.374-3.619,2.247-5.768,2.492
			l-8.671,0.995l-0.026-0.278c-1.988-0.205-3.893-0.956-5.494-2.193l-18.756-14.514l1.001,8.761
			c0.677,5.927-3.585,11.3-9.515,11.979l-18.401,2.109c-2.134,0.242-4.285-0.159-6.171-1.127c-1.62,1.371-3.619,2.245-5.774,2.493
			l-44.346,5.077c-4.789,0.551-9.219-2.136-11.097-6.315c-7.012,9.939-17.256,17.226-28.456,21.752
			c-15.502,6.266-33.3,6.804-48.803,0.252c-7.34-3.102-13.797-7.594-19.234-13.238c0.117,5.517-3.995,10.331-9.586,10.974
			l-8.699,0.996l-0.031-0.281c-1.975-0.209-3.872-0.959-5.467-2.191l-18.759-14.512l1.009,8.759
			c0.672,5.927-3.596,11.299-9.524,11.977l-18.394,2.11c-1.936,0.219-3.891-0.087-5.648-0.875c-1.542,1.169-3.367,1.909-5.315,2.127
			l-35.303,4.047c-5.927,0.678-11.299-3.591-11.981-9.517l-1.786-15.613c-0.607-5.281,2.718-10.121,7.641-11.595l-2.002-17.469
			c-4.829-0.627-8.777-4.476-9.352-9.501L0.07,107.909c-0.676-5.927,3.595-11.303,9.519-11.981l33.914-3.882
			c1.98-0.228,3.984,0.103,5.775,0.929c1.632-1.414,3.663-2.313,5.849-2.562l8.772-1.006l0.032,0.275
			c1.984,0.205,3.888,0.958,5.49,2.196L88.294,106.5l-0.982-8.582c-0.682-5.927,3.588-11.301,9.515-11.98l18.198-2.086
			C116.745,83.655,118.435,83.881,119.986,84.453z"/>
	</g>
</g>
<g id="Layer_2">
	<path fill-rule="evenodd" clip-rule="evenodd" fill="#FFFFFF" d="M42.766,157.728l-4.411-38.486l8.159-0.934l-1.784-15.513
		l-33.904,3.883l1.772,15.513l8.154-0.936l4.41,38.487l-8.848,1.013l1.784,15.613l35.307-4.043l-1.791-15.614L42.766,157.728
		L42.766,157.728z M466.327,125.03l17.408-1.995l-0.296-2.581L444.23,56.126l-7.658,0.879l-23.543,71.511l0.296,2.584l17.402-1.994
		l3.075-9.218l27.449-3.144L466.327,125.03L466.327,125.03z M453.739,102.192l-15.913,1.819l5.764-19.195L453.739,102.192
		L453.739,102.192z M394.164,117.476l-4.411-38.487l8.155-0.931l-1.776-15.513l-33.911,3.885L364,81.941l8.153-0.934l4.403,38.486
		l-8.847,1.014l1.791,15.611l35.3-4.044l-1.785-15.614L394.164,117.476L394.164,117.476z M351.2,138.214l6.361-0.729l-7.97-69.61
		c-6.062,0.695-12.133,1.388-18.197,2.083l3.901,34.061l-39.139-30.326l-6.466,0.74l8.007,69.912
		c6.068-0.697,12.236-1.4,18.399-2.109l-3.925-34.208L351.2,138.214L351.2,138.214z M276.89,76.202
		c-16.311,1.87-27.348,3.132-43.46,4.978c2.642,23.07,5.314,46.342,7.979,69.613c16.106-1.849,28.044-3.215,44.348-5.081
		c-0.602-5.272-1.217-10.641-1.808-15.811c-10.441,1.194-16.41,1.878-26.654,3.052c-0.478-4.177-0.932-8.155-1.399-12.232
		l23.665-2.712c-0.602-5.268-1.202-10.539-1.808-15.81l-23.665,2.712l-1.129-9.845c10.241-1.176,15.409-1.767,25.752-2.95
		C278.097,86.741,277.484,81.374,276.89,76.202L276.89,76.202z M117.87,164.942l6.361-0.729l-7.978-69.612
		c-6.065,0.696-12.129,1.39-18.196,2.084l3.9,34.061l-39.134-30.328l-6.459,0.741l7.999,69.908
		c6.065-0.694,12.234-1.401,18.396-2.105l-3.914-34.209L117.87,164.942z"/>
	<path fill-rule="evenodd" clip-rule="evenodd" fill="#FFFFFF" d="M131.259,138.318c13.135,32.105,43.828,38.332,67.782,28.648
		c17.361-7.017,32.214-21.785,31.005-44.153c-0.471-10.457-4.114-19.473-8.459-28.675L177.04,112.14l8.429,20.86l20.053-8.107
		c-0.666,10.759-5.819,15.82-15.51,19.734c-14.267,5.765-27.549-0.763-33.863-16.373c-5.817-14.399-2.391-29.561,12.813-35.707
		c9.556-3.863,17.052-3.132,24.219,3.362l23.686-9.57c-14.041-21.568-37.795-23.397-56.822-15.86
		C136.09,80.158,118.395,106.098,131.259,138.318L131.259,138.318z M191.383,60.048l-13.258-1.028l10.416-48.218L191.383,60.048
		L191.383,60.048z M140.317,71.484l-9.159,9.644l-30.862-38.483L140.317,71.484L140.317,71.484z M163.531,60.238l-12.328,4.983
		L139.05,17.415L163.531,60.238z"/>
</g>
</svg>
