<?xml version="1.0" encoding="UTF-8" standalone="no"?>
<!-- Generator: Adobe Illustrator 17.0.0, SVG Export Plug-In . SVG Version: 6.00 Build 0)  -->

<svg
   xmlns:dc="http://purl.org/dc/elements/1.1/"
   xmlns:cc="http://creativecommons.org/ns#"
   xmlns:rdf="http://www.w3.org/1999/02/22-rdf-syntax-ns#"
   xmlns:svg="http://www.w3.org/2000/svg"
   xmlns="http://www.w3.org/2000/svg"
   xmlns:sodipodi="http://sodipodi.sourceforge.net/DTD/sodipodi-0.dtd"
   xmlns:inkscape="http://www.inkscape.org/namespaces/inkscape"
   version="1.1"
   id="Layer_1"
   x="0px"
   y="0px"
   width="494.558px"
   height="187.189px"
   viewBox="49.955 329.486 494.558 187.189"
   enable-background="new 49.955 329.486 494.558 187.189"
   xml:space="preserve"
   inkscape:version="0.91 r13725"
   sodipodi:docname="ingenia-logo-white.svg"><metadata
     id="metadata13"><rdf:RDF><cc:Work
         rdf:about=""><dc:format>image/svg+xml</dc:format><dc:type
           rdf:resource="http://purl.org/dc/dcmitype/StillImage" /><dc:title></dc:title></cc:Work></rdf:RDF></metadata><defs
     id="defs11" /><sodipodi:namedview
     pagecolor="#ffffff"
     bordercolor="#666666"
     borderopacity="1"
     objecttolerance="10"
     gridtolerance="10"
     guidetolerance="10"
     inkscape:pageopacity="0"
     inkscape:pageshadow="2"
     inkscape:window-width="1600"
     inkscape:window-height="879"
     id="namedview9"
     showgrid="false"
     inkscape:zoom="2.8709886"
     inkscape:cx="248.61723"
     inkscape:cy="210.7995"
     inkscape:window-x="0"
     inkscape:window-y="21"
     inkscape:window-maximized="1"
     inkscape:current-layer="Layer_1" /><g
     id="g3"><path
       fill="#2D2D2D"
       d="M544.441,451.289l-0.3-2.584c-0.203-1.774-0.831-3.466-1.851-4.933l-38.873-63.771   c-1.765-2.908-4.802-4.775-8.105-5.129l-0.03-0.274l-9.984,1.145c-4.427,0.505-8.086,3.679-9.228,7.974l-17.451,53.009   c-1.496-0.914-3.203-1.459-4.968-1.572l-1.999-17.476c4.551-1.706,7.529-6.359,6.966-11.367l-1.783-15.513   c-0.673-5.926-6.057-10.195-11.981-9.515l-33.907,3.882c-2.292,0.263-4.424,1.243-6.087,2.776c-1.975-1.105-4.272-1.589-6.544-1.33   l-18.193,2.086c-5.929,0.679-10.199,6.05-9.522,11.979l0.983,8.583l-18.872-14.625c-1.586-1.229-3.492-1.981-5.47-2.189   l-0.03-0.282l-8.796,1.007c-2.432,0.278-4.652,1.361-6.355,3.041c-1.961-1.065-4.214-1.527-6.441-1.271l-43.463,4.979   c-3.996,0.456-7.242,3.054-8.72,6.516c-5.591-7.413-12.69-13.251-21.3-16.951c0-0.196-0.008-0.392-0.015-0.583l-2.83-48.874   c-0.114-4.961-3.657-9.247-8.515-10.297c-5.822-1.255-11.585,2.456-12.839,8.279l-8.661,40.084l-20.886-36.529   c-2.394-4.193-7.336-6.316-12.028-5.131c-5.781,1.461-9.289,7.337-7.822,13.113l9.232,36.308l-33.069-23.829l-0.152,0.206   c-3.614-1.566-7.887-1.055-11.053,1.48c-4.652,3.726-5.396,10.527-1.667,15.173l28.11,35.055c-1.551-0.572-3.24-0.798-4.961-0.601   l-18.198,2.086c-5.927,0.679-10.197,6.052-9.515,11.98l0.982,8.582l-18.874-14.621c-1.601-1.238-3.506-1.99-5.49-2.196   l-0.032-0.275l-8.772,1.006c-2.186,0.248-4.216,1.148-5.849,2.562c-1.791-0.826-3.794-1.157-5.775-0.929l-33.914,3.882   c-5.924,0.678-10.195,6.053-9.519,11.981l1.781,15.513c0.575,5.025,4.523,8.873,9.352,9.501l2.002,17.469   c-4.923,1.474-8.248,6.315-7.641,11.595l1.786,15.613c0.682,5.926,6.055,10.195,11.981,9.517l35.302-4.047   c1.948-0.219,3.773-0.958,5.315-2.127c1.757,0.787,3.712,1.094,5.648,0.875l18.394-2.11c5.928-0.678,10.196-6.049,9.524-11.977   l-1.009-8.759l18.759,14.512c1.595,1.232,3.492,1.982,5.467,2.191l0.031,0.281l8.699-0.996c5.591-0.642,9.703-5.457,9.586-10.974   c5.437,5.644,11.894,10.135,19.234,13.238c15.503,6.552,33.301,6.014,48.803-0.252c11.201-4.527,21.444-11.813,28.456-21.752   c1.879,4.179,6.308,6.866,11.097,6.315l44.346-5.077c2.155-0.247,4.154-1.122,5.774-2.493c1.887,0.968,4.037,1.369,6.171,1.127   l18.401-2.109c5.929-0.679,10.192-6.052,9.515-11.979l-1.001-8.761l18.756,14.514c1.601,1.237,3.507,1.988,5.494,2.193l0.026,0.278   l8.671-0.995c2.149-0.246,4.152-1.119,5.768-2.492c1.89,0.967,4.036,1.368,6.171,1.124l35.304-4.043   c1.47-0.169,2.894-0.632,4.156-1.367c1.41,0.424,2.895,0.561,4.362,0.391l17.413-1.993c4.302-0.492,7.885-3.503,9.128-7.64   l0.788-2.364l13.753-1.575l1.474,2.402c2.194,3.576,6.297,5.575,10.454,5.1l17.402-1.996   C540.844,462.591,545.124,457.218,544.441,451.289z M68.055,505.854l-1.784-15.613l8.848-1.013l-4.41-38.487l-8.154,0.936   l-1.772-15.513l33.904-3.883l1.784,15.513l-8.159,0.934l4.411,38.486l8.848-1.016l1.791,15.614L68.055,505.854z M238.498,340.288   l2.842,49.246l-13.258-1.029L238.498,340.288z M213.489,389.724l-12.328,4.983l-12.153-47.805L213.489,389.724z M167.828,494.428   l-39.027-30.188l3.914,34.209c-6.162,0.704-12.33,1.411-18.396,2.105l-7.999-69.908l6.459-0.741l39.134,30.328l-3.9-34.061   c6.067-0.695,12.131-1.389,18.196-2.084l7.978,69.612L167.828,494.428z M150.253,372.131l40.021,28.839l-9.159,9.644   L150.253,372.131z M248.998,496.452c-23.954,9.683-54.647,3.457-67.782-28.648c-12.864-32.22,4.83-58.16,28.786-67.84   c19.027-7.537,42.781-5.708,56.822,15.86l-23.686,9.57c-7.167-6.495-14.663-7.225-24.219-3.362   c-15.204,6.147-18.63,21.309-12.813,35.707c6.314,15.61,19.597,22.139,33.863,16.373c9.691-3.914,14.844-8.975,15.51-19.734   l-20.053,8.107l-8.429-20.86l44.546-18.002c4.345,9.202,7.988,18.217,8.459,28.674C281.212,474.667,266.36,489.435,248.998,496.452   z M291.366,480.279c-2.665-23.271-5.337-46.542-7.979-69.613c16.112-1.846,27.149-3.107,43.46-4.978   c0.594,5.172,1.208,10.539,1.823,15.913c-10.344,1.183-15.512,1.774-25.752,2.95l1.129,9.845l23.665-2.712   c0.606,5.271,1.206,10.541,1.808,15.81l-23.665,2.713c0.467,4.077,0.921,8.055,1.399,12.232   c10.244-1.174,16.213-1.857,26.654-3.052c0.591,5.171,1.206,10.539,1.808,15.812C319.41,477.064,307.472,478.43,291.366,480.279z    M401.157,467.7l-39.028-30.186l3.925,34.208c-6.164,0.709-12.331,1.412-18.399,2.109l-8.007-69.912l6.466-0.74l39.139,30.326   l-3.901-34.061c6.064-0.696,12.135-1.388,18.197-2.083l7.97,69.61L401.157,467.7z M419.457,465.604l-1.791-15.611l8.847-1.014   l-4.403-38.486l-8.153,0.934l-1.778-15.513l33.911-3.885l1.776,15.513l-8.155,0.931l4.41,38.487l8.851-1.015l1.785,15.614   L419.457,465.604z M516.285,454.515l-5.076-8.284l-27.449,3.144l-3.075,9.218l-17.402,1.994l-0.296-2.584l23.543-71.511   l7.658-0.879l39.209,64.327l0.296,2.581L516.285,454.515z"
       id="path5"
       style="fill:#ffffff" /><polygon
       fill="#2D2D2D"
       points="487.784,433.496 503.697,431.677 493.548,414.301  "
       id="polygon7"
       style="fill:#ffffff" /></g></svg>