<?xml version="1.0" encoding="utf-8"?>
<!-- Generator: Adobe Illustrator 17.0.0, SVG Export Plug-In . SVG Version: 6.00 Build 0)  -->
<!DOCTYPE svg PUBLIC "-//W3C//DTD SVG 1.1//EN" "http://www.w3.org/Graphics/SVG/1.1/DTD/svg11.dtd">
<svg version="1.1" id="Layer_1" xmlns="http://www.w3.org/2000/svg" xmlns:xlink="http://www.w3.org/1999/xlink" x="0px" y="0px"
	 width="490.32px" height="179.998px" viewBox="48.709 368.706 490.32 179.998"
	 enable-background="new 48.709 368.706 490.32 179.998" xml:space="preserve">
<g id="Layer_1_1_">
	<g>
		<path fill="#BCBEC0" d="M171.274,444.82l-23.909-38.045c-3.172-5.042-1.654-11.714,3.395-14.882
			c3.436-2.155,7.739-2.173,11.15-0.203l0.175-0.188l30.121,27.461l-5.011-37.126c-0.795-5.907,3.363-11.342,9.273-12.131
			c4.797-0.64,9.463,2.035,11.361,6.475l16.563,38.681l13.196-38.828c1.912-5.64,8.062-8.667,13.702-6.754
			c4.706,1.599,7.735,6.263,7.28,11.204l-2.789,48.876c-0.015,0.191-0.029,0.386-0.052,0.581
			c8.129,4.662,14.513,11.275,19.218,19.28c1.865-3.27,5.387-5.48,9.409-5.474l43.748,0.034c2.242,0.001,4.427,0.718,6.253,2.001
			c1.884-1.473,4.214-2.295,6.662-2.292l8.854,0.007l-0.003,0.284c1.941,0.433,3.748,1.399,5.183,2.802l17.072,16.691l0.007-8.639
			c0.007-5.967,4.864-10.814,10.832-10.809l18.312,0.012c2.288,0.002,4.514,0.746,6.349,2.071c1.828-1.332,4.058-2.061,6.365-2.061
			l34.129,0.029c5.963,0.003,10.822,4.861,10.812,10.825l-0.006,15.616c-0.015,5.04-3.506,9.321-8.223,10.494l-0.016,17.59
			c1.74,0.315,3.373,1.052,4.755,2.131l23.409-50.661c1.627-4.136,5.625-6.87,10.081-6.864l10.049,0.007l-0.001,0.275
			c3.24,0.729,6.044,2.933,7.464,6.023l31.31,67.804c0.845,1.574,1.276,3.327,1.274,5.112l0.002,2.601
			c-0.001,5.968-4.868,10.815-10.83,10.809l-17.516-0.011c-4.184-0.004-8.031-2.46-9.801-6.264l-1.189-2.555l-13.843-0.011
			l-1.053,2.258c-1.709,3.967-5.614,6.547-9.944,6.543l-17.527-0.015c-1.476,0.001-2.936-0.306-4.288-0.888
			c-1.338,0.586-2.805,0.883-4.285,0.882l-35.535-0.029c-2.15-0.003-4.235-0.647-6.002-1.824c-1.763,1.18-3.853,1.817-6.016,1.815
			l-8.728-0.005l0.006-0.279c-1.951-0.432-3.758-1.396-5.207-2.808l-16.969-16.567l-0.009,8.818
			c-0.007,5.965-4.856,10.815-10.825,10.81l-18.522-0.013c-2.148-0.004-4.238-0.649-6.002-1.827
			c-1.766,1.176-3.852,1.816-6.021,1.815l-44.636-0.037c-4.821-0.001-8.913-3.178-10.301-7.544
			c-8.105,9.07-19.116,15.135-30.761,18.349c-16.118,4.449-33.86,2.944-48.51-5.341c-6.936-3.923-12.836-9.124-17.591-15.354
			c-0.516,5.494-5.153,9.806-10.78,9.803l-8.756-0.007l0.002-0.283c-1.938-0.434-3.737-1.396-5.18-2.803l-16.972-16.566
			l-0.001,8.817c-0.011,5.965-4.866,10.813-10.833,10.807l-18.514-0.012c-1.949-0.004-3.855-0.532-5.511-1.516
			c-1.666,0.985-3.563,1.511-5.524,1.504l-35.534-0.025c-5.965-0.006-10.813-4.862-10.812-10.828l0.014-15.715
			c0.002-5.315,3.86-9.743,8.92-10.643l0.013-17.584c-4.725-1.176-8.206-5.452-8.201-10.51l0.009-15.615
			c0.008-5.966,4.866-10.816,10.829-10.811l34.135,0.029c1.993,0,3.946,0.559,5.63,1.585c1.784-1.218,3.904-1.878,6.104-1.875
			l8.83,0.006v0.276c1.947,0.431,3.753,1.397,5.202,2.81l17.074,16.687l0.008-8.638c0.001-5.967,4.859-10.815,10.825-10.811
			l18.317,0.013C168.146,443.656,169.799,444.074,171.274,444.82z"/>
	</g>
</g>
<g id="Layer_2">
	<path fill="#FFFFFF" d="M86.167,508.765l0.027-38.738l8.212,0.007l0.005-15.615l-34.125-0.027l-0.017,15.614l8.208,0.005
		l-0.029,38.738l-8.906-0.007l-0.016,15.715l35.538,0.029l0.01-15.716L86.167,508.765L86.167,508.765z M510.686,524.81l17.522,0.012
		l0.001-2.598l-31.58-68.395l-7.709-0.004l-31.581,68.343l-0.002,2.601l17.516,0.013l4.111-8.804L506.592,516L510.686,524.81
		L510.686,524.81z M500.798,500.68l-16.016-0.016l7.926-18.408L500.798,500.68L500.798,500.68z M439.864,509.038l0.028-38.739
		l8.208,0.009l0.013-15.615l-34.133-0.026l-0.011,15.614l8.207,0.007l-0.035,38.737l-8.905-0.007l-0.009,15.713l35.531,0.027
		l0.016-15.716L439.864,509.038L439.864,509.038z M394.806,524.717l6.402,0.005l0.058-70.065
		c-6.102-0.004-12.212-0.012-18.316-0.015l-0.028,34.284l-35.407-34.611l-6.508-0.006l-0.056,70.369
		c6.108,0.003,12.316,0.011,18.52,0.013l0.02-34.433L394.806,524.717L394.806,524.717z M328.09,454.6
		c-16.417-0.011-27.527-0.022-43.744-0.034c-0.019,23.221-0.03,46.645-0.049,70.069c16.212,0.008,28.227,0.019,44.638,0.034
		c0.006-5.306,0.01-10.71,0.016-15.915c-10.509-0.01-16.517-0.014-26.828-0.022c0.003-4.204,0.008-8.208,0.012-12.312l23.82,0.017
		c0.006-5.303,0.013-10.607,0.016-15.913l-23.82-0.018l0.006-9.909c10.308,0.005,15.51,0.01,25.921,0.02
		C328.082,465.207,328.088,459.806,328.09,454.6L328.09,454.6z M159.951,524.536l6.402,0.005l0.05-70.068
		c-6.105-0.004-12.208-0.009-18.315-0.014l-0.029,34.284l-35.402-34.612l-6.501-0.004l-0.064,70.364
		c6.105,0.006,12.314,0.01,18.516,0.017l0.032-34.432L159.951,524.536z"/>
	<path fill="#FFFFFF" d="M176.302,499.621c9.37,33.399,39.148,43.101,64.053,36.226c18.051-4.982,34.498-17.951,35.859-40.31
		c0.73-10.442-1.856-19.816-5.118-29.455l-46.315,12.78l5.983,21.688l20.85-5.756c-1.894,10.612-7.593,15.049-17.669,17.827
		c-14.833,4.093-27.281-3.915-31.764-20.145c-4.129-14.97,1.012-29.64,16.82-34.004c9.936-2.743,17.299-1.158,23.674,6.115
		l24.626-6.793c-11.478-23.035-34.865-27.573-54.631-22.266C187.764,442.398,167.214,466.139,176.302,499.621L176.302,499.621z
		 M244.997,428.756l-13.052-2.541l15.872-46.707L244.997,428.756L244.997,428.756z M192.958,434.266l-10.204,8.531l-26.25-41.765
		L192.958,434.266L192.958,434.266z M217.307,425.753l-12.818,3.537l-6.596-48.883L217.307,425.753z"/>
</g>
</svg>
