<?xml version="1.0" encoding="UTF-8" standalone="no"?>
<!-- Generator: Adobe Illustrator 19.0.0, SVG Export Plug-In . SVG Version: 6.00 Build 0)  -->

<svg
   xmlns:dc="http://purl.org/dc/elements/1.1/"
   xmlns:cc="http://creativecommons.org/ns#"
   xmlns:rdf="http://www.w3.org/1999/02/22-rdf-syntax-ns#"
   xmlns:svg="http://www.w3.org/2000/svg"
   xmlns="http://www.w3.org/2000/svg"
   xmlns:sodipodi="http://sodipodi.sourceforge.net/DTD/sodipodi-0.dtd"
   xmlns:inkscape="http://www.inkscape.org/namespaces/inkscape"
   version="1.1"
   id="Capa_1"
   x="0px"
   y="0px"
   viewBox="0 0 497.928 497.928"
   style="enable-background:new 0 0 497.928 497.928;"
   xml:space="preserve"
   inkscape:version="0.91 r13725"
   sodipodi:docname="neuron.svg"><metadata
     id="metadata57"><rdf:RDF><cc:Work
         rdf:about=""><dc:format>image/svg+xml</dc:format><dc:type
           rdf:resource="http://purl.org/dc/dcmitype/StillImage" /></cc:Work></rdf:RDF></metadata><defs
     id="defs55" /><sodipodi:namedview
     pagecolor="#ffffff"
     bordercolor="#666666"
     borderopacity="1"
     objecttolerance="10"
     gridtolerance="10"
     guidetolerance="10"
     inkscape:pageopacity="0"
     inkscape:pageshadow="2"
     inkscape:window-width="1920"
     inkscape:window-height="1059"
     id="namedview53"
     showgrid="false"
     inkscape:zoom="0.4739641"
     inkscape:cx="248.964"
     inkscape:cy="248.964"
     inkscape:window-x="1366"
     inkscape:window-y="21"
     inkscape:window-maximized="1"
     inkscape:current-layer="Capa_1" /><g
     id="g3"><path
       style="fill:#333333;"
       d="M280,190.808c-44.112,0-80,35.888-80,80s35.888,80,80,80c21.36,0,41.456-8.32,56.568-23.432   l-11.312-11.312c-12.088,12.088-28.16,18.744-45.256,18.744c-35.288,0-64-28.712-64-64s28.712-64,64-64s64,28.712,64,64   c0,12.728-3.728,25.024-10.776,35.544l13.296,8.904c8.816-13.168,13.48-28.544,13.48-44.448   C360,226.696,324.112,190.808,280,190.808z"
       id="path5" /><path
       style="fill:#333333;"
       d="M484.584,341.36l-9.168-13.112L448,347.44v-36.632h-16v47.832l-35.048,24.536l-6.072-5.064   l-3.04-9.12h-0.008c-2.184-6.56-0.968-14.008,3.264-19.912C412.624,319.056,424,283.696,424,246.808   c0-22.824-4.312-45.04-12.832-66.048c-3.76-9.264-3.168-20.056,1.6-29.608l1.624-3.256l15.344-12.784l27.192,20.392l7.312,29.24   l15.512-3.872l-6.064-24.248l24.24-6.064l-3.872-15.512l-28.304,7.08l-23.392-17.544l16.536-13.776H496v-16h-32V47.6l7.848-39.216   L456.16,5.24l-6.224,31.12l-39.4-13.136l-5.064,15.168l42.664,14.224l-0.128,46.432L404.72,135.12   c-11.36,1.256-22.688-2.656-30.648-10.856c-26.176-26.936-59.48-44.496-96.304-50.784c-12.76-2.176-23.728-9.92-29.768-20.792   v-25.6l20.44-13.624l-8.872-13.312L240,13.192l-19.56-13.04l-8.872,13.312L232,27.088v25.824l-1.04,2.08   C225.624,65.664,216,73.456,204.568,76.36c-25.144,6.392-49.016,18.592-69.048,35.288c-10.312,8.592-23.56,11.44-35.696,7.904   l-11.528-9.88l6.984-41.904l36.832-22.104l-8.232-13.72L92.432,50.816L79.584,12.272l-15.168,5.064l15.368,46.112l-5.68,34.064   L48,75.128v-52.32H32v48H0v16h37.04l6.896,5.912l-32.048,19.232l8.232,13.72l36.624-21.976l32.368,27.744l3.384,10.144   c2.936,8.816,2.112,18.648-2.344,27.68c-8.496,17.272-14.056,35.728-16.52,54.856c-0.424,3.296-2.624,6.248-5.896,7.88   l-12.36,6.168l-18.48-6.16l-22.496-30l-12.8,9.6l19.84,26.448L2.344,257.152l11.312,11.312L34.16,247.96l5.84,1.944v49.592   l-21.656,21.656l11.312,11.312l17.48-17.48L65.6,339.608l12.8-9.592L56,300.144v-44.392l11.736,5.872   c3.264,1.632,5.472,4.592,5.896,7.928c6.304,48.76,33.12,92.976,73.568,121.32c3.008,2.104,4.8,5.672,4.8,9.544v12.176   l-20.96,34.928l-40.984,6.832L60.8,432.408l-9.6,12.8l23.464,17.6l-23.464,17.6l9.6,12.8l30.44-22.832l39.728-6.624l13.608,34.024   l14.856-5.936l-14.528-36.32l21.152-35.248l9.288-6.96c3.264-2.448,7.44-3.072,11.096-1.696   c19.776,7.424,40.496,11.192,61.56,11.192c36.88,0,72.224-11.344,102.208-32.824c5.392-3.864,12.136-5.056,18.52-3.216   l11.432,3.264l19.56,16.296l-13.8,41.376l-43.248,7.208l2.624,15.784l40.72-6.784l6.216,24.832l15.512-3.872l-7.432-29.744   l12.6-37.8l11.784,9.816l7.448,37.232l15.688-3.144l-6.384-31.896l39.848-6.64l-2.624-15.784l-44.384,7.4l-24.616-20.52   L484.584,341.36z M371.792,371.024c-10.68-2.648-21.864-0.504-30.888,5.952c-27.264,19.52-59.384,29.832-92.904,29.832   c-19.144,0-37.96-3.424-55.944-10.184c-3.128-1.168-6.376-1.752-9.608-1.752c-5.04,0-10.048,1.4-14.488,4.12   c-0.424-8.544-4.68-16.408-11.568-21.232c-36.784-25.768-61.16-65.952-66.88-110.256c-1.12-8.632-6.584-16.176-14.616-20.192   l-1.016-0.504l1-0.496c8.048-4.024,13.504-11.56,14.616-20.16c2.24-17.376,7.288-34.152,15.008-49.832   c6.224-12.64,7.408-26.56,3.336-39.256c13.544,0.688,26.92-3.944,37.928-13.12c18.2-15.184,39.896-26.264,62.736-32.08   c13-3.296,24.304-11.112,32.064-21.92c8.704,10.048,20.896,16.992,34.512,19.304c33.456,5.712,63.72,21.68,87.512,46.168   c8.824,9.088,20.52,14.584,32.888,15.776c-3.928,11.768-3.68,24.384,0.864,35.592C404.08,205.856,408,226.056,408,246.808   c0,33.52-10.344,65.664-29.904,92.944C371.504,348.944,369.24,360.416,371.792,371.024z"
       id="path7" /><rect
       x="224"
       y="110.808"
       style="fill:#333333;"
       width="16"
       height="16"
       id="rect9" /><rect
       x="128"
       y="278.808"
       style="fill:#333333;"
       width="16"
       height="16"
       id="rect11" /><rect
       x="248"
       y="374.808"
       style="fill:#333333;"
       width="16"
       height="16"
       id="rect13" /><rect
       x="168"
       y="190.808"
       style="fill:#333333;"
       width="16"
       height="16"
       id="rect15" /><rect
       x="152"
       y="134.808"
       style="fill:#333333;"
       width="16"
       height="16"
       id="rect17" /><rect
       x="304"
       y="150.808"
       style="fill:#333333;"
       width="16"
       height="16"
       id="rect19" /></g><circle
     style="fill:#6955a0;fill-opacity:1"
     cx="280"
     cy="270.808"
     r="48"
     id="circle21" /><g
     id="g23" /><g
     id="g25" /><g
     id="g27" /><g
     id="g29" /><g
     id="g31" /><g
     id="g33" /><g
     id="g35" /><g
     id="g37" /><g
     id="g39" /><g
     id="g41" /><g
     id="g43" /><g
     id="g45" /><g
     id="g47" /><g
     id="g49" /><g
     id="g51" /></svg>