<?xml version="1.0" encoding="UTF-8" standalone="no"?>
<!-- Generator: Adobe Illustrator 19.0.0, SVG Export Plug-In . SVG Version: 6.00 Build 0)  -->

<svg
   xmlns:dc="http://purl.org/dc/elements/1.1/"
   xmlns:cc="http://creativecommons.org/ns#"
   xmlns:rdf="http://www.w3.org/1999/02/22-rdf-syntax-ns#"
   xmlns:svg="http://www.w3.org/2000/svg"
   xmlns="http://www.w3.org/2000/svg"
   xmlns:sodipodi="http://sodipodi.sourceforge.net/DTD/sodipodi-0.dtd"
   xmlns:inkscape="http://www.inkscape.org/namespaces/inkscape"
   version="1.1"
   id="Capa_1"
   x="0px"
   y="0px"
   viewBox="0 0 507.234 507.234"
   style="enable-background:new 0 0 507.234 507.234;"
   xml:space="preserve"
   inkscape:version="0.91 r13725"
   sodipodi:docname="no-clap.svg"><metadata
     id="metadata55"><rdf:RDF><cc:Work
         rdf:about=""><dc:format>image/svg+xml</dc:format><dc:type
           rdf:resource="http://purl.org/dc/dcmitype/StillImage" /><dc:title></dc:title></cc:Work></rdf:RDF></metadata><defs
     id="defs53" /><sodipodi:namedview
     pagecolor="#ffffff"
     bordercolor="#666666"
     borderopacity="1"
     objecttolerance="10"
     gridtolerance="10"
     guidetolerance="10"
     inkscape:pageopacity="0"
     inkscape:pageshadow="2"
     inkscape:window-width="1600"
     inkscape:window-height="879"
     id="namedview51"
     showgrid="false"
     inkscape:zoom="0.46526849"
     inkscape:cx="-67.702844"
     inkscape:cy="253.617"
     inkscape:window-x="0"
     inkscape:window-y="21"
     inkscape:window-maximized="1"
     inkscape:current-layer="Capa_1" /><g
     transform="matrix(1.25 0 0 -1.25 0 45)"
     id="g3"><g
       id="g5"><g
         id="g7"><path
           style="fill:#b3b3b3"
           d="M17.737-217.713c0,0-15.861,14.689-1.172,30.561c14.689,15.849,30.561,1.149,30.561,1.149     l73.626-68.198c-1.161,1.092,5.12,10.001,4.187,10.866L22.743-148.684c0,0-15.861,14.689-1.172,30.538     c14.7,15.861,30.561,1.172,30.561,1.172l96.119-89.031c-0.228,0.205,6.929,8.317,6.793,8.442L43.61-94.344     c0,0-15.861,14.689-1.172,30.549c14.7,15.849,30.561,1.161,30.561,1.161l111.423-103.219c0.137-0.114,7.771,7.555,7.999,7.339     L88.268-62.042c0,0-15.861,14.689-1.172,30.549c14.7,15.849,30.561,1.161,30.561,1.161s77.505-71.794,110.126-102.002     c32.609-30.208,39.959-22.278,39.959-22.278l-29.446,27.273l-34.008,31.482c0,0-15.861,14.689-1.161,30.549     c14.7,15.872,30.549,1.183,30.549,1.183l87.233-80.805c52.543-48.674,55.694-130.742,7.009-183.296     c-48.674-52.554-130.753-55.683-183.307-7.02c-2.776,2.571-7.76,7.543-7.543,7.782l-0.375-0.432L17.737-217.713z"
           id="path9" /><path
           style="fill:#e6e6e6"
           d="M50.733-195.538c0,0-15.861,14.689-1.172,30.549c14.689,15.872,30.549,1.183,30.549,1.183     l73.637-68.221c-1.172,1.092,5.12,10.001,4.187,10.866L55.739-126.509c0,0-15.861,14.689-1.172,30.549s30.549,1.172,30.549,1.172     l96.119-89.042c-0.216,0.216,6.94,8.317,6.804,8.442L76.606-72.157c0,0-15.861,14.677-1.172,30.538s30.549,1.172,30.549,1.172     l111.423-103.208c0.148-0.137,7.771,7.532,7.999,7.327L121.263-39.856c0,0-15.861,14.689-1.172,30.538     c14.689,15.861,30.549,1.172,30.549,1.172s77.517-71.805,110.137-102.013c32.597-30.197,39.959-22.266,39.959-22.266     l-29.457,27.273L237.283-73.67c0,0-15.849,14.689-1.172,30.549c14.7,15.861,30.561,1.172,30.561,1.172l87.222-80.794     c52.554-48.674,55.694-130.753,7.02-183.296c-48.686-52.554-130.753-55.694-183.307-7.009c-2.788,2.56-7.76,7.532-7.543,7.76     l-0.387-0.432L50.733-195.538z"
           id="path11" /><g
           id="g13"><path
             style="fill:#e6e6e6;fill-opacity:1"
             d="M277.31-37.489c-2.423,0-4.881,0.774-6.94,2.367c-4.983,3.846-5.894,10.991-2.048,15.963      l33.894,43.861c3.812,4.972,10.968,5.905,15.952,2.048c4.972-3.834,5.882-10.98,2.048-15.952l-33.894-43.861      C284.091-35.964,280.723-37.489,277.31-37.489"
             id="path15" /><path
             style="fill:#e6e6e6;fill-opacity:1"
             d="M214.265-43.644c-6.281,0-11.378,5.097-11.378,11.378v56.889c0,6.281,5.097,11.378,11.378,11.378      c6.292,0,11.378-5.097,11.378-11.378v-56.889C225.643-38.547,220.557-43.644,214.265-43.644"
             id="path17" /><path
             style="fill:#e6e6e6;fill-opacity:1"
             d="M321.41-73.989c-4.642,0-9.011,2.867-10.684,7.498c-2.162,5.905,0.899,12.425,6.793,14.575      l52.144,18.967c5.928,2.15,12.436-0.91,14.575-6.804c2.162-5.905-0.899-12.436-6.793-14.586l-52.144-18.955      C324.016-73.761,322.696-73.989,321.41-73.989"
             id="path19" /></g></g></g></g><g
     id="g21" /><g
     id="g23" /><g
     id="g25" /><g
     id="g27" /><g
     id="g29" /><g
     id="g31" /><g
     id="g33" /><g
     id="g35" /><g
     id="g37" /><g
     id="g39" /><g
     id="g41" /><g
     id="g43" /><g
     id="g45" /><g
     id="g47" /><g
     id="g49" /></svg>