<?xml version="1.0" encoding="UTF-8" standalone="no"?>
<!-- Created with Inkscape (http://www.inkscape.org/) -->

<svg
   xmlns:dc="http://purl.org/dc/elements/1.1/"
   xmlns:cc="http://creativecommons.org/ns#"
   xmlns:rdf="http://www.w3.org/1999/02/22-rdf-syntax-ns#"
   xmlns:svg="http://www.w3.org/2000/svg"
   xmlns="http://www.w3.org/2000/svg"
   xmlns:sodipodi="http://sodipodi.sourceforge.net/DTD/sodipodi-0.dtd"
   xmlns:inkscape="http://www.inkscape.org/namespaces/inkscape"
   width="159.18698mm"
   height="113.10777mm"
   viewBox="0 0 564.04836 400.77557"
   id="svg2"
   version="1.1"
   inkscape:version="0.91 r13725"
   sodipodi:docname="preview-proyecto.svg">
  <defs
     id="defs4" />
  <sodipodi:namedview
     id="base"
     pagecolor="#ffffff"
     bordercolor="#666666"
     borderopacity="1.0"
     inkscape:pageopacity="0.0"
     inkscape:pageshadow="2"
     inkscape:zoom="1.2335699"
     inkscape:cx="272.13011"
     inkscape:cy="205.57481"
     inkscape:document-units="px"
     inkscape:current-layer="layer2"
     showgrid="false"
     inkscape:object-nodes="true"
     fit-margin-top="0"
     fit-margin-left="0"
     fit-margin-right="0"
     fit-margin-bottom="0"
     inkscape:window-width="1366"
     inkscape:window-height="747"
     inkscape:window-x="0"
     inkscape:window-y="21"
     inkscape:window-maximized="1" />
  <metadata
     id="metadata7">
    <rdf:RDF>
      <cc:Work
         rdf:about="">
        <dc:format>image/svg+xml</dc:format>
        <dc:type
           rdf:resource="http://purl.org/dc/dcmitype/StillImage" />
        <dc:title></dc:title>
      </cc:Work>
    </rdf:RDF>
  </metadata>
  <g
     inkscape:groupmode="layer"
     id="layer2"
     inkscape:label="back"
     style="display:inline"
     transform="translate(-82.543663,-285.82578)">
    <rect
       style="opacity:1;fill:#cccccc;fill-opacity:1"
       id="rect4145"
       width="564.04834"
       height="283.17062"
       x="82.543663"
       y="401.18445"
       ry="26.368099" />
    <rect
       style="display:inline;opacity:1;fill:#ffffff;fill-opacity:1"
       id="rect4145-3"
       width="540.448"
       height="273.90588"
       x="94.008064"
       y="412.69547"
       ry="25.505392" />
    <rect
       style="opacity:1;fill:#cccccc;fill-opacity:1"
       id="rect4164"
       width="385.87195"
       height="8.1065531"
       x="117.49174"
       y="540.83868" />
    <rect
       style="display:inline;opacity:1;fill:#cccccc;fill-opacity:1"
       id="rect4164-6"
       width="496.12106"
       height="8.1065531"
       x="117.49174"
       y="566.17163" />
    <rect
       style="display:inline;opacity:1;fill:#cccccc;fill-opacity:1"
       id="rect4164-6-7"
       width="496.12106"
       height="8.1065531"
       x="117.49174"
       y="591.50464" />
    <rect
       style="display:inline;opacity:1;fill:#cccccc;fill-opacity:1"
       id="rect4164-6-5"
       width="496.12106"
       height="8.1065531"
       x="117.49174"
       y="616.83765" />
    <rect
       style="display:inline;opacity:1;fill:#cccccc;fill-opacity:1"
       id="rect4164-6-3"
       width="363.98425"
       height="8.1065531"
       x="117.49174"
       y="642.17065" />
    <rect
       style="opacity:1;fill:#ffffff;fill-opacity:1"
       id="rect4208"
       width="16.213106"
       height="28.372936"
       x="151.59254"
       y="390.05679" />
    <rect
       style="display:inline;opacity:1;fill:#ffffff;fill-opacity:1"
       id="rect4208-5"
       width="16.213106"
       height="28.372936"
       x="565.02679"
       y="391.2728" />
  </g>
  <g
     inkscape:label="img"
     inkscape:groupmode="layer"
     id="layer1"
     transform="translate(-82.543663,-285.82578)">
    <rect
       style="opacity:1;fill:#283593;fill-opacity:1"
       id="rect4140"
       width="397.96686"
       height="223.85635"
       x="167.3802"
       y="285.82578"
       ry="22.385626" />
    <g
       id="g4289"
       transform="matrix(4.6473255,-0.99265533,0.99265533,4.6473255,275.22269,340.34398)">
      <g
         id="g4245">
        <g
           id="g4247">
          <path
             id="path4249"
             d="M 28,6 24,6 20,2 11.999,2 8,6 4,6 C 4,6 0,6 0,10 l 0,12 c 0,4 4,4 4,4 0,0 5.662,0 11.518,0 1.614,2.411 4.361,3.999 7.482,4 3.875,-0.002 7.167,-2.454 8.436,-5.889 C 31.995,23.076 32,22 32,22 32,22 32,14 32,10 32,6 28,6 28,6 Z M 14.033,21.66 C 11.686,20.848 10,18.626 10,16 c 0,-3.312 2.684,-6 6,-6 1.914,0 3.607,0.908 4.706,2.306 C 16.848,13.321 14,16.822 14,21 c 0,0.223 0.018,0.441 0.033,0.66 z M 23,27.883 C 19.199,27.874 16.124,24.799 16.115,21 16.124,17.199 19.199,14.124 23,14.115 26.799,14.124 29.874,17.199 29.883,21 29.874,24.799 26.799,27.874 23,27.883 Z"
             inkscape:connector-curvature="0"
             style="fill:#ffffff" />
          <polygon
             id="polygon4251"
             points="24.002,22 28,22 28,20 24.002,20 24.002,16 22,16 22,20 18,20 18,22 22,22 22,26 24.002,26 "
             style="fill:#ffffff" />
        </g>
      </g>
      <g
         id="g4253" />
      <g
         id="g4255" />
      <g
         id="g4257" />
      <g
         id="g4259" />
      <g
         id="g4261" />
      <g
         id="g4263" />
      <g
         id="g4265" />
      <g
         id="g4267" />
      <g
         id="g4269" />
      <g
         id="g4271" />
      <g
         id="g4273" />
      <g
         id="g4275" />
      <g
         id="g4277" />
      <g
         id="g4279" />
      <g
         id="g4281" />
    </g>
  </g>
</svg>
