<?xml version="1.0" encoding="utf-8"?>
<!-- Generator: Adobe Illustrator 21.0.2, SVG Export Plug-In . SVG Version: 6.00 Build 0)  -->
<svg version="1.1" id="Layer_1" xmlns="http://www.w3.org/2000/svg" xmlns:xlink="http://www.w3.org/1999/xlink" x="0px" y="0px"
	 viewBox="0 0 625.2 625.2" style="enable-background:new 0 0 625.2 625.2;" xml:space="preserve">
<style type="text/css">
	.st0{fill:#FFFFFF;}
</style>
<g>
	<path class="st0" d="M274.1,57.7h2.6c11.9,0,21.5-9.6,21.5-21.5c0-11.9-9.6-21.5-21.5-21.5h-2.6c-11.9,0-21.5,9.6-21.5,21.5
		C252.6,48.1,262.2,57.7,274.1,57.7z"/>
	<path class="st0" d="M328.6,57.7h40h6H395c3.1,4.5,8.3,7.4,14.2,7.4h37c9.5,0,17.3-7.7,17.3-17.2c0-9.5-7.7-17.2-17.3-17.2h-10.8
		c-2.5-9.1-10.8-15.9-20.7-15.9h-40h-6h-40c-11.9,0-21.5,9.6-21.5,21.5C307.2,48.1,316.8,57.7,328.6,57.7z"/>
	<g>
		<path class="st0" d="M399.2,277.6c0.3,0.5,0.9,0.8,1.5,0.8h8.3c1.3,0,2.5-0.4,3.4-1.1c0.9-0.7,1.5-1.6,1.8-2.4l3.9-10.6h21.4
			l3.9,10.6c0.4,1,1,1.8,1.9,2.5c0.9,0.7,2,1.1,3.4,1.1h8.3c0,0,0,0,0.1,0c1,0,1.8-0.8,1.8-1.8c0-0.4-0.1-0.8-0.4-1.1l-22.5-57.2
			c-0.3-0.7-0.9-1.1-1.6-1.1h-11c-0.7,0-1.4,0.4-1.7,1.1L399,276C398.8,276.5,398.9,277.1,399.2,277.6z M428.3,236.4
			c0.2-0.5,0.4-1,0.5-1.5c0.2,0.5,0.3,0.9,0.5,1.4l6.1,16.8h-13.3L428.3,236.4z"/>
		<path class="st0" d="M341.1,290.8c-2,0.2-3.5,0.7-4.6,1.2c-0.7,0.3-1.3,0.7-1.9,1.2c-0.1,0.1-0.2,0.2-0.2,0.2v0
			c-1.4,1.3-2.3,3.1-2.3,5.2v152c0,3.9,3.2,7.1,7.1,7.1h112.3c3.9,0,7.1-3.2,7.1-7.1v-31.2c0-3.9-3.2-7.1-7.1-7.1h-64.4v-15.5h56.3
			c3.9,0,7.1-3.2,7.1-7.1v-29.2c0-4-3.2-7.1-7.1-7.1h-56.3v-16.9h64.4c3.9,0,7.1-3.2,7.1-7.1v-31.2c0-3.9-3.2-7.1-7.1-7.1H342.1
			C341.7,290.7,341.4,290.7,341.1,290.8z"/>
		<path class="st0" d="M273.8,217.2h-11c-0.7,0-1.4,0.4-1.7,1.1L238.5,276c-0.2,0.5-0.1,1.2,0.2,1.6c0.3,0.5,0.9,0.8,1.4,0.8h8.3
			c1.3,0,2.5-0.4,3.4-1.1c0.9-0.7,1.5-1.6,1.8-2.4l3.9-10.6H279l3.9,10.6c0.4,1,1,1.8,1.9,2.5c0.9,0.7,2,1.1,3.4,1.1h8.3
			c0,0,0.1,0,0.1,0c1,0,1.8-0.8,1.8-1.8c0-0.4-0.1-0.8-0.4-1.1l-22.5-57.2C275.1,217.7,274.5,217.2,273.8,217.2z M261.6,253.1
			l6.1-16.7c0.2-0.5,0.4-1,0.5-1.5c0.2,0.5,0.3,0.9,0.5,1.4l6.1,16.8H261.6z"/>
		<path class="st0" d="M406.7,217.2h-45.5c-1,0-1.8,0.8-1.8,1.8v8.8c0,1,0.8,1.8,1.8,1.8h15.6v47.1c0,1,0.8,1.8,1.8,1.8h10.7
			c1,0,1.8-0.8,1.8-1.8v-47.1h15.6c1,0,1.7-0.8,1.7-1.8V219C408.5,218,407.7,217.2,406.7,217.2z"/>
		<path class="st0" d="M352.9,217.2h-9.4c-1,0-1.8,0.8-1.8,1.8v34.8l-26.8-34.2c-0.3-0.4-0.7-0.8-1-1.1c-0.4-0.3-0.8-0.6-1.2-0.8
			c-0.4-0.2-0.9-0.3-1.4-0.4c-0.4-0.1-0.9-0.1-1.4-0.1h-5.6c-1,0-1.8,0.8-1.8,1.8v57.6c0,1,0.8,1.8,1.8,1.8h9.4c1,0,1.8-0.8,1.8-1.8
			v-34.8l26.7,34c0.7,0.9,1.5,1.6,2.3,2c0.8,0.4,1.7,0.6,2.9,0.6h5.5c1,0,1.8-0.8,1.8-1.8V219C354.7,218,353.9,217.2,352.9,217.2z"
			/>
		<path class="st0" d="M113.2,537.8v-64.3h-1.9c-31.8,0-57.5,25.7-57.5,57.5c0,31.8,25.7,57.5,57.5,57.5h332
			c29.5,0,53.7-22.2,57.1-50.8H113.2z"/>
		<path class="st0" d="M194.8,297.8v152.7c0,3.9,3.2,7.1,7.1,7.1h41.6c3.9,0,7.1-3.2,7.1-7.1v-54h54.1c3.9,0,7.1-3.2,7.1-7.1v-29.2
			c0-4-3.2-7.1-7.1-7.1h-54.1v-14.9h62.6c3.9,0,7.1-3.2,7.1-7.1v-33.2c0-3.9-3.2-7.1-7.1-7.1H201.9
			C198,290.7,194.8,293.9,194.8,297.8z"/>
		<path class="st0" d="M76.5,335c0.9,22.7,16,41.8,36.7,48.5V193.3H73.2c-39.1,0-70.9,31.7-70.9,70.9c0,39.2,31.7,70.9,70.9,70.9
			H76.5z"/>
		<path class="st0" d="M568.1,277.3c1.6-5.8,2.5-11.9,2.5-18.2c0-13.1-3.7-25.3-10.1-35.7c18.8-15.3,30.7-38.6,30.7-64.7
			c0-46.1-37.4-83.5-83.6-83.5h-179c-25.3,0-48,11.3-63.3,29.1c-0.2,0-0.5,0-0.7,0h-56.7c-14.6,0-26.5,11.9-26.5,26.5
			c0,1.1,0.1,2.3,0.2,3.4h356.1v352.1c50.1-11.7,87.5-56.7,87.5-110.3C625.2,333.6,602.2,296.9,568.1,277.3z"/>
		<path class="st0" d="M214.9,266.7c-1.8,0-3.3-0.2-4.5-0.7c-1.3-0.5-2.5-1.1-3.4-1.7c-1-0.7-1.9-1.2-2.6-1.8
			c-1.9-1.4-3.9-1.4-5.5-0.5c-0.6,0.4-1.1,0.8-1.6,1.5l-3.1,5.1c-0.4,0.7-0.3,1.6,0.3,2.1c1.2,1.2,2.6,2.3,4.1,3.4
			c1.5,1,3.2,1.8,4.9,2.6c1.7,0.7,3.5,1.2,5.4,1.6c1.9,0.4,3.8,0.6,5.8,0.6c3.4,0,6.5-0.5,9.1-1.6c2.7-1,5-2.5,6.9-4.4
			c1.9-1.9,3.3-4.1,4.3-6.6c1-2.5,1.5-5.2,1.5-8c0-2.6-0.4-4.9-1.3-6.8c-0.9-1.9-2-3.5-3.4-4.8c-1.4-1.3-2.9-2.3-4.7-3.2
			c-1.7-0.8-3.4-1.5-5.1-2.1c-1.7-0.6-3.3-1.1-4.9-1.6c-1.5-0.5-2.8-1-4-1.6c-1-0.5-1.8-1.1-2.5-1.9c-0.5-0.6-0.7-1.3-0.7-2.3
			c0-0.8,0.1-1.6,0.4-2.2c0.3-0.6,0.7-1.2,1.2-1.6c0.6-0.5,1.3-0.9,2.2-1.2c2-0.6,5.1-0.6,7,0.1c1.1,0.4,2.1,0.8,2.9,1.3
			c0.9,0.5,1.6,0.9,2.3,1.3c1.9,1.2,3.6,1.1,5,0.2c0.7-0.4,1.2-1.1,1.6-1.9l2.6-5.1c0.4-0.7,0.2-1.6-0.3-2.1
			c-2.2-2.1-4.9-3.7-7.9-4.8c-5.8-2.1-13.3-2.3-18.7-0.2c-2.5,1-4.7,2.4-6.5,4.1c-1.8,1.7-3.1,3.7-4.1,5.9c-0.9,2.2-1.4,4.5-1.4,6.8
			c0,2.9,0.4,5.3,1.3,7.3c0.8,2,2,3.7,3.4,5.1c1.4,1.3,3,2.4,4.7,3.2c1.7,0.8,3.4,1.4,5.1,2c1.7,0.5,3.3,1,4.9,1.5
			c1.5,0.4,2.8,0.9,3.9,1.5c1,0.5,1.8,1.2,2.4,1.9c0.5,0.6,0.8,1.5,0.8,2.6c0,2.2-0.6,3.8-1.9,4.9
			C219.5,266.1,217.5,266.7,214.9,266.7z"/>
	</g>
</g>
</svg>
