<?xml version="1.0" encoding="UTF-8" standalone="no"?>
<!-- Created with Inkscape (http://www.inkscape.org/) -->

<svg
   xmlns:dc="http://purl.org/dc/elements/1.1/"
   xmlns:cc="http://creativecommons.org/ns#"
   xmlns:rdf="http://www.w3.org/1999/02/22-rdf-syntax-ns#"
   xmlns:svg="http://www.w3.org/2000/svg"
   xmlns="http://www.w3.org/2000/svg"
   xmlns:sodipodi="http://sodipodi.sourceforge.net/DTD/sodipodi-0.dtd"
   xmlns:inkscape="http://www.inkscape.org/namespaces/inkscape"
   width="153.14012mm"
   height="129.12978mm"
   viewBox="0 0 542.62248 457.54645"
   id="svg4088"
   version="1.1"
   inkscape:version="0.91 r13725"
   sodipodi:docname="slogan4-dark.svg">
  <defs
     id="defs4090" />
  <sodipodi:namedview
     id="base"
     pagecolor="#ffffff"
     bordercolor="#666666"
     borderopacity="1.0"
     inkscape:pageopacity="0.0"
     inkscape:pageshadow="2"
     inkscape:zoom="0.98994949"
     inkscape:cx="220.99118"
     inkscape:cy="130.51371"
     inkscape:document-units="px"
     inkscape:current-layer="layer1"
     showgrid="false"
     inkscape:window-width="1920"
     inkscape:window-height="1059"
     inkscape:window-x="1366"
     inkscape:window-y="21"
     inkscape:window-maximized="1"
     fit-margin-top="0"
     fit-margin-left="0"
     fit-margin-right="0"
     fit-margin-bottom="0" />
  <metadata
     id="metadata4093">
    <rdf:RDF>
      <cc:Work
         rdf:about="">
        <dc:format>image/svg+xml</dc:format>
        <dc:type
           rdf:resource="http://purl.org/dc/dcmitype/StillImage" />
        <dc:title></dc:title>
      </cc:Work>
    </rdf:RDF>
  </metadata>
  <g
     inkscape:label="Layer 1"
     inkscape:groupmode="layer"
     id="layer1"
     transform="translate(-122.97443,-154.27422)">
    <path
       d="m 665.59693,611.82069 -542.6225,0 0,-118.6325 542.6225,0 0,118.6325 z"
       style="fill:#000000;fill-opacity:1;fill-rule:evenodd;stroke:none"
       id="path102"
       inkscape:connector-curvature="0" />
    <g
       id="g104"
       transform="matrix(1.25,0,0,-1.25,176.36393,544.54119)">
      <path
         d="M 0,0 C 0,3.838 -2.467,7.036 -6.488,7.036 -11.057,7.036 -13.25,3.747 -14.073,0 L 0,0 Z m -6.123,18.643 c 13.891,0 21.749,-9.687 21.749,-22.755 0,-1.645 -0.182,-3.29 -0.365,-4.935 l -29.699,0 c 1.188,-5.757 5.939,-8.407 10.966,-8.407 4.66,0 9.138,2.193 12.976,4.752 l 5.849,-11.058 c -5.118,-4.386 -12.885,-6.853 -20.104,-6.853 -16.815,0 -25.862,12.154 -25.862,24.674 0,13.798 9.321,24.582 24.49,24.582"
         style="fill:#ffffff;fill-opacity:1;fill-rule:nonzero;stroke:none"
         id="path106"
         inkscape:connector-curvature="0" />
    </g>
    <g
       id="g108"
       transform="matrix(1.25,0,0,-1.25,201.60813,522.60881)">
      <path
         d="m 0,0 15.169,0 0,-4.112 c 0,-1.554 -0.182,-2.924 -0.182,-2.924 l 0.182,0 c 2.194,3.654 6.672,8.133 14.988,8.133 9.504,0 16.906,-4.387 16.906,-17.637 l 0,-30.523 -15.81,0 0,27.598 c 0,4.387 -1.736,6.214 -5.209,6.214 -7.036,0 -10.234,-5.849 -10.234,-12.52 l 0,-21.292 -15.81,0 L 0,0 Z"
         style="fill:#ffffff;fill-opacity:1;fill-rule:nonzero;stroke:none"
         id="path110"
         inkscape:connector-curvature="0" />
    </g>
    <g
       id="g112"
       transform="matrix(1.25,0,0,-1.25,327.48943,544.54119)">
      <path
         d="M 0,0 C 0,3.838 -2.467,7.036 -6.488,7.036 -11.057,7.036 -13.25,3.747 -14.073,0 L 0,0 Z m -6.123,18.643 c 13.891,0 21.749,-9.687 21.749,-22.755 0,-1.645 -0.182,-3.29 -0.365,-4.935 l -29.699,0 c 1.188,-5.757 5.939,-8.407 10.966,-8.407 4.66,0 9.138,2.193 12.976,4.752 l 5.849,-11.058 c -5.118,-4.386 -12.885,-6.853 -20.104,-6.853 -16.815,0 -25.862,12.154 -25.862,24.674 0,13.798 9.321,24.582 24.49,24.582"
         style="fill:#ffffff;fill-opacity:1;fill-rule:nonzero;stroke:none"
         id="path114"
         inkscape:connector-curvature="0" />
    </g>
    <g
       id="g116"
       transform="matrix(1.25,0,0,-1.25,381.06313,566.47357)">
      <path
         d="m 0,0 c 4.752,0 9.229,3.473 9.229,11.606 0,5.665 -3.015,11.241 -9.229,11.241 -4.935,0 -9.229,-4.022 -9.229,-11.241 C -9.229,4.569 -5.483,0 0,0 m -3.655,36.188 c 4.751,0 10.143,-1.371 13.433,-5.026 l 0.183,0 c 0,0 -0.183,1.006 -0.183,2.559 l 0,1.371 14.805,0 0,-65.34 -15.81,0 0,18.46 c 0,2.376 0.183,4.02 0.183,4.02 l -0.183,0 c -3.199,-3.746 -8.316,-5.299 -12.703,-5.299 -12.793,0 -21.2,10.052 -21.2,24.673 0,14.896 8.955,24.582 21.475,24.582"
         style="fill:#ffffff;fill-opacity:1;fill-rule:nonzero;stroke:none"
         id="path118"
         inkscape:connector-curvature="0" />
    </g>
    <g
       id="g120"
       transform="matrix(1.25,0,0,-1.25,419.90163,522.60881)">
      <path
         d="m 0,0 15.81,0 0,-27.598 c 0,-4.386 1.736,-6.215 5.025,-6.215 6.763,0 9.961,5.941 9.961,12.977 l 0,20.836 15.809,0 0,-47.063 -15.169,0 0,4.113 c 0,1.554 0.183,2.924 0.183,2.924 l -0.183,0 C 28.877,-45.053 23.029,-48.159 16.723,-48.159 7.402,-48.159 0,-43.772 0,-30.522 L 0,0 Z"
         style="fill:#ffffff;fill-opacity:1;fill-rule:nonzero;stroke:none"
         id="path122"
         inkscape:connector-curvature="0" />
    </g>
    <path
       d="m 487.06823,499.76194 19.3037,0 0,15.42125 -19.3037,0 0,-15.42125 z m -0.2288,22.84625 19.7625,0 0,58.82875 -19.7625,0 0,-58.82875 z"
       style="fill:#ffffff;fill-opacity:1;fill-rule:nonzero;stroke:none"
       id="path124"
       inkscape:connector-curvature="0" />
    <g
       id="g126"
       transform="matrix(1.25,0,0,-1.25,546.00933,566.47357)">
      <path
         d="m 0,0 c 4.935,0 9.229,4.021 9.229,11.241 0,7.036 -3.746,11.606 -9.229,11.606 -4.752,0 -9.229,-3.473 -9.229,-11.606 C -9.229,5.575 -6.214,0 0,0 m -24.582,35.092 14.256,0 0,-2.376 c 0,-1.554 -0.183,-3.016 -0.183,-3.016 l 0.183,0 c 3.198,4.295 8.59,6.488 14.256,6.488 12.793,0 21.2,-10.051 21.2,-24.673 0,-14.896 -9.412,-24.582 -21.931,-24.582 -4.387,0 -8.591,1.553 -11.972,4.477 l -0.183,0 c 0,0 0.183,-1.644 0.183,-4.02 l 0,-17.638 -15.809,0 0,65.34 z"
         style="fill:#ffffff;fill-opacity:1;fill-rule:nonzero;stroke:none"
         id="path128"
         inkscape:connector-curvature="0" />
    </g>
    <g
       id="g130"
       transform="matrix(1.25,0,0,-1.25,613.06263,566.35881)">
      <path
         d="M 0,0 C 5.757,0 10.692,4.295 10.692,11.332 10.692,18.46 5.757,22.937 0,22.937 -5.757,22.937 -10.692,18.46 -10.692,11.332 -10.692,4.295 -5.757,0 0,0 m -0.091,36.097 c 14.895,0 26.775,-9.961 26.775,-24.765 0,-14.714 -11.88,-24.491 -26.684,-24.491 -14.804,0 -26.684,9.777 -26.684,24.491 0,14.804 11.88,24.765 26.593,24.765"
         style="fill:#ffffff;fill-opacity:1;fill-rule:nonzero;stroke:none"
         id="path132"
         inkscape:connector-curvature="0" />
    </g>
    <g
       id="g134"
       transform="matrix(1.25,0,0,-1.25,160.94283,327.18032)"
       style="fill:#000000">
      <path
         d="m 0,0 -19.83,0 0,13.707 55.653,0 0,-13.707 -19.83,0 0,-51.632 L 0,-51.632 0,0 Z"
         style="fill:#000000;fill-opacity:1;fill-rule:nonzero;stroke:none"
         id="path136"
         inkscape:connector-curvature="0" />
    </g>
    <g
       id="g138"
       transform="matrix(1.25,0,0,-1.25,229.93883,376.64194)"
       style="fill:#000000">
      <path
         d="m 0,0 c 5.757,0 10.692,4.295 10.692,11.331 0,7.128 -4.935,11.606 -10.692,11.606 -5.757,0 -10.692,-4.478 -10.692,-11.606 C -10.692,4.295 -5.757,0 0,0 m -0.091,36.097 c 14.896,0 26.775,-9.961 26.775,-24.766 0,-14.713 -11.879,-24.49 -26.684,-24.49 -14.804,0 -26.684,9.777 -26.684,24.49 0,14.805 11.88,24.766 26.593,24.766"
         style="fill:#000000;fill-opacity:1;fill-rule:nonzero;stroke:none"
         id="path140"
         inkscape:connector-curvature="0" />
    </g>
    <g
       id="g142"
       transform="matrix(1.25,0,0,-1.25,296.99273,376.75669)"
       style="fill:#000000">
      <path
         d="m 0,0 c 4.752,0 9.23,3.473 9.23,11.606 0,5.665 -3.016,11.24 -9.23,11.24 -4.935,0 -9.229,-4.021 -9.229,-11.24 C -9.229,4.569 -5.483,0 0,0 m -3.655,36.188 c 4.203,0 9.23,-0.64 12.337,-3.747 l 0.182,0 c 0,0 -0.091,0.914 -0.091,2.102 l 0,18.825 15.81,0 0,-65.339 -14.805,0 0,3.107 c 0,1.462 0.092,2.65 0.092,2.65 l -0.183,0 c -2.924,-4.477 -8.042,-6.853 -13.616,-6.853 -12.794,0 -21.201,10.051 -21.201,24.673 0,14.895 8.955,24.582 21.475,24.582"
         style="fill:#000000;fill-opacity:1;fill-rule:nonzero;stroke:none"
         id="path144"
         inkscape:connector-curvature="0" />
    </g>
    <g
       id="g146"
       transform="matrix(1.25,0,0,-1.25,357.42113,378.35581)"
       style="fill:#000000">
      <path
         d="m 0,0 c 4.569,0 8.042,4.478 8.042,8.316 l 0,1.279 -1.463,0 C 1.736,9.595 -4.478,8.316 -4.478,4.021 -4.478,1.828 -2.924,0 0,0 m 6.488,18.643 1.371,0 0,0.822 c 0,3.93 -3.199,5.209 -6.671,5.209 -4.569,0 -9.23,-2.011 -12.977,-4.478 l -5.482,11.149 c 4.02,3.107 12.245,6.123 19.921,6.123 12.976,0 21.018,-7.22 21.018,-19.192 l 0,-28.967 -14.439,0 0,2.833 c 0,1.552 0.183,2.923 0.183,2.923 l -0.183,0 c -3.106,-4.386 -8.589,-6.853 -13.981,-6.853 -9.047,0 -15.352,6.214 -15.352,14.347 0,12.611 14.986,16.084 26.592,16.084"
         style="fill:#000000;fill-opacity:1;fill-rule:nonzero;stroke:none"
         id="path148"
         inkscape:connector-curvature="0" />
    </g>
    <path
       d="m 419.21943,310.04694 19.305,0 0,15.42125 -19.305,0 0,-15.42125 z m -0.2287,22.845 19.7625,0 0,58.82875 -19.7625,0 0,-58.82875 z"
       style="fill:#000000;fill-opacity:1;fill-rule:nonzero;stroke:none"
       id="path150"
       inkscape:connector-curvature="0" />
    <g
       id="g152"
       transform="matrix(1.25,0,0,-1.25,475.76223,376.75669)"
       style="fill:#000000">
      <path
         d="m 0,0 c 4.752,0 9.229,3.473 9.229,11.606 0,5.665 -3.015,11.24 -9.229,11.24 -4.935,0 -9.23,-4.021 -9.23,-11.24 C -9.23,4.569 -5.483,0 0,0 m -3.655,36.188 c 4.203,0 9.229,-0.64 12.336,-3.747 l 0.183,0 c 0,0 -0.092,0.914 -0.092,2.102 l 0,18.825 15.81,0 0,-65.339 -14.804,0 0,3.107 c 0,1.462 0.091,2.65 0.091,2.65 l -0.182,0 c -2.925,-4.477 -8.042,-6.853 -13.617,-6.853 -12.793,0 -21.201,10.051 -21.201,24.673 0,14.895 8.956,24.582 21.476,24.582"
         style="fill:#000000;fill-opacity:1;fill-rule:nonzero;stroke:none"
         id="path154"
         inkscape:connector-curvature="0" />
    </g>
    <g
       id="g156"
       transform="matrix(1.25,0,0,-1.25,550.12563,354.82431)"
       style="fill:#000000">
      <path
         d="M 0,0 C 0,3.838 -2.467,7.037 -6.488,7.037 -11.057,7.037 -13.25,3.746 -14.073,0 L 0,0 Z m -6.122,18.643 c 13.89,0 21.749,-9.688 21.749,-22.755 0,-1.645 -0.183,-3.29 -0.366,-4.935 l -29.699,0 c 1.188,-5.758 5.939,-8.407 10.966,-8.407 4.66,0 9.138,2.193 12.976,4.752 l 5.849,-11.058 c -5.118,-4.386 -12.885,-6.853 -20.104,-6.853 -16.815,0 -25.862,12.153 -25.862,24.674 0,13.798 9.321,24.582 24.491,24.582"
         style="fill:#000000;fill-opacity:1;fill-rule:nonzero;stroke:none"
         id="path158"
         inkscape:connector-curvature="0" />
    </g>
    <g
       id="g160"
       transform="matrix(1.25,0,0,-1.25,596.38843,378.35581)"
       style="fill:#000000">
      <path
         d="m 0,0 c 4.569,0 8.042,4.478 8.042,8.316 l 0,1.279 -1.462,0 C 1.736,9.595 -4.478,8.316 -4.478,4.021 -4.478,1.828 -2.924,0 0,0 m 6.488,18.643 1.371,0 0,0.822 c 0,3.93 -3.198,5.209 -6.671,5.209 -4.569,0 -9.23,-2.011 -12.976,-4.478 l -5.483,11.149 c 4.021,3.107 12.245,6.123 19.921,6.123 12.977,0 21.018,-7.22 21.018,-19.192 l 0,-28.967 -14.438,0 0,2.833 c 0,1.552 0.183,2.923 0.183,2.923 l -0.183,0 c -3.107,-4.386 -8.59,-6.853 -13.982,-6.853 -9.047,0 -15.352,6.214 -15.352,14.347 0,12.611 14.986,16.084 26.592,16.084"
         style="fill:#000000;fill-opacity:1;fill-rule:nonzero;stroke:none"
         id="path162"
         inkscape:connector-curvature="0" />
    </g>
    <g
       id="g164"
       transform="matrix(1.25,0,0,-1.25,141.40973,417.60506)"
       style="fill:#000000">
      <path
         d="m 0,0 15.17,0 0,-4.112 c 0,-1.554 -0.183,-2.925 -0.183,-2.925 l 0.183,0 c 2.193,3.655 6.671,8.134 14.987,8.134 9.504,0 16.906,-4.387 16.906,-17.637 l 0,-30.523 -15.81,0 0,27.598 c 0,4.387 -1.736,6.214 -5.209,6.214 -7.036,0 -10.234,-5.849 -10.234,-12.52 l 0,-21.292 -15.81,0 L 0,0 Z"
         style="fill:#000000;fill-opacity:1;fill-rule:nonzero;stroke:none"
         id="path166"
         inkscape:connector-curvature="0" />
    </g>
    <g
       id="g168"
       transform="matrix(1.25,0,0,-1.25,229.36693,463.06894)"
       style="fill:#000000">
      <path
         d="m 0,0 c 4.569,0 8.042,4.478 8.042,8.316 l 0,1.28 -1.462,0 C 1.736,9.596 -4.478,8.316 -4.478,4.021 -4.478,1.828 -2.924,0 0,0 m 6.488,18.643 1.371,0 0,0.822 c 0,3.93 -3.198,5.209 -6.671,5.209 -4.569,0 -9.23,-2.01 -12.977,-4.478 l -5.482,11.149 c 4.02,3.107 12.245,6.123 19.921,6.123 12.976,0 21.018,-7.22 21.018,-19.191 l 0,-28.968 -14.439,0 0,2.832 c 0,1.554 0.184,2.924 0.184,2.924 l -0.184,0 c -3.106,-4.386 -8.589,-6.853 -13.981,-6.853 -9.047,0 -15.352,6.214 -15.352,14.347 0,12.611 14.986,16.084 26.592,16.084"
         style="fill:#000000;fill-opacity:1;fill-rule:nonzero;stroke:none"
         id="path170"
         inkscape:connector-curvature="0" />
    </g>
    <g
       id="g172"
       transform="matrix(1.25,0,0,-1.25,296.41963,416.23432)"
       style="fill:#000000">
      <path
         d="m 0,0 c 6.58,0 14.073,-2.102 18.734,-7.128 l -6.671,-10.601 c -2.742,2.651 -6.945,4.57 -11.058,4.57 -7.493,0 -11.24,-5.666 -11.24,-11.24 0,-5.575 3.838,-11.698 11.789,-11.698 4.569,0 9.504,2.742 12.884,5.666 l 5.758,-11.057 C 15.536,-46.24 7.859,-49.256 0,-49.256 c -16.814,0 -26.227,11.697 -26.227,24.674 C -26.227,-11.972 -16.906,0 0,0"
         style="fill:#000000;fill-opacity:1;fill-rule:nonzero;stroke:none"
         id="path174"
         inkscape:connector-curvature="0" />
    </g>
    <g
       id="g176"
       transform="matrix(1.25,0,0,-1.25,359.24613,439.53744)"
       style="fill:#000000">
      <path
         d="m 0,0 c 0,3.839 -2.467,7.036 -6.488,7.036 -4.57,0 -6.762,-3.289 -7.585,-7.036 L 0,0 Z m -6.123,18.643 c 13.891,0 21.749,-9.687 21.749,-22.755 0,-1.645 -0.182,-3.29 -0.365,-4.935 l -29.699,0 c 1.188,-5.757 5.939,-8.407 10.965,-8.407 4.661,0 9.139,2.193 12.977,4.752 l 5.849,-11.058 c -5.118,-4.386 -12.886,-6.853 -20.105,-6.853 -16.815,0 -25.862,12.154 -25.862,24.674 0,13.798 9.322,24.582 24.491,24.582"
         style="fill:#000000;fill-opacity:1;fill-rule:nonzero;stroke:none"
         id="path178"
         inkscape:connector-curvature="0" />
    </g>
    <g
       id="Layer_4"
       style="fill:#000000"
       transform="matrix(0.63598506,-0.15972203,0.15972201,0.6359851,112.10973,221.85871)">
      <path
         d="m 419.591,71.912 -15.801,0.105 7.522,-58.139 8.279,58.034 z m -30.578,2.251 -14.342,6.642 -17.232,-56.031 31.574,49.389 z m 61.428,9.743 -14.193,-6.948 32.627,-48.698 -18.434,55.646 z m -100.71,60.121 c 0.441,41.224 31.625,61.551 62.329,61.35 22.251,-0.146 45.13,-9.957 53.594,-35.198 4.06,-11.755 3.986,-23.312 3.215,-35.385 l -57.093,0.375 0.174,26.735 25.7,-0.166 c -5.441,11.592 -13.359,14.922 -25.776,15.003 -18.287,0.12 -30.099,-12.915 -30.229,-32.922 -0.121,-18.456 10.304,-33.706 29.793,-33.833 12.245,-0.082 20.207,4.009 25.279,14.322 l 30.359,-0.195 C 461.02,94.137 435.579,81.711 411.252,81.697 c -30.701,0.2 -61.615,21.101 -61.521,62.33 M 362.08,85.278 344.597,28.434 c -2.202,-7.159 1.813,-14.752 8.971,-16.959 5.999,-1.847 12.501,0.68 15.678,6.072 l 23.296,36.443 5.457,-42.197 c 0.958,-7.391 7.811,-12.645 15.195,-11.678 6.093,0.803 10.925,5.669 11.68,11.757 l 6.77,47.446 26.082,-38.931 c 4.145,-6.188 12.607,-7.875 18.803,-3.734 5.251,3.506 7.382,10.19 5.15,16.073 l -18.255,55.109 c -0.029,0.077 -0.049,0.15 -0.078,0.228 8.825,8.93 14.403,20.033 17.012,32.412 0.266,1.062 0.401,2.159 0.404,3.255 0.005,1.132 -0.132,2.255 -0.403,3.347 1.261,1.938 2.011,4.178 2.16,6.528 0.414,6.539 0.62,13.053 0.181,19.595 -0.477,7.141 -1.731,14.081 -4.048,20.86 l -0.037,0.101 c -4.535,13.534 -12.921,24.859 -24.885,32.715 -12.24,8.038 -26.942,11.637 -41.485,11.734 -20.086,0.13 -40.111,-7.136 -54.522,-21.32 -14.418,-14.19 -21.068,-32.872 -21.403,-52.89 -0.013,-0.232 -0.019,-0.465 -0.02,-0.693 -0.045,-20.16 6.398,-39.273 20.704,-53.766 1.615,-1.639 3.31,-3.192 5.076,-4.663"
         id="path5"
         style="clip-rule:evenodd;fill:#000000;fill-rule:evenodd"
         inkscape:connector-curvature="0" />
    </g>
    <g
       id="Layer_3"
       style="fill:#000000"
       transform="matrix(0.65573479,0,0,0.65573484,126.72425,154.27422)">
      <path
         d="m 110.112,58.536 c 14.476,0 26.213,11.736 26.213,26.213 0,14.476 -11.737,26.213 -26.213,26.213 -14.477,0 -26.213,-11.737 -26.213,-26.213 0,-14.477 11.736,-26.213 26.213,-26.213"
         id="path8"
         style="clip-rule:evenodd;fill:#000000;fill-rule:evenodd"
         inkscape:connector-curvature="0" />
      <path
         d="m 0,0 36.863,0.024 27.826,63.72 c -2.481,5.826 -3.855,12.237 -3.855,18.969 0,21.005 13.367,38.887 32.057,45.611 l 16.401,37.559 16.402,-37.557 c 18.692,-6.722 32.06,-24.605 32.06,-45.612 0,-6.732 -1.374,-13.143 -3.855,-18.97 L 181.727,0.025 218.59,0 l -92.933,218.589 -32.725,0 L 0,0 Z"
         id="path10"
         style="fill:#000000"
         inkscape:connector-curvature="0" />
      <g
         id="g12"
         style="fill:#000000">
        <path
           d="m 243.354,91.115 12.979,0 0,36.961 5.606,0 0,-31.147 2.906,1.765 0,29.382 27.41,0 0,12.979 -35.923,0 0,34.677 -12.979,0 0,-26.164 -30.42,0 -1.869,-2.906 32.289,0 0,-5.606 -35.715,0 0,-12.979 35.715,0 0,-36.962 z m 21.491,58.453 0,36.962 -13.496,0 -2.284,-2.389 12.874,0 0,-37.479 36.338,0 0,-12.874 2.388,2.284 0,13.496 -35.82,0 z"
           id="path14-3"
           style="fill:#000000"
           inkscape:connector-curvature="0" />
      </g>
    </g>
  </g>
</svg>
