<?xml version="1.0" encoding="UTF-8" standalone="no"?>
<!-- Created with Inkscape (http://www.inkscape.org/) -->

<svg
   xmlns:dc="http://purl.org/dc/elements/1.1/"
   xmlns:cc="http://creativecommons.org/ns#"
   xmlns:rdf="http://www.w3.org/1999/02/22-rdf-syntax-ns#"
   xmlns:svg="http://www.w3.org/2000/svg"
   xmlns="http://www.w3.org/2000/svg"
   xmlns:sodipodi="http://sodipodi.sourceforge.net/DTD/sodipodi-0.dtd"
   xmlns:inkscape="http://www.inkscape.org/namespaces/inkscape"
   width="346.89871mm"
   height="55.022869mm"
   viewBox="0 0 1229.1687 194.96293"
   id="svg6685"
   version="1.1"
   inkscape:version="0.91 r13725"
   sodipodi:docname="slogan3-dark.svg">
  <defs
     id="defs6687" />
  <sodipodi:namedview
     id="base"
     pagecolor="#ffffff"
     bordercolor="#666666"
     borderopacity="1.0"
     inkscape:pageopacity="0.0"
     inkscape:pageshadow="2"
     inkscape:zoom="0.35"
     inkscape:cx="1061.0773"
     inkscape:cy="-28.753644"
     inkscape:document-units="px"
     inkscape:current-layer="layer1"
     showgrid="false"
     fit-margin-top="0"
     fit-margin-left="0"
     fit-margin-right="0"
     fit-margin-bottom="0"
     inkscape:window-width="1920"
     inkscape:window-height="1059"
     inkscape:window-x="1366"
     inkscape:window-y="21"
     inkscape:window-maximized="1" />
  <metadata
     id="metadata6690">
    <rdf:RDF>
      <cc:Work
         rdf:about="">
        <dc:format>image/svg+xml</dc:format>
        <dc:type
           rdf:resource="http://purl.org/dc/dcmitype/StillImage" />
        <dc:title></dc:title>
      </cc:Work>
    </rdf:RDF>
  </metadata>
  <g
     inkscape:label="Layer 1"
     inkscape:groupmode="layer"
     id="layer1"
     transform="translate(379.30589,-345.19973)">
    <path
       d="m 849.86277,540.16265 -734.01125,0 0,-105.6875 734.01125,0 0,105.6875 z"
       style="fill:#000000;fill-opacity:1;fill-rule:evenodd;stroke:none"
       id="path14"
       inkscape:connector-curvature="0" />
    <g
       id="g16"
       transform="matrix(1.25,0,0,-1.25,156.16277,362.68415)"
       style="fill:#000000">
      <path
         d="m 0,0 -17.667,0 0,12.212 49.581,0 0,-12.212 -17.667,0 0,-45.998 L 0,-45.998 0,0 Z"
         style="fill:#000000;fill-opacity:1;fill-rule:nonzero;stroke:none"
         id="path18"
         inkscape:connector-curvature="0" />
    </g>
    <g
       id="g28"
       transform="matrix(1.25,0,0,-1.25,217.63017,406.74903)"
       style="fill:#000000">
      <path
         d="m 0,0 c 5.129,0 9.525,3.826 9.525,10.096 0,6.349 -4.396,10.339 -9.525,10.339 -5.129,0 -9.525,-3.99 -9.525,-10.339 C -9.525,3.826 -5.129,0 0,0 m -0.081,32.158 c 13.27,0 23.853,-8.874 23.853,-22.062 0,-13.108 -10.583,-21.819 -23.772,-21.819 -13.188,0 -23.772,8.711 -23.772,21.819 0,13.188 10.584,22.062 23.691,22.062"
         style="fill:#000000;fill-opacity:1;fill-rule:nonzero;stroke:none"
         id="path30"
         inkscape:connector-curvature="0" />
    </g>
    <g
       id="g32"
       transform="matrix(1.25,0,0,-1.25,277.36767,406.8504)"
       style="fill:#000000">
      <path
         d="M 0,0 C 4.233,0 8.223,3.094 8.223,10.34 8.223,15.387 5.536,20.354 0,20.354 -4.396,20.354 -8.223,16.771 -8.223,10.34 -8.223,4.07 -4.885,0 0,0 m -3.257,32.239 c 3.745,0 8.223,-0.57 10.991,-3.338 l 0.162,0 c 0,0 -0.081,0.815 -0.081,1.872 l 0,16.772 14.084,0 0,-58.21 -13.188,0 0,2.768 c 0,1.302 0.081,2.361 0.081,2.361 l -0.162,0 c -2.606,-3.989 -7.165,-6.106 -12.131,-6.106 -11.397,0 -18.888,8.955 -18.888,21.982 0,13.269 7.979,21.899 19.132,21.899"
         style="fill:#000000;fill-opacity:1;fill-rule:nonzero;stroke:none"
         id="path34"
         inkscape:connector-curvature="0" />
    </g>
    <g
       id="g36"
       transform="matrix(1.25,0,0,-1.25,331.20187,408.2749)"
       style="fill:#000000">
      <path
         d="m 0,0 c 4.07,0 7.164,3.989 7.164,7.408 l 0,1.14 -1.303,0 c -4.314,0 -9.85,-1.14 -9.85,-4.966 C -3.989,1.628 -2.605,0 0,0 m 5.78,16.607 1.221,0 0,0.734 c 0,3.501 -2.849,4.64 -5.942,4.64 -4.071,0 -8.223,-1.791 -11.561,-3.989 l -4.885,9.932 c 3.582,2.768 10.909,5.455 17.748,5.455 11.561,0 18.725,-6.432 18.725,-17.097 l 0,-25.807 -12.863,0 0,2.523 c 0,1.384 0.163,2.606 0.163,2.606 l -0.163,0 c -2.768,-3.909 -7.653,-6.106 -12.456,-6.106 -8.06,0 -13.678,5.536 -13.678,12.781 0,11.236 13.351,14.328 23.691,14.328"
         style="fill:#000000;fill-opacity:1;fill-rule:nonzero;stroke:none"
         id="path38"
         inkscape:connector-curvature="0" />
    </g>
    <path
       d="m 386.25777,347.4189 17.1975,0 0,13.73875 -17.1975,0 0,-13.73875 z m -0.20375,20.3525 17.605,0 0,52.41 -17.605,0 0,-52.41 z"
       style="fill:#000000;fill-opacity:1;fill-rule:nonzero;stroke:none"
       id="path40"
       inkscape:connector-curvature="0" />
    <g
       id="g42"
       transform="matrix(1.25,0,0,-1.25,436.63037,406.8504)"
       style="fill:#000000">
      <path
         d="M 0,0 C 4.233,0 8.223,3.094 8.223,10.34 8.223,15.387 5.536,20.354 0,20.354 -4.396,20.354 -8.223,16.771 -8.223,10.34 -8.223,4.07 -4.885,0 0,0 m -3.257,32.239 c 3.745,0 8.223,-0.57 10.991,-3.338 l 0.162,0 c 0,0 -0.081,0.815 -0.081,1.872 l 0,16.772 14.085,0 0,-58.21 -13.189,0 0,2.768 c 0,1.302 0.082,2.361 0.082,2.361 l -0.163,0 c -2.606,-3.989 -7.164,-6.106 -12.131,-6.106 -11.397,0 -18.888,8.955 -18.888,21.982 0,13.269 7.979,21.899 19.132,21.899"
         style="fill:#000000;fill-opacity:1;fill-rule:nonzero;stroke:none"
         id="path44"
         inkscape:connector-curvature="0" />
    </g>
    <g
       id="g46"
       transform="matrix(1.25,0,0,-1.25,502.88037,387.31177)"
       style="fill:#000000">
      <path
         d="M 0,0 C 0,3.42 -2.198,6.27 -5.78,6.27 -9.851,6.27 -11.805,3.338 -12.537,0 L 0,0 Z m -5.454,16.608 c 12.374,0 19.376,-8.629 19.376,-20.271 0,-1.466 -0.163,-2.931 -0.326,-4.397 l -26.459,0 c 1.058,-5.128 5.292,-7.49 9.769,-7.49 4.153,0 8.142,1.954 11.561,4.234 l 5.211,-9.851 c -4.56,-3.908 -11.48,-6.105 -17.911,-6.105 -14.98,0 -23.04,10.827 -23.04,21.981 0,12.293 8.304,21.899 21.819,21.899"
         style="fill:#000000;fill-opacity:1;fill-rule:nonzero;stroke:none"
         id="path48"
         inkscape:connector-curvature="0" />
    </g>
    <g
       id="g50"
       transform="matrix(1.25,0,0,-1.25,544.09487,408.2749)"
       style="fill:#000000">
      <path
         d="m 0,0 c 4.07,0 7.164,3.989 7.164,7.408 l 0,1.14 -1.303,0 c -4.314,0 -9.85,-1.14 -9.85,-4.966 C -3.989,1.628 -2.605,0 0,0 m 5.78,16.607 1.222,0 0,0.734 c 0,3.501 -2.85,4.64 -5.943,4.64 -4.071,0 -8.223,-1.791 -11.561,-3.989 l -4.885,9.932 c 3.582,2.768 10.909,5.455 17.748,5.455 11.561,0 18.725,-6.432 18.725,-17.097 l 0,-25.807 -12.863,0 0,2.523 c 0,1.384 0.163,2.606 0.163,2.606 l -0.163,0 c -2.768,-3.909 -7.653,-6.106 -12.456,-6.106 -8.06,0 -13.678,5.536 -13.678,12.781 0,11.236 13.351,14.328 23.691,14.328"
         style="fill:#000000;fill-opacity:1;fill-rule:nonzero;stroke:none"
         id="path52"
         inkscape:connector-curvature="0" />
    </g>
    <g
       id="g54"
       transform="matrix(1.25,0,0,-1.25,385.66227,480.22565)"
       style="fill:#ffffff">
      <path
         d="m 0,0 c 0.733,3.339 2.687,6.27 6.758,6.27 3.582,0 5.78,-2.85 5.78,-6.27 L 0,0 Z m 26.459,-3.663 c 0,11.642 -7.001,20.271 -19.376,20.271 -13.515,0 -21.818,-9.605 -21.818,-21.899 0,-11.153 8.059,-21.981 23.04,-21.981 6.431,0 13.351,2.198 17.91,6.106 l -5.21,9.851 c -3.419,-2.28 -7.409,-4.234 -11.561,-4.234 -4.477,0 -8.711,2.361 -9.769,7.489 l 26.459,0 c 0.163,1.466 0.325,2.932 0.325,4.397"
         style="fill:#ffffff;fill-opacity:1;fill-rule:nonzero;stroke:none"
         id="path56"
         inkscape:connector-curvature="0" />
    </g>
    <g
       id="g58"
       transform="matrix(1.25,0,0,-1.25,457.40677,459.46515)"
       style="fill:#ffffff">
      <path
         d="m 0,0 c -7.408,0 -11.397,-3.989 -13.352,-7.245 l -0.163,0 c 0,0 0.163,1.222 0.163,2.605 l 0,3.663 -13.514,0 0,-41.927 14.084,0 0,18.969 c 0,5.944 2.849,11.154 9.118,11.154 3.094,0 4.641,-1.629 4.641,-5.536 l 0,-24.587 14.085,0 0,27.192 C 15.062,-3.907 8.467,0 0,0"
         style="fill:#ffffff;fill-opacity:1;fill-rule:nonzero;stroke:none"
         id="path60"
         inkscape:connector-curvature="0" />
    </g>
    <g
       id="g62"
       transform="matrix(1.25,0,0,-1.25,520.29857,480.22565)"
       style="fill:#ffffff">
      <path
         d="m 0,0 c 0.732,3.339 2.687,6.27 6.757,6.27 3.582,0 5.78,-2.85 5.78,-6.27 L 0,0 Z m 26.459,-3.663 c 0,11.642 -7.002,20.271 -19.376,20.271 -13.515,0 -21.819,-9.605 -21.819,-21.899 0,-11.153 8.06,-21.981 23.04,-21.981 6.431,0 13.351,2.198 17.911,6.106 l -5.21,9.851 c -3.42,-2.28 -7.409,-4.234 -11.561,-4.234 -4.478,0 -8.712,2.361 -9.77,7.489 l 26.459,0 c 0.163,1.466 0.326,2.932 0.326,4.397"
         style="fill:#ffffff;fill-opacity:1;fill-rule:nonzero;stroke:none"
         id="path64"
         inkscape:connector-curvature="0" />
    </g>
    <g
       id="g66"
       transform="matrix(1.25,0,0,-1.25,583.69827,499.76415)"
       style="fill:#ffffff">
      <path
         d="m 0,0 c -4.885,0 -8.223,4.07 -8.223,10.34 0,6.431 3.827,10.014 8.223,10.014 5.536,0 8.223,-4.966 8.223,-10.014 C 8.223,3.094 4.233,0 0,0 m 8.711,30.041 c 0,-1.384 0.163,-2.279 0.163,-2.279 l -0.163,0 c -2.931,3.257 -7.734,4.477 -11.968,4.477 -11.153,0 -19.132,-8.629 -19.132,-21.899 0,-13.027 7.491,-21.982 18.888,-21.982 3.908,0 8.467,1.384 11.316,4.722 l 0.164,0 c 0,0 -0.164,-1.465 -0.164,-3.582 l 0,-16.445 14.085,0 0,58.21 -13.189,0 0,-1.222 z"
         style="fill:#ffffff;fill-opacity:1;fill-rule:nonzero;stroke:none"
         id="path68"
         inkscape:connector-curvature="0" />
    </g>
    <g
       id="g70"
       transform="matrix(1.25,0,0,-1.25,652.59357,483.8889)"
       style="fill:#ffffff">
      <path
         d="m 0,0 c 0,-6.268 -2.849,-11.561 -8.874,-11.561 -2.931,0 -4.478,1.629 -4.478,5.537 l 0,24.586 -14.084,0 0,-27.192 c 0,-11.804 6.595,-15.712 14.899,-15.712 5.617,0 10.828,2.768 13.107,7.246 l 0.163,0 c 0,0 -0.163,-1.221 -0.163,-2.605 l 0,-3.664 13.515,0 0,41.927 L 0,18.562 0,0 Z"
         style="fill:#ffffff;fill-opacity:1;fill-rule:nonzero;stroke:none"
         id="path72"
         inkscape:connector-curvature="0" />
    </g>
    <path
       d="m 677.93277,513.09515 17.60625,0 0,-52.41 -17.60625,0 0,52.41 z"
       style="fill:#ffffff;fill-opacity:1;fill-rule:nonzero;stroke:none"
       id="path74"
       inkscape:connector-curvature="0" />
    <path
       d="m 695.33527,440.3314 -17.19875,0 0,13.73875 17.19875,0 0,-13.73875 z"
       style="fill:#ffffff;fill-opacity:1;fill-rule:nonzero;stroke:none"
       id="path76"
       inkscape:connector-curvature="0" />
    <g
       id="g78"
       transform="matrix(1.25,0,0,-1.25,730.64657,499.76415)"
       style="fill:#ffffff">
      <path
         d="m 0,0 c -5.536,0 -8.223,4.967 -8.223,10.015 0,7.245 3.99,10.339 8.223,10.339 4.885,0 8.223,-4.071 8.223,-10.339 C 8.223,3.583 4.396,0 0,0 m 3.501,32.239 c -5.048,0 -9.851,-1.953 -12.7,-5.78 l -0.163,0 c 0,0 0.163,1.303 0.163,2.687 l 0,2.117 -12.7,0 0,-58.21 14.084,0 0,15.713 c 0,2.117 -0.164,3.582 -0.164,3.582 l 0.164,0 c 3.011,-2.606 6.756,-3.99 10.665,-3.99 11.153,0 19.539,8.63 19.539,21.9 0,13.026 -7.491,21.981 -18.888,21.981"
         style="fill:#ffffff;fill-opacity:1;fill-rule:nonzero;stroke:none"
         id="path80"
         inkscape:connector-curvature="0" />
    </g>
    <g
       id="g82"
       transform="matrix(1.25,0,0,-1.25,790.38397,499.66165)"
       style="fill:#ffffff">
      <path
         d="m 0,0 c -5.129,0 -9.525,3.826 -9.525,10.095 0,6.35 4.396,10.34 9.525,10.34 5.129,0 9.525,-3.99 9.525,-10.34 C 9.525,3.826 5.129,0 0,0 m -0.082,32.157 c -13.107,0 -23.69,-8.873 -23.69,-22.062 0,-13.108 10.583,-21.819 23.772,-21.819 13.188,0 23.772,8.711 23.772,21.819 0,13.189 -10.584,22.062 -23.854,22.062"
         style="fill:#ffffff;fill-opacity:1;fill-rule:nonzero;stroke:none"
         id="path84"
         inkscape:connector-curvature="0" />
    </g>
    <g
       id="g86"
       transform="matrix(1.25,0,0,-1.25,167.66187,459.46515)"
       style="fill:#ffffff">
      <path
         d="m 0,0 c -7.408,0 -11.397,-3.989 -13.352,-7.245 l -0.163,0 c 0,0 0.163,1.221 0.163,2.605 l 0,3.663 -13.514,0 0,-41.927 14.085,0 0,18.969 c 0,5.944 2.849,11.154 9.118,11.154 3.094,0 4.64,-1.629 4.64,-5.536 l 0,-24.587 14.085,0 0,27.192 C 15.062,-3.907 8.467,0 0,0"
         style="fill:#ffffff;fill-opacity:1;fill-rule:nonzero;stroke:none"
         id="path88"
         inkscape:connector-curvature="0" />
    </g>
    <g
       id="g90"
       transform="matrix(1.25,0,0,-1.25,221.39477,491.92852)"
       style="fill:#ffffff">
      <path
         d="m 0,0 c 0,-3.419 -3.094,-7.408 -7.164,-7.408 -2.606,0 -3.99,1.628 -3.99,3.583 0,3.825 5.536,4.966 9.851,4.966 L 0,1.141 0,0 Z m -4.804,25.971 c -6.839,0 -14.166,-2.687 -17.748,-5.454 l 4.885,-9.933 c 3.338,2.198 7.49,3.989 11.561,3.989 3.093,0 5.943,-1.139 5.943,-4.64 l 0,-0.733 -1.221,0 c -10.34,0 -23.691,-3.094 -23.691,-14.329 0,-7.245 5.617,-12.781 13.677,-12.781 4.803,0 9.688,2.198 12.456,6.106 l 0.163,0 c 0,0 -0.163,-1.221 -0.163,-2.606 l 0,-2.524 12.863,0 0,25.809 c 0,10.665 -7.164,17.096 -18.725,17.096"
         style="fill:#ffffff;fill-opacity:1;fill-rule:nonzero;stroke:none"
         id="path92"
         inkscape:connector-curvature="0" />
    </g>
    <g
       id="g94"
       transform="matrix(1.25,0,0,-1.25,273.90577,499.66165)"
       style="fill:#ffffff">
      <path
         d="m 0,0 c -7.083,0 -10.503,5.454 -10.503,10.421 0,4.966 3.339,10.014 10.015,10.014 3.663,0 7.408,-1.71 9.85,-4.071 l 5.944,9.444 c -4.153,4.477 -10.828,6.349 -16.69,6.349 -15.061,0 -23.366,-10.665 -23.366,-21.899 0,-11.561 8.386,-21.982 23.366,-21.982 7.001,0 13.84,2.687 17.992,6.92 L 11.479,5.048 C 8.467,2.442 4.07,0 0,0"
         style="fill:#ffffff;fill-opacity:1;fill-rule:nonzero;stroke:none"
         id="path96"
         inkscape:connector-curvature="0" />
    </g>
    <g
       id="g98"
       transform="matrix(1.25,0,0,-1.25,312.47507,480.2244)"
       style="fill:#ffffff">
      <path
         d="m 0,0 c 0.732,3.338 2.687,6.269 6.757,6.269 3.582,0 5.78,-2.85 5.78,-6.269 L 0,0 Z m 26.459,-3.664 c 0,11.643 -7.002,20.271 -19.376,20.271 -13.515,0 -21.819,-9.606 -21.819,-21.899 0,-11.153 8.06,-21.981 23.04,-21.981 6.431,0 13.351,2.198 17.911,6.106 l -5.211,9.851 c -3.419,-2.28 -7.408,-4.234 -11.561,-4.234 -4.477,0 -8.711,2.362 -9.769,7.489 l 26.459,0 c 0.163,1.466 0.326,2.932 0.326,4.397"
         style="fill:#ffffff;fill-opacity:1;fill-rule:nonzero;stroke:none"
         id="path100"
         inkscape:connector-curvature="0" />
    </g>
    <g
       id="Layer_4"
       style="fill:#000000"
       transform="matrix(0.85837473,-0.21557321,0.21557321,0.85837473,-399.03077,436.417)">
      <path
         d="m 419.591,71.912 -15.801,0.105 7.522,-58.139 8.279,58.034 z m -30.578,2.251 -14.342,6.642 -17.232,-56.031 31.574,49.389 z m 61.428,9.743 -14.193,-6.948 32.627,-48.698 -18.434,55.646 z m -100.71,60.121 c 0.441,41.224 31.625,61.551 62.329,61.35 22.251,-0.146 45.13,-9.957 53.594,-35.198 4.06,-11.755 3.986,-23.312 3.215,-35.385 l -57.093,0.375 0.174,26.735 25.7,-0.166 c -5.441,11.592 -13.359,14.922 -25.776,15.003 -18.287,0.12 -30.099,-12.915 -30.229,-32.922 -0.121,-18.456 10.304,-33.706 29.793,-33.833 12.245,-0.082 20.207,4.009 25.279,14.322 l 30.359,-0.195 C 461.02,94.137 435.579,81.711 411.252,81.697 c -30.701,0.2 -61.615,21.101 -61.521,62.33 M 362.08,85.278 344.597,28.434 c -2.202,-7.159 1.813,-14.752 8.971,-16.959 5.999,-1.847 12.501,0.68 15.678,6.072 l 23.296,36.443 5.457,-42.197 c 0.958,-7.391 7.811,-12.645 15.195,-11.678 6.093,0.803 10.925,5.669 11.68,11.757 l 6.77,47.446 26.082,-38.931 c 4.145,-6.188 12.607,-7.875 18.803,-3.734 5.251,3.506 7.382,10.19 5.15,16.073 l -18.255,55.109 c -0.029,0.077 -0.049,0.15 -0.078,0.228 8.825,8.93 14.403,20.033 17.012,32.412 0.266,1.062 0.401,2.159 0.404,3.255 0.005,1.132 -0.132,2.255 -0.403,3.347 1.261,1.938 2.011,4.178 2.16,6.528 0.414,6.539 0.62,13.053 0.181,19.595 -0.477,7.141 -1.731,14.081 -4.048,20.86 l -0.037,0.101 c -4.535,13.534 -12.921,24.859 -24.885,32.715 -12.24,8.038 -26.942,11.637 -41.485,11.734 -20.086,0.13 -40.111,-7.136 -54.522,-21.32 -14.418,-14.19 -21.068,-32.872 -21.403,-52.89 -0.013,-0.232 -0.019,-0.465 -0.02,-0.693 -0.045,-20.16 6.398,-39.273 20.704,-53.766 1.615,-1.639 3.31,-3.192 5.076,-4.663"
         id="path5"
         style="clip-rule:evenodd;fill:#000000;fill-rule:evenodd"
         inkscape:connector-curvature="0" />
    </g>
    <g
       id="Layer_3"
       style="fill:#000000"
       transform="matrix(0.8850305,0,0,0.8850305,-379.30589,345.19973)">
      <path
         d="m 110.112,58.536 c 14.476,0 26.213,11.736 26.213,26.213 0,14.476 -11.737,26.213 -26.213,26.213 -14.477,0 -26.213,-11.737 -26.213,-26.213 0,-14.477 11.736,-26.213 26.213,-26.213"
         id="path8"
         style="clip-rule:evenodd;fill:#000000;fill-rule:evenodd"
         inkscape:connector-curvature="0" />
      <path
         d="m 0,0 36.863,0.024 27.826,63.72 c -2.481,5.826 -3.855,12.237 -3.855,18.969 0,21.005 13.367,38.887 32.057,45.611 l 16.401,37.559 16.402,-37.557 c 18.692,-6.722 32.06,-24.605 32.06,-45.612 0,-6.732 -1.374,-13.143 -3.855,-18.97 L 181.727,0.025 218.59,0 l -92.933,218.589 -32.725,0 L 0,0 Z"
         id="path10"
         style="fill:#000000"
         inkscape:connector-curvature="0" />
      <g
         id="g12"
         style="fill:#000000">
        <path
           d="m 243.354,91.115 12.979,0 0,36.961 5.606,0 0,-31.147 2.906,1.765 0,29.382 27.41,0 0,12.979 -35.923,0 0,34.677 -12.979,0 0,-26.164 -30.42,0 -1.869,-2.906 32.289,0 0,-5.606 -35.715,0 0,-12.979 35.715,0 0,-36.962 z m 21.491,58.453 0,36.962 -13.496,0 -2.284,-2.389 12.874,0 0,-37.479 36.338,0 0,-12.874 2.388,2.284 0,13.496 -35.82,0 z"
           id="path14-3"
           style="fill:#000000"
           inkscape:connector-curvature="0" />
      </g>
    </g>
  </g>
</svg>
