<?xml version="1.0" encoding="UTF-8" standalone="no"?>
<!-- Generator: Adobe Illustrator 17.0.0, SVG Export Plug-In . SVG Version: 6.00 Build 0)  -->

<svg
   xmlns:dc="http://purl.org/dc/elements/1.1/"
   xmlns:cc="http://creativecommons.org/ns#"
   xmlns:rdf="http://www.w3.org/1999/02/22-rdf-syntax-ns#"
   xmlns:svg="http://www.w3.org/2000/svg"
   xmlns="http://www.w3.org/2000/svg"
   xmlns:sodipodi="http://sodipodi.sourceforge.net/DTD/sodipodi-0.dtd"
   xmlns:inkscape="http://www.inkscape.org/namespaces/inkscape"
   version="1.1"
   x="0px"
   y="0px"
   width="484.60059"
   height="218.589"
   viewBox="0 0 484.60059 218.58901"
   enable-background="new 0 0 482.943 218.611"
   xml:space="preserve"
   id="svg2"
   inkscape:version="0.91 r13725"
   sodipodi:docname="v-g.svg"><metadata
     id="metadata20"><rdf:RDF><cc:Work
         rdf:about=""><dc:format>image/svg+xml</dc:format><dc:type
           rdf:resource="http://purl.org/dc/dcmitype/StillImage" /><dc:title></dc:title></cc:Work></rdf:RDF></metadata><defs
     id="defs18" /><sodipodi:namedview
     pagecolor="#ffffff"
     bordercolor="#666666"
     borderopacity="1"
     objecttolerance="10"
     gridtolerance="10"
     guidetolerance="10"
     inkscape:pageopacity="0"
     inkscape:pageshadow="2"
     inkscape:window-width="1366"
     inkscape:window-height="747"
     id="namedview16"
     showgrid="false"
     fit-margin-top="0"
     fit-margin-left="0"
     fit-margin-right="0"
     fit-margin-bottom="0"
     inkscape:zoom="0.95967812"
     inkscape:cx="130.53736"
     inkscape:cy="179.34862"
     inkscape:window-x="0"
     inkscape:window-y="21"
     inkscape:window-maximized="1"
     inkscape:current-layer="svg2" /><g
     id="Layer_4"
     style="fill:#ffffff"
     transform="matrix(0.96988152,-0.24357715,0.24357715,0.96988152,-22.287237,103.06681)"><path
       d="m 419.591,71.912 -15.801,0.105 7.522,-58.139 8.279,58.034 z m -30.578,2.251 -14.342,6.642 -17.232,-56.031 31.574,49.389 z m 61.428,9.743 -14.193,-6.948 32.627,-48.698 -18.434,55.646 z m -100.71,60.121 c 0.441,41.224 31.625,61.551 62.329,61.35 22.251,-0.146 45.13,-9.957 53.594,-35.198 4.06,-11.755 3.986,-23.312 3.215,-35.385 l -57.093,0.375 0.174,26.735 25.7,-0.166 c -5.441,11.592 -13.359,14.922 -25.776,15.003 -18.287,0.12 -30.099,-12.915 -30.229,-32.922 -0.121,-18.456 10.304,-33.706 29.793,-33.833 12.245,-0.082 20.207,4.009 25.279,14.322 l 30.359,-0.195 C 461.02,94.137 435.579,81.711 411.252,81.697 c -30.701,0.2 -61.615,21.101 -61.521,62.33 M 362.08,85.278 344.597,28.434 c -2.202,-7.159 1.813,-14.752 8.971,-16.959 5.999,-1.847 12.501,0.68 15.678,6.072 l 23.296,36.443 5.457,-42.197 c 0.958,-7.391 7.811,-12.645 15.195,-11.678 6.093,0.803 10.925,5.669 11.68,11.757 l 6.77,47.446 26.082,-38.931 c 4.145,-6.188 12.607,-7.875 18.803,-3.734 5.251,3.506 7.382,10.19 5.15,16.073 l -18.255,55.109 c -0.029,0.077 -0.049,0.15 -0.078,0.228 8.825,8.93 14.403,20.033 17.012,32.412 0.266,1.062 0.401,2.159 0.404,3.255 0.005,1.132 -0.132,2.255 -0.403,3.347 1.261,1.938 2.011,4.178 2.16,6.528 0.414,6.539 0.62,13.053 0.181,19.595 -0.477,7.141 -1.731,14.081 -4.048,20.86 l -0.037,0.101 c -4.535,13.534 -12.921,24.859 -24.885,32.715 -12.24,8.038 -26.942,11.637 -41.485,11.734 -20.086,0.13 -40.111,-7.136 -54.522,-21.32 -14.418,-14.19 -21.068,-32.872 -21.403,-52.89 -0.013,-0.232 -0.019,-0.465 -0.02,-0.693 -0.045,-20.16 6.398,-39.273 20.704,-53.766 1.615,-1.639 3.31,-3.192 5.076,-4.663"
       id="path5"
       style="clip-rule:evenodd;fill:#ffffff;fill-rule:evenodd"
       inkscape:connector-curvature="0" /></g><g
     id="Layer_3"
     style="fill:#ffffff"><path
       d="m 110.112,58.536 c 14.476,0 26.213,11.736 26.213,26.213 0,14.476 -11.737,26.213 -26.213,26.213 -14.477,0 -26.213,-11.737 -26.213,-26.213 0,-14.477 11.736,-26.213 26.213,-26.213"
       id="path8"
       style="clip-rule:evenodd;fill:#ffffff;fill-rule:evenodd"
       inkscape:connector-curvature="0" /><path
       d="m 0,0 36.863,0.024 27.826,63.72 c -2.481,5.826 -3.855,12.237 -3.855,18.969 0,21.005 13.367,38.887 32.057,45.611 l 16.401,37.559 16.402,-37.557 c 18.692,-6.722 32.06,-24.605 32.06,-45.612 0,-6.732 -1.374,-13.143 -3.855,-18.97 L 181.727,0.025 218.59,0 l -92.933,218.589 -32.725,0 L 0,0 Z"
       id="path10"
       style="fill:#ffffff"
       inkscape:connector-curvature="0" /><g
       id="g12"
       style="fill:#ffffff"><path
         d="m 243.354,91.115 12.979,0 0,36.961 5.606,0 0,-31.147 2.906,1.765 0,29.382 27.41,0 0,12.979 -35.923,0 0,34.677 -12.979,0 0,-26.164 -30.42,0 -1.869,-2.906 32.289,0 0,-5.606 -35.715,0 0,-12.979 35.715,0 0,-36.962 z m 21.491,58.453 0,36.962 -13.496,0 -2.284,-2.389 12.874,0 0,-37.479 36.338,0 0,-12.874 2.388,2.284 0,13.496 -35.82,0 z"
         id="path14"
         style="fill:#ffffff"
         inkscape:connector-curvature="0" /></g></g></svg>
